<?xml version="1.0" encoding="utf-8" standalone="no"?>
<!DOCTYPE svg PUBLIC "-//W3C//DTD SVG 1.1//EN"
  "http://www.w3.org/Graphics/SVG/1.1/DTD/svg11.dtd">
<!-- Created with matplotlib (https://matplotlib.org/) -->
<svg height="351.795312pt" version="1.1" viewBox="0 0 423.105387 351.795312" width="423.105387pt" xmlns="http://www.w3.org/2000/svg" xmlns:xlink="http://www.w3.org/1999/xlink">
 <defs>
  <style type="text/css">
*{stroke-linecap:butt;stroke-linejoin:round;}
  </style>
 </defs>
 <g id="figure_1">
  <g id="patch_1">
   <path d="M 0 351.795312 
L 423.105387 351.795312 
L 423.105387 0 
L 0 0 
z
" style="fill:#ffffff;"/>
  </g>
  <g id="axes_1">
   <g id="patch_2">
    <path d="M 76.56875 297.884062 
L 411.36875 297.884062 
L 411.36875 26.084062 
L 76.56875 26.084062 
z
" style="fill:#ffffff;"/>
   </g>
   <g id="PathCollection_1">
    <defs>
     <path d="M 0 -3.535534 
L -3.535534 3.535534 
L 3.535534 3.535534 
z
" id="m0d37f06382" style="stroke:#ffa500;"/>
    </defs>
    <g clip-path="url(#p7907eeb2c1)">
     <use style="fill:#ffa500;stroke:#ffa500;" x="199.563206" xlink:href="#m0d37f06382" y="137.952667"/>
    </g>
   </g>
   <g id="matplotlib.axis_1">
    <g id="xtick_1">
     <g id="line2d_1">
      <defs>
       <path d="M 0 0 
L 0 3.5 
" id="ma0accc0633" style="stroke:#000000;stroke-width:0.8;"/>
      </defs>
      <g>
       <use style="stroke:#000000;stroke-width:0.8;" x="88.656755" xlink:href="#ma0accc0633" y="297.884062"/>
      </g>
     </g>
     <g id="text_1">
      <!-- 0.0 -->
      <defs>
       <path d="M 31.78125 66.40625 
Q 24.171875 66.40625 20.328125 58.90625 
Q 16.5 51.421875 16.5 36.375 
Q 16.5 21.390625 20.328125 13.890625 
Q 24.171875 6.390625 31.78125 6.390625 
Q 39.453125 6.390625 43.28125 13.890625 
Q 47.125 21.390625 47.125 36.375 
Q 47.125 51.421875 43.28125 58.90625 
Q 39.453125 66.40625 31.78125 66.40625 
z
M 31.78125 74.21875 
Q 44.046875 74.21875 50.515625 64.515625 
Q 56.984375 54.828125 56.984375 36.375 
Q 56.984375 17.96875 50.515625 8.265625 
Q 44.046875 -1.421875 31.78125 -1.421875 
Q 19.53125 -1.421875 13.0625 8.265625 
Q 6.59375 17.96875 6.59375 36.375 
Q 6.59375 54.828125 13.0625 64.515625 
Q 19.53125 74.21875 31.78125 74.21875 
z
" id="DejaVuSans-48"/>
       <path d="M 10.6875 12.40625 
L 21 12.40625 
L 21 0 
L 10.6875 0 
z
" id="DejaVuSans-46"/>
      </defs>
      <g transform="translate(74.343943 318.56125)scale(0.18 -0.18)">
       <use xlink:href="#DejaVuSans-48"/>
       <use x="63.623047" xlink:href="#DejaVuSans-46"/>
       <use x="95.410156" xlink:href="#DejaVuSans-48"/>
      </g>
     </g>
    </g>
    <g id="xtick_2">
     <g id="line2d_2">
      <g>
       <use style="stroke:#000000;stroke-width:0.8;" x="151.243919" xlink:href="#ma0accc0633" y="297.884062"/>
      </g>
     </g>
     <g id="text_2">
      <!-- 0.2 -->
      <defs>
       <path d="M 19.1875 8.296875 
L 53.609375 8.296875 
L 53.609375 0 
L 7.328125 0 
L 7.328125 8.296875 
Q 12.9375 14.109375 22.625 23.890625 
Q 32.328125 33.6875 34.8125 36.53125 
Q 39.546875 41.84375 41.421875 45.53125 
Q 43.3125 49.21875 43.3125 52.78125 
Q 43.3125 58.59375 39.234375 62.25 
Q 35.15625 65.921875 28.609375 65.921875 
Q 23.96875 65.921875 18.8125 64.3125 
Q 13.671875 62.703125 7.8125 59.421875 
L 7.8125 69.390625 
Q 13.765625 71.78125 18.9375 73 
Q 24.125 74.21875 28.421875 74.21875 
Q 39.75 74.21875 46.484375 68.546875 
Q 53.21875 62.890625 53.21875 53.421875 
Q 53.21875 48.921875 51.53125 44.890625 
Q 49.859375 40.875 45.40625 35.40625 
Q 44.1875 33.984375 37.640625 27.21875 
Q 31.109375 20.453125 19.1875 8.296875 
z
" id="DejaVuSans-50"/>
      </defs>
      <g transform="translate(136.931107 318.56125)scale(0.18 -0.18)">
       <use xlink:href="#DejaVuSans-48"/>
       <use x="63.623047" xlink:href="#DejaVuSans-46"/>
       <use x="95.410156" xlink:href="#DejaVuSans-50"/>
      </g>
     </g>
    </g>
    <g id="xtick_3">
     <g id="line2d_3">
      <g>
       <use style="stroke:#000000;stroke-width:0.8;" x="213.831083" xlink:href="#ma0accc0633" y="297.884062"/>
      </g>
     </g>
     <g id="text_3">
      <!-- 0.4 -->
      <defs>
       <path d="M 37.796875 64.3125 
L 12.890625 25.390625 
L 37.796875 25.390625 
z
M 35.203125 72.90625 
L 47.609375 72.90625 
L 47.609375 25.390625 
L 58.015625 25.390625 
L 58.015625 17.1875 
L 47.609375 17.1875 
L 47.609375 0 
L 37.796875 0 
L 37.796875 17.1875 
L 4.890625 17.1875 
L 4.890625 26.703125 
z
" id="DejaVuSans-52"/>
      </defs>
      <g transform="translate(199.51827 318.56125)scale(0.18 -0.18)">
       <use xlink:href="#DejaVuSans-48"/>
       <use x="63.623047" xlink:href="#DejaVuSans-46"/>
       <use x="95.410156" xlink:href="#DejaVuSans-52"/>
      </g>
     </g>
    </g>
    <g id="xtick_4">
     <g id="line2d_4">
      <g>
       <use style="stroke:#000000;stroke-width:0.8;" x="276.418247" xlink:href="#ma0accc0633" y="297.884062"/>
      </g>
     </g>
     <g id="text_4">
      <!-- 0.6 -->
      <defs>
       <path d="M 33.015625 40.375 
Q 26.375 40.375 22.484375 35.828125 
Q 18.609375 31.296875 18.609375 23.390625 
Q 18.609375 15.53125 22.484375 10.953125 
Q 26.375 6.390625 33.015625 6.390625 
Q 39.65625 6.390625 43.53125 10.953125 
Q 47.40625 15.53125 47.40625 23.390625 
Q 47.40625 31.296875 43.53125 35.828125 
Q 39.65625 40.375 33.015625 40.375 
z
M 52.59375 71.296875 
L 52.59375 62.3125 
Q 48.875 64.0625 45.09375 64.984375 
Q 41.3125 65.921875 37.59375 65.921875 
Q 27.828125 65.921875 22.671875 59.328125 
Q 17.53125 52.734375 16.796875 39.40625 
Q 19.671875 43.65625 24.015625 45.921875 
Q 28.375 48.1875 33.59375 48.1875 
Q 44.578125 48.1875 50.953125 41.515625 
Q 57.328125 34.859375 57.328125 23.390625 
Q 57.328125 12.15625 50.6875 5.359375 
Q 44.046875 -1.421875 33.015625 -1.421875 
Q 20.359375 -1.421875 13.671875 8.265625 
Q 6.984375 17.96875 6.984375 36.375 
Q 6.984375 53.65625 15.1875 63.9375 
Q 23.390625 74.21875 37.203125 74.21875 
Q 40.921875 74.21875 44.703125 73.484375 
Q 48.484375 72.75 52.59375 71.296875 
z
" id="DejaVuSans-54"/>
      </defs>
      <g transform="translate(262.105434 318.56125)scale(0.18 -0.18)">
       <use xlink:href="#DejaVuSans-48"/>
       <use x="63.623047" xlink:href="#DejaVuSans-46"/>
       <use x="95.410156" xlink:href="#DejaVuSans-54"/>
      </g>
     </g>
    </g>
    <g id="xtick_5">
     <g id="line2d_5">
      <g>
       <use style="stroke:#000000;stroke-width:0.8;" x="339.005411" xlink:href="#ma0accc0633" y="297.884062"/>
      </g>
     </g>
     <g id="text_5">
      <!-- 0.8 -->
      <defs>
       <path d="M 31.78125 34.625 
Q 24.75 34.625 20.71875 30.859375 
Q 16.703125 27.09375 16.703125 20.515625 
Q 16.703125 13.921875 20.71875 10.15625 
Q 24.75 6.390625 31.78125 6.390625 
Q 38.8125 6.390625 42.859375 10.171875 
Q 46.921875 13.96875 46.921875 20.515625 
Q 46.921875 27.09375 42.890625 30.859375 
Q 38.875 34.625 31.78125 34.625 
z
M 21.921875 38.8125 
Q 15.578125 40.375 12.03125 44.71875 
Q 8.5 49.078125 8.5 55.328125 
Q 8.5 64.0625 14.71875 69.140625 
Q 20.953125 74.21875 31.78125 74.21875 
Q 42.671875 74.21875 48.875 69.140625 
Q 55.078125 64.0625 55.078125 55.328125 
Q 55.078125 49.078125 51.53125 44.71875 
Q 48 40.375 41.703125 38.8125 
Q 48.828125 37.15625 52.796875 32.3125 
Q 56.78125 27.484375 56.78125 20.515625 
Q 56.78125 9.90625 50.3125 4.234375 
Q 43.84375 -1.421875 31.78125 -1.421875 
Q 19.734375 -1.421875 13.25 4.234375 
Q 6.78125 9.90625 6.78125 20.515625 
Q 6.78125 27.484375 10.78125 32.3125 
Q 14.796875 37.15625 21.921875 38.8125 
z
M 18.3125 54.390625 
Q 18.3125 48.734375 21.84375 45.5625 
Q 25.390625 42.390625 31.78125 42.390625 
Q 38.140625 42.390625 41.71875 45.5625 
Q 45.3125 48.734375 45.3125 54.390625 
Q 45.3125 60.0625 41.71875 63.234375 
Q 38.140625 66.40625 31.78125 66.40625 
Q 25.390625 66.40625 21.84375 63.234375 
Q 18.3125 60.0625 18.3125 54.390625 
z
" id="DejaVuSans-56"/>
      </defs>
      <g transform="translate(324.692598 318.56125)scale(0.18 -0.18)">
       <use xlink:href="#DejaVuSans-48"/>
       <use x="63.623047" xlink:href="#DejaVuSans-46"/>
       <use x="95.410156" xlink:href="#DejaVuSans-56"/>
      </g>
     </g>
    </g>
    <g id="xtick_6">
     <g id="line2d_6">
      <g>
       <use style="stroke:#000000;stroke-width:0.8;" x="401.592574" xlink:href="#ma0accc0633" y="297.884062"/>
      </g>
     </g>
     <g id="text_6">
      <!-- 1.0 -->
      <defs>
       <path d="M 12.40625 8.296875 
L 28.515625 8.296875 
L 28.515625 63.921875 
L 10.984375 60.40625 
L 10.984375 69.390625 
L 28.421875 72.90625 
L 38.28125 72.90625 
L 38.28125 8.296875 
L 54.390625 8.296875 
L 54.390625 0 
L 12.40625 0 
z
" id="DejaVuSans-49"/>
      </defs>
      <g transform="translate(387.279762 318.56125)scale(0.18 -0.18)">
       <use xlink:href="#DejaVuSans-49"/>
       <use x="63.623047" xlink:href="#DejaVuSans-46"/>
       <use x="95.410156" xlink:href="#DejaVuSans-48"/>
      </g>
     </g>
    </g>
    <g id="text_7">
     <!-- Recall -->
     <defs>
      <path d="M 7.859375 0 
L 7.859375 71.578125 
L 39.59375 71.578125 
Q 49.171875 71.578125 54.140625 69.640625 
Q 59.125 67.71875 62.109375 62.828125 
Q 65.09375 57.953125 65.09375 52.046875 
Q 65.09375 44.4375 60.15625 39.203125 
Q 55.21875 33.984375 44.921875 32.5625 
Q 48.6875 30.765625 50.640625 29 
Q 54.78125 25.203125 58.5 19.484375 
L 70.953125 0 
L 59.03125 0 
L 49.5625 14.890625 
Q 45.40625 21.34375 42.71875 24.75 
Q 40.046875 28.171875 37.921875 29.53125 
Q 35.796875 30.90625 33.59375 31.453125 
Q 31.984375 31.78125 28.328125 31.78125 
L 17.328125 31.78125 
L 17.328125 0 
z
M 17.328125 39.984375 
L 37.703125 39.984375 
Q 44.1875 39.984375 47.84375 41.328125 
Q 51.515625 42.671875 53.421875 45.625 
Q 55.328125 48.578125 55.328125 52.046875 
Q 55.328125 57.125 51.640625 60.390625 
Q 47.953125 63.671875 39.984375 63.671875 
L 17.328125 63.671875 
z
" id="ArialMT-82"/>
      <path d="M 42.09375 16.703125 
L 51.171875 15.578125 
Q 49.03125 7.625 43.21875 3.21875 
Q 37.40625 -1.171875 28.375 -1.171875 
Q 17 -1.171875 10.328125 5.828125 
Q 3.65625 12.84375 3.65625 25.484375 
Q 3.65625 38.578125 10.390625 45.796875 
Q 17.140625 53.03125 27.875 53.03125 
Q 38.28125 53.03125 44.875 45.953125 
Q 51.46875 38.875 51.46875 26.03125 
Q 51.46875 25.25 51.421875 23.6875 
L 12.75 23.6875 
Q 13.234375 15.140625 17.578125 10.59375 
Q 21.921875 6.0625 28.421875 6.0625 
Q 33.25 6.0625 36.671875 8.59375 
Q 40.09375 11.140625 42.09375 16.703125 
z
M 13.234375 30.90625 
L 42.1875 30.90625 
Q 41.609375 37.453125 38.875 40.71875 
Q 34.671875 45.796875 27.984375 45.796875 
Q 21.921875 45.796875 17.796875 41.75 
Q 13.671875 37.703125 13.234375 30.90625 
z
" id="ArialMT-101"/>
      <path d="M 40.4375 19 
L 49.078125 17.875 
Q 47.65625 8.9375 41.8125 3.875 
Q 35.984375 -1.171875 27.484375 -1.171875 
Q 16.84375 -1.171875 10.375 5.78125 
Q 3.90625 12.75 3.90625 25.734375 
Q 3.90625 34.125 6.6875 40.421875 
Q 9.46875 46.734375 15.15625 49.875 
Q 20.84375 53.03125 27.546875 53.03125 
Q 35.984375 53.03125 41.359375 48.75 
Q 46.734375 44.484375 48.25 36.625 
L 39.703125 35.296875 
Q 38.484375 40.53125 35.375 43.15625 
Q 32.28125 45.796875 27.875 45.796875 
Q 21.234375 45.796875 17.078125 41.03125 
Q 12.9375 36.28125 12.9375 25.984375 
Q 12.9375 15.53125 16.9375 10.796875 
Q 20.953125 6.0625 27.390625 6.0625 
Q 32.5625 6.0625 36.03125 9.234375 
Q 39.5 12.40625 40.4375 19 
z
" id="ArialMT-99"/>
      <path d="M 40.4375 6.390625 
Q 35.546875 2.25 31.03125 0.53125 
Q 26.515625 -1.171875 21.34375 -1.171875 
Q 12.796875 -1.171875 8.203125 3 
Q 3.609375 7.171875 3.609375 13.671875 
Q 3.609375 17.484375 5.34375 20.625 
Q 7.078125 23.78125 9.890625 25.6875 
Q 12.703125 27.59375 16.21875 28.5625 
Q 18.796875 29.25 24.03125 29.890625 
Q 34.671875 31.15625 39.703125 32.90625 
Q 39.75 34.71875 39.75 35.203125 
Q 39.75 40.578125 37.25 42.78125 
Q 33.890625 45.75 27.25 45.75 
Q 21.046875 45.75 18.09375 43.578125 
Q 15.140625 41.40625 13.71875 35.890625 
L 5.125 37.0625 
Q 6.296875 42.578125 8.984375 45.96875 
Q 11.671875 49.359375 16.75 51.1875 
Q 21.828125 53.03125 28.515625 53.03125 
Q 35.15625 53.03125 39.296875 51.46875 
Q 43.453125 49.90625 45.40625 47.53125 
Q 47.359375 45.171875 48.140625 41.546875 
Q 48.578125 39.3125 48.578125 33.453125 
L 48.578125 21.734375 
Q 48.578125 9.46875 49.140625 6.21875 
Q 49.703125 2.984375 51.375 0 
L 42.1875 0 
Q 40.828125 2.734375 40.4375 6.390625 
z
M 39.703125 26.03125 
Q 34.90625 24.078125 25.34375 22.703125 
Q 19.921875 21.921875 17.671875 20.9375 
Q 15.4375 19.96875 14.203125 18.09375 
Q 12.984375 16.21875 12.984375 13.921875 
Q 12.984375 10.40625 15.640625 8.0625 
Q 18.3125 5.71875 23.4375 5.71875 
Q 28.515625 5.71875 32.46875 7.9375 
Q 36.421875 10.15625 38.28125 14.015625 
Q 39.703125 17 39.703125 22.796875 
z
" id="ArialMT-97"/>
      <path d="M 6.390625 0 
L 6.390625 71.578125 
L 15.1875 71.578125 
L 15.1875 0 
z
" id="ArialMT-108"/>
     </defs>
     <g transform="translate(216.18125 340.620312)scale(0.2 -0.2)">
      <use xlink:href="#ArialMT-82"/>
      <use x="72.216797" xlink:href="#ArialMT-101"/>
      <use x="127.832031" xlink:href="#ArialMT-99"/>
      <use x="177.832031" xlink:href="#ArialMT-97"/>
      <use x="233.447266" xlink:href="#ArialMT-108"/>
      <use x="255.664062" xlink:href="#ArialMT-108"/>
     </g>
    </g>
   </g>
   <g id="matplotlib.axis_2">
    <g id="ytick_1">
     <g id="line2d_7">
      <defs>
       <path d="M 0 0 
L -3.5 0 
" id="ma06d7f46a0" style="stroke:#000000;stroke-width:0.8;"/>
      </defs>
      <g>
       <use style="stroke:#000000;stroke-width:0.8;" x="76.56875" xlink:href="#ma06d7f46a0" y="290.839197"/>
      </g>
     </g>
     <g id="text_8">
      <!-- 0.00 -->
      <g transform="translate(29.490625 297.67779)scale(0.18 -0.18)">
       <use xlink:href="#DejaVuSans-48"/>
       <use x="63.623047" xlink:href="#DejaVuSans-46"/>
       <use x="95.410156" xlink:href="#DejaVuSans-48"/>
       <use x="159.033203" xlink:href="#DejaVuSans-48"/>
      </g>
     </g>
    </g>
    <g id="ytick_2">
     <g id="line2d_8">
      <g>
       <use style="stroke:#000000;stroke-width:0.8;" x="76.56875" xlink:href="#ma06d7f46a0" y="224.650413"/>
      </g>
     </g>
     <g id="text_9">
      <!-- 0.15 -->
      <defs>
       <path d="M 10.796875 72.90625 
L 49.515625 72.90625 
L 49.515625 64.59375 
L 19.828125 64.59375 
L 19.828125 46.734375 
Q 21.96875 47.46875 24.109375 47.828125 
Q 26.265625 48.1875 28.421875 48.1875 
Q 40.625 48.1875 47.75 41.5 
Q 54.890625 34.8125 54.890625 23.390625 
Q 54.890625 11.625 47.5625 5.09375 
Q 40.234375 -1.421875 26.90625 -1.421875 
Q 22.3125 -1.421875 17.546875 -0.640625 
Q 12.796875 0.140625 7.71875 1.703125 
L 7.71875 11.625 
Q 12.109375 9.234375 16.796875 8.0625 
Q 21.484375 6.890625 26.703125 6.890625 
Q 35.15625 6.890625 40.078125 11.328125 
Q 45.015625 15.765625 45.015625 23.390625 
Q 45.015625 31 40.078125 35.4375 
Q 35.15625 39.890625 26.703125 39.890625 
Q 22.75 39.890625 18.8125 39.015625 
Q 14.890625 38.140625 10.796875 36.28125 
z
" id="DejaVuSans-53"/>
      </defs>
      <g transform="translate(29.490625 231.489007)scale(0.18 -0.18)">
       <use xlink:href="#DejaVuSans-48"/>
       <use x="63.623047" xlink:href="#DejaVuSans-46"/>
       <use x="95.410156" xlink:href="#DejaVuSans-49"/>
       <use x="159.033203" xlink:href="#DejaVuSans-53"/>
      </g>
     </g>
    </g>
    <g id="ytick_3">
     <g id="line2d_9">
      <g>
       <use style="stroke:#000000;stroke-width:0.8;" x="76.56875" xlink:href="#ma06d7f46a0" y="158.46163"/>
      </g>
     </g>
     <g id="text_10">
      <!-- 0.30 -->
      <defs>
       <path d="M 40.578125 39.3125 
Q 47.65625 37.796875 51.625 33 
Q 55.609375 28.21875 55.609375 21.1875 
Q 55.609375 10.40625 48.1875 4.484375 
Q 40.765625 -1.421875 27.09375 -1.421875 
Q 22.515625 -1.421875 17.65625 -0.515625 
Q 12.796875 0.390625 7.625 2.203125 
L 7.625 11.71875 
Q 11.71875 9.328125 16.59375 8.109375 
Q 21.484375 6.890625 26.8125 6.890625 
Q 36.078125 6.890625 40.9375 10.546875 
Q 45.796875 14.203125 45.796875 21.1875 
Q 45.796875 27.640625 41.28125 31.265625 
Q 36.765625 34.90625 28.71875 34.90625 
L 20.21875 34.90625 
L 20.21875 43.015625 
L 29.109375 43.015625 
Q 36.375 43.015625 40.234375 45.921875 
Q 44.09375 48.828125 44.09375 54.296875 
Q 44.09375 59.90625 40.109375 62.90625 
Q 36.140625 65.921875 28.71875 65.921875 
Q 24.65625 65.921875 20.015625 65.03125 
Q 15.375 64.15625 9.8125 62.3125 
L 9.8125 71.09375 
Q 15.4375 72.65625 20.34375 73.4375 
Q 25.25 74.21875 29.59375 74.21875 
Q 40.828125 74.21875 47.359375 69.109375 
Q 53.90625 64.015625 53.90625 55.328125 
Q 53.90625 49.265625 50.4375 45.09375 
Q 46.96875 40.921875 40.578125 39.3125 
z
" id="DejaVuSans-51"/>
      </defs>
      <g transform="translate(29.490625 165.300223)scale(0.18 -0.18)">
       <use xlink:href="#DejaVuSans-48"/>
       <use x="63.623047" xlink:href="#DejaVuSans-46"/>
       <use x="95.410156" xlink:href="#DejaVuSans-51"/>
       <use x="159.033203" xlink:href="#DejaVuSans-48"/>
      </g>
     </g>
    </g>
    <g id="ytick_4">
     <g id="line2d_10">
      <g>
       <use style="stroke:#000000;stroke-width:0.8;" x="76.56875" xlink:href="#ma06d7f46a0" y="92.272846"/>
      </g>
     </g>
     <g id="text_11">
      <!-- 0.45 -->
      <g transform="translate(29.490625 99.11144)scale(0.18 -0.18)">
       <use xlink:href="#DejaVuSans-48"/>
       <use x="63.623047" xlink:href="#DejaVuSans-46"/>
       <use x="95.410156" xlink:href="#DejaVuSans-52"/>
       <use x="159.033203" xlink:href="#DejaVuSans-53"/>
      </g>
     </g>
    </g>
    <g id="ytick_5">
     <g id="line2d_11">
      <g>
       <use style="stroke:#000000;stroke-width:0.8;" x="76.56875" xlink:href="#ma06d7f46a0" y="26.084062"/>
      </g>
     </g>
     <g id="text_12">
      <!-- 0.60 -->
      <g transform="translate(29.490625 32.922656)scale(0.18 -0.18)">
       <use xlink:href="#DejaVuSans-48"/>
       <use x="63.623047" xlink:href="#DejaVuSans-46"/>
       <use x="95.410156" xlink:href="#DejaVuSans-54"/>
       <use x="159.033203" xlink:href="#DejaVuSans-48"/>
      </g>
     </g>
    </g>
    <g id="text_13">
     <!-- Precision -->
     <defs>
      <path d="M 7.71875 0 
L 7.71875 71.578125 
L 34.71875 71.578125 
Q 41.84375 71.578125 45.609375 70.90625 
Q 50.875 70.015625 54.4375 67.546875 
Q 58.015625 65.09375 60.1875 60.640625 
Q 62.359375 56.203125 62.359375 50.875 
Q 62.359375 41.75 56.546875 35.421875 
Q 50.734375 29.109375 35.546875 29.109375 
L 17.1875 29.109375 
L 17.1875 0 
z
M 17.1875 37.546875 
L 35.6875 37.546875 
Q 44.875 37.546875 48.734375 40.96875 
Q 52.59375 44.390625 52.59375 50.59375 
Q 52.59375 55.078125 50.3125 58.265625 
Q 48.046875 61.46875 44.34375 62.5 
Q 41.9375 63.140625 35.5 63.140625 
L 17.1875 63.140625 
z
" id="ArialMT-80"/>
      <path d="M 6.5 0 
L 6.5 51.859375 
L 14.40625 51.859375 
L 14.40625 44 
Q 17.4375 49.515625 20 51.265625 
Q 22.5625 53.03125 25.640625 53.03125 
Q 30.078125 53.03125 34.671875 50.203125 
L 31.640625 42.046875 
Q 28.421875 43.953125 25.203125 43.953125 
Q 22.3125 43.953125 20.015625 42.21875 
Q 17.71875 40.484375 16.75 37.40625 
Q 15.28125 32.71875 15.28125 27.15625 
L 15.28125 0 
z
" id="ArialMT-114"/>
      <path d="M 6.640625 61.46875 
L 6.640625 71.578125 
L 15.4375 71.578125 
L 15.4375 61.46875 
z
M 6.640625 0 
L 6.640625 51.859375 
L 15.4375 51.859375 
L 15.4375 0 
z
" id="ArialMT-105"/>
      <path d="M 3.078125 15.484375 
L 11.765625 16.84375 
Q 12.5 11.625 15.84375 8.84375 
Q 19.1875 6.0625 25.203125 6.0625 
Q 31.25 6.0625 34.171875 8.515625 
Q 37.109375 10.984375 37.109375 14.3125 
Q 37.109375 17.28125 34.515625 19 
Q 32.71875 20.171875 25.53125 21.96875 
Q 15.875 24.421875 12.140625 26.203125 
Q 8.40625 27.984375 6.46875 31.125 
Q 4.546875 34.28125 4.546875 38.09375 
Q 4.546875 41.546875 6.125 44.5 
Q 7.71875 47.46875 10.453125 49.421875 
Q 12.5 50.921875 16.03125 51.96875 
Q 19.578125 53.03125 23.640625 53.03125 
Q 29.734375 53.03125 34.34375 51.265625 
Q 38.96875 49.515625 41.15625 46.5 
Q 43.359375 43.5 44.1875 38.484375 
L 35.59375 37.3125 
Q 35.015625 41.3125 32.203125 43.546875 
Q 29.390625 45.796875 24.265625 45.796875 
Q 18.21875 45.796875 15.625 43.796875 
Q 13.03125 41.796875 13.03125 39.109375 
Q 13.03125 37.40625 14.109375 36.03125 
Q 15.1875 34.625 17.484375 33.6875 
Q 18.796875 33.203125 25.25 31.453125 
Q 34.578125 28.953125 38.25 27.359375 
Q 41.9375 25.78125 44.03125 22.75 
Q 46.140625 19.734375 46.140625 15.234375 
Q 46.140625 10.84375 43.578125 6.953125 
Q 41.015625 3.078125 36.171875 0.953125 
Q 31.34375 -1.171875 25.25 -1.171875 
Q 15.140625 -1.171875 9.84375 3.03125 
Q 4.546875 7.234375 3.078125 15.484375 
z
" id="ArialMT-115"/>
      <path d="M 3.328125 25.921875 
Q 3.328125 40.328125 11.328125 47.265625 
Q 18.015625 53.03125 27.640625 53.03125 
Q 38.328125 53.03125 45.109375 46.015625 
Q 51.90625 39.015625 51.90625 26.65625 
Q 51.90625 16.65625 48.90625 10.90625 
Q 45.90625 5.171875 40.15625 2 
Q 34.421875 -1.171875 27.640625 -1.171875 
Q 16.75 -1.171875 10.03125 5.8125 
Q 3.328125 12.796875 3.328125 25.921875 
z
M 12.359375 25.921875 
Q 12.359375 15.96875 16.703125 11.015625 
Q 21.046875 6.0625 27.640625 6.0625 
Q 34.1875 6.0625 38.53125 11.03125 
Q 42.875 16.015625 42.875 26.21875 
Q 42.875 35.84375 38.5 40.796875 
Q 34.125 45.75 27.640625 45.75 
Q 21.046875 45.75 16.703125 40.8125 
Q 12.359375 35.890625 12.359375 25.921875 
z
" id="ArialMT-111"/>
      <path d="M 6.59375 0 
L 6.59375 51.859375 
L 14.5 51.859375 
L 14.5 44.484375 
Q 20.21875 53.03125 31 53.03125 
Q 35.6875 53.03125 39.625 51.34375 
Q 43.5625 49.65625 45.515625 46.921875 
Q 47.46875 44.1875 48.25 40.4375 
Q 48.734375 37.984375 48.734375 31.890625 
L 48.734375 0 
L 39.9375 0 
L 39.9375 31.546875 
Q 39.9375 36.921875 38.90625 39.578125 
Q 37.890625 42.234375 35.28125 43.8125 
Q 32.671875 45.40625 29.15625 45.40625 
Q 23.53125 45.40625 19.453125 41.84375 
Q 15.375 38.28125 15.375 28.328125 
L 15.375 0 
z
" id="ArialMT-110"/>
     </defs>
     <g transform="translate(21.515625 203.110625)rotate(-90)scale(0.2 -0.2)">
      <use xlink:href="#ArialMT-80"/>
      <use x="66.699219" xlink:href="#ArialMT-114"/>
      <use x="100" xlink:href="#ArialMT-101"/>
      <use x="155.615234" xlink:href="#ArialMT-99"/>
      <use x="205.615234" xlink:href="#ArialMT-105"/>
      <use x="227.832031" xlink:href="#ArialMT-115"/>
      <use x="277.832031" xlink:href="#ArialMT-105"/>
      <use x="300.048828" xlink:href="#ArialMT-111"/>
      <use x="355.664062" xlink:href="#ArialMT-110"/>
     </g>
    </g>
   </g>
   <g id="line2d_12">
    <path clip-path="url(#p7907eeb2c1)" d="M 92.605279 226.758759 
L 93.873716 220.819948 
L 94.998943 219.29623 
L 95.858207 219.261772 
L 98.313248 214.937579 
L 99.745355 213.839152 
L 100.829664 212.676398 
L 101.586635 213.929266 
L 102.875531 213.532744 
L 104.062134 212.566477 
L 105.432865 211.939934 
L 108.051575 210.146081 
L 108.808545 211.626571 
L 109.770103 212.325605 
L 110.89533 212.298497 
L 111.856887 212.872976 
L 112.593399 213.552892 
L 113.411746 214.477232 
L 114.414221 214.87249 
L 115.314403 215.414836 
L 116.091832 216.022187 
L 116.685133 217.098745 
L 117.748984 217.17523 
L 118.505955 217.953854 
L 119.303843 218.455785 
L 121.226958 218.922364 
L 121.902094 219.583591 
L 124.091172 219.399692 
L 124.848143 220.03771 
L 125.789242 220.158385 
L 126.607588 220.669062 
L 127.241807 221.418639 
L 127.957861 221.772327 
L 129.737765 222.270308 
L 130.515194 222.599211 
L 131.210789 223.243247 
L 132.172347 223.321971 
L 133.481702 222.941346 
L 134.177296 223.180159 
L 135.302523 223.236085 
L 136.059494 223.545306 
L 136.918758 223.539207 
L 137.634812 223.835963 
L 138.371324 223.981839 
L 139.107836 224.334882 
L 140.74453 224.785323 
L 141.685628 224.627423 
L 142.176636 225.087751 
L 143.485991 225.597393 
L 144.754429 226.316428 
L 145.450024 226.598912 
L 145.756904 227.216082 
L 146.329747 227.416575 
L 147.189011 227.50499 
L 148.027816 227.44023 
L 148.477907 227.783776 
L 151.178451 228.507397 
L 152.11955 228.417451 
L 153.306153 228.949403 
L 153.960831 229.090082 
L 154.349545 229.531541 
L 155.474772 229.293653 
L 155.843028 229.680545 
L 156.313578 229.923227 
L 158.911829 230.4694 
L 159.280085 230.7704 
L 160.405312 230.99567 
L 162.389803 232.048223 
L 162.860352 232.221287 
L 163.617323 232.260524 
L 164.558422 232.708764 
L 167.463553 233.470223 
L 168.977494 234.036092 
L 169.754924 234.567516 
L 170.327767 235.158827 
L 173.437485 236.397865 
L 174.521794 236.556517 
L 175.524269 237.114822 
L 177.958851 237.36185 
L 178.265731 237.590561 
L 180.516184 237.839065 
L 181.232238 237.846947 
L 182.643886 238.673942 
L 183.175812 238.756663 
L 183.421316 238.960684 
L 184.198745 239.229362 
L 184.42379 239.469322 
L 185.774063 239.791153 
L 186.040025 239.942843 
L 186.203695 240.191127 
L 187.881306 240.625588 
L 188.474607 240.693609 
L 190.213594 241.494581 
L 190.684143 241.568963 
L 192.136709 242.2756 
L 193.118725 242.369482 
L 193.425605 242.515057 
L 195.798811 242.811117 
L 196.064774 242.997153 
L 196.555782 243.090056 
L 196.780827 243.247281 
L 197.762843 243.407437 
L 199.092657 243.83269 
L 200.074673 244.028107 
L 200.381553 244.136617 
L 200.913479 244.127918 
L 206.764658 246.285009 
L 206.969245 246.429976 
L 207.726216 246.571868 
L 208.830984 246.750869 
L 209.813 246.974072 
L 210.876851 247.217177 
L 212.390793 247.463522 
L 212.534003 247.62054 
L 214.007028 247.862974 
L 214.641246 248.011119 
L 216.625737 248.574863 
L 217.321332 248.833973 
L 217.894175 248.936184 
L 218.364724 249.295103 
L 218.958026 249.420604 
L 219.101236 249.547302 
L 219.837749 249.751952 
L 220.267381 249.931639 
L 221.801781 250.517508 
L 222.681504 250.710304 
L 224.154528 251.179879 
L 224.543243 251.33043 
L 226.057184 251.568916 
L 226.998283 251.844576 
L 228.266721 252.416009 
L 229.166902 252.5542 
L 229.82158 252.752081 
L 230.394422 252.831447 
L 230.701302 253.003644 
L 231.683319 253.232514 
L 232.89038 253.640258 
L 233.135884 253.688002 
L 233.831479 253.75847 
L 234.036066 253.82981 
L 234.649826 253.906345 
L 234.956706 254.056077 
L 238.57789 254.973908 
L 239.375779 255.209443 
L 239.744035 255.444381 
L 242.28091 256.167397 
L 242.342286 256.257401 
L 244.531363 256.817916 
L 244.654115 256.887325 
L 245.390628 256.936399 
L 245.533838 257.000783 
L 246.597689 257.146675 
L 246.781817 257.215478 
L 247.477412 257.334466 
L 248.725391 257.627008 
L 249.564196 257.930062 
L 250.73034 258.310626 
L 251.569146 258.464325 
L 253.635472 259.078789 
L 254.57657 259.211533 
L 255.497211 259.633144 
L 255.742715 259.904318 
L 258.320507 260.650217 
L 258.381883 260.717077 
L 261.184721 261.147802 
L 261.491601 261.304492 
L 262.698663 261.662951 
L 265.97205 262.467314 
L 266.626727 262.620474 
L 267.117735 262.735998 
L 267.751954 262.884519 
L 269.695528 263.24709 
L 269.96149 263.334636 
L 274.216894 264.152069 
L 274.257811 264.207628 
L 274.707902 264.320525 
L 274.953406 264.414756 
L 277.183401 264.878171 
L 277.244777 264.930427 
L 277.81762 265.089877 
L 278.799636 265.374701 
L 279.004223 265.461702 
L 279.556607 265.682118 
L 282.073023 266.132021 
L 282.113941 266.184618 
L 282.58449 266.350523 
L 282.932287 266.430789 
L 283.648341 266.678182 
L 283.832469 266.76752 
L 295.637122 269.790822 
L 296.189506 269.894725 
L 299.258306 270.485402 
L 301.079128 271.032493 
L 302.490776 271.323966 
L 302.981784 271.484552 
L 304.168387 271.822637 
L 305.805081 272.086971 
L 305.825539 272.136649 
L 307.257646 272.51865 
L 307.298564 272.563793 
L 307.994158 272.760123 
L 308.689753 273.00968 
L 309.855897 273.225736 
L 311.001583 273.488485 
L 311.799471 273.688148 
L 313.231578 273.936119 
L 315.031941 274.265282 
L 315.911664 274.459258 
L 317.261936 274.686777 
L 317.793861 274.919548 
L 319.573766 275.275812 
L 322.867612 275.978177 
L 324.074673 276.174969 
L 324.442929 276.320176 
L 334.304008 278.453212 
L 334.73364 278.613637 
L 335.183731 278.781475 
L 336.718131 279.082218 
L 337.618313 279.232827 
L 341.19858 279.87978 
L 342.998943 280.217824 
L 344.43105 280.444258 
L 353.96479 281.947544 
L 353.96479 281.947544 
" style="fill:none;stroke:#ff0000;stroke-linecap:square;stroke-width:1.5;"/>
   </g>
   <g id="line2d_13">
    <path clip-path="url(#p7907eeb2c1)" d="M 91.786932 281.829113 
L 91.80739 281.914345 
L 92.27794 281.582024 
L 92.318857 281.742654 
L 92.359775 281.695774 
L 92.543903 281.601743 
L 92.564361 281.797207 
L 92.666655 281.763994 
L 92.8917 281.504447 
L 93.157663 282.007602 
L 93.219039 281.965479 
L 93.689588 281.649423 
L 93.730505 281.741082 
L 93.791881 282.09692 
L 93.853258 282.055523 
L 94.221514 281.959178 
L 94.753439 282.117052 
L 94.917108 282.08611 
L 95.080778 282.437839 
L 95.305823 282.29328 
L 95.735455 282.19882 
L 95.940042 282.160299 
L 96.185546 282.018819 
L 96.206005 282.065857 
L 96.267381 282.06028 
L 96.594719 281.901615 
L 96.697013 282.017168 
L 96.860682 282.053026 
L 97.003893 282.051073 
L 97.085727 282.028567 
L 97.106186 282.136662 
L 97.310773 282.217442 
L 97.904074 282.377935 
L 98.333706 282.443907 
L 98.374624 282.481027 
L 98.701962 282.450381 
L 98.927008 282.519817 
L 99.643061 282.601552 
L 99.745355 282.720998 
L 99.888565 282.736887 
L 100.297739 282.682873 
L 100.625077 282.864398 
L 100.645536 282.967256 
L 101.013792 282.913653 
L 102.548192 283.312894 
L 104.246262 283.351911 
L 104.532683 283.409247 
L 105.35103 283.335613 
L 107.110476 283.204731 
L 107.171852 283.302365 
L 110.076983 283.630507 
L 110.649826 283.682717 
L 111.795511 283.856456 
L 112.470647 283.890995 
L 113.268536 284.021657 
L 114.557432 284.130014 
L 115.703117 284.235803 
L 116.398712 284.296314 
L 116.685133 284.337678 
L 118.505955 284.476253 
L 119.958521 284.496058 
L 133.583995 284.832404 
L 136.550502 284.80804 
L 137.34839 284.863553 
L 142.954066 284.921321 
L 144.447549 285.008829 
L 151.301203 285.123209 
L 181.109486 285.44412 
L 185.20122 285.489419 
L 192.198085 285.583535 
L 206.764658 285.683119 
L 218.487476 285.88697 
L 234.220194 285.987204 
L 267.485991 286.362578 
L 377.103546 287.37778 
L 386.903249 287.504584 
L 386.903249 287.504584 
" style="fill:none;stroke:#008000;stroke-linecap:square;stroke-width:1.5;"/>
   </g>
   <g id="line2d_14">
    <path clip-path="url(#p7907eeb2c1)" d="M 91.889225 234.157203 
L 92.011977 234.036682 
L 92.114271 234.173014 
L 92.298399 233.591366 
L 92.421151 235.606833 
L 92.564361 235.464437 
L 92.687113 239.034706 
L 92.789407 238.986824 
L 92.932617 238.38013 
L 93.116745 238.101058 
L 93.464543 237.470303 
L 93.587295 237.826578 
L 94.016927 242.608182 
L 94.528394 242.686647 
L 94.651146 243.842193 
L 95.142154 242.951842 
L 95.367199 242.401176 
L 95.469492 242.882571 
L 95.571786 245.032872 
L 95.65362 246.005439 
L 96.206005 244.895515 
L 96.390133 245.053928 
L 96.717471 244.52703 
L 96.881141 244.740979 
L 97.228938 244.174044 
L 97.453983 244.219742 
L 98.190496 242.996831 
L 98.558752 243.672867 
L 98.824714 243.656429 
L 99.213429 243.99916 
L 99.602144 245.692261 
L 99.888565 245.634691 
L 100.052235 246.119215 
L 100.27728 246.273965 
L 100.727371 245.719171 
L 101.218379 245.661149 
L 101.586635 245.293646 
L 101.873056 245.296294 
L 102.343606 245.604447 
L 102.711862 245.573461 
L 102.834614 246.171919 
L 103.427915 246.318699 
L 104.471307 246.310102 
L 104.921398 246.065674 
L 105.207819 246.183433 
L 105.944332 246.206269 
L 106.496716 246.571196 
L 106.844513 246.503883 
L 107.151393 246.620403 
L 107.560567 246.54075 
L 107.846988 246.73685 
L 108.747169 246.309765 
L 109.176801 246.210545 
L 109.422306 246.477327 
L 109.749644 246.532849 
L 109.872396 247.030185 
L 110.342946 246.91638 
L 110.711202 246.953531 
L 111.120375 247.190377 
L 111.652301 246.978689 
L 112.12285 246.942964 
L 112.920738 247.082286 
L 113.800461 247.051811 
L 114.025506 247.472262 
L 114.43468 247.615549 
L 114.802936 247.905932 
L 115.764493 247.588154 
L 116.685133 247.729718 
L 117.339811 248.156397 
L 117.851278 248.105843 
L 118.219534 248.191975 
L 119.262926 247.935076 
L 119.835769 248.242247 
L 120.265401 248.434241 
L 120.879161 248.236228 
L 121.165582 248.42948 
L 122.945487 248.711635 
L 123.334201 248.940521 
L 123.886585 248.874916 
L 125.236858 249.189495 
L 125.993828 248.959907 
L 126.484836 248.981662 
L 127.610063 249.564016 
L 128.203365 249.563959 
L 129.553637 249.359025 
L 131.906384 249.886497 
L 132.295099 250.138461 
L 134.197755 250.127896 
L 134.647846 250.182207 
L 135.527569 250.003708 
L 137.34839 249.9994 
L 138.555452 250.394641 
L 139.332881 250.308272 
L 139.823889 250.383621 
L 140.192145 250.554683 
L 140.867282 250.506394 
L 141.255996 250.721945 
L 142.442599 250.827168 
L 143.138194 250.778119 
L 143.465533 251.052859 
L 144.161127 250.953328 
L 145.777362 251.161454 
L 146.145619 251.359573 
L 146.677544 251.439623 
L 147.495891 251.39801 
L 148.027816 251.882903 
L 149.19396 251.999203 
L 150.523774 251.999813 
L 151.546707 252.208809 
L 151.853587 252.422926 
L 153.838078 252.357556 
L 154.451839 252.419023 
L 155.924863 252.37836 
L 156.27266 252.549984 
L 157.1933 252.473867 
L 157.745684 252.600336 
L 159.095957 252.61322 
L 159.586965 252.679923 
L 159.955221 252.85604 
L 160.978154 253.041169 
L 161.34641 253.189909 
L 161.980629 253.201264 
L 162.860352 253.470946 
L 164.12879 253.499988 
L 164.497046 253.664853 
L 166.870251 253.911491 
L 168.077313 254.009145 
L 168.527404 254.174089 
L 171.04382 254.071454 
L 181.989209 254.898801 
L 183.400857 255.30247 
L 185.017092 255.516313 
L 190.213594 255.882167 
L 190.725061 255.94391 
L 192.095792 255.960151 
L 193.282395 256.07473 
L 194.632667 256.161374 
L 197.005873 256.332887 
L 197.66055 256.382848 
L 198.990364 256.409563 
L 199.80871 256.404297 
L 200.954396 256.754843 
L 203.327602 256.744626 
L 205.721266 256.950899 
L 208.196765 257.141558 
L 214.027486 258.041976 
L 218.630687 258.278472 
L 218.998943 258.369131 
L 220.021877 258.504944 
L 221.003893 258.655854 
L 224.522784 258.931899 
L 224.993333 259.021293 
L 226.098102 259.115651 
L 229.494241 259.415284 
L 229.801121 259.51467 
L 236.491106 259.920376 
L 244.183566 260.576144 
L 244.551822 260.68296 
L 246.331726 260.761369 
L 247.35466 260.86422 
L 250.239332 261.046756 
L 251.773733 261.16215 
L 254.474277 261.403074 
L 261.941692 262.120212 
L 263.435175 262.24208 
L 269.245437 262.623224 
L 270.923048 262.832211 
L 275.751294 263.244129 
L 279.188351 263.637326 
L 279.863487 263.756066 
L 281.602474 263.9359 
L 283.321002 264.114553 
L 285.34641 264.153115 
L 285.919253 264.26413 
L 288.701632 264.581095 
L 291.50447 264.872797 
L 292.711532 265.020464 
L 295.207489 265.268534 
L 297.642071 265.682612 
L 299.299224 265.934726 
L 301.386008 266.104663 
L 304.147928 266.477611 
L 305.907374 266.608288 
L 307.932782 266.783566 
L 308.792046 266.915272 
L 309.855897 267.049467 
L 311.124335 267.213459 
L 311.881306 267.289493 
L 313.702127 267.417264 
L 315.113776 267.57391 
L 327.573106 269.053579 
L 335.142814 269.830372 
L 336.984094 270.04341 
L 339.316382 270.328157 
L 340.564361 270.52598 
L 346.88609 271.308237 
L 347.315722 271.389237 
L 370.843193 275.0246 
L 373.011812 275.502386 
L 374.484836 275.740955 
L 375.589605 275.906814 
L 378.883451 276.698269 
L 379.947301 277.051531 
L 381.686288 277.377928 
L 382.89335 277.736241 
L 383.834449 277.922015 
L 384.42775 278.080289 
L 385.430225 278.273808 
L 386.73958 278.67646 
L 387.373799 278.881194 
L 389.828839 279.454219 
L 390.974525 279.850084 
L 391.81333 280.122479 
L 392.099751 280.214349 
L 392.713512 280.404123 
L 393.368189 280.594725 
L 394.370664 281.17643 
L 395.148093 281.384368 
L 395.823229 281.664921 
L 395.823229 281.664921 
" style="fill:none;stroke:#0000ff;stroke-linecap:square;stroke-width:1.5;"/>
   </g>
   <g id="line2d_15">
    <path clip-path="url(#p7907eeb2c1)" d="M 91.786932 264.090956 
L 91.991519 263.707871 
L 92.175647 265.111579 
L 92.27794 264.84826 
L 92.339316 264.899765 
L 92.400692 265.549401 
L 92.666655 265.045377 
L 92.728031 265.080777 
L 92.850783 265.22821 
L 92.912159 265.280361 
L 92.993993 265.759622 
L 93.239497 265.338186 
L 93.382708 265.880644 
L 93.464543 265.864302 
L 93.566836 265.696259 
L 93.648671 266.013951 
L 93.935092 265.551612 
L 94.037386 265.956907 
L 94.241972 265.857117 
L 94.28289 266.044325 
L 94.385183 266.009535 
L 94.446559 266.150353 
L 94.610228 265.901104 
L 94.753439 266.279045 
L 94.89665 266.158496 
L 94.998943 266.637117 
L 95.264906 266.056287 
L 95.285364 266.362605 
L 95.571786 266.051862 
L 95.81729 266.037447 
L 95.980959 265.926633 
L 96.12417 266.140627 
L 96.287839 265.882496 
L 96.390133 265.959165 
L 96.512885 266.342553 
L 96.881141 265.981301 
L 96.983434 266.07127 
L 97.228938 266.874539 
L 97.494901 266.855339 
L 97.719946 266.577369 
L 97.985909 266.976068 
L 98.026826 267.229802 
L 98.251872 267.367464 
L 98.313248 267.54493 
L 98.722421 267.497705 
L 98.88609 267.79938 
L 99.520309 268.08861 
L 99.602144 268.215974 
L 99.888565 267.944296 
L 100.011317 268.015478 
L 100.195445 267.977739 
L 100.461408 267.777042 
L 100.563701 267.929965 
L 100.993333 267.988036 
L 101.116085 268.05225 
L 101.402507 267.817332 
L 101.566176 267.866082 
L 101.770763 267.794815 
L 101.97535 268.031787 
L 102.159478 268.042277 
L 102.241312 268.217541 
L 102.548192 268.046153 
L 102.650486 268.142486 
L 102.875531 268.095597 
L 103.141494 268.472998 
L 104.164427 268.415357 
L 104.225803 268.559621 
L 104.675894 268.529811 
L 104.982774 268.673495 
L 105.289654 268.822306 
L 105.576076 268.974557 
L 106.967265 268.735519 
L 107.376439 268.740041 
L 107.642401 268.953149 
L 107.703777 269.126104 
L 107.887905 269.137578 
L 107.96974 269.309939 
L 108.685793 269.250385 
L 109.033591 269.431816 
L 111.284045 269.355134 
L 112.266061 269.679322 
L 112.593399 269.65444 
L 112.961655 269.815929 
L 113.51404 269.774046 
L 113.677709 269.893758 
L 114.905229 269.826104 
L 115.600824 269.746041 
L 115.641741 269.948312 
L 116.337336 270.296829 
L 116.869261 270.340778 
L 117.36027 270.419454 
L 117.585315 270.476297 
L 117.97403 270.435082 
L 118.076323 270.565383 
L 118.526414 270.676531 
L 118.710542 270.776402 
L 119.590265 270.590238 
L 119.938062 270.759903 
L 120.73595 270.657374 
L 121.390628 271.085036 
L 122.331726 271.108366 
L 123.252367 271.361066 
L 124.336676 271.476889 
L 125.461903 271.763764 
L 126.42346 271.846837 
L 126.668964 271.90351 
L 128.101071 271.893723 
L 128.305658 271.989392 
L 129.492261 272.108558 
L 129.676389 272.200884 
L 134.320507 272.296966 
L 134.606929 272.351215 
L 135.322982 272.405946 
L 135.895825 272.524151 
L 136.632337 272.574474 
L 138.26903 272.800863 
L 140.008017 272.8178 
L 141.80838 272.828926 
L 142.954066 272.933013 
L 147.148093 273.473604 
L 149.603134 273.489833 
L 153.387988 273.733386 
L 153.674409 273.781629 
L 155.167892 273.807668 
L 156.927338 273.899928 
L 158.952746 273.952021 
L 159.750634 274.025338 
L 161.162282 274.089303 
L 165.908694 274.462233 
L 168.568321 274.550037 
L 172.394092 274.868278 
L 189.231578 275.387541 
L 190.663685 275.490912 
L 199.154033 275.741177 
L 204.043655 276.086197 
L 209.015112 276.326774 
L 210.11988 276.386668 
L 213.290974 276.542519 
L 218.180596 276.717727 
L 220.042335 276.785275 
L 227.0392 277.086338 
L 237.943672 277.439066 
L 239.253027 277.484658 
L 249.216399 277.854337 
L 251.016762 277.92847 
L 263.066919 278.368398 
L 264.048935 278.434425 
L 278.185876 279.06593 
L 284.180266 279.320033 
L 291.66814 279.720135 
L 304.598019 280.26189 
L 308.444249 280.439251 
L 320.064774 280.979776 
L 326.12054 281.309375 
L 330.662365 281.555334 
L 338.170697 281.955461 
L 372.520804 284.001176 
L 374.934927 284.197009 
L 385.143804 285.016775 
L 385.921233 285.133966 
L 389.931132 285.485805 
L 390.360765 285.576572 
L 392.815805 285.82604 
L 393.756904 285.937631 
L 395.393597 286.165491 
L 396.150568 286.250351 
L 396.150568 286.250351 
" style="fill:none;stroke:#bfbf00;stroke-linecap:square;stroke-width:1.5;"/>
   </g>
   <g id="line2d_16">
    <path clip-path="url(#p7907eeb2c1)" d="M 92.011977 142.850642 
L 92.257481 143.47391 
L 92.502985 140.282738 
L 92.789407 141.535631 
L 93.116745 148.117586 
L 93.382708 148.676398 
L 93.607753 150.333182 
L 93.97601 151.607128 
L 94.364724 150.140754 
L 94.548852 151.647012 
L 94.876191 152.547855 
L 95.264906 152.999241 
L 95.571786 153.882914 
L 95.960501 154.568172 
L 96.165087 156.670273 
L 96.615178 159.306952 
L 97.003893 159.043083 
L 97.249397 160.049787 
L 97.494901 162.645722 
L 97.883616 162.031683 
L 98.313248 161.636939 
L 98.517834 163.634278 
L 98.88609 163.821765 
L 99.19297 165.287729 
L 99.602144 166.130624 
L 99.786272 168.367434 
L 100.072693 169.547436 
L 100.297739 171.27914 
L 100.706912 171.836774 
L 101.075168 172.5858 
L 101.484341 172.50339 
L 101.97535 171.743293 
L 102.404982 171.943547 
L 102.977824 173.483197 
L 103.305163 174.212719 
L 103.714337 174.100772 
L 104.205345 176.500123 
L 104.553142 177.310091 
L 104.921398 177.823555 
L 105.391947 178.077716 
L 105.719286 178.914125 
L 106.046625 179.34402 
L 106.496716 179.470901 
L 107.826529 182.119957 
L 108.235703 182.031044 
L 108.726711 181.665264 
L 109.135884 181.99252 
L 109.606434 181.776015 
L 109.954231 182.373988 
L 110.486156 182.154321 
L 110.813495 182.720867 
L 111.099916 183.508678 
L 111.570466 183.751529 
L 112.143309 183.447884 
L 112.572941 183.909003 
L 114.045965 184.714803 
L 114.659725 184.397818 
L 114.966605 185.14754 
L 115.457613 185.298077 
L 115.907704 185.203611 
L 116.337336 185.655471 
L 117.421646 185.506509 
L 118.158158 186.477242 
L 118.608248 186.443184 
L 119.017422 186.881791 
L 119.365219 187.074651 
L 119.651641 187.881132 
L 120.081273 188.08402 
L 121.738425 188.30793 
L 122.065764 188.774717 
L 122.495396 189.119106 
L 122.925028 189.633106 
L 123.96842 189.695469 
L 124.377593 190.022991 
L 125.768783 190.369381 
L 126.177956 190.533273 
L 126.464378 190.980537 
L 126.934927 191.261973 
L 127.262266 191.737209 
L 128.817125 192.161759 
L 129.226298 192.544912 
L 129.574096 193.107512 
L 130.699323 193.00919 
L 130.985744 193.777326 
L 132.622438 194.783216 
L 132.908859 195.318554 
L 133.318032 195.711068 
L 133.870416 195.792275 
L 134.545553 195.680756 
L 134.995643 195.942631 
L 135.363899 196.354739 
L 136.836924 197.305092 
L 137.143804 197.715173 
L 137.65527 197.907941 
L 138.043985 198.1891 
L 138.514535 198.368038 
L 138.73958 198.954121 
L 139.230588 199.206875 
L 140.724071 199.530714 
L 141.112786 199.884382 
L 142.053884 200.205307 
L 142.401682 200.595037 
L 143.424615 201.160396 
L 143.792871 201.533714 
L 144.795346 201.71049 
L 145.34773 201.745094 
L 145.777362 202.002025 
L 147.107176 203.565005 
L 148.109651 204.564732 
L 148.314238 205.075686 
L 148.784787 205.288771 
L 149.091667 205.739126 
L 152.978814 206.911979 
L 153.285694 207.359991 
L 154.410921 207.542767 
L 155.392937 207.85837 
L 155.679359 208.188366 
L 156.12945 208.373581 
L 156.395412 208.820049 
L 156.804586 209.063729 
L 158.27761 209.508813 
L 158.809535 209.547863 
L 161.2032 210.267474 
L 161.776043 210.290748 
L 162.492096 210.709271 
L 162.819435 210.99283 
L 163.371819 210.972207 
L 163.883286 211.113006 
L 164.599339 211.607747 
L 165.151723 211.697558 
L 167.484012 213.375682 
L 168.363734 214.231945 
L 169.059329 214.208789 
L 170.491436 215.174335 
L 171.023361 215.722624 
L 171.371159 215.921784 
L 171.575746 216.30613 
L 171.944002 216.50486 
L 172.496386 216.565083 
L 176.772248 218.623496 
L 177.263256 218.714397 
L 177.917933 219.136735 
L 178.388483 219.699331 
L 179.20683 219.977821 
L 179.616003 220.124582 
L 180.045635 220.653255 
L 181.641411 220.79204 
L 181.927833 220.99828 
L 183.564526 221.569174 
L 184.096452 221.591024 
L 185.651311 222.577807 
L 186.960666 222.94783 
L 190.049925 224.22906 
L 190.950106 224.386596 
L 191.277445 224.583047 
L 192.791387 224.76076 
L 193.568816 225.101017 
L 194.100741 225.138009 
L 196.044315 225.816705 
L 198.27431 226.308836 
L 200.095132 226.642205 
L 201.281735 227.141062 
L 201.895495 227.15963 
L 203.409436 228.003906 
L 203.614023 228.233605 
L 203.96182 228.376978 
L 204.943837 228.497935 
L 205.884935 229.037976 
L 207.112456 229.371927 
L 207.828509 229.640837 
L 208.2786 229.732693 
L 208.871901 230.06867 
L 209.219699 230.198431 
L 210.754099 230.400588 
L 212.718131 231.23543 
L 214.334366 231.661131 
L 215.66418 232.135847 
L 217.382708 232.732442 
L 217.97601 232.734592 
L 218.221514 232.881456 
L 218.835274 233.128759 
L 219.387658 233.43372 
L 226.364064 235.495851 
L 227.591585 235.739686 
L 229.842038 236.506589 
L 230.987724 237.212927 
L 231.233228 237.376325 
L 232.706252 237.74792 
L 233.524599 238.097023 
L 236.634317 238.992624 
L 237.432205 239.178826 
L 240.214584 239.928977 
L 240.439629 240.051917 
L 241.626232 240.266836 
L 241.892195 240.398487 
L 243.242467 240.57235 
L 243.999438 240.89545 
L 245.492921 241.245482 
L 247.211449 241.761214 
L 248.193465 242.014998 
L 248.684473 242.275424 
L 249.216399 242.486146 
L 251.753274 243.011038 
L 253.226298 243.447028 
L 254.024186 243.586965 
L 254.699323 243.762646 
L 255.783632 243.989169 
L 257.174822 244.29427 
L 258.177296 244.701571 
L 259.916283 245.152426 
L 261.287014 245.495101 
L 261.696188 245.719513 
L 264.089852 246.238992 
L 265.521959 246.649958 
L 268.611218 247.298927 
L 269.470482 247.594096 
L 270.595709 247.799851 
L 271.189011 247.983824 
L 272.007357 248.244231 
L 274.564691 248.961824 
L 275.444414 249.35164 
L 276.405972 249.595081 
L 277.65395 250.153847 
L 278.533673 250.400372 
L 279.024681 250.580432 
L 280.456788 250.929892 
L 281.479722 251.228347 
L 288.046955 252.99862 
L 288.640256 253.132208 
L 290.154198 253.571325 
L 291.074838 253.770735 
L 292.486486 253.991524 
L 293.979969 254.32205 
L 294.532353 254.456019 
L 295.51437 254.633421 
L 295.841708 254.802186 
L 298.194455 255.417049 
L 298.869591 255.726463 
L 299.50381 255.956589 
L 299.994818 256.109518 
L 303.124995 257.029209 
L 305.600494 257.57218 
L 306.950766 257.896781 
L 307.584985 258.092742 
L 309.119385 258.491142 
L 313.252037 259.577426 
L 314.234053 259.722676 
L 315.891205 260.162907 
L 317.098267 260.373514 
L 317.466523 260.517328 
L 319.225968 260.871533 
L 319.982939 261.046221 
L 320.330736 261.184175 
L 325.793201 262.626008 
L 327.450354 262.963799 
L 329.455303 263.533277 
L 330.27365 263.688714 
L 330.907869 263.883159 
L 335.326942 264.787868 
L 338.907209 265.590334 
L 339.541428 265.775143 
L 340.462068 266.023519 
L 341.362249 266.260826 
L 342.998943 266.675662 
L 346.436 267.34985 
L 349.382048 268.047023 
L 350.548192 268.420487 
L 357.054049 269.788757 
L 359.550007 270.542373 
L 364.337336 271.635329 
L 365.135224 271.812646 
L 365.769443 272.003981 
L 366.42412 272.194449 
L 368.838243 272.850651 
L 369.288334 272.984548 
L 376.673914 275.122267 
L 377.083088 275.279259 
L 380.376933 276.408783 
L 381.133904 276.764541 
L 382.525094 277.195667 
L 382.525094 277.195667 
" style="fill:none;stroke:#bf00bf;stroke-linecap:square;stroke-width:1.5;"/>
   </g>
   <g id="line2d_17">
    <path clip-path="url(#p7907eeb2c1)" d="M 91.889225 249.240836 
L 92.011977 248.984712 
L 92.114271 249.340757 
L 92.257481 249.242246 
L 92.380233 248.989766 
L 92.564361 251.874618 
L 92.707572 251.695292 
L 92.768948 252.260262 
L 92.953076 251.937309 
L 93.014452 252.49237 
L 93.341791 251.74898 
L 93.50546 252.671942 
L 93.669129 253.197015 
L 93.791881 253.446929 
L 93.935092 254.536675 
L 94.405642 254.562528 
L 94.569311 254.621155 
L 94.73298 254.526148 
L 94.89665 255.644673 
L 94.958026 256.115733 
L 95.101236 256.271565 
L 95.223988 256.592582 
L 95.449034 256.279668 
L 95.551327 256.638614 
L 95.81729 256.195748 
L 95.980959 256.377904 
L 96.226463 256.168212 
L 96.594719 256.3005 
L 96.942517 255.611577 
L 97.147103 255.589475 
L 97.228938 256.059788 
L 97.453983 256.06896 
L 97.597194 256.201153 
L 97.719946 256.496691 
L 97.904074 256.63428 
L 98.088202 256.599137 
L 98.27233 256.695054 
L 98.497376 256.628145 
L 98.74288 256.672325 
L 98.865632 257.145544 
L 99.111136 256.998116 
L 99.418016 257.346844 
L 99.704437 257.164858 
L 99.929483 257.215429 
L 100.440949 257.085554 
L 100.645536 257.091152 
L 101.300213 256.790278 
L 101.525259 256.733565 
L 101.688928 256.957603 
L 102.404982 257.196611 
L 102.466358 257.637823 
L 102.691403 257.611604 
L 103.20287 258.178897 
L 103.407456 258.272156 
L 103.734795 258.15502 
L 104.164427 258.397491 
L 104.614518 258.494335 
L 104.900939 258.488385 
L 105.085067 258.671187 
L 105.616993 258.815793 
L 106.148918 258.853095 
L 106.57855 259.204652 
L 107.233228 259.078375 
L 107.499191 259.109096 
L 108.501665 259.621867 
L 108.829004 259.592361 
L 109.033591 259.801518 
L 109.708727 260.122443 
L 109.851938 260.324287 
L 110.138359 260.331428 
L 111.447714 259.983504 
L 111.754594 260.049276 
L 111.979639 260.659526 
L 114.332386 261.211061 
L 115.498531 261.09856 
L 115.825869 261.120596 
L 115.96908 261.335031 
L 117.728526 261.485308 
L 118.771918 261.54138 
L 119.528889 261.574521 
L 119.794851 261.724204 
L 120.142649 261.758308 
L 120.347235 261.905128 
L 121.452004 261.921066 
L 122.004388 262.144892 
L 124.704932 262.333328 
L 125.318692 262.495396 
L 125.768783 262.499914 
L 126.443919 262.335557 
L 127.139514 262.454143 
L 127.630522 262.411819 
L 127.855567 262.590628 
L 128.960336 262.752626 
L 130.106021 262.637624 
L 130.862992 262.731734 
L 131.067579 262.934102 
L 131.845008 262.999249 
L 132.765648 263.024284 
L 134.606929 263.071224 
L 134.811515 263.216151 
L 138.228113 263.397857 
L 138.678204 263.388248 
L 138.944167 263.525836 
L 140.130769 263.681503 
L 140.396732 263.794559 
L 142.544893 263.971376 
L 142.790397 264.077865 
L 143.670119 264.120643 
L 145.061309 264.22118 
L 146.084242 264.215531 
L 146.779837 264.357531 
L 148.13011 264.438336 
L 149.398547 264.553675 
L 150.666985 264.466182 
L 153.899455 264.653378 
L 154.554132 264.805313 
L 155.270185 264.965547 
L 156.763668 265.228552 
L 157.745684 265.27731 
L 158.073023 265.360744 
L 160.630357 265.428783 
L 163.04448 265.562452 
L 175.421976 266.507152 
L 178.347565 266.533967 
L 182.091502 266.668548 
L 183.687278 266.902005 
L 188.822405 267.303356 
L 189.988549 267.444274 
L 191.031941 267.48685 
L 191.318362 267.554984 
L 195.553307 267.71754 
L 197.128625 267.786008 
L 198.724401 267.853642 
L 198.908529 267.932297 
L 208.442269 268.411215 
L 210.467678 268.536725 
L 211.858867 268.643025 
L 216.830324 268.927361 
L 219.530868 269.132393 
L 221.638111 269.204959 
L 224.052235 269.358405 
L 225.688928 269.518268 
L 240.009997 270.292808 
L 244.265401 270.601054 
L 249.298234 270.827632 
L 251.528229 270.970644 
L 265.80838 271.907845 
L 269.224978 271.984422 
L 277.142484 272.555792 
L 278.697343 272.662394 
L 321.251377 275.440204 
L 322.74486 275.540347 
L 328.145948 275.905756 
L 331.19429 276.089229 
L 340.237023 276.684547 
L 342.794356 276.936901 
L 351.407456 277.675728 
L 354.394422 277.904147 
L 356.378913 278.094571 
L 357.851938 278.272984 
L 370.720441 279.527294 
L 373.911994 279.928553 
L 377.369509 280.32898 
L 379.149413 280.510787 
L 380.970235 280.736495 
L 381.890875 280.873439 
L 384.755089 281.199853 
L 385.307473 281.311116 
L 387.762513 281.761335 
L 388.253521 281.836868 
L 390.483517 282.236518 
L 390.913149 282.367823 
L 393.388648 282.748156 
L 394.022866 282.936975 
L 394.329747 283.035093 
L 394.329747 283.035093 
" style="fill:none;stroke:#00bfbf;stroke-linecap:square;stroke-width:1.5;"/>
   </g>
   <g id="line2d_18">
    <path clip-path="url(#p7907eeb2c1)" d="M 91.80739 84.292638 
L 91.991519 79.915018 
L 92.216564 81.632142 
L 92.482527 88.595691 
L 92.707572 88.126449 
L 92.932617 89.038237 
L 93.587295 84.747506 
L 94.016927 85.493296 
L 94.344266 87.406562 
L 94.610228 87.664766 
L 94.917108 88.402737 
L 95.285364 93.91389 
L 95.449034 93.668482 
L 95.796831 94.661825 
L 96.021877 93.995231 
L 96.246922 96.643557 
L 96.615178 94.66825 
L 97.003893 93.434053 
L 97.147103 94.986468 
L 97.453983 94.622879 
L 97.760864 95.844104 
L 98.047285 96.465226 
L 98.190496 98.485139 
L 98.456458 98.516313 
L 98.661045 99.718351 
L 99.070218 100.176543 
L 99.377098 100.847838 
L 99.704437 101.126123 
L 100.134069 99.831442 
L 100.727371 100.112055 
L 100.972875 99.732973 
L 101.238837 100.133636 
L 101.586635 99.959383 
L 101.66847 101.728387 
L 101.934432 103.542399 
L 102.548192 103.813878 
L 103.448374 104.924315 
L 103.837089 104.278599 
L 104.409931 105.77978 
L 104.675894 105.879106 
L 104.921398 106.207327 
L 105.248737 106.27979 
L 105.637452 105.680146 
L 105.96479 106.217664 
L 107.069558 104.479412 
L 107.335521 104.756489 
L 107.540108 105.373965 
L 108.337996 105.633816 
L 108.603959 106.271589 
L 109.442764 106.875843 
L 109.892855 106.374282 
L 110.42478 105.339748 
L 110.649826 105.761963 
L 111.120375 105.419413 
L 111.447714 105.34409 
L 111.836429 105.947945 
L 112.347895 104.826307 
L 112.757069 104.596782 
L 113.04349 104.056455 
L 113.370829 104.591699 
L 113.759544 104.14118 
L 114.393762 103.809795 
L 114.659725 104.637462 
L 115.027981 104.780224 
L 115.375779 104.761161 
L 115.805411 104.950274 
L 116.27596 104.799518 
L 116.562381 105.589375 
L 116.910179 105.505235 
L 117.298894 105.88052 
L 118.178616 105.364074 
L 118.42412 105.76246 
L 118.833294 105.621106 
L 119.140174 105.634901 
L 119.528889 105.826926 
L 119.876686 105.595577 
L 120.101731 105.938869 
L 121.04283 106.535161 
L 121.533838 105.98453 
L 121.96347 105.978432 
L 122.249892 106.288369 
L 122.536313 106.870372 
L 122.925028 106.752501 
L 123.334201 106.392032 
L 123.538788 107.250656 
L 124.152548 107.46588 
L 124.827684 107.102708 
L 125.073188 107.410838 
L 125.420986 107.457692 
L 125.830159 107.284527 
L 126.362084 106.472949 
L 126.648506 106.989715 
L 126.955386 107.030559 
L 127.323642 107.345539 
L 127.691898 107.892363 
L 128.12153 107.709301 
L 129.51272 110.41468 
L 129.921893 110.454416 
L 130.371984 109.698428 
L 131.108496 109.529988 
L 131.394917 110.273256 
L 131.701797 110.215071 
L 132.070053 110.390043 
L 132.336016 110.948607 
L 132.786107 111.187496 
L 133.092987 111.69647 
L 133.768123 112.40987 
L 134.566011 111.847114 
L 135.179771 112.103543 
L 135.691238 112.583456 
L 135.936742 113.05877 
L 136.202705 112.988887 
L 136.489126 113.088937 
L 136.877841 113.960554 
L 137.287014 113.933885 
L 137.471142 114.365359 
L 137.880316 114.365113 
L 138.780497 113.873496 
L 139.066919 114.192392 
L 139.455633 114.036712 
L 139.782972 114.660073 
L 140.130769 114.587962 
L 140.539943 114.696949 
L 140.764988 115.122257 
L 141.133244 115.19857 
L 141.562876 114.907247 
L 142.360765 115.232206 
L 142.58581 115.559276 
L 142.994983 115.26126 
L 143.097277 115.900427 
L 143.445074 116.058777 
L 143.833789 115.905443 
L 144.099751 116.242805 
L 144.42709 116.408972 
L 144.836264 116.192901 
L 145.327272 116.127046 
L 146.145619 115.558373 
L 146.554792 115.549792 
L 146.820755 115.703349 
L 147.229928 115.572375 
L 147.761853 116.161755 
L 148.068734 116.211935 
L 148.457448 116.069717 
L 148.88708 116.116239 
L 149.153043 116.47042 
L 149.459923 116.656645 
L 149.910014 116.524891 
L 150.155518 116.767908 
L 150.462398 116.880943 
L 150.687443 117.131595 
L 151.035241 117.015251 
L 151.321662 117.092576 
L 151.996798 117.801009 
L 152.180926 118.216314 
L 152.42643 118.353252 
L 152.917438 118.258805 
L 153.428905 118.558448 
L 153.592574 119.0763 
L 153.776702 119.199702 
L 154.1245 120.056978 
L 154.349545 120.027717 
L 154.492756 120.456423 
L 154.73826 120.637962 
L 155.454313 120.52247 
L 156.334036 120.891204 
L 156.722751 120.786235 
L 157.009172 121.093101 
L 157.602474 121.337163 
L 158.073023 121.185907 
L 158.257151 121.54162 
L 158.523114 121.733824 
L 158.973205 121.745021 
L 159.341461 122.585327 
L 159.464213 122.997031 
L 160.384853 123.373024 
L 160.466688 123.850783 
L 160.650816 124.016156 
L 161.51008 123.801701 
L 162.185216 123.798618 
L 162.492096 123.997695 
L 162.839893 123.911338 
L 164.456128 124.643918 
L 164.558422 125.043243 
L 164.844843 125.306119 
L 165.540438 125.212982 
L 165.765483 125.471443 
L 166.542913 125.935758 
L 166.849793 126.191124 
L 167.627222 126.289102 
L 167.872726 126.555242 
L 169.182081 126.587856 
L 169.611713 126.411274 
L 170.348225 126.371221 
L 171.452994 126.961673 
L 171.718956 126.931627 
L 171.96446 127.285142 
L 172.823724 127.530659 
L 173.130604 127.508261 
L 173.314733 127.795362 
L 173.703447 127.731263 
L 173.989869 127.906349 
L 174.603629 127.759475 
L 174.951426 127.759499 
L 175.647021 127.504002 
L 176.301698 127.765382 
L 176.710872 127.651636 
L 176.915458 127.720995 
L 177.651971 128.502025 
L 177.897475 128.630379 
L 178.040685 129.03822 
L 178.327107 129.076378 
L 178.961325 129.015063 
L 179.227288 129.250014 
L 180.495726 129.482919 
L 180.904899 129.826424 
L 181.129945 129.967388 
L 181.518659 129.978817 
L 181.743705 130.336644 
L 181.948291 130.432706 
L 182.521134 130.508615 
L 182.971225 130.564855 
L 183.871406 131.136473 
L 184.505625 131.227064 
L 184.751129 131.298635 
L 185.139844 131.816168 
L 185.344431 131.855592 
L 185.978649 132.407092 
L 186.449199 132.406394 
L 186.919748 132.618603 
L 187.34938 133.139443 
L 187.779012 133.014178 
L 188.699652 133.808824 
L 188.883781 134.010579 
L 189.824879 133.99449 
L 190.029466 134.105422 
L 190.725061 134.197746 
L 191.011482 134.248435 
L 191.50249 134.583437 
L 191.788912 134.610486 
L 192.136709 134.522781 
L 192.341296 134.705819 
L 192.914139 134.661005 
L 193.671109 135.063394 
L 194.571291 135.205217 
L 194.816795 135.321255 
L 195.123675 135.315354 
L 196.12615 136.083475 
L 196.964955 137.234331 
L 197.537798 137.250051 
L 198.090182 137.244349 
L 199.05174 137.77728 
L 199.215409 137.992505 
L 199.931462 137.865438 
L 200.361094 138.257074 
L 200.729351 138.304687 
L 200.831644 138.501917 
L 201.036231 138.636167 
L 201.752284 138.792989 
L 203.532188 140.12037 
L 203.839068 140.111999 
L 203.96182 140.225508 
L 204.268701 140.198702 
L 205.393927 140.915335 
L 205.598514 140.956031 
L 205.721266 141.163373 
L 206.948786 141.540994 
L 207.398877 141.740712 
L 207.848968 141.955641 
L 207.97172 142.120987 
L 209.444744 142.598015 
L 210.099422 142.520352 
L 210.42676 143.066118 
L 211.449694 143.409122 
L 211.551987 143.556863 
L 212.022537 143.720481 
L 212.186206 143.915232 
L 212.718131 144.083759 
L 212.799966 144.212127 
L 213.270515 144.274366 
L 213.741065 145.056487 
L 214.498036 145.454796 
L 215.214089 145.445278 
L 215.848308 145.606286 
L 216.052895 145.886831 
L 216.707572 145.914114 
L 217.075828 146.1276 
L 218.180596 146.21257 
L 218.630687 146.561502 
L 220.635637 147.008215 
L 220.962975 147.340298 
L 221.597194 147.416923 
L 221.679029 147.586593 
L 221.904074 147.651663 
L 222.026826 147.819034 
L 222.497376 147.925514 
L 222.57921 148.099598 
L 222.967925 148.256019 
L 223.479392 148.567369 
L 224.338656 148.855462 
L 224.481867 148.994643 
L 224.625077 148.975595 
L 224.850123 149.274945 
L 224.993333 149.432752 
L 225.382048 149.559508 
L 226.159478 150.204771 
L 226.241312 150.340934 
L 226.773238 150.515276 
L 226.977824 150.769282 
L 227.407456 150.925431 
L 227.550667 151.042457 
L 227.81663 150.977095 
L 228.225803 151.25532 
L 228.369014 151.428848 
L 229.207819 151.520005 
L 229.310113 151.604178 
L 229.616993 151.607128 
L 229.842038 151.849498 
L 230.394422 152.059494 
L 230.783137 152.182457 
L 230.864972 152.378189 
L 231.294604 152.51562 
L 231.35598 152.685932 
L 231.601484 152.67152 
L 232.153868 153.106674 
L 232.440289 153.309145 
L 232.726711 153.516289 
L 232.972215 153.512899 
L 233.340471 153.947614 
L 233.97469 154.293953 
L 234.1179 154.391219 
L 234.915788 154.49076 
L 235.284045 154.600879 
L 236.532023 155.223207 
L 236.961655 155.30177 
L 237.166242 155.401739 
L 237.452664 155.757393 
L 238.27101 156.193289 
L 238.639266 156.294153 
L 239.35532 157.125583 
L 239.457613 157.369755 
L 239.559907 157.503551 
L 239.825869 157.492525 
L 239.989539 157.837707 
L 240.255501 158.257658 
L 240.501005 158.541842 
L 241.032931 158.697597 
L 241.544398 159.274993 
L 241.892195 159.520594 
L 242.014947 159.545816 
L 242.260451 159.814113 
L 242.505955 159.827496 
L 242.812835 160.128687 
L 243.20155 160.327562 
L 243.406137 160.557776 
L 244.899619 161.774026 
L 245.226958 161.923307 
L 246.004388 162.53707 
L 246.311268 162.635809 
L 246.781817 162.813093 
L 247.313743 163.001476 
L 247.620623 163.126353 
L 247.804751 163.334635 
L 248.213924 163.357238 
L 248.479887 163.550254 
L 248.909519 163.967036 
L 249.543738 164.264063 
L 249.871076 164.375569 
L 250.034746 164.678499 
L 250.218874 164.826872 
L 250.832634 165.093912 
L 252.89896 166.456342 
L 252.960336 166.575662 
L 253.840058 166.871014 
L 254.57657 167.727634 
L 254.74024 167.779766 
L 254.903909 168.076014 
L 255.333541 168.212185 
L 256.090512 168.787688 
L 256.847483 168.960867 
L 257.174822 169.193669 
L 257.440784 169.331083 
L 258.627387 169.949631 
L 259.691238 170.784472 
L 260.693713 171.900093 
L 261.061969 172.068088 
L 261.307473 172.273878 
L 261.900774 172.596816 
L 262.228113 172.881053 
L 262.73958 173.03457 
L 263.169212 173.37039 
L 263.312423 173.57774 
L 263.476092 173.712135 
L 263.905724 174.041075 
L 263.987559 174.285465 
L 264.27398 174.392952 
L 264.764988 174.950935 
L 265.010492 175.128295 
L 265.481042 175.503735 
L 265.542418 175.6205 
L 265.767463 175.665219 
L 266.033426 176.00124 
L 266.422141 176.196941 
L 266.913149 176.287881 
L 267.956541 177.574692 
L 268.202045 177.572207 
L 268.468008 177.899931 
L 269.490941 178.658905 
L 269.859197 178.871655 
L 271.291304 180.29547 
L 271.945981 181.397986 
L 272.396072 181.664203 
L 272.43699 181.757089 
L 272.621118 181.806827 
L 272.723411 182.033232 
L 272.968915 182.176985 
L 273.214419 182.753136 
L 274.462398 183.803855 
L 274.666985 184.136284 
L 274.912489 184.38899 
L 275.096617 184.747615 
L 275.19891 184.999361 
L 275.50579 185.264052 
L 275.689918 185.581904 
L 276.037716 185.955405 
L 276.303678 186.553503 
L 276.651476 186.9092 
L 276.774228 187.009004 
L 276.774228 187.009004 
" style="fill:none;stroke:#ffa500;stroke-linecap:square;stroke-width:1.5;"/>
   </g>
   <g id="patch_3">
    <path d="M 76.56875 297.884062 
L 76.56875 26.084062 
" style="fill:none;stroke:#000000;stroke-linecap:square;stroke-linejoin:miter;stroke-width:0.8;"/>
   </g>
   <g id="patch_4">
    <path d="M 411.36875 297.884062 
L 411.36875 26.084062 
" style="fill:none;stroke:#000000;stroke-linecap:square;stroke-linejoin:miter;stroke-width:0.8;"/>
   </g>
   <g id="patch_5">
    <path d="M 76.56875 297.884062 
L 411.36875 297.884062 
" style="fill:none;stroke:#000000;stroke-linecap:square;stroke-linejoin:miter;stroke-width:0.8;"/>
   </g>
   <g id="patch_6">
    <path d="M 76.56875 26.084062 
L 411.36875 26.084062 
" style="fill:none;stroke:#000000;stroke-linecap:square;stroke-linejoin:miter;stroke-width:0.8;"/>
   </g>
   <g id="text_14">
    <!-- (0.35,0.35) -->
    <defs>
     <path d="M 31 75.875 
Q 24.46875 64.65625 21.28125 53.65625 
Q 18.109375 42.671875 18.109375 31.390625 
Q 18.109375 20.125 21.3125 9.0625 
Q 24.515625 -2 31 -13.1875 
L 23.1875 -13.1875 
Q 15.875 -1.703125 12.234375 9.375 
Q 8.59375 20.453125 8.59375 31.390625 
Q 8.59375 42.28125 12.203125 53.3125 
Q 15.828125 64.359375 23.1875 75.875 
z
" id="DejaVuSans-40"/>
     <path d="M 11.71875 12.40625 
L 22.015625 12.40625 
L 22.015625 4 
L 14.015625 -11.625 
L 7.71875 -11.625 
L 11.71875 4 
z
" id="DejaVuSans-44"/>
     <path d="M 8.015625 75.875 
L 15.828125 75.875 
Q 23.140625 64.359375 26.78125 53.3125 
Q 30.421875 42.28125 30.421875 31.390625 
Q 30.421875 20.453125 26.78125 9.375 
Q 23.140625 -1.703125 15.828125 -13.1875 
L 8.015625 -13.1875 
Q 14.5 -2 17.703125 9.0625 
Q 20.90625 20.125 20.90625 31.390625 
Q 20.90625 42.671875 17.703125 53.65625 
Q 14.5 64.65625 8.015625 75.875 
z
" id="DejaVuSans-41"/>
    </defs>
    <g style="fill:#ffa500;" transform="translate(136.976043 160.015595)scale(0.12 -0.12)">
     <use xlink:href="#DejaVuSans-40"/>
     <use x="39.013672" xlink:href="#DejaVuSans-48"/>
     <use x="102.636719" xlink:href="#DejaVuSans-46"/>
     <use x="134.423828" xlink:href="#DejaVuSans-51"/>
     <use x="198.046875" xlink:href="#DejaVuSans-53"/>
     <use x="261.669922" xlink:href="#DejaVuSans-44"/>
     <use x="293.457031" xlink:href="#DejaVuSans-48"/>
     <use x="357.080078" xlink:href="#DejaVuSans-46"/>
     <use x="388.867188" xlink:href="#DejaVuSans-51"/>
     <use x="452.490234" xlink:href="#DejaVuSans-53"/>
     <use x="516.113281" xlink:href="#DejaVuSans-41"/>
    </g>
   </g>
   <g id="text_15">
    <!-- Precision - recall curve - European cities -->
    <defs>
     <path id="ArialMT-32"/>
     <path d="M 3.171875 21.484375 
L 3.171875 30.328125 
L 30.171875 30.328125 
L 30.171875 21.484375 
z
" id="ArialMT-45"/>
     <path d="M 40.578125 0 
L 40.578125 7.625 
Q 34.515625 -1.171875 24.125 -1.171875 
Q 19.53125 -1.171875 15.546875 0.578125 
Q 11.578125 2.34375 9.640625 5 
Q 7.71875 7.671875 6.9375 11.53125 
Q 6.390625 14.109375 6.390625 19.734375 
L 6.390625 51.859375 
L 15.1875 51.859375 
L 15.1875 23.09375 
Q 15.1875 16.21875 15.71875 13.8125 
Q 16.546875 10.359375 19.234375 8.375 
Q 21.921875 6.390625 25.875 6.390625 
Q 29.828125 6.390625 33.296875 8.421875 
Q 36.765625 10.453125 38.203125 13.9375 
Q 39.65625 17.4375 39.65625 24.078125 
L 39.65625 51.859375 
L 48.4375 51.859375 
L 48.4375 0 
z
" id="ArialMT-117"/>
     <path d="M 21 0 
L 1.265625 51.859375 
L 10.546875 51.859375 
L 21.6875 20.796875 
Q 23.484375 15.765625 25 10.359375 
Q 26.171875 14.453125 28.265625 20.21875 
L 39.796875 51.859375 
L 48.828125 51.859375 
L 29.203125 0 
z
" id="ArialMT-118"/>
     <path d="M 7.90625 0 
L 7.90625 71.578125 
L 59.671875 71.578125 
L 59.671875 63.140625 
L 17.390625 63.140625 
L 17.390625 41.21875 
L 56.984375 41.21875 
L 56.984375 32.8125 
L 17.390625 32.8125 
L 17.390625 8.453125 
L 61.328125 8.453125 
L 61.328125 0 
z
" id="ArialMT-69"/>
     <path d="M 6.59375 -19.875 
L 6.59375 51.859375 
L 14.59375 51.859375 
L 14.59375 45.125 
Q 17.4375 49.078125 21 51.046875 
Q 24.5625 53.03125 29.640625 53.03125 
Q 36.28125 53.03125 41.359375 49.609375 
Q 46.4375 46.1875 49.015625 39.953125 
Q 51.609375 33.734375 51.609375 26.3125 
Q 51.609375 18.359375 48.75 11.984375 
Q 45.90625 5.609375 40.453125 2.21875 
Q 35.015625 -1.171875 29 -1.171875 
Q 24.609375 -1.171875 21.109375 0.6875 
Q 17.625 2.546875 15.375 5.375 
L 15.375 -19.875 
z
M 14.546875 25.640625 
Q 14.546875 15.625 18.59375 10.84375 
Q 22.65625 6.0625 28.421875 6.0625 
Q 34.28125 6.0625 38.453125 11.015625 
Q 42.625 15.96875 42.625 26.375 
Q 42.625 36.28125 38.546875 41.203125 
Q 34.46875 46.140625 28.8125 46.140625 
Q 23.1875 46.140625 18.859375 40.890625 
Q 14.546875 35.640625 14.546875 25.640625 
z
" id="ArialMT-112"/>
     <path d="M 25.78125 7.859375 
L 27.046875 0.09375 
Q 23.34375 -0.6875 20.40625 -0.6875 
Q 15.625 -0.6875 12.984375 0.828125 
Q 10.359375 2.34375 9.28125 4.8125 
Q 8.203125 7.28125 8.203125 15.1875 
L 8.203125 45.015625 
L 1.765625 45.015625 
L 1.765625 51.859375 
L 8.203125 51.859375 
L 8.203125 64.703125 
L 16.9375 69.96875 
L 16.9375 51.859375 
L 25.78125 51.859375 
L 25.78125 45.015625 
L 16.9375 45.015625 
L 16.9375 14.703125 
Q 16.9375 10.9375 17.40625 9.859375 
Q 17.875 8.796875 18.921875 8.15625 
Q 19.96875 7.515625 21.921875 7.515625 
Q 23.390625 7.515625 25.78125 7.859375 
z
" id="ArialMT-116"/>
    </defs>
    <g transform="translate(82.91375 20.084062)scale(0.18 -0.18)">
     <use xlink:href="#ArialMT-80"/>
     <use x="66.699219" xlink:href="#ArialMT-114"/>
     <use x="100" xlink:href="#ArialMT-101"/>
     <use x="155.615234" xlink:href="#ArialMT-99"/>
     <use x="205.615234" xlink:href="#ArialMT-105"/>
     <use x="227.832031" xlink:href="#ArialMT-115"/>
     <use x="277.832031" xlink:href="#ArialMT-105"/>
     <use x="300.048828" xlink:href="#ArialMT-111"/>
     <use x="355.664062" xlink:href="#ArialMT-110"/>
     <use x="411.279297" xlink:href="#ArialMT-32"/>
     <use x="439.0625" xlink:href="#ArialMT-45"/>
     <use x="472.363281" xlink:href="#ArialMT-32"/>
     <use x="500.146484" xlink:href="#ArialMT-114"/>
     <use x="533.447266" xlink:href="#ArialMT-101"/>
     <use x="589.0625" xlink:href="#ArialMT-99"/>
     <use x="639.0625" xlink:href="#ArialMT-97"/>
     <use x="694.677734" xlink:href="#ArialMT-108"/>
     <use x="716.894531" xlink:href="#ArialMT-108"/>
     <use x="739.111328" xlink:href="#ArialMT-32"/>
     <use x="766.894531" xlink:href="#ArialMT-99"/>
     <use x="816.894531" xlink:href="#ArialMT-117"/>
     <use x="872.509766" xlink:href="#ArialMT-114"/>
     <use x="905.810547" xlink:href="#ArialMT-118"/>
     <use x="955.810547" xlink:href="#ArialMT-101"/>
     <use x="1011.425781" xlink:href="#ArialMT-32"/>
     <use x="1039.208984" xlink:href="#ArialMT-45"/>
     <use x="1072.509766" xlink:href="#ArialMT-32"/>
     <use x="1100.292969" xlink:href="#ArialMT-69"/>
     <use x="1166.992188" xlink:href="#ArialMT-117"/>
     <use x="1222.607422" xlink:href="#ArialMT-114"/>
     <use x="1255.908203" xlink:href="#ArialMT-111"/>
     <use x="1311.523438" xlink:href="#ArialMT-112"/>
     <use x="1367.138672" xlink:href="#ArialMT-101"/>
     <use x="1422.753906" xlink:href="#ArialMT-97"/>
     <use x="1478.369141" xlink:href="#ArialMT-110"/>
     <use x="1533.984375" xlink:href="#ArialMT-32"/>
     <use x="1561.767578" xlink:href="#ArialMT-99"/>
     <use x="1611.767578" xlink:href="#ArialMT-105"/>
     <use x="1633.984375" xlink:href="#ArialMT-116"/>
     <use x="1661.767578" xlink:href="#ArialMT-105"/>
     <use x="1683.984375" xlink:href="#ArialMT-101"/>
     <use x="1739.599609" xlink:href="#ArialMT-115"/>
    </g>
   </g>
   <g id="legend_1">
    <g id="patch_7">
     <path d="M 235.8625 136.830937 
L 404.36875 136.830937 
Q 406.36875 136.830937 406.36875 134.830937 
L 406.36875 33.084062 
Q 406.36875 31.084062 404.36875 31.084062 
L 235.8625 31.084062 
Q 233.8625 31.084062 233.8625 33.084062 
L 233.8625 134.830937 
Q 233.8625 136.830937 235.8625 136.830937 
z
" style="fill:#ffffff;opacity:0.8;stroke:#cccccc;stroke-linejoin:miter;"/>
    </g>
    <g id="line2d_19">
     <path d="M 237.8625 39.1825 
L 257.8625 39.1825 
" style="fill:none;stroke:#ff0000;stroke-linecap:square;stroke-width:1.5;"/>
    </g>
    <g id="line2d_20"/>
    <g id="text_16">
     <!-- Node2Vec, AUC:0.08 -->
     <defs>
      <path d="M 9.8125 72.90625 
L 23.09375 72.90625 
L 55.421875 11.921875 
L 55.421875 72.90625 
L 64.984375 72.90625 
L 64.984375 0 
L 51.703125 0 
L 19.390625 60.984375 
L 19.390625 0 
L 9.8125 0 
z
" id="DejaVuSans-78"/>
      <path d="M 30.609375 48.390625 
Q 23.390625 48.390625 19.1875 42.75 
Q 14.984375 37.109375 14.984375 27.296875 
Q 14.984375 17.484375 19.15625 11.84375 
Q 23.34375 6.203125 30.609375 6.203125 
Q 37.796875 6.203125 41.984375 11.859375 
Q 46.1875 17.53125 46.1875 27.296875 
Q 46.1875 37.015625 41.984375 42.703125 
Q 37.796875 48.390625 30.609375 48.390625 
z
M 30.609375 56 
Q 42.328125 56 49.015625 48.375 
Q 55.71875 40.765625 55.71875 27.296875 
Q 55.71875 13.875 49.015625 6.21875 
Q 42.328125 -1.421875 30.609375 -1.421875 
Q 18.84375 -1.421875 12.171875 6.21875 
Q 5.515625 13.875 5.515625 27.296875 
Q 5.515625 40.765625 12.171875 48.375 
Q 18.84375 56 30.609375 56 
z
" id="DejaVuSans-111"/>
      <path d="M 45.40625 46.390625 
L 45.40625 75.984375 
L 54.390625 75.984375 
L 54.390625 0 
L 45.40625 0 
L 45.40625 8.203125 
Q 42.578125 3.328125 38.25 0.953125 
Q 33.9375 -1.421875 27.875 -1.421875 
Q 17.96875 -1.421875 11.734375 6.484375 
Q 5.515625 14.40625 5.515625 27.296875 
Q 5.515625 40.1875 11.734375 48.09375 
Q 17.96875 56 27.875 56 
Q 33.9375 56 38.25 53.625 
Q 42.578125 51.265625 45.40625 46.390625 
z
M 14.796875 27.296875 
Q 14.796875 17.390625 18.875 11.75 
Q 22.953125 6.109375 30.078125 6.109375 
Q 37.203125 6.109375 41.296875 11.75 
Q 45.40625 17.390625 45.40625 27.296875 
Q 45.40625 37.203125 41.296875 42.84375 
Q 37.203125 48.484375 30.078125 48.484375 
Q 22.953125 48.484375 18.875 42.84375 
Q 14.796875 37.203125 14.796875 27.296875 
z
" id="DejaVuSans-100"/>
      <path d="M 56.203125 29.59375 
L 56.203125 25.203125 
L 14.890625 25.203125 
Q 15.484375 15.921875 20.484375 11.0625 
Q 25.484375 6.203125 34.421875 6.203125 
Q 39.59375 6.203125 44.453125 7.46875 
Q 49.3125 8.734375 54.109375 11.28125 
L 54.109375 2.78125 
Q 49.265625 0.734375 44.1875 -0.34375 
Q 39.109375 -1.421875 33.890625 -1.421875 
Q 20.796875 -1.421875 13.15625 6.1875 
Q 5.515625 13.8125 5.515625 26.8125 
Q 5.515625 40.234375 12.765625 48.109375 
Q 20.015625 56 32.328125 56 
Q 43.359375 56 49.78125 48.890625 
Q 56.203125 41.796875 56.203125 29.59375 
z
M 47.21875 32.234375 
Q 47.125 39.59375 43.09375 43.984375 
Q 39.0625 48.390625 32.421875 48.390625 
Q 24.90625 48.390625 20.390625 44.140625 
Q 15.875 39.890625 15.1875 32.171875 
z
" id="DejaVuSans-101"/>
      <path d="M 28.609375 0 
L 0.78125 72.90625 
L 11.078125 72.90625 
L 34.1875 11.53125 
L 57.328125 72.90625 
L 67.578125 72.90625 
L 39.796875 0 
z
" id="DejaVuSans-86"/>
      <path d="M 48.78125 52.59375 
L 48.78125 44.1875 
Q 44.96875 46.296875 41.140625 47.34375 
Q 37.3125 48.390625 33.40625 48.390625 
Q 24.65625 48.390625 19.8125 42.84375 
Q 14.984375 37.3125 14.984375 27.296875 
Q 14.984375 17.28125 19.8125 11.734375 
Q 24.65625 6.203125 33.40625 6.203125 
Q 37.3125 6.203125 41.140625 7.25 
Q 44.96875 8.296875 48.78125 10.40625 
L 48.78125 2.09375 
Q 45.015625 0.34375 40.984375 -0.53125 
Q 36.96875 -1.421875 32.421875 -1.421875 
Q 20.0625 -1.421875 12.78125 6.34375 
Q 5.515625 14.109375 5.515625 27.296875 
Q 5.515625 40.671875 12.859375 48.328125 
Q 20.21875 56 33.015625 56 
Q 37.15625 56 41.109375 55.140625 
Q 45.0625 54.296875 48.78125 52.59375 
z
" id="DejaVuSans-99"/>
      <path id="DejaVuSans-32"/>
      <path d="M 34.1875 63.1875 
L 20.796875 26.90625 
L 47.609375 26.90625 
z
M 28.609375 72.90625 
L 39.796875 72.90625 
L 67.578125 0 
L 57.328125 0 
L 50.6875 18.703125 
L 17.828125 18.703125 
L 11.1875 0 
L 0.78125 0 
z
" id="DejaVuSans-65"/>
      <path d="M 8.6875 72.90625 
L 18.609375 72.90625 
L 18.609375 28.609375 
Q 18.609375 16.890625 22.84375 11.734375 
Q 27.09375 6.59375 36.625 6.59375 
Q 46.09375 6.59375 50.34375 11.734375 
Q 54.59375 16.890625 54.59375 28.609375 
L 54.59375 72.90625 
L 64.5 72.90625 
L 64.5 27.390625 
Q 64.5 13.140625 57.4375 5.859375 
Q 50.390625 -1.421875 36.625 -1.421875 
Q 22.796875 -1.421875 15.734375 5.859375 
Q 8.6875 13.140625 8.6875 27.390625 
z
" id="DejaVuSans-85"/>
      <path d="M 64.40625 67.28125 
L 64.40625 56.890625 
Q 59.421875 61.53125 53.78125 63.8125 
Q 48.140625 66.109375 41.796875 66.109375 
Q 29.296875 66.109375 22.65625 58.46875 
Q 16.015625 50.828125 16.015625 36.375 
Q 16.015625 21.96875 22.65625 14.328125 
Q 29.296875 6.6875 41.796875 6.6875 
Q 48.140625 6.6875 53.78125 8.984375 
Q 59.421875 11.28125 64.40625 15.921875 
L 64.40625 5.609375 
Q 59.234375 2.09375 53.4375 0.328125 
Q 47.65625 -1.421875 41.21875 -1.421875 
Q 24.65625 -1.421875 15.125 8.703125 
Q 5.609375 18.84375 5.609375 36.375 
Q 5.609375 53.953125 15.125 64.078125 
Q 24.65625 74.21875 41.21875 74.21875 
Q 47.75 74.21875 53.53125 72.484375 
Q 59.328125 70.75 64.40625 67.28125 
z
" id="DejaVuSans-67"/>
      <path d="M 11.71875 12.40625 
L 22.015625 12.40625 
L 22.015625 0 
L 11.71875 0 
z
M 11.71875 51.703125 
L 22.015625 51.703125 
L 22.015625 39.3125 
L 11.71875 39.3125 
z
" id="DejaVuSans-58"/>
     </defs>
     <g transform="translate(265.8625 42.6825)scale(0.1 -0.1)">
      <use xlink:href="#DejaVuSans-78"/>
      <use x="74.804688" xlink:href="#DejaVuSans-111"/>
      <use x="135.986328" xlink:href="#DejaVuSans-100"/>
      <use x="199.462891" xlink:href="#DejaVuSans-101"/>
      <use x="260.986328" xlink:href="#DejaVuSans-50"/>
      <use x="324.609375" xlink:href="#DejaVuSans-86"/>
      <use x="385.267578" xlink:href="#DejaVuSans-101"/>
      <use x="446.791016" xlink:href="#DejaVuSans-99"/>
      <use x="501.771484" xlink:href="#DejaVuSans-44"/>
      <use x="533.558594" xlink:href="#DejaVuSans-32"/>
      <use x="565.345703" xlink:href="#DejaVuSans-65"/>
      <use x="633.753906" xlink:href="#DejaVuSans-85"/>
      <use x="706.947266" xlink:href="#DejaVuSans-67"/>
      <use x="776.771484" xlink:href="#DejaVuSans-58"/>
      <use x="810.462891" xlink:href="#DejaVuSans-48"/>
      <use x="874.085938" xlink:href="#DejaVuSans-46"/>
      <use x="905.873047" xlink:href="#DejaVuSans-48"/>
      <use x="969.496094" xlink:href="#DejaVuSans-56"/>
     </g>
    </g>
    <g id="line2d_21">
     <path d="M 237.8625 53.860625 
L 257.8625 53.860625 
" style="fill:none;stroke:#008000;stroke-linecap:square;stroke-width:1.5;"/>
    </g>
    <g id="line2d_22"/>
    <g id="text_17">
     <!-- Struc2Vec, AUC:0.01 -->
     <defs>
      <path d="M 53.515625 70.515625 
L 53.515625 60.890625 
Q 47.90625 63.578125 42.921875 64.890625 
Q 37.9375 66.21875 33.296875 66.21875 
Q 25.25 66.21875 20.875 63.09375 
Q 16.5 59.96875 16.5 54.203125 
Q 16.5 49.359375 19.40625 46.890625 
Q 22.3125 44.4375 30.421875 42.921875 
L 36.375 41.703125 
Q 47.40625 39.59375 52.65625 34.296875 
Q 57.90625 29 57.90625 20.125 
Q 57.90625 9.515625 50.796875 4.046875 
Q 43.703125 -1.421875 29.984375 -1.421875 
Q 24.8125 -1.421875 18.96875 -0.25 
Q 13.140625 0.921875 6.890625 3.21875 
L 6.890625 13.375 
Q 12.890625 10.015625 18.65625 8.296875 
Q 24.421875 6.59375 29.984375 6.59375 
Q 38.421875 6.59375 43.015625 9.90625 
Q 47.609375 13.234375 47.609375 19.390625 
Q 47.609375 24.75 44.3125 27.78125 
Q 41.015625 30.8125 33.5 32.328125 
L 27.484375 33.5 
Q 16.453125 35.6875 11.515625 40.375 
Q 6.59375 45.0625 6.59375 53.421875 
Q 6.59375 63.09375 13.40625 68.65625 
Q 20.21875 74.21875 32.171875 74.21875 
Q 37.3125 74.21875 42.625 73.28125 
Q 47.953125 72.359375 53.515625 70.515625 
z
" id="DejaVuSans-83"/>
      <path d="M 18.3125 70.21875 
L 18.3125 54.6875 
L 36.8125 54.6875 
L 36.8125 47.703125 
L 18.3125 47.703125 
L 18.3125 18.015625 
Q 18.3125 11.328125 20.140625 9.421875 
Q 21.96875 7.515625 27.59375 7.515625 
L 36.8125 7.515625 
L 36.8125 0 
L 27.59375 0 
Q 17.1875 0 13.234375 3.875 
Q 9.28125 7.765625 9.28125 18.015625 
L 9.28125 47.703125 
L 2.6875 47.703125 
L 2.6875 54.6875 
L 9.28125 54.6875 
L 9.28125 70.21875 
z
" id="DejaVuSans-116"/>
      <path d="M 41.109375 46.296875 
Q 39.59375 47.171875 37.8125 47.578125 
Q 36.03125 48 33.890625 48 
Q 26.265625 48 22.1875 43.046875 
Q 18.109375 38.09375 18.109375 28.8125 
L 18.109375 0 
L 9.078125 0 
L 9.078125 54.6875 
L 18.109375 54.6875 
L 18.109375 46.1875 
Q 20.953125 51.171875 25.484375 53.578125 
Q 30.03125 56 36.53125 56 
Q 37.453125 56 38.578125 55.875 
Q 39.703125 55.765625 41.0625 55.515625 
z
" id="DejaVuSans-114"/>
      <path d="M 8.5 21.578125 
L 8.5 54.6875 
L 17.484375 54.6875 
L 17.484375 21.921875 
Q 17.484375 14.15625 20.5 10.265625 
Q 23.53125 6.390625 29.59375 6.390625 
Q 36.859375 6.390625 41.078125 11.03125 
Q 45.3125 15.671875 45.3125 23.6875 
L 45.3125 54.6875 
L 54.296875 54.6875 
L 54.296875 0 
L 45.3125 0 
L 45.3125 8.40625 
Q 42.046875 3.421875 37.71875 1 
Q 33.40625 -1.421875 27.6875 -1.421875 
Q 18.265625 -1.421875 13.375 4.4375 
Q 8.5 10.296875 8.5 21.578125 
z
M 31.109375 56 
z
" id="DejaVuSans-117"/>
     </defs>
     <g transform="translate(265.8625 57.360625)scale(0.1 -0.1)">
      <use xlink:href="#DejaVuSans-83"/>
      <use x="63.476562" xlink:href="#DejaVuSans-116"/>
      <use x="102.685547" xlink:href="#DejaVuSans-114"/>
      <use x="143.798828" xlink:href="#DejaVuSans-117"/>
      <use x="207.177734" xlink:href="#DejaVuSans-99"/>
      <use x="262.158203" xlink:href="#DejaVuSans-50"/>
      <use x="325.78125" xlink:href="#DejaVuSans-86"/>
      <use x="386.439453" xlink:href="#DejaVuSans-101"/>
      <use x="447.962891" xlink:href="#DejaVuSans-99"/>
      <use x="502.943359" xlink:href="#DejaVuSans-44"/>
      <use x="534.730469" xlink:href="#DejaVuSans-32"/>
      <use x="566.517578" xlink:href="#DejaVuSans-65"/>
      <use x="634.925781" xlink:href="#DejaVuSans-85"/>
      <use x="708.119141" xlink:href="#DejaVuSans-67"/>
      <use x="777.943359" xlink:href="#DejaVuSans-58"/>
      <use x="811.634766" xlink:href="#DejaVuSans-48"/>
      <use x="875.257812" xlink:href="#DejaVuSans-46"/>
      <use x="907.044922" xlink:href="#DejaVuSans-48"/>
      <use x="970.667969" xlink:href="#DejaVuSans-49"/>
     </g>
    </g>
    <g id="line2d_23">
     <path d="M 237.8625 68.53875 
L 257.8625 68.53875 
" style="fill:none;stroke:#0000ff;stroke-linecap:square;stroke-width:1.5;"/>
    </g>
    <g id="line2d_24"/>
    <g id="text_18">
     <!-- Graph-SAGE, AUC:0.07 -->
     <defs>
      <path d="M 59.515625 10.40625 
L 59.515625 29.984375 
L 43.40625 29.984375 
L 43.40625 38.09375 
L 69.28125 38.09375 
L 69.28125 6.78125 
Q 63.578125 2.734375 56.6875 0.65625 
Q 49.8125 -1.421875 42 -1.421875 
Q 24.90625 -1.421875 15.25 8.5625 
Q 5.609375 18.5625 5.609375 36.375 
Q 5.609375 54.25 15.25 64.234375 
Q 24.90625 74.21875 42 74.21875 
Q 49.125 74.21875 55.546875 72.453125 
Q 61.96875 70.703125 67.390625 67.28125 
L 67.390625 56.78125 
Q 61.921875 61.421875 55.765625 63.765625 
Q 49.609375 66.109375 42.828125 66.109375 
Q 29.4375 66.109375 22.71875 58.640625 
Q 16.015625 51.171875 16.015625 36.375 
Q 16.015625 21.625 22.71875 14.15625 
Q 29.4375 6.6875 42.828125 6.6875 
Q 48.046875 6.6875 52.140625 7.59375 
Q 56.25 8.5 59.515625 10.40625 
z
" id="DejaVuSans-71"/>
      <path d="M 34.28125 27.484375 
Q 23.390625 27.484375 19.1875 25 
Q 14.984375 22.515625 14.984375 16.5 
Q 14.984375 11.71875 18.140625 8.90625 
Q 21.296875 6.109375 26.703125 6.109375 
Q 34.1875 6.109375 38.703125 11.40625 
Q 43.21875 16.703125 43.21875 25.484375 
L 43.21875 27.484375 
z
M 52.203125 31.203125 
L 52.203125 0 
L 43.21875 0 
L 43.21875 8.296875 
Q 40.140625 3.328125 35.546875 0.953125 
Q 30.953125 -1.421875 24.3125 -1.421875 
Q 15.921875 -1.421875 10.953125 3.296875 
Q 6 8.015625 6 15.921875 
Q 6 25.140625 12.171875 29.828125 
Q 18.359375 34.515625 30.609375 34.515625 
L 43.21875 34.515625 
L 43.21875 35.40625 
Q 43.21875 41.609375 39.140625 45 
Q 35.0625 48.390625 27.6875 48.390625 
Q 23 48.390625 18.546875 47.265625 
Q 14.109375 46.140625 10.015625 43.890625 
L 10.015625 52.203125 
Q 14.9375 54.109375 19.578125 55.046875 
Q 24.21875 56 28.609375 56 
Q 40.484375 56 46.34375 49.84375 
Q 52.203125 43.703125 52.203125 31.203125 
z
" id="DejaVuSans-97"/>
      <path d="M 18.109375 8.203125 
L 18.109375 -20.796875 
L 9.078125 -20.796875 
L 9.078125 54.6875 
L 18.109375 54.6875 
L 18.109375 46.390625 
Q 20.953125 51.265625 25.265625 53.625 
Q 29.59375 56 35.59375 56 
Q 45.5625 56 51.78125 48.09375 
Q 58.015625 40.1875 58.015625 27.296875 
Q 58.015625 14.40625 51.78125 6.484375 
Q 45.5625 -1.421875 35.59375 -1.421875 
Q 29.59375 -1.421875 25.265625 0.953125 
Q 20.953125 3.328125 18.109375 8.203125 
z
M 48.6875 27.296875 
Q 48.6875 37.203125 44.609375 42.84375 
Q 40.53125 48.484375 33.40625 48.484375 
Q 26.265625 48.484375 22.1875 42.84375 
Q 18.109375 37.203125 18.109375 27.296875 
Q 18.109375 17.390625 22.1875 11.75 
Q 26.265625 6.109375 33.40625 6.109375 
Q 40.53125 6.109375 44.609375 11.75 
Q 48.6875 17.390625 48.6875 27.296875 
z
" id="DejaVuSans-112"/>
      <path d="M 54.890625 33.015625 
L 54.890625 0 
L 45.90625 0 
L 45.90625 32.71875 
Q 45.90625 40.484375 42.875 44.328125 
Q 39.84375 48.1875 33.796875 48.1875 
Q 26.515625 48.1875 22.3125 43.546875 
Q 18.109375 38.921875 18.109375 30.90625 
L 18.109375 0 
L 9.078125 0 
L 9.078125 75.984375 
L 18.109375 75.984375 
L 18.109375 46.1875 
Q 21.34375 51.125 25.703125 53.5625 
Q 30.078125 56 35.796875 56 
Q 45.21875 56 50.046875 50.171875 
Q 54.890625 44.34375 54.890625 33.015625 
z
" id="DejaVuSans-104"/>
      <path d="M 4.890625 31.390625 
L 31.203125 31.390625 
L 31.203125 23.390625 
L 4.890625 23.390625 
z
" id="DejaVuSans-45"/>
      <path d="M 9.8125 72.90625 
L 55.90625 72.90625 
L 55.90625 64.59375 
L 19.671875 64.59375 
L 19.671875 43.015625 
L 54.390625 43.015625 
L 54.390625 34.71875 
L 19.671875 34.71875 
L 19.671875 8.296875 
L 56.78125 8.296875 
L 56.78125 0 
L 9.8125 0 
z
" id="DejaVuSans-69"/>
      <path d="M 8.203125 72.90625 
L 55.078125 72.90625 
L 55.078125 68.703125 
L 28.609375 0 
L 18.3125 0 
L 43.21875 64.59375 
L 8.203125 64.59375 
z
" id="DejaVuSans-55"/>
     </defs>
     <g transform="translate(265.8625 72.03875)scale(0.1 -0.1)">
      <use xlink:href="#DejaVuSans-71"/>
      <use x="77.490234" xlink:href="#DejaVuSans-114"/>
      <use x="118.603516" xlink:href="#DejaVuSans-97"/>
      <use x="179.882812" xlink:href="#DejaVuSans-112"/>
      <use x="243.359375" xlink:href="#DejaVuSans-104"/>
      <use x="306.738281" xlink:href="#DejaVuSans-45"/>
      <use x="342.822266" xlink:href="#DejaVuSans-83"/>
      <use x="408.173828" xlink:href="#DejaVuSans-65"/>
      <use x="474.832031" xlink:href="#DejaVuSans-71"/>
      <use x="552.322266" xlink:href="#DejaVuSans-69"/>
      <use x="615.505859" xlink:href="#DejaVuSans-44"/>
      <use x="647.292969" xlink:href="#DejaVuSans-32"/>
      <use x="679.080078" xlink:href="#DejaVuSans-65"/>
      <use x="747.488281" xlink:href="#DejaVuSans-85"/>
      <use x="820.681641" xlink:href="#DejaVuSans-67"/>
      <use x="890.505859" xlink:href="#DejaVuSans-58"/>
      <use x="924.197266" xlink:href="#DejaVuSans-48"/>
      <use x="987.820312" xlink:href="#DejaVuSans-46"/>
      <use x="1019.607422" xlink:href="#DejaVuSans-48"/>
      <use x="1083.230469" xlink:href="#DejaVuSans-55"/>
     </g>
    </g>
    <g id="line2d_25">
     <path d="M 237.8625 83.216875 
L 257.8625 83.216875 
" style="fill:none;stroke:#bfbf00;stroke-linecap:square;stroke-width:1.5;"/>
    </g>
    <g id="line2d_26"/>
    <g id="text_19">
     <!-- Spectral-GCN, AUC:0.03 -->
     <defs>
      <path d="M 9.421875 75.984375 
L 18.40625 75.984375 
L 18.40625 0 
L 9.421875 0 
z
" id="DejaVuSans-108"/>
     </defs>
     <g transform="translate(265.8625 86.716875)scale(0.1 -0.1)">
      <use xlink:href="#DejaVuSans-83"/>
      <use x="63.476562" xlink:href="#DejaVuSans-112"/>
      <use x="126.953125" xlink:href="#DejaVuSans-101"/>
      <use x="188.476562" xlink:href="#DejaVuSans-99"/>
      <use x="243.457031" xlink:href="#DejaVuSans-116"/>
      <use x="282.666016" xlink:href="#DejaVuSans-114"/>
      <use x="323.779297" xlink:href="#DejaVuSans-97"/>
      <use x="385.058594" xlink:href="#DejaVuSans-108"/>
      <use x="412.841797" xlink:href="#DejaVuSans-45"/>
      <use x="452.550781" xlink:href="#DejaVuSans-71"/>
      <use x="530.041016" xlink:href="#DejaVuSans-67"/>
      <use x="599.865234" xlink:href="#DejaVuSans-78"/>
      <use x="674.669922" xlink:href="#DejaVuSans-44"/>
      <use x="706.457031" xlink:href="#DejaVuSans-32"/>
      <use x="738.244141" xlink:href="#DejaVuSans-65"/>
      <use x="806.652344" xlink:href="#DejaVuSans-85"/>
      <use x="879.845703" xlink:href="#DejaVuSans-67"/>
      <use x="949.669922" xlink:href="#DejaVuSans-58"/>
      <use x="983.361328" xlink:href="#DejaVuSans-48"/>
      <use x="1046.984375" xlink:href="#DejaVuSans-46"/>
      <use x="1078.771484" xlink:href="#DejaVuSans-48"/>
      <use x="1142.394531" xlink:href="#DejaVuSans-51"/>
     </g>
    </g>
    <g id="line2d_27">
     <path d="M 237.8625 97.895 
L 257.8625 97.895 
" style="fill:none;stroke:#bf00bf;stroke-linecap:square;stroke-width:1.5;"/>
    </g>
    <g id="line2d_28"/>
    <g id="text_20">
     <!-- Relational-GCN, AUC:0.12 -->
     <defs>
      <path d="M 44.390625 34.1875 
Q 47.5625 33.109375 50.5625 29.59375 
Q 53.5625 26.078125 56.59375 19.921875 
L 66.609375 0 
L 56 0 
L 46.6875 18.703125 
Q 43.0625 26.03125 39.671875 28.421875 
Q 36.28125 30.8125 30.421875 30.8125 
L 19.671875 30.8125 
L 19.671875 0 
L 9.8125 0 
L 9.8125 72.90625 
L 32.078125 72.90625 
Q 44.578125 72.90625 50.734375 67.671875 
Q 56.890625 62.453125 56.890625 51.90625 
Q 56.890625 45.015625 53.6875 40.46875 
Q 50.484375 35.9375 44.390625 34.1875 
z
M 19.671875 64.796875 
L 19.671875 38.921875 
L 32.078125 38.921875 
Q 39.203125 38.921875 42.84375 42.21875 
Q 46.484375 45.515625 46.484375 51.90625 
Q 46.484375 58.296875 42.84375 61.546875 
Q 39.203125 64.796875 32.078125 64.796875 
z
" id="DejaVuSans-82"/>
      <path d="M 9.421875 54.6875 
L 18.40625 54.6875 
L 18.40625 0 
L 9.421875 0 
z
M 9.421875 75.984375 
L 18.40625 75.984375 
L 18.40625 64.59375 
L 9.421875 64.59375 
z
" id="DejaVuSans-105"/>
      <path d="M 54.890625 33.015625 
L 54.890625 0 
L 45.90625 0 
L 45.90625 32.71875 
Q 45.90625 40.484375 42.875 44.328125 
Q 39.84375 48.1875 33.796875 48.1875 
Q 26.515625 48.1875 22.3125 43.546875 
Q 18.109375 38.921875 18.109375 30.90625 
L 18.109375 0 
L 9.078125 0 
L 9.078125 54.6875 
L 18.109375 54.6875 
L 18.109375 46.1875 
Q 21.34375 51.125 25.703125 53.5625 
Q 30.078125 56 35.796875 56 
Q 45.21875 56 50.046875 50.171875 
Q 54.890625 44.34375 54.890625 33.015625 
z
" id="DejaVuSans-110"/>
     </defs>
     <g transform="translate(265.8625 101.395)scale(0.1 -0.1)">
      <use xlink:href="#DejaVuSans-82"/>
      <use x="64.982422" xlink:href="#DejaVuSans-101"/>
      <use x="126.505859" xlink:href="#DejaVuSans-108"/>
      <use x="154.289062" xlink:href="#DejaVuSans-97"/>
      <use x="215.568359" xlink:href="#DejaVuSans-116"/>
      <use x="254.777344" xlink:href="#DejaVuSans-105"/>
      <use x="282.560547" xlink:href="#DejaVuSans-111"/>
      <use x="343.742188" xlink:href="#DejaVuSans-110"/>
      <use x="407.121094" xlink:href="#DejaVuSans-97"/>
      <use x="468.400391" xlink:href="#DejaVuSans-108"/>
      <use x="496.183594" xlink:href="#DejaVuSans-45"/>
      <use x="535.892578" xlink:href="#DejaVuSans-71"/>
      <use x="613.382812" xlink:href="#DejaVuSans-67"/>
      <use x="683.207031" xlink:href="#DejaVuSans-78"/>
      <use x="758.011719" xlink:href="#DejaVuSans-44"/>
      <use x="789.798828" xlink:href="#DejaVuSans-32"/>
      <use x="821.585938" xlink:href="#DejaVuSans-65"/>
      <use x="889.994141" xlink:href="#DejaVuSans-85"/>
      <use x="963.1875" xlink:href="#DejaVuSans-67"/>
      <use x="1033.011719" xlink:href="#DejaVuSans-58"/>
      <use x="1066.703125" xlink:href="#DejaVuSans-48"/>
      <use x="1130.326172" xlink:href="#DejaVuSans-46"/>
      <use x="1162.113281" xlink:href="#DejaVuSans-49"/>
      <use x="1225.736328" xlink:href="#DejaVuSans-50"/>
     </g>
    </g>
    <g id="line2d_29">
     <path d="M 237.8625 112.573125 
L 257.8625 112.573125 
" style="fill:none;stroke:#00bfbf;stroke-linecap:square;stroke-width:1.5;"/>
    </g>
    <g id="line2d_30"/>
    <g id="text_21">
     <!-- GAT, AUC:0.04 -->
     <defs>
      <path d="M -0.296875 72.90625 
L 61.375 72.90625 
L 61.375 64.59375 
L 35.5 64.59375 
L 35.5 0 
L 25.59375 0 
L 25.59375 64.59375 
L -0.296875 64.59375 
z
" id="DejaVuSans-84"/>
     </defs>
     <g transform="translate(265.8625 116.073125)scale(0.1 -0.1)">
      <use xlink:href="#DejaVuSans-71"/>
      <use x="77.490234" xlink:href="#DejaVuSans-65"/>
      <use x="138.148438" xlink:href="#DejaVuSans-84"/>
      <use x="199.232422" xlink:href="#DejaVuSans-44"/>
      <use x="231.019531" xlink:href="#DejaVuSans-32"/>
      <use x="262.806641" xlink:href="#DejaVuSans-65"/>
      <use x="331.214844" xlink:href="#DejaVuSans-85"/>
      <use x="404.408203" xlink:href="#DejaVuSans-67"/>
      <use x="474.232422" xlink:href="#DejaVuSans-58"/>
      <use x="507.923828" xlink:href="#DejaVuSans-48"/>
      <use x="571.546875" xlink:href="#DejaVuSans-46"/>
      <use x="603.333984" xlink:href="#DejaVuSans-48"/>
      <use x="666.957031" xlink:href="#DejaVuSans-52"/>
     </g>
    </g>
    <g id="line2d_31">
     <path d="M 237.8625 127.25125 
L 257.8625 127.25125 
" style="fill:none;stroke:#ffa500;stroke-linecap:square;stroke-width:1.5;"/>
    </g>
    <g id="line2d_32"/>
    <g id="text_22">
     <!-- Improved R-GCN, AUC:0.21 -->
     <defs>
      <path d="M 9.8125 72.90625 
L 19.671875 72.90625 
L 19.671875 0 
L 9.8125 0 
z
" id="DejaVuSans-73"/>
      <path d="M 52 44.1875 
Q 55.375 50.25 60.0625 53.125 
Q 64.75 56 71.09375 56 
Q 79.640625 56 84.28125 50.015625 
Q 88.921875 44.046875 88.921875 33.015625 
L 88.921875 0 
L 79.890625 0 
L 79.890625 32.71875 
Q 79.890625 40.578125 77.09375 44.375 
Q 74.3125 48.1875 68.609375 48.1875 
Q 61.625 48.1875 57.5625 43.546875 
Q 53.515625 38.921875 53.515625 30.90625 
L 53.515625 0 
L 44.484375 0 
L 44.484375 32.71875 
Q 44.484375 40.625 41.703125 44.40625 
Q 38.921875 48.1875 33.109375 48.1875 
Q 26.21875 48.1875 22.15625 43.53125 
Q 18.109375 38.875 18.109375 30.90625 
L 18.109375 0 
L 9.078125 0 
L 9.078125 54.6875 
L 18.109375 54.6875 
L 18.109375 46.1875 
Q 21.1875 51.21875 25.484375 53.609375 
Q 29.78125 56 35.6875 56 
Q 41.65625 56 45.828125 52.96875 
Q 50 49.953125 52 44.1875 
z
" id="DejaVuSans-109"/>
      <path d="M 2.984375 54.6875 
L 12.5 54.6875 
L 29.59375 8.796875 
L 46.6875 54.6875 
L 56.203125 54.6875 
L 35.6875 0 
L 23.484375 0 
z
" id="DejaVuSans-118"/>
     </defs>
     <g transform="translate(265.8625 130.75125)scale(0.1 -0.1)">
      <use xlink:href="#DejaVuSans-73"/>
      <use x="29.492188" xlink:href="#DejaVuSans-109"/>
      <use x="126.904297" xlink:href="#DejaVuSans-112"/>
      <use x="190.380859" xlink:href="#DejaVuSans-114"/>
      <use x="229.244141" xlink:href="#DejaVuSans-111"/>
      <use x="290.425781" xlink:href="#DejaVuSans-118"/>
      <use x="349.605469" xlink:href="#DejaVuSans-101"/>
      <use x="411.128906" xlink:href="#DejaVuSans-100"/>
      <use x="474.605469" xlink:href="#DejaVuSans-32"/>
      <use x="506.392578" xlink:href="#DejaVuSans-82"/>
      <use x="571.875" xlink:href="#DejaVuSans-45"/>
      <use x="611.583984" xlink:href="#DejaVuSans-71"/>
      <use x="689.074219" xlink:href="#DejaVuSans-67"/>
      <use x="758.898438" xlink:href="#DejaVuSans-78"/>
      <use x="833.703125" xlink:href="#DejaVuSans-44"/>
      <use x="865.490234" xlink:href="#DejaVuSans-32"/>
      <use x="897.277344" xlink:href="#DejaVuSans-65"/>
      <use x="965.685547" xlink:href="#DejaVuSans-85"/>
      <use x="1038.878906" xlink:href="#DejaVuSans-67"/>
      <use x="1108.703125" xlink:href="#DejaVuSans-58"/>
      <use x="1142.394531" xlink:href="#DejaVuSans-48"/>
      <use x="1206.017578" xlink:href="#DejaVuSans-46"/>
      <use x="1237.804688" xlink:href="#DejaVuSans-50"/>
      <use x="1301.427734" xlink:href="#DejaVuSans-49"/>
     </g>
    </g>
   </g>
  </g>
 </g>
 <defs>
  <clipPath id="p7907eeb2c1">
   <rect height="271.8" width="334.8" x="76.56875" y="26.084062"/>
  </clipPath>
 </defs>
</svg>
