<?xml version="1.0" encoding="utf-8" standalone="no"?>
<!DOCTYPE svg PUBLIC "-//W3C//DTD SVG 1.1//EN"
  "http://www.w3.org/Graphics/SVG/1.1/DTD/svg11.dtd">
<!-- Created with matplotlib (https://matplotlib.org/) -->
<svg height="353.226875pt" version="1.1" viewBox="0 0 407.11625 353.226875" width="407.11625pt" xmlns="http://www.w3.org/2000/svg" xmlns:xlink="http://www.w3.org/1999/xlink">
 <defs>
  <style type="text/css">
*{stroke-linecap:butt;stroke-linejoin:round;}
  </style>
 </defs>
 <g id="figure_1">
  <g id="patch_1">
   <path d="M 0 353.226875 
L 407.11625 353.226875 
L 407.11625 0 
L 0 0 
z
" style="fill:#ffffff;"/>
  </g>
  <g id="axes_1">
   <g id="patch_2">
    <path d="M 65.11625 299.315625 
L 399.91625 299.315625 
L 399.91625 27.515625 
L 65.11625 27.515625 
z
" style="fill:#ffffff;"/>
   </g>
   <g id="matplotlib.axis_1">
    <g id="xtick_1">
     <g id="line2d_1">
      <defs>
       <path d="M 0 0 
L 0 3.5 
" id="m92064156e9" style="stroke:#000000;stroke-width:0.8;"/>
      </defs>
      <g>
       <use style="stroke:#000000;stroke-width:0.8;" x="80.334432" xlink:href="#m92064156e9" y="299.315625"/>
      </g>
     </g>
     <g id="text_1">
      <!-- 0.0 -->
      <defs>
       <path d="M 31.78125 66.40625 
Q 24.171875 66.40625 20.328125 58.90625 
Q 16.5 51.421875 16.5 36.375 
Q 16.5 21.390625 20.328125 13.890625 
Q 24.171875 6.390625 31.78125 6.390625 
Q 39.453125 6.390625 43.28125 13.890625 
Q 47.125 21.390625 47.125 36.375 
Q 47.125 51.421875 43.28125 58.90625 
Q 39.453125 66.40625 31.78125 66.40625 
z
M 31.78125 74.21875 
Q 44.046875 74.21875 50.515625 64.515625 
Q 56.984375 54.828125 56.984375 36.375 
Q 56.984375 17.96875 50.515625 8.265625 
Q 44.046875 -1.421875 31.78125 -1.421875 
Q 19.53125 -1.421875 13.0625 8.265625 
Q 6.59375 17.96875 6.59375 36.375 
Q 6.59375 54.828125 13.0625 64.515625 
Q 19.53125 74.21875 31.78125 74.21875 
z
" id="DejaVuSans-48"/>
       <path d="M 10.6875 12.40625 
L 21 12.40625 
L 21 0 
L 10.6875 0 
z
" id="DejaVuSans-46"/>
      </defs>
      <g transform="translate(66.021619 319.992812)scale(0.18 -0.18)">
       <use xlink:href="#DejaVuSans-48"/>
       <use x="63.623047" xlink:href="#DejaVuSans-46"/>
       <use x="95.410156" xlink:href="#DejaVuSans-48"/>
      </g>
     </g>
    </g>
    <g id="xtick_2">
     <g id="line2d_2">
      <g>
       <use style="stroke:#000000;stroke-width:0.8;" x="141.207159" xlink:href="#m92064156e9" y="299.315625"/>
      </g>
     </g>
     <g id="text_2">
      <!-- 0.2 -->
      <defs>
       <path d="M 19.1875 8.296875 
L 53.609375 8.296875 
L 53.609375 0 
L 7.328125 0 
L 7.328125 8.296875 
Q 12.9375 14.109375 22.625 23.890625 
Q 32.328125 33.6875 34.8125 36.53125 
Q 39.546875 41.84375 41.421875 45.53125 
Q 43.3125 49.21875 43.3125 52.78125 
Q 43.3125 58.59375 39.234375 62.25 
Q 35.15625 65.921875 28.609375 65.921875 
Q 23.96875 65.921875 18.8125 64.3125 
Q 13.671875 62.703125 7.8125 59.421875 
L 7.8125 69.390625 
Q 13.765625 71.78125 18.9375 73 
Q 24.125 74.21875 28.421875 74.21875 
Q 39.75 74.21875 46.484375 68.546875 
Q 53.21875 62.890625 53.21875 53.421875 
Q 53.21875 48.921875 51.53125 44.890625 
Q 49.859375 40.875 45.40625 35.40625 
Q 44.1875 33.984375 37.640625 27.21875 
Q 31.109375 20.453125 19.1875 8.296875 
z
" id="DejaVuSans-50"/>
      </defs>
      <g transform="translate(126.894347 319.992812)scale(0.18 -0.18)">
       <use xlink:href="#DejaVuSans-48"/>
       <use x="63.623047" xlink:href="#DejaVuSans-46"/>
       <use x="95.410156" xlink:href="#DejaVuSans-50"/>
      </g>
     </g>
    </g>
    <g id="xtick_3">
     <g id="line2d_3">
      <g>
       <use style="stroke:#000000;stroke-width:0.8;" x="202.079886" xlink:href="#m92064156e9" y="299.315625"/>
      </g>
     </g>
     <g id="text_3">
      <!-- 0.4 -->
      <defs>
       <path d="M 37.796875 64.3125 
L 12.890625 25.390625 
L 37.796875 25.390625 
z
M 35.203125 72.90625 
L 47.609375 72.90625 
L 47.609375 25.390625 
L 58.015625 25.390625 
L 58.015625 17.1875 
L 47.609375 17.1875 
L 47.609375 0 
L 37.796875 0 
L 37.796875 17.1875 
L 4.890625 17.1875 
L 4.890625 26.703125 
z
" id="DejaVuSans-52"/>
      </defs>
      <g transform="translate(187.767074 319.992812)scale(0.18 -0.18)">
       <use xlink:href="#DejaVuSans-48"/>
       <use x="63.623047" xlink:href="#DejaVuSans-46"/>
       <use x="95.410156" xlink:href="#DejaVuSans-52"/>
      </g>
     </g>
    </g>
    <g id="xtick_4">
     <g id="line2d_4">
      <g>
       <use style="stroke:#000000;stroke-width:0.8;" x="262.952614" xlink:href="#m92064156e9" y="299.315625"/>
      </g>
     </g>
     <g id="text_4">
      <!-- 0.6 -->
      <defs>
       <path d="M 33.015625 40.375 
Q 26.375 40.375 22.484375 35.828125 
Q 18.609375 31.296875 18.609375 23.390625 
Q 18.609375 15.53125 22.484375 10.953125 
Q 26.375 6.390625 33.015625 6.390625 
Q 39.65625 6.390625 43.53125 10.953125 
Q 47.40625 15.53125 47.40625 23.390625 
Q 47.40625 31.296875 43.53125 35.828125 
Q 39.65625 40.375 33.015625 40.375 
z
M 52.59375 71.296875 
L 52.59375 62.3125 
Q 48.875 64.0625 45.09375 64.984375 
Q 41.3125 65.921875 37.59375 65.921875 
Q 27.828125 65.921875 22.671875 59.328125 
Q 17.53125 52.734375 16.796875 39.40625 
Q 19.671875 43.65625 24.015625 45.921875 
Q 28.375 48.1875 33.59375 48.1875 
Q 44.578125 48.1875 50.953125 41.515625 
Q 57.328125 34.859375 57.328125 23.390625 
Q 57.328125 12.15625 50.6875 5.359375 
Q 44.046875 -1.421875 33.015625 -1.421875 
Q 20.359375 -1.421875 13.671875 8.265625 
Q 6.984375 17.96875 6.984375 36.375 
Q 6.984375 53.65625 15.1875 63.9375 
Q 23.390625 74.21875 37.203125 74.21875 
Q 40.921875 74.21875 44.703125 73.484375 
Q 48.484375 72.75 52.59375 71.296875 
z
" id="DejaVuSans-54"/>
      </defs>
      <g transform="translate(248.639801 319.992812)scale(0.18 -0.18)">
       <use xlink:href="#DejaVuSans-48"/>
       <use x="63.623047" xlink:href="#DejaVuSans-46"/>
       <use x="95.410156" xlink:href="#DejaVuSans-54"/>
      </g>
     </g>
    </g>
    <g id="xtick_5">
     <g id="line2d_5">
      <g>
       <use style="stroke:#000000;stroke-width:0.8;" x="323.825341" xlink:href="#m92064156e9" y="299.315625"/>
      </g>
     </g>
     <g id="text_5">
      <!-- 0.8 -->
      <defs>
       <path d="M 31.78125 34.625 
Q 24.75 34.625 20.71875 30.859375 
Q 16.703125 27.09375 16.703125 20.515625 
Q 16.703125 13.921875 20.71875 10.15625 
Q 24.75 6.390625 31.78125 6.390625 
Q 38.8125 6.390625 42.859375 10.171875 
Q 46.921875 13.96875 46.921875 20.515625 
Q 46.921875 27.09375 42.890625 30.859375 
Q 38.875 34.625 31.78125 34.625 
z
M 21.921875 38.8125 
Q 15.578125 40.375 12.03125 44.71875 
Q 8.5 49.078125 8.5 55.328125 
Q 8.5 64.0625 14.71875 69.140625 
Q 20.953125 74.21875 31.78125 74.21875 
Q 42.671875 74.21875 48.875 69.140625 
Q 55.078125 64.0625 55.078125 55.328125 
Q 55.078125 49.078125 51.53125 44.71875 
Q 48 40.375 41.703125 38.8125 
Q 48.828125 37.15625 52.796875 32.3125 
Q 56.78125 27.484375 56.78125 20.515625 
Q 56.78125 9.90625 50.3125 4.234375 
Q 43.84375 -1.421875 31.78125 -1.421875 
Q 19.734375 -1.421875 13.25 4.234375 
Q 6.78125 9.90625 6.78125 20.515625 
Q 6.78125 27.484375 10.78125 32.3125 
Q 14.796875 37.15625 21.921875 38.8125 
z
M 18.3125 54.390625 
Q 18.3125 48.734375 21.84375 45.5625 
Q 25.390625 42.390625 31.78125 42.390625 
Q 38.140625 42.390625 41.71875 45.5625 
Q 45.3125 48.734375 45.3125 54.390625 
Q 45.3125 60.0625 41.71875 63.234375 
Q 38.140625 66.40625 31.78125 66.40625 
Q 25.390625 66.40625 21.84375 63.234375 
Q 18.3125 60.0625 18.3125 54.390625 
z
" id="DejaVuSans-56"/>
      </defs>
      <g transform="translate(309.512528 319.992812)scale(0.18 -0.18)">
       <use xlink:href="#DejaVuSans-48"/>
       <use x="63.623047" xlink:href="#DejaVuSans-46"/>
       <use x="95.410156" xlink:href="#DejaVuSans-56"/>
      </g>
     </g>
    </g>
    <g id="xtick_6">
     <g id="line2d_6">
      <g>
       <use style="stroke:#000000;stroke-width:0.8;" x="384.698068" xlink:href="#m92064156e9" y="299.315625"/>
      </g>
     </g>
     <g id="text_6">
      <!-- 1.0 -->
      <defs>
       <path d="M 12.40625 8.296875 
L 28.515625 8.296875 
L 28.515625 63.921875 
L 10.984375 60.40625 
L 10.984375 69.390625 
L 28.421875 72.90625 
L 38.28125 72.90625 
L 38.28125 8.296875 
L 54.390625 8.296875 
L 54.390625 0 
L 12.40625 0 
z
" id="DejaVuSans-49"/>
      </defs>
      <g transform="translate(370.385256 319.992812)scale(0.18 -0.18)">
       <use xlink:href="#DejaVuSans-49"/>
       <use x="63.623047" xlink:href="#DejaVuSans-46"/>
       <use x="95.410156" xlink:href="#DejaVuSans-48"/>
      </g>
     </g>
    </g>
    <g id="text_7">
     <!-- False positive rate -->
     <defs>
      <path d="M 8.203125 0 
L 8.203125 71.578125 
L 56.5 71.578125 
L 56.5 63.140625 
L 17.671875 63.140625 
L 17.671875 40.96875 
L 51.265625 40.96875 
L 51.265625 32.515625 
L 17.671875 32.515625 
L 17.671875 0 
z
" id="ArialMT-70"/>
      <path d="M 40.4375 6.390625 
Q 35.546875 2.25 31.03125 0.53125 
Q 26.515625 -1.171875 21.34375 -1.171875 
Q 12.796875 -1.171875 8.203125 3 
Q 3.609375 7.171875 3.609375 13.671875 
Q 3.609375 17.484375 5.34375 20.625 
Q 7.078125 23.78125 9.890625 25.6875 
Q 12.703125 27.59375 16.21875 28.5625 
Q 18.796875 29.25 24.03125 29.890625 
Q 34.671875 31.15625 39.703125 32.90625 
Q 39.75 34.71875 39.75 35.203125 
Q 39.75 40.578125 37.25 42.78125 
Q 33.890625 45.75 27.25 45.75 
Q 21.046875 45.75 18.09375 43.578125 
Q 15.140625 41.40625 13.71875 35.890625 
L 5.125 37.0625 
Q 6.296875 42.578125 8.984375 45.96875 
Q 11.671875 49.359375 16.75 51.1875 
Q 21.828125 53.03125 28.515625 53.03125 
Q 35.15625 53.03125 39.296875 51.46875 
Q 43.453125 49.90625 45.40625 47.53125 
Q 47.359375 45.171875 48.140625 41.546875 
Q 48.578125 39.3125 48.578125 33.453125 
L 48.578125 21.734375 
Q 48.578125 9.46875 49.140625 6.21875 
Q 49.703125 2.984375 51.375 0 
L 42.1875 0 
Q 40.828125 2.734375 40.4375 6.390625 
z
M 39.703125 26.03125 
Q 34.90625 24.078125 25.34375 22.703125 
Q 19.921875 21.921875 17.671875 20.9375 
Q 15.4375 19.96875 14.203125 18.09375 
Q 12.984375 16.21875 12.984375 13.921875 
Q 12.984375 10.40625 15.640625 8.0625 
Q 18.3125 5.71875 23.4375 5.71875 
Q 28.515625 5.71875 32.46875 7.9375 
Q 36.421875 10.15625 38.28125 14.015625 
Q 39.703125 17 39.703125 22.796875 
z
" id="ArialMT-97"/>
      <path d="M 6.390625 0 
L 6.390625 71.578125 
L 15.1875 71.578125 
L 15.1875 0 
z
" id="ArialMT-108"/>
      <path d="M 3.078125 15.484375 
L 11.765625 16.84375 
Q 12.5 11.625 15.84375 8.84375 
Q 19.1875 6.0625 25.203125 6.0625 
Q 31.25 6.0625 34.171875 8.515625 
Q 37.109375 10.984375 37.109375 14.3125 
Q 37.109375 17.28125 34.515625 19 
Q 32.71875 20.171875 25.53125 21.96875 
Q 15.875 24.421875 12.140625 26.203125 
Q 8.40625 27.984375 6.46875 31.125 
Q 4.546875 34.28125 4.546875 38.09375 
Q 4.546875 41.546875 6.125 44.5 
Q 7.71875 47.46875 10.453125 49.421875 
Q 12.5 50.921875 16.03125 51.96875 
Q 19.578125 53.03125 23.640625 53.03125 
Q 29.734375 53.03125 34.34375 51.265625 
Q 38.96875 49.515625 41.15625 46.5 
Q 43.359375 43.5 44.1875 38.484375 
L 35.59375 37.3125 
Q 35.015625 41.3125 32.203125 43.546875 
Q 29.390625 45.796875 24.265625 45.796875 
Q 18.21875 45.796875 15.625 43.796875 
Q 13.03125 41.796875 13.03125 39.109375 
Q 13.03125 37.40625 14.109375 36.03125 
Q 15.1875 34.625 17.484375 33.6875 
Q 18.796875 33.203125 25.25 31.453125 
Q 34.578125 28.953125 38.25 27.359375 
Q 41.9375 25.78125 44.03125 22.75 
Q 46.140625 19.734375 46.140625 15.234375 
Q 46.140625 10.84375 43.578125 6.953125 
Q 41.015625 3.078125 36.171875 0.953125 
Q 31.34375 -1.171875 25.25 -1.171875 
Q 15.140625 -1.171875 9.84375 3.03125 
Q 4.546875 7.234375 3.078125 15.484375 
z
" id="ArialMT-115"/>
      <path d="M 42.09375 16.703125 
L 51.171875 15.578125 
Q 49.03125 7.625 43.21875 3.21875 
Q 37.40625 -1.171875 28.375 -1.171875 
Q 17 -1.171875 10.328125 5.828125 
Q 3.65625 12.84375 3.65625 25.484375 
Q 3.65625 38.578125 10.390625 45.796875 
Q 17.140625 53.03125 27.875 53.03125 
Q 38.28125 53.03125 44.875 45.953125 
Q 51.46875 38.875 51.46875 26.03125 
Q 51.46875 25.25 51.421875 23.6875 
L 12.75 23.6875 
Q 13.234375 15.140625 17.578125 10.59375 
Q 21.921875 6.0625 28.421875 6.0625 
Q 33.25 6.0625 36.671875 8.59375 
Q 40.09375 11.140625 42.09375 16.703125 
z
M 13.234375 30.90625 
L 42.1875 30.90625 
Q 41.609375 37.453125 38.875 40.71875 
Q 34.671875 45.796875 27.984375 45.796875 
Q 21.921875 45.796875 17.796875 41.75 
Q 13.671875 37.703125 13.234375 30.90625 
z
" id="ArialMT-101"/>
      <path id="ArialMT-32"/>
      <path d="M 6.59375 -19.875 
L 6.59375 51.859375 
L 14.59375 51.859375 
L 14.59375 45.125 
Q 17.4375 49.078125 21 51.046875 
Q 24.5625 53.03125 29.640625 53.03125 
Q 36.28125 53.03125 41.359375 49.609375 
Q 46.4375 46.1875 49.015625 39.953125 
Q 51.609375 33.734375 51.609375 26.3125 
Q 51.609375 18.359375 48.75 11.984375 
Q 45.90625 5.609375 40.453125 2.21875 
Q 35.015625 -1.171875 29 -1.171875 
Q 24.609375 -1.171875 21.109375 0.6875 
Q 17.625 2.546875 15.375 5.375 
L 15.375 -19.875 
z
M 14.546875 25.640625 
Q 14.546875 15.625 18.59375 10.84375 
Q 22.65625 6.0625 28.421875 6.0625 
Q 34.28125 6.0625 38.453125 11.015625 
Q 42.625 15.96875 42.625 26.375 
Q 42.625 36.28125 38.546875 41.203125 
Q 34.46875 46.140625 28.8125 46.140625 
Q 23.1875 46.140625 18.859375 40.890625 
Q 14.546875 35.640625 14.546875 25.640625 
z
" id="ArialMT-112"/>
      <path d="M 3.328125 25.921875 
Q 3.328125 40.328125 11.328125 47.265625 
Q 18.015625 53.03125 27.640625 53.03125 
Q 38.328125 53.03125 45.109375 46.015625 
Q 51.90625 39.015625 51.90625 26.65625 
Q 51.90625 16.65625 48.90625 10.90625 
Q 45.90625 5.171875 40.15625 2 
Q 34.421875 -1.171875 27.640625 -1.171875 
Q 16.75 -1.171875 10.03125 5.8125 
Q 3.328125 12.796875 3.328125 25.921875 
z
M 12.359375 25.921875 
Q 12.359375 15.96875 16.703125 11.015625 
Q 21.046875 6.0625 27.640625 6.0625 
Q 34.1875 6.0625 38.53125 11.03125 
Q 42.875 16.015625 42.875 26.21875 
Q 42.875 35.84375 38.5 40.796875 
Q 34.125 45.75 27.640625 45.75 
Q 21.046875 45.75 16.703125 40.8125 
Q 12.359375 35.890625 12.359375 25.921875 
z
" id="ArialMT-111"/>
      <path d="M 6.640625 61.46875 
L 6.640625 71.578125 
L 15.4375 71.578125 
L 15.4375 61.46875 
z
M 6.640625 0 
L 6.640625 51.859375 
L 15.4375 51.859375 
L 15.4375 0 
z
" id="ArialMT-105"/>
      <path d="M 25.78125 7.859375 
L 27.046875 0.09375 
Q 23.34375 -0.6875 20.40625 -0.6875 
Q 15.625 -0.6875 12.984375 0.828125 
Q 10.359375 2.34375 9.28125 4.8125 
Q 8.203125 7.28125 8.203125 15.1875 
L 8.203125 45.015625 
L 1.765625 45.015625 
L 1.765625 51.859375 
L 8.203125 51.859375 
L 8.203125 64.703125 
L 16.9375 69.96875 
L 16.9375 51.859375 
L 25.78125 51.859375 
L 25.78125 45.015625 
L 16.9375 45.015625 
L 16.9375 14.703125 
Q 16.9375 10.9375 17.40625 9.859375 
Q 17.875 8.796875 18.921875 8.15625 
Q 19.96875 7.515625 21.921875 7.515625 
Q 23.390625 7.515625 25.78125 7.859375 
z
" id="ArialMT-116"/>
      <path d="M 21 0 
L 1.265625 51.859375 
L 10.546875 51.859375 
L 21.6875 20.796875 
Q 23.484375 15.765625 25 10.359375 
Q 26.171875 14.453125 28.265625 20.21875 
L 39.796875 51.859375 
L 48.828125 51.859375 
L 29.203125 0 
z
" id="ArialMT-118"/>
      <path d="M 6.5 0 
L 6.5 51.859375 
L 14.40625 51.859375 
L 14.40625 44 
Q 17.4375 49.515625 20 51.265625 
Q 22.5625 53.03125 25.640625 53.03125 
Q 30.078125 53.03125 34.671875 50.203125 
L 31.640625 42.046875 
Q 28.421875 43.953125 25.203125 43.953125 
Q 22.3125 43.953125 20.015625 42.21875 
Q 17.71875 40.484375 16.75 37.40625 
Q 15.28125 32.71875 15.28125 27.15625 
L 15.28125 0 
z
" id="ArialMT-114"/>
     </defs>
     <g transform="translate(151.374062 342.051875)scale(0.2 -0.2)">
      <use xlink:href="#ArialMT-70"/>
      <use x="61.083984" xlink:href="#ArialMT-97"/>
      <use x="116.699219" xlink:href="#ArialMT-108"/>
      <use x="138.916016" xlink:href="#ArialMT-115"/>
      <use x="188.916016" xlink:href="#ArialMT-101"/>
      <use x="244.53125" xlink:href="#ArialMT-32"/>
      <use x="272.314453" xlink:href="#ArialMT-112"/>
      <use x="327.929688" xlink:href="#ArialMT-111"/>
      <use x="383.544922" xlink:href="#ArialMT-115"/>
      <use x="433.544922" xlink:href="#ArialMT-105"/>
      <use x="455.761719" xlink:href="#ArialMT-116"/>
      <use x="483.544922" xlink:href="#ArialMT-105"/>
      <use x="505.761719" xlink:href="#ArialMT-118"/>
      <use x="555.761719" xlink:href="#ArialMT-101"/>
      <use x="611.376953" xlink:href="#ArialMT-32"/>
      <use x="639.160156" xlink:href="#ArialMT-114"/>
      <use x="672.460938" xlink:href="#ArialMT-97"/>
      <use x="728.076172" xlink:href="#ArialMT-116"/>
      <use x="755.859375" xlink:href="#ArialMT-101"/>
     </g>
    </g>
   </g>
   <g id="matplotlib.axis_2">
    <g id="ytick_1">
     <g id="line2d_7">
      <defs>
       <path d="M 0 0 
L -3.5 0 
" id="maaafd80c94" style="stroke:#000000;stroke-width:0.8;"/>
      </defs>
      <g>
       <use style="stroke:#000000;stroke-width:0.8;" x="65.11625" xlink:href="#maaafd80c94" y="286.96108"/>
      </g>
     </g>
     <g id="text_8">
      <!-- 0.0 -->
      <g transform="translate(29.490625 293.799673)scale(0.18 -0.18)">
       <use xlink:href="#DejaVuSans-48"/>
       <use x="63.623047" xlink:href="#DejaVuSans-46"/>
       <use x="95.410156" xlink:href="#DejaVuSans-48"/>
      </g>
     </g>
    </g>
    <g id="ytick_2">
     <g id="line2d_8">
      <g>
       <use style="stroke:#000000;stroke-width:0.8;" x="65.11625" xlink:href="#maaafd80c94" y="237.542898"/>
      </g>
     </g>
     <g id="text_9">
      <!-- 0.2 -->
      <g transform="translate(29.490625 244.381491)scale(0.18 -0.18)">
       <use xlink:href="#DejaVuSans-48"/>
       <use x="63.623047" xlink:href="#DejaVuSans-46"/>
       <use x="95.410156" xlink:href="#DejaVuSans-50"/>
      </g>
     </g>
    </g>
    <g id="ytick_3">
     <g id="line2d_9">
      <g>
       <use style="stroke:#000000;stroke-width:0.8;" x="65.11625" xlink:href="#maaafd80c94" y="188.124716"/>
      </g>
     </g>
     <g id="text_10">
      <!-- 0.4 -->
      <g transform="translate(29.490625 194.96331)scale(0.18 -0.18)">
       <use xlink:href="#DejaVuSans-48"/>
       <use x="63.623047" xlink:href="#DejaVuSans-46"/>
       <use x="95.410156" xlink:href="#DejaVuSans-52"/>
      </g>
     </g>
    </g>
    <g id="ytick_4">
     <g id="line2d_10">
      <g>
       <use style="stroke:#000000;stroke-width:0.8;" x="65.11625" xlink:href="#maaafd80c94" y="138.706534"/>
      </g>
     </g>
     <g id="text_11">
      <!-- 0.6 -->
      <g transform="translate(29.490625 145.545128)scale(0.18 -0.18)">
       <use xlink:href="#DejaVuSans-48"/>
       <use x="63.623047" xlink:href="#DejaVuSans-46"/>
       <use x="95.410156" xlink:href="#DejaVuSans-54"/>
      </g>
     </g>
    </g>
    <g id="ytick_5">
     <g id="line2d_11">
      <g>
       <use style="stroke:#000000;stroke-width:0.8;" x="65.11625" xlink:href="#maaafd80c94" y="89.288352"/>
      </g>
     </g>
     <g id="text_12">
      <!-- 0.8 -->
      <g transform="translate(29.490625 96.126946)scale(0.18 -0.18)">
       <use xlink:href="#DejaVuSans-48"/>
       <use x="63.623047" xlink:href="#DejaVuSans-46"/>
       <use x="95.410156" xlink:href="#DejaVuSans-56"/>
      </g>
     </g>
    </g>
    <g id="ytick_6">
     <g id="line2d_12">
      <g>
       <use style="stroke:#000000;stroke-width:0.8;" x="65.11625" xlink:href="#maaafd80c94" y="39.87017"/>
      </g>
     </g>
     <g id="text_13">
      <!-- 1.0 -->
      <g transform="translate(29.490625 46.708764)scale(0.18 -0.18)">
       <use xlink:href="#DejaVuSans-49"/>
       <use x="63.623047" xlink:href="#DejaVuSans-46"/>
       <use x="95.410156" xlink:href="#DejaVuSans-48"/>
      </g>
     </g>
    </g>
    <g id="text_14">
     <!-- True positive rate -->
     <defs>
      <path d="M 25.921875 0 
L 25.921875 63.140625 
L 2.34375 63.140625 
L 2.34375 71.578125 
L 59.078125 71.578125 
L 59.078125 63.140625 
L 35.40625 63.140625 
L 35.40625 0 
z
" id="ArialMT-84"/>
      <path d="M 40.578125 0 
L 40.578125 7.625 
Q 34.515625 -1.171875 24.125 -1.171875 
Q 19.53125 -1.171875 15.546875 0.578125 
Q 11.578125 2.34375 9.640625 5 
Q 7.71875 7.671875 6.9375 11.53125 
Q 6.390625 14.109375 6.390625 19.734375 
L 6.390625 51.859375 
L 15.1875 51.859375 
L 15.1875 23.09375 
Q 15.1875 16.21875 15.71875 13.8125 
Q 16.546875 10.359375 19.234375 8.375 
Q 21.921875 6.390625 25.875 6.390625 
Q 29.828125 6.390625 33.296875 8.421875 
Q 36.765625 10.453125 38.203125 13.9375 
Q 39.65625 17.4375 39.65625 24.078125 
L 39.65625 51.859375 
L 48.4375 51.859375 
L 48.4375 0 
z
" id="ArialMT-117"/>
     </defs>
     <g transform="translate(21.515625 240.290625)rotate(-90)scale(0.2 -0.2)">
      <use xlink:href="#ArialMT-84"/>
      <use x="57.333984" xlink:href="#ArialMT-114"/>
      <use x="90.634766" xlink:href="#ArialMT-117"/>
      <use x="146.25" xlink:href="#ArialMT-101"/>
      <use x="201.865234" xlink:href="#ArialMT-32"/>
      <use x="229.648438" xlink:href="#ArialMT-112"/>
      <use x="285.263672" xlink:href="#ArialMT-111"/>
      <use x="340.878906" xlink:href="#ArialMT-115"/>
      <use x="390.878906" xlink:href="#ArialMT-105"/>
      <use x="413.095703" xlink:href="#ArialMT-116"/>
      <use x="440.878906" xlink:href="#ArialMT-105"/>
      <use x="463.095703" xlink:href="#ArialMT-118"/>
      <use x="513.095703" xlink:href="#ArialMT-101"/>
      <use x="568.710938" xlink:href="#ArialMT-32"/>
      <use x="596.494141" xlink:href="#ArialMT-114"/>
      <use x="629.794922" xlink:href="#ArialMT-97"/>
      <use x="685.410156" xlink:href="#ArialMT-116"/>
      <use x="713.193359" xlink:href="#ArialMT-101"/>
     </g>
    </g>
   </g>
   <g id="line2d_13">
    <path clip-path="url(#p78b0a03a24)" d="M 80.334432 286.96108 
L 80.574289 280.23662 
L 81.02458 272.404603 
L 81.448418 266.339405 
L 82.914016 248.552551 
L 85.522729 224.463166 
L 85.934083 221.747011 
L 86.306502 218.819894 
L 88.837639 201.507708 
L 89.037075 200.413335 
L 90.964555 190.221165 
L 91.096522 189.693756 
L 91.522737 187.505011 
L 92.27768 184.301004 
L 92.790684 182.046332 
L 93.009141 181.30796 
L 93.361646 179.73892 
L 94.026233 176.719506 
L 94.625729 175.071354 
L 96.867075 166.013112 
L 97.049272 165.393407 
L 97.475488 164.351775 
L 97.524529 164.31222 
L 98.795745 159.842432 
L 99.125958 158.932652 
L 99.590515 157.627316 
L 99.910623 156.743907 
L 100.114219 156.282424 
L 102.397177 149.030557 
L 102.516957 148.766852 
L 103.677012 145.786994 
L 103.973639 144.718992 
L 104.215875 144.099287 
L 104.532415 143.334544 
L 104.8977 142.49069 
L 105.546238 141.211725 
L 105.740323 140.750242 
L 106.046461 140.077796 
L 107.349777 136.847419 
L 107.690393 136.188158 
L 109.158369 132.90504 
L 109.967109 131.678815 
L 110.269977 130.821776 
L 112.345772 126.892582 
L 112.588007 126.338803 
L 112.745534 126.10147 
L 116.2578 119.693456 
L 116.743757 118.915528 
L 117.351277 118.08486 
L 117.662468 117.715674 
L 119.261817 115.540113 
L 119.697246 114.788556 
L 120.278314 114.274333 
L 120.734846 113.588702 
L 121.071301 112.823959 
L 121.183947 112.718477 
L 121.427669 112.217439 
L 121.679415 111.914179 
L 123.844079 109.4881 
L 124.258406 108.776098 
L 125.745999 106.771946 
L 126.176078 106.455501 
L 126.629341 105.914907 
L 126.930426 105.572091 
L 127.398253 104.820534 
L 127.863999 104.266755 
L 128.964312 102.829567 
L 129.128973 102.565863 
L 129.596205 102.394455 
L 130.280111 101.629713 
L 130.639452 101.181415 
L 131.360808 100.482599 
L 131.736199 100.166154 
L 131.925826 99.862894 
L 132.109806 99.796968 
L 134.045312 97.621407 
L 134.448642 97.370888 
L 134.658183 97.265407 
L 135.498428 96.381997 
L 135.924049 96.197404 
L 137.484164 94.733846 
L 137.700244 94.628364 
L 138.426058 94.0614 
L 139.125718 93.520806 
L 139.609297 92.967027 
L 140.396042 92.386878 
L 140.911721 91.833099 
L 141.419078 91.674876 
L 142.229006 90.962874 
L 143.057957 90.211317 
L 143.928518 89.301537 
L 146.055732 88.22035 
L 146.707836 87.627015 
L 147.348942 87.323755 
L 148.022743 86.941384 
L 148.358306 86.809532 
L 149.428303 86.031604 
L 149.788238 85.899752 
L 150.507217 85.398714 
L 152.067926 84.462564 
L 152.479578 84.067008 
L 154.094679 83.196783 
L 154.501873 82.880338 
L 154.917091 82.801227 
L 155.778439 82.247448 
L 156.672183 81.575002 
L 157.138821 81.46952 
L 158.5423 80.638852 
L 160.06348 79.940036 
L 161.101971 79.228034 
L 162.20496 78.726996 
L 162.767005 78.621514 
L 167.553756 76.472324 
L 168.190404 76.024027 
L 168.868961 75.720767 
L 169.543059 75.615285 
L 170.8865 75.140618 
L 172.343182 74.178097 
L 173.861686 73.466096 
L 176.246888 72.912317 
L 177.959775 72.384908 
L 178.839253 71.962981 
L 179.715759 71.686092 
L 180.63447 71.264165 
L 181.557937 71.026831 
L 182.543226 70.604904 
L 183.543673 70.393941 
L 184.570573 69.958829 
L 190.070061 68.323862 
L 193.752634 66.886674 
L 196.45408 66.280154 
L 197.834376 66.04282 
L 199.281844 65.4363 
L 200.756062 65.225337 
L 203.890559 64.17052 
L 207.248269 63.537629 
L 209.013467 62.799257 
L 210.893393 62.139997 
L 226.410728 58.619545 
L 229.145165 57.881173 
L 232.005326 57.432875 
L 245.238515 54.123387 
L 249.127063 53.675089 
L 253.292621 53.002644 
L 257.829705 52.106049 
L 262.736831 51.341307 
L 274.124869 49.877748 
L 280.694057 48.849301 
L 296.594807 46.858334 
L 306.510113 45.869443 
L 318.314559 44.946478 
L 333.057335 43.680697 
L 352.788081 41.834767 
L 384.698068 39.87017 
L 384.698068 39.87017 
" style="fill:none;stroke:#ff0000;stroke-linecap:square;stroke-width:1.5;"/>
   </g>
   <g id="line2d_14">
    <path clip-path="url(#p78b0a03a24)" d="M 80.334432 286.96108 
L 80.347807 286.855598 
L 80.456293 286.394115 
L 80.539812 286.288634 
L 80.747272 285.721669 
L 80.808203 285.616188 
L 81.001991 285.11515 
L 81.138416 285.009668 
L 81.396998 284.535 
L 81.857394 283.532924 
L 82.148969 282.715441 
L 82.329976 282.451736 
L 82.494934 282.003439 
L 83.038255 280.909066 
L 83.254038 280.526695 
L 83.739697 279.366396 
L 83.977177 278.852173 
L 84.234571 278.377505 
L 84.407257 278.008319 
L 84.48602 277.968764 
L 84.721123 277.269947 
L 85.402057 275.859129 
L 85.648156 275.107572 
L 86.06278 274.395571 
L 86.285399 274.118681 
L 86.715775 273.40668 
L 88.08983 271.099267 
L 88.334146 270.545488 
L 88.495834 270.440006 
L 89.741192 268.356743 
L 90.110638 267.789778 
L 90.43461 267.090962 
L 92.373682 264.361623 
L 92.48514 264.229771 
L 92.835564 263.59688 
L 93.220763 262.858508 
L 93.484993 262.436582 
L 94.537751 260.524726 
L 95.543548 258.573314 
L 95.981356 257.623979 
L 96.89442 256.397754 
L 98.531218 253.998045 
L 98.859945 253.642044 
L 101.090294 249.871073 
L 101.709704 249.040404 
L 102.287205 248.011958 
L 102.695884 247.748253 
L 103.324805 246.798918 
L 103.736456 246.179213 
L 104.188827 245.678175 
L 105.54386 243.8718 
L 107.484418 240.865572 
L 108.250061 239.955792 
L 108.785654 238.795493 
L 109.052261 238.624085 
L 110.169219 236.646303 
L 112.240853 233.692815 
L 112.544018 233.020369 
L 117.179781 226.704652 
L 117.539716 225.979465 
L 117.900245 225.544353 
L 118.2688 224.845537 
L 119.030578 223.948942 
L 120.177556 222.445828 
L 123.848835 218.200189 
L 124.265242 217.448632 
L 124.706616 216.947594 
L 125.13402 216.248777 
L 129.29512 211.858101 
L 130.285164 210.53958 
L 130.799952 209.946245 
L 131.315333 209.115576 
L 132.890607 207.546536 
L 133.953173 206.781794 
L 135.085884 205.595124 
L 136.782127 203.709639 
L 139.780199 200.413335 
L 141.022287 199.279407 
L 142.283992 197.578514 
L 144.251598 196.141326 
L 152.878449 186.779824 
L 153.644389 186.21286 
L 155.214015 184.419671 
L 156.005516 183.536261 
L 160.139865 179.791661 
L 160.991405 178.908251 
L 162.690917 177.339211 
L 171.116549 169.467638 
L 172.092624 168.650155 
L 176.125324 164.64185 
L 177.162627 163.455181 
L 178.204982 162.650883 
L 180.357757 160.475322 
L 184.73137 156.150572 
L 188.084919 153.605826 
L 189.208713 152.313675 
L 191.571326 150.401819 
L 192.733462 149.26789 
L 195.111233 147.435146 
L 196.322708 146.353958 
L 197.527941 145.035437 
L 203.753243 139.761351 
L 205.012273 138.535126 
L 207.571646 136.544159 
L 208.848807 135.753046 
L 210.106053 134.526821 
L 215.388272 130.413035 
L 216.68921 129.147254 
L 218.014818 128.092437 
L 219.348747 127.209028 
L 220.722207 125.982803 
L 223.395417 124.295095 
L 227.575836 121.22294 
L 230.341184 119.205603 
L 233.160329 116.819079 
L 241.695339 111.05714 
L 244.579575 109.303507 
L 245.964033 108.156393 
L 250.233915 105.242461 
L 251.659389 104.5832 
L 258.842636 99.243189 
L 261.735195 97.674148 
L 266.036583 95.037106 
L 268.863159 92.967027 
L 273.217749 90.145391 
L 276.089503 88.286276 
L 278.980278 86.34805 
L 280.439635 85.649233 
L 281.874917 84.726268 
L 283.286422 84.093378 
L 284.689901 83.209969 
L 290.312736 80.309222 
L 291.696004 79.373071 
L 295.840757 77.289808 
L 297.236211 76.274546 
L 301.410686 73.888022 
L 302.759477 72.872761 
L 306.854296 70.328015 
L 312.155537 67.242675 
L 316.042896 65.185781 
L 319.885077 63.26074 
L 324.89296 60.979698 
L 326.149315 60.241326 
L 332.141893 58.039395 
L 335.668425 56.364873 
L 337.944547 55.455093 
L 344.493523 52.752124 
L 346.591906 51.776419 
L 348.640653 50.91938 
L 349.629509 50.64249 
L 351.576904 49.759081 
L 355.350427 48.611967 
L 360.621648 46.502333 
L 362.249233 46.040851 
L 363.843528 45.434331 
L 368.16483 44.010328 
L 370.112819 43.377437 
L 376.66031 41.465581 
L 377.996023 41.241433 
L 380.628513 40.634913 
L 381.266053 40.45032 
L 383.499077 40.054763 
L 384.122945 39.962467 
L 384.698068 39.87017 
L 384.698068 39.87017 
" style="fill:none;stroke:#008000;stroke-linecap:square;stroke-width:1.5;"/>
   </g>
   <g id="line2d_15">
    <path clip-path="url(#p78b0a03a24)" d="M 80.334432 286.96108 
L 80.339015 286.855598 
L 80.490819 284.139444 
L 80.695754 280.23662 
L 80.844551 277.546837 
L 81.099754 273.683569 
L 81.209311 271.943121 
L 81.447185 268.660003 
L 83.91386 238.703197 
L 85.645716 220.665824 
L 85.745964 219.808785 
L 86.053726 216.908038 
L 87.376856 204.42164 
L 87.643946 202.391117 
L 88.252451 197.143402 
L 88.759706 193.425172 
L 89.177598 190.23435 
L 89.651198 187.069899 
L 91.646277 172.843053 
L 92.150954 168.584229 
L 92.350161 167.199781 
L 92.817174 164.246293 
L 93.283614 161.530139 
L 93.741891 158.603022 
L 95.65405 148.292185 
L 95.848388 147.356034 
L 96.130229 145.813364 
L 98.434358 134.157635 
L 100.62578 124.413762 
L 101.479177 121.183385 
L 101.798539 120.075827 
L 102.188361 118.757305 
L 104.587582 110.569288 
L 105.648064 106.996095 
L 106.143146 105.479795 
L 106.646391 104.372237 
L 107.328221 102.420825 
L 107.492484 102.10438 
L 107.823016 101.300082 
L 109.050052 98.293853 
L 109.757087 96.672072 
L 110.731069 94.536067 
L 110.996583 93.876807 
L 111.445121 92.82199 
L 112.005078 91.213394 
L 113.036057 89.209241 
L 113.600883 87.627015 
L 116.395799 82.629819 
L 117.418902 80.902556 
L 117.940335 79.90048 
L 120.026067 76.577806 
L 120.254775 76.353657 
L 121.144978 74.96921 
L 121.364521 74.66595 
L 121.817642 73.545207 
L 122.044346 73.215576 
L 122.503625 72.595871 
L 122.854923 72.279426 
L 123.70073 71.066387 
L 123.936313 70.868608 
L 125.042765 69.919273 
L 125.424567 69.391864 
L 125.676046 69.141345 
L 126.443516 68.297492 
L 126.711322 68.046973 
L 126.969675 67.598675 
L 127.23834 67.308601 
L 127.629737 66.741636 
L 127.899691 66.491117 
L 128.422269 65.897783 
L 128.986666 65.264892 
L 130.399733 63.564 
L 132.15078 61.994959 
L 132.89548 61.282958 
L 134.158748 60.333622 
L 134.79518 59.87214 
L 135.275511 59.529324 
L 135.957198 59.120583 
L 136.797706 58.342655 
L 138.72834 57.208727 
L 139.106419 57.024134 
L 140.038152 56.430799 
L 140.80906 55.87702 
L 141.813832 55.481464 
L 142.205801 55.323241 
L 142.609515 55.178204 
L 144.930686 54.017905 
L 145.359461 53.648719 
L 145.804706 53.450941 
L 146.700064 52.923532 
L 147.182687 52.699384 
L 148.150367 52.211531 
L 149.167598 51.684122 
L 150.195427 51.117158 
L 150.713852 50.879824 
L 152.058035 50.31286 
L 153.787457 49.561303 
L 155.608248 48.928412 
L 155.926607 48.743819 
L 157.516111 48.44056 
L 158.202953 48.269152 
L 158.861726 48.1373 
L 161.790258 47.187964 
L 165.457617 46.251814 
L 166.79464 45.98811 
L 175.63981 44.287217 
L 177.50557 44.076254 
L 183.270691 43.469734 
L 185.746817 43.324697 
L 191.352401 42.784103 
L 209.036585 41.755656 
L 217.389537 41.452396 
L 222.597566 41.135951 
L 225.509915 41.08321 
L 232.265487 40.793135 
L 245.975551 40.568987 
L 259.710535 40.318468 
L 303.206583 40.015208 
L 384.698068 39.87017 
L 384.698068 39.87017 
" style="fill:none;stroke:#0000ff;stroke-linecap:square;stroke-width:1.5;"/>
   </g>
   <g id="line2d_16">
    <path clip-path="url(#p78b0a03a24)" d="M 80.334432 286.96108 
L 80.458739 284.324037 
L 81.785021 265.614218 
L 82.746829 255.936271 
L 82.958209 254.103526 
L 83.384264 250.34574 
L 85.379199 235.354152 
L 85.681949 233.099481 
L 86.164858 229.829548 
L 86.348168 228.695619 
L 86.707343 226.506874 
L 88.803816 213.545808 
L 91.432462 199.912297 
L 91.7017 198.316886 
L 92.045264 196.747846 
L 93.888253 188.467531 
L 95.339128 182.375963 
L 96.6962 176.271209 
L 96.96329 175.387799 
L 97.512076 173.475943 
L 97.974649 171.788236 
L 99.132228 167.516227 
L 99.833534 165.195629 
L 100.332197 163.494736 
L 101.044387 160.989546 
L 104.361022 150.81056 
L 104.725495 149.927151 
L 105.320825 147.72522 
L 108.200092 140.31513 
L 109.109485 138.429645 
L 109.640943 136.992456 
L 109.918343 136.32001 
L 114.355322 125.930062 
L 115.568323 123.543538 
L 116.185564 122.093165 
L 117.150237 119.825308 
L 117.931885 118.361749 
L 118.421239 117.20145 
L 119.569222 114.683074 
L 120.255062 113.575516 
L 120.760455 112.665737 
L 122.162209 110.015509 
L 125.049496 105.229276 
L 125.424137 104.688682 
L 126.820306 102.579048 
L 127.61871 101.392379 
L 128.016838 100.759488 
L 129.425466 98.939929 
L 130.251366 97.977408 
L 133.277998 93.916362 
L 133.716798 93.362583 
L 134.158748 92.87473 
L 134.855186 92.044062 
L 135.772169 90.567318 
L 136.467317 89.591612 
L 137.17335 88.774129 
L 138.384346 87.692941 
L 142.120161 83.407747 
L 143.976898 81.640928 
L 144.505205 81.073964 
L 145.046544 80.559741 
L 145.333254 80.23011 
L 145.895788 79.87411 
L 146.746321 79.148923 
L 149.321407 76.788769 
L 149.615707 76.670103 
L 152.029106 74.33632 
L 156.170353 71.396017 
L 157.161949 70.604904 
L 159.203715 69.167716 
L 159.563892 69.035864 
L 160.63583 68.244751 
L 161.34845 67.730527 
L 162.073817 67.321786 
L 162.423969 67.229489 
L 165.054477 65.581338 
L 165.80734 64.974818 
L 166.188855 64.724299 
L 166.588129 64.618817 
L 167.774922 63.946371 
L 170.193335 62.575109 
L 171.044154 62.126812 
L 172.347235 61.546662 
L 174.100001 60.755549 
L 174.552835 60.610512 
L 176.379784 59.582065 
L 178.244684 58.738212 
L 178.70826 58.514063 
L 179.188305 58.144877 
L 182.655741 56.931837 
L 185.255172 56.048428 
L 185.778897 55.797909 
L 186.315224 55.666057 
L 186.863008 55.402352 
L 187.406639 55.283686 
L 189.675395 54.387091 
L 190.862761 54.136572 
L 195.720351 52.844421 
L 199.693038 51.328121 
L 203.173793 50.418342 
L 204.617365 50.03597 
L 207.697128 49.271228 
L 210.945021 48.664708 
L 211.775504 48.546041 
L 213.462249 48.110929 
L 214.331399 47.847225 
L 217.926437 47.240705 
L 218.853015 46.884704 
L 221.764218 46.528703 
L 226.901214 45.750776 
L 229.075021 45.421146 
L 238.705564 44.234476 
L 242.773772 43.931216 
L 245.639577 43.680697 
L 255.146528 43.021437 
L 258.674113 42.836844 
L 273.128305 41.887508 
L 289.105837 41.373285 
L 295.48018 41.122766 
L 310.430456 40.687654 
L 329.980112 40.437135 
L 342.569547 40.318468 
L 358.630858 40.107504 
L 384.698068 39.87017 
L 384.698068 39.87017 
" style="fill:none;stroke:#bfbf00;stroke-linecap:square;stroke-width:1.5;"/>
   </g>
   <g id="line2d_17">
    <path clip-path="url(#p78b0a03a24)" d="M 80.334432 286.96108 
L 80.335864 286.895153 
L 80.652934 262.93762 
L 81.441027 224.713685 
L 81.966327 205.516013 
L 82.145484 200.347409 
L 82.997163 179.422475 
L 83.161283 176.337135 
L 83.49382 170.245566 
L 84.796185 151.219302 
L 85.090055 147.408775 
L 85.717751 140.301945 
L 86.392277 133.696153 
L 86.664522 131.507407 
L 87.288781 125.679543 
L 87.803197 121.605312 
L 88.165092 118.823231 
L 89.675401 108.960691 
L 91.664035 99.638745 
L 91.883578 98.742151 
L 92.605078 95.524958 
L 93.000628 94.048215 
L 93.691051 91.674876 
L 94.286381 89.78939 
L 94.556621 88.708203 
L 95.38825 85.74153 
L 96.119201 83.8956 
L 96.567024 82.563893 
L 96.944099 81.812336 
L 97.219495 81.284927 
L 97.489449 80.717963 
L 97.937557 79.676331 
L 98.705314 77.513956 
L 98.889914 77.1184 
L 99.37583 76.063583 
L 99.810907 75.404322 
L 100.39879 74.270394 
L 100.530688 74.125356 
L 100.929961 73.268317 
L 101.27596 72.727724 
L 101.567109 72.147574 
L 101.93817 71.633351 
L 102.317681 71.224609 
L 103.259726 69.642384 
L 103.750082 68.983123 
L 104.44208 67.954676 
L 105.15427 67.189934 
L 105.906131 66.187857 
L 106.092449 66.069191 
L 106.386032 65.634078 
L 106.689927 65.225337 
L 107.946894 63.761778 
L 108.84884 63.036591 
L 109.696795 62.298219 
L 109.957727 62.008145 
L 110.212929 61.797181 
L 110.859529 61.098365 
L 111.119458 60.887401 
L 111.525749 60.439104 
L 114.253641 58.448137 
L 114.923871 57.881173 
L 117.52674 55.969317 
L 120.105979 54.360721 
L 120.585021 54.110202 
L 121.577763 53.516867 
L 122.89316 52.976273 
L 124.61356 52.237901 
L 129.416014 50.471082 
L 130.216995 50.31286 
L 134.359817 48.79656 
L 137.114204 48.045003 
L 139.696593 47.596706 
L 141.864528 47.293446 
L 143.491697 46.884704 
L 144.325331 46.64737 
L 146.178345 46.278184 
L 148.207938 45.935369 
L 152.972297 45.131071 
L 165.428259 43.680697 
L 170.780788 43.311511 
L 188.230248 42.177583 
L 206.337764 41.491952 
L 224.627875 41.004099 
L 384.690192 39.87017 
L 384.690192 39.87017 
" style="fill:none;stroke:#bf00bf;stroke-linecap:square;stroke-width:1.5;"/>
   </g>
   <g id="line2d_18">
    <path clip-path="url(#p78b0a03a24)" d="M 80.334432 286.96108 
L 80.526049 279.326841 
L 80.724397 274.527423 
L 81.108203 266.787702 
L 81.29266 264.005622 
L 81.50361 260.630207 
L 81.738048 257.136126 
L 82.311896 249.884258 
L 83.416629 238.043936 
L 85.672783 219.848341 
L 89.514717 193.807543 
L 89.958816 191.1705 
L 90.300948 188.955384 
L 90.744331 186.463379 
L 94.18513 168.66334 
L 99.272002 147.09233 
L 99.435263 146.551736 
L 100.698245 141.884171 
L 101.334963 139.932759 
L 102.758772 135.014674 
L 103.190268 133.775264 
L 104.346271 129.859256 
L 105.514161 126.444285 
L 105.797576 125.771839 
L 106.459929 123.820428 
L 108.461023 118.203526 
L 108.97057 116.687227 
L 109.17078 116.318041 
L 110.499496 113.008552 
L 115.038011 102.07801 
L 115.395467 101.484675 
L 115.855605 100.680377 
L 116.807245 98.148816 
L 121.597669 89.670723 
L 121.852299 89.354278 
L 123.50811 86.308494 
L 123.651895 86.176642 
L 124.346614 84.818565 
L 125.816107 82.181522 
L 126.245884 81.46952 
L 126.839782 80.572926 
L 127.134368 80.256481 
L 130.468188 75.747138 
L 130.799723 75.312026 
L 134.669297 70.723571 
L 135.217511 70.262089 
L 135.599026 69.826977 
L 135.986843 69.418235 
L 137.140698 68.257936 
L 137.5341 67.994232 
L 138.317323 67.150378 
L 139.134345 66.504303 
L 141.058105 64.671558 
L 141.695682 64.157335 
L 142.142788 64.012297 
L 142.818747 63.432148 
L 143.270579 63.181629 
L 143.714534 62.865184 
L 145.366049 61.731255 
L 145.865428 61.269773 
L 147.62607 60.043548 
L 148.137191 59.54251 
L 150.600286 58.092136 
L 154.804259 55.521019 
L 155.475061 55.230945 
L 158.210687 54.123387 
L 158.917722 53.925609 
L 160.778325 53.09494 
L 162.359237 52.422494 
L 163.19015 51.947826 
L 164.883912 51.341307 
L 165.765808 50.866639 
L 166.654436 50.629305 
L 168.523918 49.890933 
L 178.550011 47.187964 
L 181.991526 46.555074 
L 194.090175 44.023513 
L 201.123291 43.166474 
L 209.984215 42.388546 
L 215.486543 42.072101 
L 219.729183 41.795212 
L 227.289747 41.584248 
L 233.361198 41.320544 
L 249.908855 40.793135 
L 255.533056 40.595357 
L 270.094513 40.410764 
L 280.137075 40.186616 
L 314.765324 39.988837 
L 384.698068 39.87017 
L 384.698068 39.87017 
" style="fill:none;stroke:#00bfbf;stroke-linecap:square;stroke-width:1.5;"/>
   </g>
   <g id="patch_3">
    <path d="M 65.11625 299.315625 
L 65.11625 27.515625 
" style="fill:none;stroke:#000000;stroke-linecap:square;stroke-linejoin:miter;stroke-width:0.8;"/>
   </g>
   <g id="patch_4">
    <path d="M 399.91625 299.315625 
L 399.91625 27.515625 
" style="fill:none;stroke:#000000;stroke-linecap:square;stroke-linejoin:miter;stroke-width:0.8;"/>
   </g>
   <g id="patch_5">
    <path d="M 65.11625 299.315625 
L 399.91625 299.315625 
" style="fill:none;stroke:#000000;stroke-linecap:square;stroke-linejoin:miter;stroke-width:0.8;"/>
   </g>
   <g id="patch_6">
    <path d="M 65.11625 27.515625 
L 399.91625 27.515625 
" style="fill:none;stroke:#000000;stroke-linecap:square;stroke-linejoin:miter;stroke-width:0.8;"/>
   </g>
   <g id="text_15">
    <!-- ROC curve - American cities -->
    <defs>
     <path d="M 7.859375 0 
L 7.859375 71.578125 
L 39.59375 71.578125 
Q 49.171875 71.578125 54.140625 69.640625 
Q 59.125 67.71875 62.109375 62.828125 
Q 65.09375 57.953125 65.09375 52.046875 
Q 65.09375 44.4375 60.15625 39.203125 
Q 55.21875 33.984375 44.921875 32.5625 
Q 48.6875 30.765625 50.640625 29 
Q 54.78125 25.203125 58.5 19.484375 
L 70.953125 0 
L 59.03125 0 
L 49.5625 14.890625 
Q 45.40625 21.34375 42.71875 24.75 
Q 40.046875 28.171875 37.921875 29.53125 
Q 35.796875 30.90625 33.59375 31.453125 
Q 31.984375 31.78125 28.328125 31.78125 
L 17.328125 31.78125 
L 17.328125 0 
z
M 17.328125 39.984375 
L 37.703125 39.984375 
Q 44.1875 39.984375 47.84375 41.328125 
Q 51.515625 42.671875 53.421875 45.625 
Q 55.328125 48.578125 55.328125 52.046875 
Q 55.328125 57.125 51.640625 60.390625 
Q 47.953125 63.671875 39.984375 63.671875 
L 17.328125 63.671875 
z
" id="ArialMT-82"/>
     <path d="M 4.828125 34.859375 
Q 4.828125 52.6875 14.390625 62.765625 
Q 23.96875 72.859375 39.109375 72.859375 
Q 49.03125 72.859375 56.984375 68.109375 
Q 64.9375 63.375 69.109375 54.90625 
Q 73.296875 46.4375 73.296875 35.6875 
Q 73.296875 24.8125 68.890625 16.21875 
Q 64.5 7.625 56.4375 3.203125 
Q 48.390625 -1.21875 39.0625 -1.21875 
Q 28.953125 -1.21875 20.984375 3.65625 
Q 13.03125 8.546875 8.921875 16.984375 
Q 4.828125 25.4375 4.828125 34.859375 
z
M 14.59375 34.71875 
Q 14.59375 21.78125 21.546875 14.328125 
Q 28.515625 6.890625 39.015625 6.890625 
Q 49.703125 6.890625 56.609375 14.40625 
Q 63.53125 21.921875 63.53125 35.75 
Q 63.53125 44.484375 60.578125 51 
Q 57.625 57.515625 51.921875 61.109375 
Q 46.234375 64.703125 39.15625 64.703125 
Q 29.109375 64.703125 21.84375 57.78125 
Q 14.59375 50.875 14.59375 34.71875 
z
" id="ArialMT-79"/>
     <path d="M 58.796875 25.09375 
L 68.265625 22.703125 
Q 65.28125 11.03125 57.546875 4.90625 
Q 49.8125 -1.21875 38.625 -1.21875 
Q 27.046875 -1.21875 19.796875 3.484375 
Q 12.546875 8.203125 8.765625 17.140625 
Q 4.984375 26.078125 4.984375 36.328125 
Q 4.984375 47.515625 9.25 55.828125 
Q 13.53125 64.15625 21.40625 68.46875 
Q 29.296875 72.796875 38.765625 72.796875 
Q 49.515625 72.796875 56.828125 67.328125 
Q 64.15625 61.859375 67.046875 51.953125 
L 57.71875 49.75 
Q 55.21875 57.5625 50.484375 61.125 
Q 45.75 64.703125 38.578125 64.703125 
Q 30.328125 64.703125 24.78125 60.734375 
Q 19.234375 56.78125 16.984375 50.109375 
Q 14.75 43.453125 14.75 36.375 
Q 14.75 27.25 17.40625 20.4375 
Q 20.0625 13.625 25.671875 10.25 
Q 31.296875 6.890625 37.84375 6.890625 
Q 45.796875 6.890625 51.3125 11.46875 
Q 56.84375 16.0625 58.796875 25.09375 
z
" id="ArialMT-67"/>
     <path d="M 40.4375 19 
L 49.078125 17.875 
Q 47.65625 8.9375 41.8125 3.875 
Q 35.984375 -1.171875 27.484375 -1.171875 
Q 16.84375 -1.171875 10.375 5.78125 
Q 3.90625 12.75 3.90625 25.734375 
Q 3.90625 34.125 6.6875 40.421875 
Q 9.46875 46.734375 15.15625 49.875 
Q 20.84375 53.03125 27.546875 53.03125 
Q 35.984375 53.03125 41.359375 48.75 
Q 46.734375 44.484375 48.25 36.625 
L 39.703125 35.296875 
Q 38.484375 40.53125 35.375 43.15625 
Q 32.28125 45.796875 27.875 45.796875 
Q 21.234375 45.796875 17.078125 41.03125 
Q 12.9375 36.28125 12.9375 25.984375 
Q 12.9375 15.53125 16.9375 10.796875 
Q 20.953125 6.0625 27.390625 6.0625 
Q 32.5625 6.0625 36.03125 9.234375 
Q 39.5 12.40625 40.4375 19 
z
" id="ArialMT-99"/>
     <path d="M 3.171875 21.484375 
L 3.171875 30.328125 
L 30.171875 30.328125 
L 30.171875 21.484375 
z
" id="ArialMT-45"/>
     <path d="M -0.140625 0 
L 27.34375 71.578125 
L 37.546875 71.578125 
L 66.84375 0 
L 56.0625 0 
L 47.703125 21.6875 
L 17.78125 21.6875 
L 9.90625 0 
z
M 20.515625 29.390625 
L 44.78125 29.390625 
L 37.3125 49.21875 
Q 33.890625 58.25 32.234375 64.0625 
Q 30.859375 57.171875 28.375 50.390625 
z
" id="ArialMT-65"/>
     <path d="M 6.59375 0 
L 6.59375 51.859375 
L 14.453125 51.859375 
L 14.453125 44.578125 
Q 16.890625 48.390625 20.9375 50.703125 
Q 25 53.03125 30.171875 53.03125 
Q 35.9375 53.03125 39.625 50.640625 
Q 43.3125 48.25 44.828125 43.953125 
Q 50.984375 53.03125 60.84375 53.03125 
Q 68.5625 53.03125 72.703125 48.75 
Q 76.859375 44.484375 76.859375 35.59375 
L 76.859375 0 
L 68.109375 0 
L 68.109375 32.671875 
Q 68.109375 37.9375 67.25 40.25 
Q 66.40625 42.578125 64.15625 43.984375 
Q 61.921875 45.40625 58.890625 45.40625 
Q 53.421875 45.40625 49.796875 41.765625 
Q 46.1875 38.140625 46.1875 30.125 
L 46.1875 0 
L 37.40625 0 
L 37.40625 33.6875 
Q 37.40625 39.546875 35.25 42.46875 
Q 33.109375 45.40625 28.21875 45.40625 
Q 24.515625 45.40625 21.359375 43.453125 
Q 18.21875 41.5 16.796875 37.734375 
Q 15.375 33.984375 15.375 26.90625 
L 15.375 0 
z
" id="ArialMT-109"/>
     <path d="M 6.59375 0 
L 6.59375 51.859375 
L 14.5 51.859375 
L 14.5 44.484375 
Q 20.21875 53.03125 31 53.03125 
Q 35.6875 53.03125 39.625 51.34375 
Q 43.5625 49.65625 45.515625 46.921875 
Q 47.46875 44.1875 48.25 40.4375 
Q 48.734375 37.984375 48.734375 31.890625 
L 48.734375 0 
L 39.9375 0 
L 39.9375 31.546875 
Q 39.9375 36.921875 38.90625 39.578125 
Q 37.890625 42.234375 35.28125 43.8125 
Q 32.671875 45.40625 29.15625 45.40625 
Q 23.53125 45.40625 19.453125 41.84375 
Q 15.375 38.28125 15.375 28.328125 
L 15.375 0 
z
" id="ArialMT-110"/>
    </defs>
    <g transform="translate(106.933437 21.515625)scale(0.2 -0.2)">
     <use xlink:href="#ArialMT-82"/>
     <use x="72.216797" xlink:href="#ArialMT-79"/>
     <use x="150" xlink:href="#ArialMT-67"/>
     <use x="222.216797" xlink:href="#ArialMT-32"/>
     <use x="250" xlink:href="#ArialMT-99"/>
     <use x="300" xlink:href="#ArialMT-117"/>
     <use x="355.615234" xlink:href="#ArialMT-114"/>
     <use x="388.916016" xlink:href="#ArialMT-118"/>
     <use x="438.916016" xlink:href="#ArialMT-101"/>
     <use x="494.53125" xlink:href="#ArialMT-32"/>
     <use x="522.314453" xlink:href="#ArialMT-45"/>
     <use x="555.615234" xlink:href="#ArialMT-32"/>
     <use x="577.898438" xlink:href="#ArialMT-65"/>
     <use x="644.597656" xlink:href="#ArialMT-109"/>
     <use x="727.898438" xlink:href="#ArialMT-101"/>
     <use x="783.513672" xlink:href="#ArialMT-114"/>
     <use x="816.814453" xlink:href="#ArialMT-105"/>
     <use x="839.03125" xlink:href="#ArialMT-99"/>
     <use x="889.03125" xlink:href="#ArialMT-97"/>
     <use x="944.646484" xlink:href="#ArialMT-110"/>
     <use x="1000.261719" xlink:href="#ArialMT-32"/>
     <use x="1028.044922" xlink:href="#ArialMT-99"/>
     <use x="1078.044922" xlink:href="#ArialMT-105"/>
     <use x="1100.261719" xlink:href="#ArialMT-116"/>
     <use x="1128.044922" xlink:href="#ArialMT-105"/>
     <use x="1150.261719" xlink:href="#ArialMT-101"/>
     <use x="1205.876953" xlink:href="#ArialMT-115"/>
    </g>
   </g>
   <g id="legend_1">
    <g id="patch_7">
     <path d="M 239.194062 292.315625 
L 390.11625 292.315625 
Q 392.91625 292.315625 392.91625 289.515625 
L 392.91625 167.619375 
Q 392.91625 164.819375 390.11625 164.819375 
L 239.194062 164.819375 
Q 236.394062 164.819375 236.394062 167.619375 
L 236.394062 289.515625 
Q 236.394062 292.315625 239.194062 292.315625 
z
" style="fill:#ffffff;opacity:0.8;stroke:#cccccc;stroke-linejoin:miter;"/>
    </g>
    <g id="line2d_19">
     <path d="M 241.994062 176.157187 
L 269.994062 176.157187 
" style="fill:none;stroke:#ff0000;stroke-linecap:square;stroke-width:1.5;"/>
    </g>
    <g id="line2d_20"/>
    <g id="text_16">
     <!-- Node2Vec -->
     <defs>
      <path d="M 9.8125 72.90625 
L 23.09375 72.90625 
L 55.421875 11.921875 
L 55.421875 72.90625 
L 64.984375 72.90625 
L 64.984375 0 
L 51.703125 0 
L 19.390625 60.984375 
L 19.390625 0 
L 9.8125 0 
z
" id="DejaVuSans-78"/>
      <path d="M 30.609375 48.390625 
Q 23.390625 48.390625 19.1875 42.75 
Q 14.984375 37.109375 14.984375 27.296875 
Q 14.984375 17.484375 19.15625 11.84375 
Q 23.34375 6.203125 30.609375 6.203125 
Q 37.796875 6.203125 41.984375 11.859375 
Q 46.1875 17.53125 46.1875 27.296875 
Q 46.1875 37.015625 41.984375 42.703125 
Q 37.796875 48.390625 30.609375 48.390625 
z
M 30.609375 56 
Q 42.328125 56 49.015625 48.375 
Q 55.71875 40.765625 55.71875 27.296875 
Q 55.71875 13.875 49.015625 6.21875 
Q 42.328125 -1.421875 30.609375 -1.421875 
Q 18.84375 -1.421875 12.171875 6.21875 
Q 5.515625 13.875 5.515625 27.296875 
Q 5.515625 40.765625 12.171875 48.375 
Q 18.84375 56 30.609375 56 
z
" id="DejaVuSans-111"/>
      <path d="M 45.40625 46.390625 
L 45.40625 75.984375 
L 54.390625 75.984375 
L 54.390625 0 
L 45.40625 0 
L 45.40625 8.203125 
Q 42.578125 3.328125 38.25 0.953125 
Q 33.9375 -1.421875 27.875 -1.421875 
Q 17.96875 -1.421875 11.734375 6.484375 
Q 5.515625 14.40625 5.515625 27.296875 
Q 5.515625 40.1875 11.734375 48.09375 
Q 17.96875 56 27.875 56 
Q 33.9375 56 38.25 53.625 
Q 42.578125 51.265625 45.40625 46.390625 
z
M 14.796875 27.296875 
Q 14.796875 17.390625 18.875 11.75 
Q 22.953125 6.109375 30.078125 6.109375 
Q 37.203125 6.109375 41.296875 11.75 
Q 45.40625 17.390625 45.40625 27.296875 
Q 45.40625 37.203125 41.296875 42.84375 
Q 37.203125 48.484375 30.078125 48.484375 
Q 22.953125 48.484375 18.875 42.84375 
Q 14.796875 37.203125 14.796875 27.296875 
z
" id="DejaVuSans-100"/>
      <path d="M 56.203125 29.59375 
L 56.203125 25.203125 
L 14.890625 25.203125 
Q 15.484375 15.921875 20.484375 11.0625 
Q 25.484375 6.203125 34.421875 6.203125 
Q 39.59375 6.203125 44.453125 7.46875 
Q 49.3125 8.734375 54.109375 11.28125 
L 54.109375 2.78125 
Q 49.265625 0.734375 44.1875 -0.34375 
Q 39.109375 -1.421875 33.890625 -1.421875 
Q 20.796875 -1.421875 13.15625 6.1875 
Q 5.515625 13.8125 5.515625 26.8125 
Q 5.515625 40.234375 12.765625 48.109375 
Q 20.015625 56 32.328125 56 
Q 43.359375 56 49.78125 48.890625 
Q 56.203125 41.796875 56.203125 29.59375 
z
M 47.21875 32.234375 
Q 47.125 39.59375 43.09375 43.984375 
Q 39.0625 48.390625 32.421875 48.390625 
Q 24.90625 48.390625 20.390625 44.140625 
Q 15.875 39.890625 15.1875 32.171875 
z
" id="DejaVuSans-101"/>
      <path d="M 28.609375 0 
L 0.78125 72.90625 
L 11.078125 72.90625 
L 34.1875 11.53125 
L 57.328125 72.90625 
L 67.578125 72.90625 
L 39.796875 0 
z
" id="DejaVuSans-86"/>
      <path d="M 48.78125 52.59375 
L 48.78125 44.1875 
Q 44.96875 46.296875 41.140625 47.34375 
Q 37.3125 48.390625 33.40625 48.390625 
Q 24.65625 48.390625 19.8125 42.84375 
Q 14.984375 37.3125 14.984375 27.296875 
Q 14.984375 17.28125 19.8125 11.734375 
Q 24.65625 6.203125 33.40625 6.203125 
Q 37.3125 6.203125 41.140625 7.25 
Q 44.96875 8.296875 48.78125 10.40625 
L 48.78125 2.09375 
Q 45.015625 0.34375 40.984375 -0.53125 
Q 36.96875 -1.421875 32.421875 -1.421875 
Q 20.0625 -1.421875 12.78125 6.34375 
Q 5.515625 14.109375 5.515625 27.296875 
Q 5.515625 40.671875 12.859375 48.328125 
Q 20.21875 56 33.015625 56 
Q 37.15625 56 41.109375 55.140625 
Q 45.0625 54.296875 48.78125 52.59375 
z
" id="DejaVuSans-99"/>
     </defs>
     <g transform="translate(281.194062 181.057187)scale(0.14 -0.14)">
      <use xlink:href="#DejaVuSans-78"/>
      <use x="74.804688" xlink:href="#DejaVuSans-111"/>
      <use x="135.986328" xlink:href="#DejaVuSans-100"/>
      <use x="199.462891" xlink:href="#DejaVuSans-101"/>
      <use x="260.986328" xlink:href="#DejaVuSans-50"/>
      <use x="324.609375" xlink:href="#DejaVuSans-86"/>
      <use x="385.267578" xlink:href="#DejaVuSans-101"/>
      <use x="446.791016" xlink:href="#DejaVuSans-99"/>
     </g>
    </g>
    <g id="line2d_21">
     <path d="M 241.994062 196.706562 
L 269.994062 196.706562 
" style="fill:none;stroke:#008000;stroke-linecap:square;stroke-width:1.5;"/>
    </g>
    <g id="line2d_22"/>
    <g id="text_17">
     <!-- Struc2Vec -->
     <defs>
      <path d="M 53.515625 70.515625 
L 53.515625 60.890625 
Q 47.90625 63.578125 42.921875 64.890625 
Q 37.9375 66.21875 33.296875 66.21875 
Q 25.25 66.21875 20.875 63.09375 
Q 16.5 59.96875 16.5 54.203125 
Q 16.5 49.359375 19.40625 46.890625 
Q 22.3125 44.4375 30.421875 42.921875 
L 36.375 41.703125 
Q 47.40625 39.59375 52.65625 34.296875 
Q 57.90625 29 57.90625 20.125 
Q 57.90625 9.515625 50.796875 4.046875 
Q 43.703125 -1.421875 29.984375 -1.421875 
Q 24.8125 -1.421875 18.96875 -0.25 
Q 13.140625 0.921875 6.890625 3.21875 
L 6.890625 13.375 
Q 12.890625 10.015625 18.65625 8.296875 
Q 24.421875 6.59375 29.984375 6.59375 
Q 38.421875 6.59375 43.015625 9.90625 
Q 47.609375 13.234375 47.609375 19.390625 
Q 47.609375 24.75 44.3125 27.78125 
Q 41.015625 30.8125 33.5 32.328125 
L 27.484375 33.5 
Q 16.453125 35.6875 11.515625 40.375 
Q 6.59375 45.0625 6.59375 53.421875 
Q 6.59375 63.09375 13.40625 68.65625 
Q 20.21875 74.21875 32.171875 74.21875 
Q 37.3125 74.21875 42.625 73.28125 
Q 47.953125 72.359375 53.515625 70.515625 
z
" id="DejaVuSans-83"/>
      <path d="M 18.3125 70.21875 
L 18.3125 54.6875 
L 36.8125 54.6875 
L 36.8125 47.703125 
L 18.3125 47.703125 
L 18.3125 18.015625 
Q 18.3125 11.328125 20.140625 9.421875 
Q 21.96875 7.515625 27.59375 7.515625 
L 36.8125 7.515625 
L 36.8125 0 
L 27.59375 0 
Q 17.1875 0 13.234375 3.875 
Q 9.28125 7.765625 9.28125 18.015625 
L 9.28125 47.703125 
L 2.6875 47.703125 
L 2.6875 54.6875 
L 9.28125 54.6875 
L 9.28125 70.21875 
z
" id="DejaVuSans-116"/>
      <path d="M 41.109375 46.296875 
Q 39.59375 47.171875 37.8125 47.578125 
Q 36.03125 48 33.890625 48 
Q 26.265625 48 22.1875 43.046875 
Q 18.109375 38.09375 18.109375 28.8125 
L 18.109375 0 
L 9.078125 0 
L 9.078125 54.6875 
L 18.109375 54.6875 
L 18.109375 46.1875 
Q 20.953125 51.171875 25.484375 53.578125 
Q 30.03125 56 36.53125 56 
Q 37.453125 56 38.578125 55.875 
Q 39.703125 55.765625 41.0625 55.515625 
z
" id="DejaVuSans-114"/>
      <path d="M 8.5 21.578125 
L 8.5 54.6875 
L 17.484375 54.6875 
L 17.484375 21.921875 
Q 17.484375 14.15625 20.5 10.265625 
Q 23.53125 6.390625 29.59375 6.390625 
Q 36.859375 6.390625 41.078125 11.03125 
Q 45.3125 15.671875 45.3125 23.6875 
L 45.3125 54.6875 
L 54.296875 54.6875 
L 54.296875 0 
L 45.3125 0 
L 45.3125 8.40625 
Q 42.046875 3.421875 37.71875 1 
Q 33.40625 -1.421875 27.6875 -1.421875 
Q 18.265625 -1.421875 13.375 4.4375 
Q 8.5 10.296875 8.5 21.578125 
z
M 31.109375 56 
z
" id="DejaVuSans-117"/>
     </defs>
     <g transform="translate(281.194062 201.606562)scale(0.14 -0.14)">
      <use xlink:href="#DejaVuSans-83"/>
      <use x="63.476562" xlink:href="#DejaVuSans-116"/>
      <use x="102.685547" xlink:href="#DejaVuSans-114"/>
      <use x="143.798828" xlink:href="#DejaVuSans-117"/>
      <use x="207.177734" xlink:href="#DejaVuSans-99"/>
      <use x="262.158203" xlink:href="#DejaVuSans-50"/>
      <use x="325.78125" xlink:href="#DejaVuSans-86"/>
      <use x="386.439453" xlink:href="#DejaVuSans-101"/>
      <use x="447.962891" xlink:href="#DejaVuSans-99"/>
     </g>
    </g>
    <g id="line2d_23">
     <path d="M 241.994062 217.255937 
L 269.994062 217.255937 
" style="fill:none;stroke:#0000ff;stroke-linecap:square;stroke-width:1.5;"/>
    </g>
    <g id="line2d_24"/>
    <g id="text_18">
     <!-- Graph-SAGE -->
     <defs>
      <path d="M 59.515625 10.40625 
L 59.515625 29.984375 
L 43.40625 29.984375 
L 43.40625 38.09375 
L 69.28125 38.09375 
L 69.28125 6.78125 
Q 63.578125 2.734375 56.6875 0.65625 
Q 49.8125 -1.421875 42 -1.421875 
Q 24.90625 -1.421875 15.25 8.5625 
Q 5.609375 18.5625 5.609375 36.375 
Q 5.609375 54.25 15.25 64.234375 
Q 24.90625 74.21875 42 74.21875 
Q 49.125 74.21875 55.546875 72.453125 
Q 61.96875 70.703125 67.390625 67.28125 
L 67.390625 56.78125 
Q 61.921875 61.421875 55.765625 63.765625 
Q 49.609375 66.109375 42.828125 66.109375 
Q 29.4375 66.109375 22.71875 58.640625 
Q 16.015625 51.171875 16.015625 36.375 
Q 16.015625 21.625 22.71875 14.15625 
Q 29.4375 6.6875 42.828125 6.6875 
Q 48.046875 6.6875 52.140625 7.59375 
Q 56.25 8.5 59.515625 10.40625 
z
" id="DejaVuSans-71"/>
      <path d="M 34.28125 27.484375 
Q 23.390625 27.484375 19.1875 25 
Q 14.984375 22.515625 14.984375 16.5 
Q 14.984375 11.71875 18.140625 8.90625 
Q 21.296875 6.109375 26.703125 6.109375 
Q 34.1875 6.109375 38.703125 11.40625 
Q 43.21875 16.703125 43.21875 25.484375 
L 43.21875 27.484375 
z
M 52.203125 31.203125 
L 52.203125 0 
L 43.21875 0 
L 43.21875 8.296875 
Q 40.140625 3.328125 35.546875 0.953125 
Q 30.953125 -1.421875 24.3125 -1.421875 
Q 15.921875 -1.421875 10.953125 3.296875 
Q 6 8.015625 6 15.921875 
Q 6 25.140625 12.171875 29.828125 
Q 18.359375 34.515625 30.609375 34.515625 
L 43.21875 34.515625 
L 43.21875 35.40625 
Q 43.21875 41.609375 39.140625 45 
Q 35.0625 48.390625 27.6875 48.390625 
Q 23 48.390625 18.546875 47.265625 
Q 14.109375 46.140625 10.015625 43.890625 
L 10.015625 52.203125 
Q 14.9375 54.109375 19.578125 55.046875 
Q 24.21875 56 28.609375 56 
Q 40.484375 56 46.34375 49.84375 
Q 52.203125 43.703125 52.203125 31.203125 
z
" id="DejaVuSans-97"/>
      <path d="M 18.109375 8.203125 
L 18.109375 -20.796875 
L 9.078125 -20.796875 
L 9.078125 54.6875 
L 18.109375 54.6875 
L 18.109375 46.390625 
Q 20.953125 51.265625 25.265625 53.625 
Q 29.59375 56 35.59375 56 
Q 45.5625 56 51.78125 48.09375 
Q 58.015625 40.1875 58.015625 27.296875 
Q 58.015625 14.40625 51.78125 6.484375 
Q 45.5625 -1.421875 35.59375 -1.421875 
Q 29.59375 -1.421875 25.265625 0.953125 
Q 20.953125 3.328125 18.109375 8.203125 
z
M 48.6875 27.296875 
Q 48.6875 37.203125 44.609375 42.84375 
Q 40.53125 48.484375 33.40625 48.484375 
Q 26.265625 48.484375 22.1875 42.84375 
Q 18.109375 37.203125 18.109375 27.296875 
Q 18.109375 17.390625 22.1875 11.75 
Q 26.265625 6.109375 33.40625 6.109375 
Q 40.53125 6.109375 44.609375 11.75 
Q 48.6875 17.390625 48.6875 27.296875 
z
" id="DejaVuSans-112"/>
      <path d="M 54.890625 33.015625 
L 54.890625 0 
L 45.90625 0 
L 45.90625 32.71875 
Q 45.90625 40.484375 42.875 44.328125 
Q 39.84375 48.1875 33.796875 48.1875 
Q 26.515625 48.1875 22.3125 43.546875 
Q 18.109375 38.921875 18.109375 30.90625 
L 18.109375 0 
L 9.078125 0 
L 9.078125 75.984375 
L 18.109375 75.984375 
L 18.109375 46.1875 
Q 21.34375 51.125 25.703125 53.5625 
Q 30.078125 56 35.796875 56 
Q 45.21875 56 50.046875 50.171875 
Q 54.890625 44.34375 54.890625 33.015625 
z
" id="DejaVuSans-104"/>
      <path d="M 4.890625 31.390625 
L 31.203125 31.390625 
L 31.203125 23.390625 
L 4.890625 23.390625 
z
" id="DejaVuSans-45"/>
      <path d="M 34.1875 63.1875 
L 20.796875 26.90625 
L 47.609375 26.90625 
z
M 28.609375 72.90625 
L 39.796875 72.90625 
L 67.578125 0 
L 57.328125 0 
L 50.6875 18.703125 
L 17.828125 18.703125 
L 11.1875 0 
L 0.78125 0 
z
" id="DejaVuSans-65"/>
      <path d="M 9.8125 72.90625 
L 55.90625 72.90625 
L 55.90625 64.59375 
L 19.671875 64.59375 
L 19.671875 43.015625 
L 54.390625 43.015625 
L 54.390625 34.71875 
L 19.671875 34.71875 
L 19.671875 8.296875 
L 56.78125 8.296875 
L 56.78125 0 
L 9.8125 0 
z
" id="DejaVuSans-69"/>
     </defs>
     <g transform="translate(281.194062 222.155937)scale(0.14 -0.14)">
      <use xlink:href="#DejaVuSans-71"/>
      <use x="77.490234" xlink:href="#DejaVuSans-114"/>
      <use x="118.603516" xlink:href="#DejaVuSans-97"/>
      <use x="179.882812" xlink:href="#DejaVuSans-112"/>
      <use x="243.359375" xlink:href="#DejaVuSans-104"/>
      <use x="306.738281" xlink:href="#DejaVuSans-45"/>
      <use x="342.822266" xlink:href="#DejaVuSans-83"/>
      <use x="408.173828" xlink:href="#DejaVuSans-65"/>
      <use x="474.832031" xlink:href="#DejaVuSans-71"/>
      <use x="552.322266" xlink:href="#DejaVuSans-69"/>
     </g>
    </g>
    <g id="line2d_25">
     <path d="M 241.994062 237.805312 
L 269.994062 237.805312 
" style="fill:none;stroke:#bfbf00;stroke-linecap:square;stroke-width:1.5;"/>
    </g>
    <g id="line2d_26"/>
    <g id="text_19">
     <!-- Spectral-GCN -->
     <defs>
      <path d="M 9.421875 75.984375 
L 18.40625 75.984375 
L 18.40625 0 
L 9.421875 0 
z
" id="DejaVuSans-108"/>
      <path d="M 64.40625 67.28125 
L 64.40625 56.890625 
Q 59.421875 61.53125 53.78125 63.8125 
Q 48.140625 66.109375 41.796875 66.109375 
Q 29.296875 66.109375 22.65625 58.46875 
Q 16.015625 50.828125 16.015625 36.375 
Q 16.015625 21.96875 22.65625 14.328125 
Q 29.296875 6.6875 41.796875 6.6875 
Q 48.140625 6.6875 53.78125 8.984375 
Q 59.421875 11.28125 64.40625 15.921875 
L 64.40625 5.609375 
Q 59.234375 2.09375 53.4375 0.328125 
Q 47.65625 -1.421875 41.21875 -1.421875 
Q 24.65625 -1.421875 15.125 8.703125 
Q 5.609375 18.84375 5.609375 36.375 
Q 5.609375 53.953125 15.125 64.078125 
Q 24.65625 74.21875 41.21875 74.21875 
Q 47.75 74.21875 53.53125 72.484375 
Q 59.328125 70.75 64.40625 67.28125 
z
" id="DejaVuSans-67"/>
     </defs>
     <g transform="translate(281.194062 242.705312)scale(0.14 -0.14)">
      <use xlink:href="#DejaVuSans-83"/>
      <use x="63.476562" xlink:href="#DejaVuSans-112"/>
      <use x="126.953125" xlink:href="#DejaVuSans-101"/>
      <use x="188.476562" xlink:href="#DejaVuSans-99"/>
      <use x="243.457031" xlink:href="#DejaVuSans-116"/>
      <use x="282.666016" xlink:href="#DejaVuSans-114"/>
      <use x="323.779297" xlink:href="#DejaVuSans-97"/>
      <use x="385.058594" xlink:href="#DejaVuSans-108"/>
      <use x="412.841797" xlink:href="#DejaVuSans-45"/>
      <use x="452.550781" xlink:href="#DejaVuSans-71"/>
      <use x="530.041016" xlink:href="#DejaVuSans-67"/>
      <use x="599.865234" xlink:href="#DejaVuSans-78"/>
     </g>
    </g>
    <g id="line2d_27">
     <path d="M 241.994062 258.354687 
L 269.994062 258.354687 
" style="fill:none;stroke:#bf00bf;stroke-linecap:square;stroke-width:1.5;"/>
    </g>
    <g id="line2d_28"/>
    <g id="text_20">
     <!-- Relational-GCN -->
     <defs>
      <path d="M 44.390625 34.1875 
Q 47.5625 33.109375 50.5625 29.59375 
Q 53.5625 26.078125 56.59375 19.921875 
L 66.609375 0 
L 56 0 
L 46.6875 18.703125 
Q 43.0625 26.03125 39.671875 28.421875 
Q 36.28125 30.8125 30.421875 30.8125 
L 19.671875 30.8125 
L 19.671875 0 
L 9.8125 0 
L 9.8125 72.90625 
L 32.078125 72.90625 
Q 44.578125 72.90625 50.734375 67.671875 
Q 56.890625 62.453125 56.890625 51.90625 
Q 56.890625 45.015625 53.6875 40.46875 
Q 50.484375 35.9375 44.390625 34.1875 
z
M 19.671875 64.796875 
L 19.671875 38.921875 
L 32.078125 38.921875 
Q 39.203125 38.921875 42.84375 42.21875 
Q 46.484375 45.515625 46.484375 51.90625 
Q 46.484375 58.296875 42.84375 61.546875 
Q 39.203125 64.796875 32.078125 64.796875 
z
" id="DejaVuSans-82"/>
      <path d="M 9.421875 54.6875 
L 18.40625 54.6875 
L 18.40625 0 
L 9.421875 0 
z
M 9.421875 75.984375 
L 18.40625 75.984375 
L 18.40625 64.59375 
L 9.421875 64.59375 
z
" id="DejaVuSans-105"/>
      <path d="M 54.890625 33.015625 
L 54.890625 0 
L 45.90625 0 
L 45.90625 32.71875 
Q 45.90625 40.484375 42.875 44.328125 
Q 39.84375 48.1875 33.796875 48.1875 
Q 26.515625 48.1875 22.3125 43.546875 
Q 18.109375 38.921875 18.109375 30.90625 
L 18.109375 0 
L 9.078125 0 
L 9.078125 54.6875 
L 18.109375 54.6875 
L 18.109375 46.1875 
Q 21.34375 51.125 25.703125 53.5625 
Q 30.078125 56 35.796875 56 
Q 45.21875 56 50.046875 50.171875 
Q 54.890625 44.34375 54.890625 33.015625 
z
" id="DejaVuSans-110"/>
     </defs>
     <g transform="translate(281.194062 263.254687)scale(0.14 -0.14)">
      <use xlink:href="#DejaVuSans-82"/>
      <use x="64.982422" xlink:href="#DejaVuSans-101"/>
      <use x="126.505859" xlink:href="#DejaVuSans-108"/>
      <use x="154.289062" xlink:href="#DejaVuSans-97"/>
      <use x="215.568359" xlink:href="#DejaVuSans-116"/>
      <use x="254.777344" xlink:href="#DejaVuSans-105"/>
      <use x="282.560547" xlink:href="#DejaVuSans-111"/>
      <use x="343.742188" xlink:href="#DejaVuSans-110"/>
      <use x="407.121094" xlink:href="#DejaVuSans-97"/>
      <use x="468.400391" xlink:href="#DejaVuSans-108"/>
      <use x="496.183594" xlink:href="#DejaVuSans-45"/>
      <use x="535.892578" xlink:href="#DejaVuSans-71"/>
      <use x="613.382812" xlink:href="#DejaVuSans-67"/>
      <use x="683.207031" xlink:href="#DejaVuSans-78"/>
     </g>
    </g>
    <g id="line2d_29">
     <path d="M 241.994062 278.904062 
L 269.994062 278.904062 
" style="fill:none;stroke:#00bfbf;stroke-linecap:square;stroke-width:1.5;"/>
    </g>
    <g id="line2d_30"/>
    <g id="text_21">
     <!-- GAT -->
     <defs>
      <path d="M -0.296875 72.90625 
L 61.375 72.90625 
L 61.375 64.59375 
L 35.5 64.59375 
L 35.5 0 
L 25.59375 0 
L 25.59375 64.59375 
L -0.296875 64.59375 
z
" id="DejaVuSans-84"/>
     </defs>
     <g transform="translate(281.194062 283.804062)scale(0.14 -0.14)">
      <use xlink:href="#DejaVuSans-71"/>
      <use x="77.490234" xlink:href="#DejaVuSans-65"/>
      <use x="138.148438" xlink:href="#DejaVuSans-84"/>
     </g>
    </g>
   </g>
  </g>
 </g>
 <defs>
  <clipPath id="p78b0a03a24">
   <rect height="271.8" width="334.8" x="65.11625" y="27.515625"/>
  </clipPath>
 </defs>
</svg>
