<?xml version="1.0" encoding="utf-8" standalone="no"?>
<!DOCTYPE svg PUBLIC "-//W3C//DTD SVG 1.1//EN"
  "http://www.w3.org/Graphics/SVG/1.1/DTD/svg11.dtd">
<!-- Created with matplotlib (https://matplotlib.org/) -->
<svg height="351.795312pt" version="1.1" viewBox="0 0 422.272424 351.795312" width="422.272424pt" xmlns="http://www.w3.org/2000/svg" xmlns:xlink="http://www.w3.org/1999/xlink">
 <defs>
  <style type="text/css">
*{stroke-linecap:butt;stroke-linejoin:round;}
  </style>
 </defs>
 <g id="figure_1">
  <g id="patch_1">
   <path d="M 0 351.795312 
L 422.272424 351.795312 
L 422.272424 0 
L 0 0 
z
" style="fill:#ffffff;"/>
  </g>
  <g id="axes_1">
   <g id="patch_2">
    <path d="M 76.56875 297.884062 
L 411.36875 297.884062 
L 411.36875 26.084062 
L 76.56875 26.084062 
z
" style="fill:#ffffff;"/>
   </g>
   <g id="PathCollection_1">
    <defs>
     <path d="M 0 -3.535534 
L -3.535534 3.535534 
L 3.535534 3.535534 
z
" id="mf50a032fd1" style="stroke:#ffa500;"/>
    </defs>
    <g clip-path="url(#p101a641568)">
     <use style="fill:#ffa500;stroke:#ffa500;" x="236.794916" xlink:href="#mf50a032fd1" y="121.697051"/>
    </g>
   </g>
   <g id="matplotlib.axis_1">
    <g id="xtick_1">
     <g id="line2d_1">
      <defs>
       <path d="M 0 0 
L 0 3.5 
" id="m6fd4941e57" style="stroke:#000000;stroke-width:0.8;"/>
      </defs>
      <g>
       <use style="stroke:#000000;stroke-width:0.8;" x="88.658645" xlink:href="#m6fd4941e57" y="297.884062"/>
      </g>
     </g>
     <g id="text_1">
      <!-- 0.0 -->
      <defs>
       <path d="M 31.78125 66.40625 
Q 24.171875 66.40625 20.328125 58.90625 
Q 16.5 51.421875 16.5 36.375 
Q 16.5 21.390625 20.328125 13.890625 
Q 24.171875 6.390625 31.78125 6.390625 
Q 39.453125 6.390625 43.28125 13.890625 
Q 47.125 21.390625 47.125 36.375 
Q 47.125 51.421875 43.28125 58.90625 
Q 39.453125 66.40625 31.78125 66.40625 
z
M 31.78125 74.21875 
Q 44.046875 74.21875 50.515625 64.515625 
Q 56.984375 54.828125 56.984375 36.375 
Q 56.984375 17.96875 50.515625 8.265625 
Q 44.046875 -1.421875 31.78125 -1.421875 
Q 19.53125 -1.421875 13.0625 8.265625 
Q 6.59375 17.96875 6.59375 36.375 
Q 6.59375 54.828125 13.0625 64.515625 
Q 19.53125 74.21875 31.78125 74.21875 
z
" id="DejaVuSans-48"/>
       <path d="M 10.6875 12.40625 
L 21 12.40625 
L 21 0 
L 10.6875 0 
z
" id="DejaVuSans-46"/>
      </defs>
      <g transform="translate(74.345832 318.56125)scale(0.18 -0.18)">
       <use xlink:href="#DejaVuSans-48"/>
       <use x="63.623047" xlink:href="#DejaVuSans-46"/>
       <use x="95.410156" xlink:href="#DejaVuSans-48"/>
      </g>
     </g>
    </g>
    <g id="xtick_2">
     <g id="line2d_2">
      <g>
       <use style="stroke:#000000;stroke-width:0.8;" x="151.078838" xlink:href="#m6fd4941e57" y="297.884062"/>
      </g>
     </g>
     <g id="text_2">
      <!-- 0.2 -->
      <defs>
       <path d="M 19.1875 8.296875 
L 53.609375 8.296875 
L 53.609375 0 
L 7.328125 0 
L 7.328125 8.296875 
Q 12.9375 14.109375 22.625 23.890625 
Q 32.328125 33.6875 34.8125 36.53125 
Q 39.546875 41.84375 41.421875 45.53125 
Q 43.3125 49.21875 43.3125 52.78125 
Q 43.3125 58.59375 39.234375 62.25 
Q 35.15625 65.921875 28.609375 65.921875 
Q 23.96875 65.921875 18.8125 64.3125 
Q 13.671875 62.703125 7.8125 59.421875 
L 7.8125 69.390625 
Q 13.765625 71.78125 18.9375 73 
Q 24.125 74.21875 28.421875 74.21875 
Q 39.75 74.21875 46.484375 68.546875 
Q 53.21875 62.890625 53.21875 53.421875 
Q 53.21875 48.921875 51.53125 44.890625 
Q 49.859375 40.875 45.40625 35.40625 
Q 44.1875 33.984375 37.640625 27.21875 
Q 31.109375 20.453125 19.1875 8.296875 
z
" id="DejaVuSans-50"/>
      </defs>
      <g transform="translate(136.766026 318.56125)scale(0.18 -0.18)">
       <use xlink:href="#DejaVuSans-48"/>
       <use x="63.623047" xlink:href="#DejaVuSans-46"/>
       <use x="95.410156" xlink:href="#DejaVuSans-50"/>
      </g>
     </g>
    </g>
    <g id="xtick_3">
     <g id="line2d_3">
      <g>
       <use style="stroke:#000000;stroke-width:0.8;" x="213.499031" xlink:href="#m6fd4941e57" y="297.884062"/>
      </g>
     </g>
     <g id="text_3">
      <!-- 0.4 -->
      <defs>
       <path d="M 37.796875 64.3125 
L 12.890625 25.390625 
L 37.796875 25.390625 
z
M 35.203125 72.90625 
L 47.609375 72.90625 
L 47.609375 25.390625 
L 58.015625 25.390625 
L 58.015625 17.1875 
L 47.609375 17.1875 
L 47.609375 0 
L 37.796875 0 
L 37.796875 17.1875 
L 4.890625 17.1875 
L 4.890625 26.703125 
z
" id="DejaVuSans-52"/>
      </defs>
      <g transform="translate(199.186219 318.56125)scale(0.18 -0.18)">
       <use xlink:href="#DejaVuSans-48"/>
       <use x="63.623047" xlink:href="#DejaVuSans-46"/>
       <use x="95.410156" xlink:href="#DejaVuSans-52"/>
      </g>
     </g>
    </g>
    <g id="xtick_4">
     <g id="line2d_4">
      <g>
       <use style="stroke:#000000;stroke-width:0.8;" x="275.919225" xlink:href="#m6fd4941e57" y="297.884062"/>
      </g>
     </g>
     <g id="text_4">
      <!-- 0.6 -->
      <defs>
       <path d="M 33.015625 40.375 
Q 26.375 40.375 22.484375 35.828125 
Q 18.609375 31.296875 18.609375 23.390625 
Q 18.609375 15.53125 22.484375 10.953125 
Q 26.375 6.390625 33.015625 6.390625 
Q 39.65625 6.390625 43.53125 10.953125 
Q 47.40625 15.53125 47.40625 23.390625 
Q 47.40625 31.296875 43.53125 35.828125 
Q 39.65625 40.375 33.015625 40.375 
z
M 52.59375 71.296875 
L 52.59375 62.3125 
Q 48.875 64.0625 45.09375 64.984375 
Q 41.3125 65.921875 37.59375 65.921875 
Q 27.828125 65.921875 22.671875 59.328125 
Q 17.53125 52.734375 16.796875 39.40625 
Q 19.671875 43.65625 24.015625 45.921875 
Q 28.375 48.1875 33.59375 48.1875 
Q 44.578125 48.1875 50.953125 41.515625 
Q 57.328125 34.859375 57.328125 23.390625 
Q 57.328125 12.15625 50.6875 5.359375 
Q 44.046875 -1.421875 33.015625 -1.421875 
Q 20.359375 -1.421875 13.671875 8.265625 
Q 6.984375 17.96875 6.984375 36.375 
Q 6.984375 53.65625 15.1875 63.9375 
Q 23.390625 74.21875 37.203125 74.21875 
Q 40.921875 74.21875 44.703125 73.484375 
Q 48.484375 72.75 52.59375 71.296875 
z
" id="DejaVuSans-54"/>
      </defs>
      <g transform="translate(261.606412 318.56125)scale(0.18 -0.18)">
       <use xlink:href="#DejaVuSans-48"/>
       <use x="63.623047" xlink:href="#DejaVuSans-46"/>
       <use x="95.410156" xlink:href="#DejaVuSans-54"/>
      </g>
     </g>
    </g>
    <g id="xtick_5">
     <g id="line2d_5">
      <g>
       <use style="stroke:#000000;stroke-width:0.8;" x="338.339418" xlink:href="#m6fd4941e57" y="297.884062"/>
      </g>
     </g>
     <g id="text_5">
      <!-- 0.8 -->
      <defs>
       <path d="M 31.78125 34.625 
Q 24.75 34.625 20.71875 30.859375 
Q 16.703125 27.09375 16.703125 20.515625 
Q 16.703125 13.921875 20.71875 10.15625 
Q 24.75 6.390625 31.78125 6.390625 
Q 38.8125 6.390625 42.859375 10.171875 
Q 46.921875 13.96875 46.921875 20.515625 
Q 46.921875 27.09375 42.890625 30.859375 
Q 38.875 34.625 31.78125 34.625 
z
M 21.921875 38.8125 
Q 15.578125 40.375 12.03125 44.71875 
Q 8.5 49.078125 8.5 55.328125 
Q 8.5 64.0625 14.71875 69.140625 
Q 20.953125 74.21875 31.78125 74.21875 
Q 42.671875 74.21875 48.875 69.140625 
Q 55.078125 64.0625 55.078125 55.328125 
Q 55.078125 49.078125 51.53125 44.71875 
Q 48 40.375 41.703125 38.8125 
Q 48.828125 37.15625 52.796875 32.3125 
Q 56.78125 27.484375 56.78125 20.515625 
Q 56.78125 9.90625 50.3125 4.234375 
Q 43.84375 -1.421875 31.78125 -1.421875 
Q 19.734375 -1.421875 13.25 4.234375 
Q 6.78125 9.90625 6.78125 20.515625 
Q 6.78125 27.484375 10.78125 32.3125 
Q 14.796875 37.15625 21.921875 38.8125 
z
M 18.3125 54.390625 
Q 18.3125 48.734375 21.84375 45.5625 
Q 25.390625 42.390625 31.78125 42.390625 
Q 38.140625 42.390625 41.71875 45.5625 
Q 45.3125 48.734375 45.3125 54.390625 
Q 45.3125 60.0625 41.71875 63.234375 
Q 38.140625 66.40625 31.78125 66.40625 
Q 25.390625 66.40625 21.84375 63.234375 
Q 18.3125 60.0625 18.3125 54.390625 
z
" id="DejaVuSans-56"/>
      </defs>
      <g transform="translate(324.026606 318.56125)scale(0.18 -0.18)">
       <use xlink:href="#DejaVuSans-48"/>
       <use x="63.623047" xlink:href="#DejaVuSans-46"/>
       <use x="95.410156" xlink:href="#DejaVuSans-56"/>
      </g>
     </g>
    </g>
    <g id="xtick_6">
     <g id="line2d_6">
      <g>
       <use style="stroke:#000000;stroke-width:0.8;" x="400.759612" xlink:href="#m6fd4941e57" y="297.884062"/>
      </g>
     </g>
     <g id="text_6">
      <!-- 1.0 -->
      <defs>
       <path d="M 12.40625 8.296875 
L 28.515625 8.296875 
L 28.515625 63.921875 
L 10.984375 60.40625 
L 10.984375 69.390625 
L 28.421875 72.90625 
L 38.28125 72.90625 
L 38.28125 8.296875 
L 54.390625 8.296875 
L 54.390625 0 
L 12.40625 0 
z
" id="DejaVuSans-49"/>
      </defs>
      <g transform="translate(386.446799 318.56125)scale(0.18 -0.18)">
       <use xlink:href="#DejaVuSans-49"/>
       <use x="63.623047" xlink:href="#DejaVuSans-46"/>
       <use x="95.410156" xlink:href="#DejaVuSans-48"/>
      </g>
     </g>
    </g>
    <g id="text_7">
     <!-- Recall -->
     <defs>
      <path d="M 7.859375 0 
L 7.859375 71.578125 
L 39.59375 71.578125 
Q 49.171875 71.578125 54.140625 69.640625 
Q 59.125 67.71875 62.109375 62.828125 
Q 65.09375 57.953125 65.09375 52.046875 
Q 65.09375 44.4375 60.15625 39.203125 
Q 55.21875 33.984375 44.921875 32.5625 
Q 48.6875 30.765625 50.640625 29 
Q 54.78125 25.203125 58.5 19.484375 
L 70.953125 0 
L 59.03125 0 
L 49.5625 14.890625 
Q 45.40625 21.34375 42.71875 24.75 
Q 40.046875 28.171875 37.921875 29.53125 
Q 35.796875 30.90625 33.59375 31.453125 
Q 31.984375 31.78125 28.328125 31.78125 
L 17.328125 31.78125 
L 17.328125 0 
z
M 17.328125 39.984375 
L 37.703125 39.984375 
Q 44.1875 39.984375 47.84375 41.328125 
Q 51.515625 42.671875 53.421875 45.625 
Q 55.328125 48.578125 55.328125 52.046875 
Q 55.328125 57.125 51.640625 60.390625 
Q 47.953125 63.671875 39.984375 63.671875 
L 17.328125 63.671875 
z
" id="ArialMT-82"/>
      <path d="M 42.09375 16.703125 
L 51.171875 15.578125 
Q 49.03125 7.625 43.21875 3.21875 
Q 37.40625 -1.171875 28.375 -1.171875 
Q 17 -1.171875 10.328125 5.828125 
Q 3.65625 12.84375 3.65625 25.484375 
Q 3.65625 38.578125 10.390625 45.796875 
Q 17.140625 53.03125 27.875 53.03125 
Q 38.28125 53.03125 44.875 45.953125 
Q 51.46875 38.875 51.46875 26.03125 
Q 51.46875 25.25 51.421875 23.6875 
L 12.75 23.6875 
Q 13.234375 15.140625 17.578125 10.59375 
Q 21.921875 6.0625 28.421875 6.0625 
Q 33.25 6.0625 36.671875 8.59375 
Q 40.09375 11.140625 42.09375 16.703125 
z
M 13.234375 30.90625 
L 42.1875 30.90625 
Q 41.609375 37.453125 38.875 40.71875 
Q 34.671875 45.796875 27.984375 45.796875 
Q 21.921875 45.796875 17.796875 41.75 
Q 13.671875 37.703125 13.234375 30.90625 
z
" id="ArialMT-101"/>
      <path d="M 40.4375 19 
L 49.078125 17.875 
Q 47.65625 8.9375 41.8125 3.875 
Q 35.984375 -1.171875 27.484375 -1.171875 
Q 16.84375 -1.171875 10.375 5.78125 
Q 3.90625 12.75 3.90625 25.734375 
Q 3.90625 34.125 6.6875 40.421875 
Q 9.46875 46.734375 15.15625 49.875 
Q 20.84375 53.03125 27.546875 53.03125 
Q 35.984375 53.03125 41.359375 48.75 
Q 46.734375 44.484375 48.25 36.625 
L 39.703125 35.296875 
Q 38.484375 40.53125 35.375 43.15625 
Q 32.28125 45.796875 27.875 45.796875 
Q 21.234375 45.796875 17.078125 41.03125 
Q 12.9375 36.28125 12.9375 25.984375 
Q 12.9375 15.53125 16.9375 10.796875 
Q 20.953125 6.0625 27.390625 6.0625 
Q 32.5625 6.0625 36.03125 9.234375 
Q 39.5 12.40625 40.4375 19 
z
" id="ArialMT-99"/>
      <path d="M 40.4375 6.390625 
Q 35.546875 2.25 31.03125 0.53125 
Q 26.515625 -1.171875 21.34375 -1.171875 
Q 12.796875 -1.171875 8.203125 3 
Q 3.609375 7.171875 3.609375 13.671875 
Q 3.609375 17.484375 5.34375 20.625 
Q 7.078125 23.78125 9.890625 25.6875 
Q 12.703125 27.59375 16.21875 28.5625 
Q 18.796875 29.25 24.03125 29.890625 
Q 34.671875 31.15625 39.703125 32.90625 
Q 39.75 34.71875 39.75 35.203125 
Q 39.75 40.578125 37.25 42.78125 
Q 33.890625 45.75 27.25 45.75 
Q 21.046875 45.75 18.09375 43.578125 
Q 15.140625 41.40625 13.71875 35.890625 
L 5.125 37.0625 
Q 6.296875 42.578125 8.984375 45.96875 
Q 11.671875 49.359375 16.75 51.1875 
Q 21.828125 53.03125 28.515625 53.03125 
Q 35.15625 53.03125 39.296875 51.46875 
Q 43.453125 49.90625 45.40625 47.53125 
Q 47.359375 45.171875 48.140625 41.546875 
Q 48.578125 39.3125 48.578125 33.453125 
L 48.578125 21.734375 
Q 48.578125 9.46875 49.140625 6.21875 
Q 49.703125 2.984375 51.375 0 
L 42.1875 0 
Q 40.828125 2.734375 40.4375 6.390625 
z
M 39.703125 26.03125 
Q 34.90625 24.078125 25.34375 22.703125 
Q 19.921875 21.921875 17.671875 20.9375 
Q 15.4375 19.96875 14.203125 18.09375 
Q 12.984375 16.21875 12.984375 13.921875 
Q 12.984375 10.40625 15.640625 8.0625 
Q 18.3125 5.71875 23.4375 5.71875 
Q 28.515625 5.71875 32.46875 7.9375 
Q 36.421875 10.15625 38.28125 14.015625 
Q 39.703125 17 39.703125 22.796875 
z
" id="ArialMT-97"/>
      <path d="M 6.390625 0 
L 6.390625 71.578125 
L 15.1875 71.578125 
L 15.1875 0 
z
" id="ArialMT-108"/>
     </defs>
     <g transform="translate(216.18125 340.620312)scale(0.2 -0.2)">
      <use xlink:href="#ArialMT-82"/>
      <use x="72.216797" xlink:href="#ArialMT-101"/>
      <use x="127.832031" xlink:href="#ArialMT-99"/>
      <use x="177.832031" xlink:href="#ArialMT-97"/>
      <use x="233.447266" xlink:href="#ArialMT-108"/>
      <use x="255.664062" xlink:href="#ArialMT-108"/>
     </g>
    </g>
   </g>
   <g id="matplotlib.axis_2">
    <g id="ytick_1">
     <g id="line2d_7">
      <defs>
       <path d="M 0 0 
L -3.5 0 
" id="md98181b954" style="stroke:#000000;stroke-width:0.8;"/>
      </defs>
      <g>
       <use style="stroke:#000000;stroke-width:0.8;" x="76.56875" xlink:href="#md98181b954" y="288.550733"/>
      </g>
     </g>
     <g id="text_8">
      <!-- 0.00 -->
      <g transform="translate(29.490625 295.389327)scale(0.18 -0.18)">
       <use xlink:href="#DejaVuSans-48"/>
       <use x="63.623047" xlink:href="#DejaVuSans-46"/>
       <use x="95.410156" xlink:href="#DejaVuSans-48"/>
       <use x="159.033203" xlink:href="#DejaVuSans-48"/>
      </g>
     </g>
    </g>
    <g id="ytick_2">
     <g id="line2d_8">
      <g>
       <use style="stroke:#000000;stroke-width:0.8;" x="76.56875" xlink:href="#md98181b954" y="222.934065"/>
      </g>
     </g>
     <g id="text_9">
      <!-- 0.15 -->
      <defs>
       <path d="M 10.796875 72.90625 
L 49.515625 72.90625 
L 49.515625 64.59375 
L 19.828125 64.59375 
L 19.828125 46.734375 
Q 21.96875 47.46875 24.109375 47.828125 
Q 26.265625 48.1875 28.421875 48.1875 
Q 40.625 48.1875 47.75 41.5 
Q 54.890625 34.8125 54.890625 23.390625 
Q 54.890625 11.625 47.5625 5.09375 
Q 40.234375 -1.421875 26.90625 -1.421875 
Q 22.3125 -1.421875 17.546875 -0.640625 
Q 12.796875 0.140625 7.71875 1.703125 
L 7.71875 11.625 
Q 12.109375 9.234375 16.796875 8.0625 
Q 21.484375 6.890625 26.703125 6.890625 
Q 35.15625 6.890625 40.078125 11.328125 
Q 45.015625 15.765625 45.015625 23.390625 
Q 45.015625 31 40.078125 35.4375 
Q 35.15625 39.890625 26.703125 39.890625 
Q 22.75 39.890625 18.8125 39.015625 
Q 14.890625 38.140625 10.796875 36.28125 
z
" id="DejaVuSans-53"/>
      </defs>
      <g transform="translate(29.490625 229.772659)scale(0.18 -0.18)">
       <use xlink:href="#DejaVuSans-48"/>
       <use x="63.623047" xlink:href="#DejaVuSans-46"/>
       <use x="95.410156" xlink:href="#DejaVuSans-49"/>
       <use x="159.033203" xlink:href="#DejaVuSans-53"/>
      </g>
     </g>
    </g>
    <g id="ytick_3">
     <g id="line2d_9">
      <g>
       <use style="stroke:#000000;stroke-width:0.8;" x="76.56875" xlink:href="#md98181b954" y="157.317398"/>
      </g>
     </g>
     <g id="text_10">
      <!-- 0.30 -->
      <defs>
       <path d="M 40.578125 39.3125 
Q 47.65625 37.796875 51.625 33 
Q 55.609375 28.21875 55.609375 21.1875 
Q 55.609375 10.40625 48.1875 4.484375 
Q 40.765625 -1.421875 27.09375 -1.421875 
Q 22.515625 -1.421875 17.65625 -0.515625 
Q 12.796875 0.390625 7.625 2.203125 
L 7.625 11.71875 
Q 11.71875 9.328125 16.59375 8.109375 
Q 21.484375 6.890625 26.8125 6.890625 
Q 36.078125 6.890625 40.9375 10.546875 
Q 45.796875 14.203125 45.796875 21.1875 
Q 45.796875 27.640625 41.28125 31.265625 
Q 36.765625 34.90625 28.71875 34.90625 
L 20.21875 34.90625 
L 20.21875 43.015625 
L 29.109375 43.015625 
Q 36.375 43.015625 40.234375 45.921875 
Q 44.09375 48.828125 44.09375 54.296875 
Q 44.09375 59.90625 40.109375 62.90625 
Q 36.140625 65.921875 28.71875 65.921875 
Q 24.65625 65.921875 20.015625 65.03125 
Q 15.375 64.15625 9.8125 62.3125 
L 9.8125 71.09375 
Q 15.4375 72.65625 20.34375 73.4375 
Q 25.25 74.21875 29.59375 74.21875 
Q 40.828125 74.21875 47.359375 69.109375 
Q 53.90625 64.015625 53.90625 55.328125 
Q 53.90625 49.265625 50.4375 45.09375 
Q 46.96875 40.921875 40.578125 39.3125 
z
" id="DejaVuSans-51"/>
      </defs>
      <g transform="translate(29.490625 164.155991)scale(0.18 -0.18)">
       <use xlink:href="#DejaVuSans-48"/>
       <use x="63.623047" xlink:href="#DejaVuSans-46"/>
       <use x="95.410156" xlink:href="#DejaVuSans-51"/>
       <use x="159.033203" xlink:href="#DejaVuSans-48"/>
      </g>
     </g>
    </g>
    <g id="ytick_4">
     <g id="line2d_10">
      <g>
       <use style="stroke:#000000;stroke-width:0.8;" x="76.56875" xlink:href="#md98181b954" y="91.70073"/>
      </g>
     </g>
     <g id="text_11">
      <!-- 0.45 -->
      <g transform="translate(29.490625 98.539324)scale(0.18 -0.18)">
       <use xlink:href="#DejaVuSans-48"/>
       <use x="63.623047" xlink:href="#DejaVuSans-46"/>
       <use x="95.410156" xlink:href="#DejaVuSans-52"/>
       <use x="159.033203" xlink:href="#DejaVuSans-53"/>
      </g>
     </g>
    </g>
    <g id="ytick_5">
     <g id="line2d_11">
      <g>
       <use style="stroke:#000000;stroke-width:0.8;" x="76.56875" xlink:href="#md98181b954" y="26.084062"/>
      </g>
     </g>
     <g id="text_12">
      <!-- 0.60 -->
      <g transform="translate(29.490625 32.922656)scale(0.18 -0.18)">
       <use xlink:href="#DejaVuSans-48"/>
       <use x="63.623047" xlink:href="#DejaVuSans-46"/>
       <use x="95.410156" xlink:href="#DejaVuSans-54"/>
       <use x="159.033203" xlink:href="#DejaVuSans-48"/>
      </g>
     </g>
    </g>
    <g id="text_13">
     <!-- Precision -->
     <defs>
      <path d="M 7.71875 0 
L 7.71875 71.578125 
L 34.71875 71.578125 
Q 41.84375 71.578125 45.609375 70.90625 
Q 50.875 70.015625 54.4375 67.546875 
Q 58.015625 65.09375 60.1875 60.640625 
Q 62.359375 56.203125 62.359375 50.875 
Q 62.359375 41.75 56.546875 35.421875 
Q 50.734375 29.109375 35.546875 29.109375 
L 17.1875 29.109375 
L 17.1875 0 
z
M 17.1875 37.546875 
L 35.6875 37.546875 
Q 44.875 37.546875 48.734375 40.96875 
Q 52.59375 44.390625 52.59375 50.59375 
Q 52.59375 55.078125 50.3125 58.265625 
Q 48.046875 61.46875 44.34375 62.5 
Q 41.9375 63.140625 35.5 63.140625 
L 17.1875 63.140625 
z
" id="ArialMT-80"/>
      <path d="M 6.5 0 
L 6.5 51.859375 
L 14.40625 51.859375 
L 14.40625 44 
Q 17.4375 49.515625 20 51.265625 
Q 22.5625 53.03125 25.640625 53.03125 
Q 30.078125 53.03125 34.671875 50.203125 
L 31.640625 42.046875 
Q 28.421875 43.953125 25.203125 43.953125 
Q 22.3125 43.953125 20.015625 42.21875 
Q 17.71875 40.484375 16.75 37.40625 
Q 15.28125 32.71875 15.28125 27.15625 
L 15.28125 0 
z
" id="ArialMT-114"/>
      <path d="M 6.640625 61.46875 
L 6.640625 71.578125 
L 15.4375 71.578125 
L 15.4375 61.46875 
z
M 6.640625 0 
L 6.640625 51.859375 
L 15.4375 51.859375 
L 15.4375 0 
z
" id="ArialMT-105"/>
      <path d="M 3.078125 15.484375 
L 11.765625 16.84375 
Q 12.5 11.625 15.84375 8.84375 
Q 19.1875 6.0625 25.203125 6.0625 
Q 31.25 6.0625 34.171875 8.515625 
Q 37.109375 10.984375 37.109375 14.3125 
Q 37.109375 17.28125 34.515625 19 
Q 32.71875 20.171875 25.53125 21.96875 
Q 15.875 24.421875 12.140625 26.203125 
Q 8.40625 27.984375 6.46875 31.125 
Q 4.546875 34.28125 4.546875 38.09375 
Q 4.546875 41.546875 6.125 44.5 
Q 7.71875 47.46875 10.453125 49.421875 
Q 12.5 50.921875 16.03125 51.96875 
Q 19.578125 53.03125 23.640625 53.03125 
Q 29.734375 53.03125 34.34375 51.265625 
Q 38.96875 49.515625 41.15625 46.5 
Q 43.359375 43.5 44.1875 38.484375 
L 35.59375 37.3125 
Q 35.015625 41.3125 32.203125 43.546875 
Q 29.390625 45.796875 24.265625 45.796875 
Q 18.21875 45.796875 15.625 43.796875 
Q 13.03125 41.796875 13.03125 39.109375 
Q 13.03125 37.40625 14.109375 36.03125 
Q 15.1875 34.625 17.484375 33.6875 
Q 18.796875 33.203125 25.25 31.453125 
Q 34.578125 28.953125 38.25 27.359375 
Q 41.9375 25.78125 44.03125 22.75 
Q 46.140625 19.734375 46.140625 15.234375 
Q 46.140625 10.84375 43.578125 6.953125 
Q 41.015625 3.078125 36.171875 0.953125 
Q 31.34375 -1.171875 25.25 -1.171875 
Q 15.140625 -1.171875 9.84375 3.03125 
Q 4.546875 7.234375 3.078125 15.484375 
z
" id="ArialMT-115"/>
      <path d="M 3.328125 25.921875 
Q 3.328125 40.328125 11.328125 47.265625 
Q 18.015625 53.03125 27.640625 53.03125 
Q 38.328125 53.03125 45.109375 46.015625 
Q 51.90625 39.015625 51.90625 26.65625 
Q 51.90625 16.65625 48.90625 10.90625 
Q 45.90625 5.171875 40.15625 2 
Q 34.421875 -1.171875 27.640625 -1.171875 
Q 16.75 -1.171875 10.03125 5.8125 
Q 3.328125 12.796875 3.328125 25.921875 
z
M 12.359375 25.921875 
Q 12.359375 15.96875 16.703125 11.015625 
Q 21.046875 6.0625 27.640625 6.0625 
Q 34.1875 6.0625 38.53125 11.03125 
Q 42.875 16.015625 42.875 26.21875 
Q 42.875 35.84375 38.5 40.796875 
Q 34.125 45.75 27.640625 45.75 
Q 21.046875 45.75 16.703125 40.8125 
Q 12.359375 35.890625 12.359375 25.921875 
z
" id="ArialMT-111"/>
      <path d="M 6.59375 0 
L 6.59375 51.859375 
L 14.5 51.859375 
L 14.5 44.484375 
Q 20.21875 53.03125 31 53.03125 
Q 35.6875 53.03125 39.625 51.34375 
Q 43.5625 49.65625 45.515625 46.921875 
Q 47.46875 44.1875 48.25 40.4375 
Q 48.734375 37.984375 48.734375 31.890625 
L 48.734375 0 
L 39.9375 0 
L 39.9375 31.546875 
Q 39.9375 36.921875 38.90625 39.578125 
Q 37.890625 42.234375 35.28125 43.8125 
Q 32.671875 45.40625 29.15625 45.40625 
Q 23.53125 45.40625 19.453125 41.84375 
Q 15.375 38.28125 15.375 28.328125 
L 15.375 0 
z
" id="ArialMT-110"/>
     </defs>
     <g transform="translate(21.515625 203.110625)rotate(-90)scale(0.2 -0.2)">
      <use xlink:href="#ArialMT-80"/>
      <use x="66.699219" xlink:href="#ArialMT-114"/>
      <use x="100" xlink:href="#ArialMT-101"/>
      <use x="155.615234" xlink:href="#ArialMT-99"/>
      <use x="205.615234" xlink:href="#ArialMT-105"/>
      <use x="227.832031" xlink:href="#ArialMT-115"/>
      <use x="277.832031" xlink:href="#ArialMT-105"/>
      <use x="300.048828" xlink:href="#ArialMT-111"/>
      <use x="355.664062" xlink:href="#ArialMT-110"/>
     </g>
    </g>
   </g>
   <g id="line2d_12">
    <path clip-path="url(#p101a641568)" d="M 92.777472 162.349944 
L 94.071238 165.228015 
L 95.521672 164.324559 
L 96.956944 166.807718 
L 98.31641 168.769053 
L 99.771897 170.070582 
L 101.333514 170.733864 
L 102.789001 172.13205 
L 104.183843 173.673886 
L 105.487718 175.418547 
L 108.383531 178.477514 
L 109.85418 179.605244 
L 111.132785 180.937994 
L 112.593326 181.616857 
L 114.958493 185.375383 
L 116.206776 186.800799 
L 117.328714 188.569976 
L 119.592805 190.681751 
L 120.684421 191.884921 
L 121.674961 193.210463 
L 122.832275 194.082178 
L 123.787439 195.41273 
L 125.000345 196.153522 
L 126.036369 197.136313 
L 128.209493 198.786186 
L 129.240463 199.622152 
L 130.140035 200.538574 
L 132.171653 202.046444 
L 133.141978 202.899043 
L 133.915205 203.989156 
L 134.774347 204.869455 
L 135.709296 205.595426 
L 138.504034 207.259831 
L 141.046083 209.297566 
L 142.021461 209.759542 
L 144.452327 211.49015 
L 147.98997 213.020571 
L 149.526318 214.106306 
L 151.042451 214.947681 
L 153.756328 216.926857 
L 154.908589 218.063863 
L 155.696978 218.309474 
L 156.364077 218.742829 
L 157.172681 219.001021 
L 158.314834 219.922916 
L 159.002147 220.194973 
L 160.220107 220.962257 
L 161.751401 221.428301 
L 164.697753 223.174782 
L 167.922061 224.561936 
L 168.947978 225.213481 
L 171.838738 226.583608 
L 172.313792 226.87203 
L 173.936054 227.589436 
L 175.624015 228.274444 
L 179.358756 230.286489 
L 179.904563 230.455834 
L 182.623495 231.926803 
L 194.444276 237.035721 
L 194.98503 237.44263 
L 197.496756 238.312877 
L 198.067833 238.682457 
L 199.781063 239.409414 
L 203.505696 240.672425 
L 207.280866 241.986907 
L 207.932803 242.191211 
L 209.944206 242.830521 
L 210.52539 243.09623 
L 212.031415 243.615349 
L 212.577223 243.857002 
L 213.562709 244.134701 
L 231.640064 249.787716 
L 234.465125 250.646719 
L 237.49739 251.538938 
L 238.614275 251.87143 
L 238.988254 252.02253 
L 246.508272 254.33403 
L 253.992914 256.362332 
L 256.792706 257.111312 
L 257.111093 257.22522 
L 259.425723 257.77916 
L 260.027122 257.908159 
L 262.063794 258.45836 
L 263.079602 258.864105 
L 273.960381 261.46787 
L 275.117696 261.680967 
L 305.02594 268.475087 
L 306.28433 268.707738 
L 312.636926 270.120546 
L 318.792425 271.45094 
L 319.813288 271.671827 
L 321.764045 272.077122 
L 358.661661 279.349813 
L 360.511343 279.676905 
L 362.305433 280.025294 
L 362.305433 280.025294 
" style="fill:none;stroke:#ff0000;stroke-linecap:square;stroke-width:1.5;"/>
   </g>
   <g id="line2d_13">
    <path clip-path="url(#p101a641568)" d="M 91.786932 280.003174 
L 91.791986 280.067824 
L 91.852631 279.97871 
L 91.867792 280.00453 
L 92.014352 280.075996 
L 92.100266 280.155646 
L 92.241772 280.342064 
L 92.352955 280.234817 
L 92.378224 280.322377 
L 92.393385 280.354818 
L 92.484353 280.30282 
L 92.524783 280.360894 
L 92.595536 280.414903 
L 92.711773 280.461863 
L 92.924031 280.613271 
L 93.075645 280.702021 
L 93.378871 280.597817 
L 93.530484 280.698205 
L 93.985324 280.549441 
L 94.071238 280.572547 
L 94.152099 280.592405 
L 94.162206 280.646028 
L 94.54124 280.683951 
L 94.768659 280.731949 
L 94.991026 280.869386 
L 95.551995 280.900475 
L 95.79963 281.036004 
L 100.509749 281.590114 
L 101.74287 281.625427 
L 102.374592 281.626043 
L 104.113091 281.713218 
L 108.014605 282.189583 
L 109.000092 282.239274 
L 109.232565 282.2892 
L 110.612246 282.355032 
L 110.809343 282.417883 
L 114.104405 282.612274 
L 115.185913 282.643382 
L 117.353983 282.734965 
L 120.891626 282.828294 
L 127.784976 282.991228 
L 130.114766 283.031975 
L 136.02263 283.172543 
L 144.108671 283.375327 
L 151.901593 283.484796 
L 159.588385 283.591221 
L 168.71045 283.732821 
L 181.850267 283.983773 
L 192.892767 284.148784 
L 220.835092 284.541531 
L 241.944713 284.748673 
L 268.396174 285.001691 
L 298.09216 285.220619 
L 392.395613 285.872034 
L 392.395613 285.872034 
" style="fill:none;stroke:#008000;stroke-linecap:square;stroke-width:1.5;"/>
   </g>
   <g id="line2d_14">
    <path clip-path="url(#p101a641568)" d="M 91.847577 222.767261 
L 91.978975 223.172888 
L 92.14575 223.076401 
L 92.307471 223.790656 
L 92.509622 223.037236 
L 92.863386 225.735099 
L 93.050376 225.572067 
L 93.328333 226.746654 
L 93.520377 226.537535 
L 93.63156 227.598405 
L 93.793281 228.032819 
L 94.227905 227.69946 
L 94.743391 228.795444 
L 94.996079 228.382329 
L 95.223499 228.584466 
L 95.481242 228.620754 
L 95.910813 229.027427 
L 96.406083 229.305009 
L 96.891245 229.876627 
L 97.09845 230.410483 
L 97.376408 230.567662 
L 97.59372 230.97597 
L 98.179958 231.123003 
L 98.973401 231.852687 
L 99.145229 232.34657 
L 99.807274 232.465503 
L 100.358135 233.100703 
L 100.737168 233.054569 
L 101.030287 233.217502 
L 101.581149 233.736195 
L 101.919752 233.854543 
L 102.202763 234.106339 
L 102.54642 234.208825 
L 103.279218 234.252591 
L 103.890724 234.612851 
L 104.598253 234.905576 
L 104.992447 234.933968 
L 105.432126 234.831188 
L 107.008904 235.036336 
L 108.161165 235.53091 
L 108.418907 235.950314 
L 108.838371 235.940399 
L 109.778373 236.921712 
L 110.056331 237.294615 
L 111.254075 237.754324 
L 112.002034 238.233074 
L 115.539677 239.110271 
L 116.56054 239.18881 
L 116.990111 239.401247 
L 118.46076 239.635193 
L 120.088075 239.783734 
L 123.868299 241.025853 
L 128.093256 241.196622 
L 129.493152 241.817192 
L 131.049715 242.268139 
L 132.813482 242.421974 
L 134.506497 242.755814 
L 135.633489 242.940155 
L 136.674567 243.227784 
L 137.841989 243.427842 
L 140.838878 243.847717 
L 146.337386 244.555337 
L 148.222444 244.756124 
L 149.218038 245.06431 
L 151.047505 245.31136 
L 157.203003 246.255424 
L 159.088062 246.484006 
L 160.351506 246.638366 
L 162.893555 246.971176 
L 164.308612 247.085767 
L 171.525403 247.900486 
L 174.926594 248.141308 
L 176.038425 248.376646 
L 188.223078 249.828346 
L 191.134053 249.966796 
L 196.339442 250.518371 
L 198.7602 250.810944 
L 201.27698 251.07092 
L 209.807754 252.017527 
L 213.547548 252.338934 
L 214.659378 252.492342 
L 219.647455 252.945971 
L 221.785202 253.253741 
L 224.357574 253.442993 
L 226.288116 253.581937 
L 237.881477 254.730938 
L 238.86191 254.863843 
L 240.812667 254.961663 
L 242.379338 255.148495 
L 246.462788 255.454603 
L 250.900003 256.013467 
L 254.159689 256.324137 
L 256.484425 256.643723 
L 280.055235 259.192263 
L 287.646006 259.94605 
L 290.70354 260.249751 
L 308.386701 262.213882 
L 309.478316 262.338249 
L 313.693165 262.825435 
L 316.159408 263.17814 
L 319.858772 263.688468 
L 322.375552 264.005592 
L 323.947276 264.196825 
L 335.656874 265.883771 
L 355.8366 268.907145 
L 356.978753 269.120964 
L 358.691983 269.431483 
L 360.177793 269.706946 
L 363.796297 270.293237 
L 364.75146 270.502935 
L 368.390179 271.207999 
L 376.481273 272.860524 
L 380.903327 273.946294 
L 388.645711 276.243081 
L 389.151089 276.399328 
L 390.101199 276.674689 
L 390.975502 277.099458 
L 392.299591 277.57767 
L 395.594653 279.1279 
L 395.594653 279.1279 
" style="fill:none;stroke:#0000ff;stroke-linecap:square;stroke-width:1.5;"/>
   </g>
   <g id="line2d_15">
    <path clip-path="url(#p101a641568)" d="M 91.827362 230.354749 
L 91.903169 230.585957 
L 92.034567 231.755224 
L 92.196288 232.095881 
L 92.924031 236.440201 
L 93.055429 236.209009 
L 93.722528 237.883834 
L 93.81855 238.152314 
L 94.010593 239.031366 
L 94.131884 239.129458 
L 94.384572 240.436515 
L 94.874789 241.836314 
L 95.137585 243.030945 
L 95.289198 243.087558 
L 95.718769 244.21922 
L 95.824899 244.479953 
L 95.976512 244.511272 
L 96.406083 245.845368 
L 96.56275 245.990041 
L 96.754793 246.539702 
L 96.931675 246.560785 
L 97.047912 246.735819 
L 97.234902 246.695566 
L 97.709957 247.80267 
L 97.907054 247.761813 
L 98.255765 248.62825 
L 98.655013 249.184713 
L 98.922863 249.593893 
L 99.433294 250.482584 
L 99.776951 250.642441 
L 99.903295 250.863367 
L 100.307598 250.868191 
L 100.893835 251.595851 
L 101.252654 251.77234 
L 101.560934 252.13744 
L 102.137064 252.417669 
L 102.900184 253.251539 
L 103.76438 253.983994 
L 104.138359 254.199803 
L 104.305134 254.373833 
L 104.5275 254.396629 
L 105.43718 255.060232 
L 105.942557 255.069095 
L 106.28116 255.370345 
L 108.161165 256.250053 
L 108.737295 256.684237 
L 109.000092 256.703359 
L 109.348802 257.024176 
L 109.788481 257.189508 
L 109.945148 257.377653 
L 110.915473 257.643569 
L 111.724077 258.171444 
L 112.456874 258.386789 
L 112.770208 258.742582 
L 114.857417 259.582234 
L 115.337526 259.754697 
L 117.111401 260.341764 
L 117.51065 260.59499 
L 118.480975 260.995067 
L 126.041423 262.961154 
L 127.350351 263.366122 
L 128.042718 263.444463 
L 128.254977 263.540683 
L 128.856376 263.646585 
L 130.261326 263.992699 
L 131.91391 264.17342 
L 135.411123 264.782107 
L 136.047899 264.883463 
L 143.613401 265.90602 
L 144.770715 266.025767 
L 145.857277 266.158876 
L 147.853518 266.494821 
L 150.991913 266.949273 
L 154.286975 267.375281 
L 156.025474 267.648886 
L 157.142358 267.782443 
L 160.402043 268.236095 
L 164.445064 268.62631 
L 167.745179 268.948113 
L 175.219713 269.679146 
L 178.393485 269.910746 
L 182.254569 270.268229 
L 187.025333 270.591802 
L 189.643189 270.827561 
L 195.697612 271.282255 
L 197.062132 271.394355 
L 201.73182 271.637181 
L 215.432606 272.578194 
L 230.826407 273.493739 
L 237.179002 273.848181 
L 243.526545 274.205422 
L 345.895823 279.586029 
L 350.454329 279.888764 
L 362.669305 280.706398 
L 388.008936 282.911043 
L 396.150568 284.082593 
L 396.150568 284.082593 
" style="fill:none;stroke:#bfbf00;stroke-linecap:square;stroke-width:1.5;"/>
   </g>
   <g id="line2d_16">
    <path clip-path="url(#p101a641568)" d="M 91.994137 116.9019 
L 92.358008 115.74483 
L 92.666289 117.160689 
L 92.999838 117.359488 
L 93.333387 119.529798 
L 93.682098 120.536906 
L 94.035862 121.005414 
L 94.460379 121.932873 
L 94.940488 121.090477 
L 96.881138 128.469284 
L 97.396623 129.119566 
L 98.392217 130.775824 
L 98.953186 130.278202 
L 99.418133 131.551536 
L 100.014479 131.982131 
L 100.555233 132.552515 
L 101.106094 133.346803 
L 101.732762 133.654922 
L 102.248247 134.626612 
L 102.869862 134.789008 
L 103.375239 136.450644 
L 103.915993 137.585393 
L 104.456747 139.379646 
L 105.078362 139.712423 
L 105.831374 139.534568 
L 106.341806 141.063921 
L 107.53955 142.878884 
L 108.161165 143.587389 
L 109.950201 146.094717 
L 111.259129 147.38667 
L 112.659025 148.572046 
L 113.275586 149.428774 
L 113.806232 150.608807 
L 114.397524 151.533231 
L 115.029246 152.252581 
L 115.681183 152.624682 
L 117.621833 154.314593 
L 118.344523 154.678236 
L 119.006567 155.363392 
L 119.75958 155.49255 
L 121.159476 156.580697 
L 121.877112 157.329376 
L 122.746361 157.461217 
L 123.347761 158.058829 
L 123.94916 158.873598 
L 124.636473 159.240969 
L 125.28841 159.899997 
L 126.031315 160.3495 
L 128.810892 162.604142 
L 129.508313 163.121024 
L 130.332078 163.332316 
L 131.752189 164.293135 
L 132.520363 164.968155 
L 133.222838 165.425668 
L 134.799616 166.170839 
L 135.507145 166.739076 
L 137.144568 167.247708 
L 137.847043 167.828071 
L 140.176833 168.953331 
L 142.299419 170.614402 
L 143.1434 170.783949 
L 143.825659 171.432524 
L 144.614048 171.648294 
L 146.130181 172.513825 
L 147.671583 173.091343 
L 148.990618 174.304138 
L 150.46632 175.190017 
L 151.123311 175.788977 
L 151.846001 176.275659 
L 152.573745 176.614023 
L 153.220628 177.126861 
L 153.968587 177.509785 
L 154.600309 177.971366 
L 155.186547 178.65324 
L 155.838484 179.117587 
L 156.571281 179.406884 
L 157.824618 180.433841 
L 160.624409 181.999315 
L 162.630758 183.43566 
L 163.36861 183.758295 
L 165.920766 185.503679 
L 167.280232 186.259652 
L 167.911954 186.697724 
L 170.044647 187.772423 
L 170.686477 188.19652 
L 171.394005 188.526945 
L 173.137558 189.958078 
L 177.883053 192.242147 
L 178.449076 192.670205 
L 180.465533 193.61022 
L 181.016394 194.005202 
L 182.401129 194.553106 
L 184.023391 195.754717 
L 184.543929 196.148805 
L 185.175651 196.441426 
L 187.313398 197.979229 
L 188.516197 198.629851 
L 190.477062 199.341148 
L 191.609108 199.970406 
L 193.388037 200.893491 
L 194.439222 201.592788 
L 196.763959 202.724522 
L 198.350844 203.652026 
L 202.707199 205.991887 
L 204.369891 206.648615 
L 206.901833 207.970582 
L 209.539904 209.178582 
L 210.71238 209.592863 
L 212.026361 210.406156 
L 213.91142 211.417996 
L 216.948739 213.151808 
L 219.273475 214.243139 
L 219.622186 214.555893 
L 223.276066 216.267462 
L 225.732201 217.645801 
L 226.262847 217.813907 
L 226.929946 218.302867 
L 229.148553 219.288051 
L 231.816947 220.449913 
L 233.373509 221.275623 
L 235.324267 222.247178 
L 237.057712 222.958525 
L 238.17965 223.511779 
L 242.050842 224.91452 
L 243.572029 225.613118 
L 244.825365 226.039595 
L 245.6087 226.342251 
L 248.969461 227.790249 
L 251.117316 228.748191 
L 253.725064 229.787255 
L 255.726359 230.675094 
L 257.308191 231.176487 
L 262.442827 233.159401 
L 263.837669 233.633917 
L 264.049927 233.798393 
L 265.106167 234.150831 
L 265.747996 234.397552 
L 268.80553 235.450152 
L 270.422738 236.040287 
L 274.258554 237.370728 
L 279.585234 239.513851 
L 280.75771 239.917646 
L 282.455778 240.531421 
L 284.724923 241.323531 
L 287.438801 242.144598 
L 290.304292 243.050242 
L 292.340963 243.790086 
L 307.360784 248.60878 
L 308.694981 248.970819 
L 311.055094 249.809713 
L 312.091118 250.181884 
L 317.983821 252.295442 
L 320.318665 253.02636 
L 321.076731 253.298325 
L 323.285231 254.022299 
L 326.969434 255.068838 
L 328.339007 255.51658 
L 329.390192 255.891216 
L 333.635364 257.292126 
L 342.661407 259.950406 
L 343.470011 260.163236 
L 349.433466 262.120777 
L 351.131535 262.597509 
L 353.446164 263.364121 
L 357.564991 264.573785 
L 359.434888 265.227646 
L 360.374891 265.552353 
L 363.669952 266.61486 
L 370.972658 269.140601 
L 381.176231 272.688024 
L 385.254628 274.397824 
L 386.659578 275.096443 
L 387.2256 275.337302 
L 387.2256 275.337302 
" style="fill:none;stroke:#bf00bf;stroke-linecap:square;stroke-width:1.5;"/>
   </g>
   <g id="line2d_17">
    <path clip-path="url(#p101a641568)" d="M 91.802093 205.923813 
L 92.277148 211.519196 
L 92.802741 216.47831 
L 92.954354 217.155229 
L 93.237365 219.044477 
L 93.459732 219.080283 
L 93.853926 222.409698 
L 94.197583 224.023261 
L 94.450272 226.706255 
L 94.642315 227.227712 
L 94.93038 228.960331 
L 95.11737 229.454115 
L 95.258876 230.48564 
L 95.814791 232.239702 
L 96.178663 233.787369 
L 96.673933 234.43319 
L 97.659419 237.619925 
L 97.831247 238.357176 
L 98.078882 238.706827 
L 98.35684 238.816987 
L 99.589961 240.719758 
L 99.832543 240.999618 
L 100.135769 241.163004 
L 102.228032 243.803005 
L 102.789001 244.437096 
L 103.036636 244.849298 
L 103.334809 245.099553 
L 104.017069 245.326852 
L 105.174383 246.404194 
L 106.094171 247.211172 
L 106.447935 247.259149 
L 110.127084 249.468056 
L 110.546547 249.552525 
L 110.859881 249.783465 
L 111.319775 249.760595 
L 112.077841 250.062864 
L 112.911714 250.21233 
L 114.458169 250.739119 
L 116.919358 251.454658 
L 117.263015 251.638891 
L 118.486028 251.951301 
L 120.088075 252.52903 
L 124.075504 253.443764 
L 125.601744 254.084384 
L 126.642822 254.161338 
L 127.501964 254.401141 
L 128.492504 254.507119 
L 129.432506 254.676373 
L 129.81154 254.820226 
L 131.261973 255.00035 
L 133.020687 255.425124 
L 133.50585 255.513439 
L 134.61768 255.559193 
L 136.416824 255.939619 
L 138.635432 256.413323 
L 144.154155 257.088175 
L 150.03675 257.929445 
L 153.670414 258.315204 
L 154.630632 258.439419 
L 159.047631 258.970658 
L 165.380012 259.777204 
L 173.157773 260.503077 
L 190.628675 261.912647 
L 192.822014 262.034621 
L 198.67934 262.5207 
L 209.499473 263.330875 
L 214.30056 263.681691 
L 217.464224 263.952939 
L 224.074562 264.309381 
L 230.134039 264.741929 
L 232.756949 264.959002 
L 236.572549 265.182506 
L 247.700963 265.961016 
L 256.797759 266.596487 
L 263.04928 267.039238 
L 265.363909 267.229187 
L 268.734777 267.444465 
L 271.943925 267.666106 
L 274.779093 267.849277 
L 278.751361 268.121241 
L 290.97139 269.101092 
L 319.045114 271.374232 
L 330.183635 272.288302 
L 338.744731 273.019932 
L 346.34561 273.782357 
L 351.581321 274.234398 
L 362.093174 275.322061 
L 367.824156 276.043185 
L 371.574057 276.531864 
L 384.804842 278.573946 
L 393.497336 280.489035 
L 394.053251 280.673751 
L 394.053251 280.673751 
" style="fill:none;stroke:#00bfbf;stroke-linecap:square;stroke-width:1.5;"/>
   </g>
   <g id="line2d_18">
    <path clip-path="url(#p101a641568)" d="M 91.948653 45.981451 
L 92.231664 47.683734 
L 92.539944 45.631472 
L 92.822956 48.247915 
L 93.126182 49.699038 
L 93.424355 49.414433 
L 93.808442 49.411304 
L 94.253174 46.908514 
L 94.561455 48.110677 
L 95.622748 50.290475 
L 96.011888 50.613658 
L 96.476836 50.014756 
L 96.91146 49.238576 
L 97.351139 50.146279 
L 97.851463 48.878608 
L 98.791465 51.118106 
L 99.271574 50.686065 
L 99.751682 51.114885 
L 100.302544 51.236861 
L 100.767491 52.488367 
L 101.313299 52.379775 
L 101.752977 54.228101 
L 102.233086 55.049979 
L 102.718248 57.495016 
L 103.279218 56.55682 
L 103.946316 56.194374 
L 104.952017 58.068479 
L 105.507933 58.621709 
L 106.063848 58.576883 
L 107.140302 59.099448 
L 107.650733 58.728806 
L 108.206649 59.028875 
L 108.762564 59.462525 
L 109.323533 59.522518 
L 110.485902 60.095765 
L 110.935688 60.920567 
L 111.410743 61.40253 
L 111.946443 62.316835 
L 113.048166 62.497952 
L 113.604081 62.855551 
L 114.776557 62.998212 
L 115.332472 63.781281 
L 116.019786 63.038996 
L 116.550432 63.759679 
L 117.146778 63.746797 
L 117.768392 64.200271 
L 118.496136 64.048643 
L 119.011621 64.245143 
L 119.511945 64.976152 
L 121.78109 65.575859 
L 123.03948 66.482634 
L 124.201849 67.009232 
L 124.853786 66.950991 
L 125.414755 67.472733 
L 125.975724 67.765372 
L 126.637768 68.55508 
L 128.568311 68.504945 
L 129.149495 68.675894 
L 129.821647 68.477536 
L 130.544337 68.38072 
L 131.160898 68.743848 
L 131.853265 68.580284 
L 132.484987 68.738572 
L 133.182408 68.667946 
L 134.314454 69.671023 
L 134.981552 69.864295 
L 135.699188 69.75799 
L 136.305641 70.29151 
L 136.942417 70.217002 
L 137.538762 70.291113 
L 138.165431 70.607195 
L 139.388444 70.783058 
L 139.949413 70.975446 
L 140.475006 71.353738 
L 141.071352 71.419671 
L 141.687912 71.698811 
L 142.178128 72.238782 
L 143.375873 72.393959 
L 143.876197 72.926891 
L 144.487704 73.008857 
L 145.01835 73.226734 
L 145.503513 73.724712 
L 146.024052 73.968539 
L 146.554698 73.977253 
L 148.121369 74.761682 
L 148.788467 74.752094 
L 149.309006 74.910931 
L 150.804923 75.95719 
L 151.370946 76.069886 
L 151.952131 75.939964 
L 152.467616 76.373958 
L 153.003316 76.523066 
L 154.585148 77.466067 
L 155.100633 77.65663 
L 155.575688 78.070629 
L 157.288918 78.646643 
L 158.395694 79.095305 
L 159.295266 80.089734 
L 160.39699 80.345127 
L 160.937744 80.450329 
L 161.534089 80.429416 
L 162.039467 80.550817 
L 162.595382 80.899457 
L 163.075491 81.059123 
L 163.59603 81.363001 
L 164.015493 81.860378 
L 164.536032 82.126778 
L 165.597325 82.458812 
L 165.996573 82.929267 
L 167.06292 83.147791 
L 169.706044 84.884115 
L 170.595509 85.397375 
L 171.484973 85.839813 
L 172.465406 85.972015 
L 173.026375 86.09169 
L 176.569072 88.067365 
L 177.04918 88.065867 
L 178.337893 88.698727 
L 178.727034 88.900678 
L 179.065637 89.201764 
L 179.98037 89.482001 
L 181.213491 90.176147 
L 184.134574 91.375619 
L 185.266619 91.978375 
L 186.049955 92.41318 
L 186.479526 92.578535 
L 186.95458 92.592867 
L 190.25975 94.358509 
L 190.552869 94.68866 
L 190.972332 94.738353 
L 191.260397 95.005921 
L 191.609108 95.174124 
L 191.861797 95.482953 
L 193.23137 96.184503 
L 195.182127 97.377957 
L 195.424708 97.761446 
L 196.96611 98.3872 
L 197.365358 98.522658 
L 197.860628 99.065132 
L 198.249769 99.224872 
L 198.841061 99.740868 
L 200.433 100.556039 
L 200.599775 100.906319 
L 201.580207 101.329502 
L 202.18666 101.684166 
L 202.783006 102.067863 
L 204.031288 102.784533 
L 205.006667 103.230707 
L 206.674413 104.366917 
L 207.210113 104.770163 
L 208.119793 105.406703 
L 208.913235 105.952878 
L 209.868399 106.289811 
L 210.742702 106.828224 
L 211.86464 107.447274 
L 213.476795 108.372906 
L 213.709269 108.607497 
L 215.083895 109.287724 
L 216.034005 109.91577 
L 217.838203 111.018421 
L 219.435196 111.875637 
L 219.809176 112.297458 
L 220.96649 112.977425 
L 221.23434 113.071258 
L 221.946923 113.580914 
L 223.351872 114.305187 
L 224.069509 114.725129 
L 224.6608 115.21287 
L 227.940701 116.989242 
L 228.370272 117.230511 
L 228.830165 117.41813 
L 229.295113 117.595572 
L 229.977372 117.959293 
L 230.240169 117.994092 
L 230.406943 118.186774 
L 232.044366 118.869365 
L 232.65082 119.189018 
L 233.317918 119.436189 
L 234.21749 120.117982 
L 234.738029 120.528676 
L 236.052011 121.218649 
L 236.794916 121.697051 
L 237.032443 121.744249 
L 237.937069 122.393282 
L 238.624382 122.828046 
L 239.286427 123.407834 
L 239.62503 123.629858 
L 240.372989 124.02953 
L 241.429228 124.735313 
L 243.021167 125.760873 
L 244.138051 126.550847 
L 244.582784 126.896958 
L 246.361713 128.162829 
L 246.907521 128.487888 
L 247.423006 128.765634 
L 249.141289 130.049494 
L 250.06613 130.492301 
L 250.60183 130.932414 
L 251.097101 131.195276 
L 252.173555 131.777193 
L 253.285385 132.370229 
L 253.553235 132.582799 
L 254.179904 132.972704 
L 257.368836 135.340765 
L 257.889375 135.807124 
L 258.935506 136.453648 
L 260.138305 137.399217 
L 260.618414 137.746943 
L 261.447233 138.360681 
L 263.271646 139.801193 
L 263.777024 140.088087 
L 264.216702 140.457981 
L 265.005091 140.915188 
L 265.368963 141.274356 
L 267.147892 142.801944 
L 267.299505 143.002187 
L 267.916066 143.590068 
L 268.098002 143.768926 
L 271.342526 146.385613 
L 271.721559 146.72564 
L 272.969841 147.749724 
L 273.323606 147.952246 
L 274.051349 148.704527 
L 274.288877 148.826115 
L 276.669205 151.135523 
L 277.583938 151.942298 
L 277.877057 152.286983 
L 280.752656 154.851292 
L 281.121581 155.413489 
L 281.626959 155.955083 
L 282.849973 157.186803 
L 283.421049 157.983144 
L 283.547394 158.122701 
L 284.259976 159.033739 
L 285.33643 160.052003 
L 286.266325 161.441043 
L 287.595468 163.011686 
L 288.004824 163.605972 
L 290.526658 167.706147 
L 290.89053 168.440281 
L 291.224079 169.264475 
L 291.527305 169.788042 
L 291.648596 170.010467 
L 291.648596 170.010467 
" style="fill:none;stroke:#ffa500;stroke-linecap:square;stroke-width:1.5;"/>
   </g>
   <g id="patch_3">
    <path d="M 76.56875 297.884062 
L 76.56875 26.084062 
" style="fill:none;stroke:#000000;stroke-linecap:square;stroke-linejoin:miter;stroke-width:0.8;"/>
   </g>
   <g id="patch_4">
    <path d="M 411.36875 297.884062 
L 411.36875 26.084062 
" style="fill:none;stroke:#000000;stroke-linecap:square;stroke-linejoin:miter;stroke-width:0.8;"/>
   </g>
   <g id="patch_5">
    <path d="M 76.56875 297.884062 
L 411.36875 297.884062 
" style="fill:none;stroke:#000000;stroke-linecap:square;stroke-linejoin:miter;stroke-width:0.8;"/>
   </g>
   <g id="patch_6">
    <path d="M 76.56875 26.084062 
L 411.36875 26.084062 
" style="fill:none;stroke:#000000;stroke-linecap:square;stroke-linejoin:miter;stroke-width:0.8;"/>
   </g>
   <g id="text_14">
    <!-- (0.47,0.38) -->
    <defs>
     <path d="M 31 75.875 
Q 24.46875 64.65625 21.28125 53.65625 
Q 18.109375 42.671875 18.109375 31.390625 
Q 18.109375 20.125 21.3125 9.0625 
Q 24.515625 -2 31 -13.1875 
L 23.1875 -13.1875 
Q 15.875 -1.703125 12.234375 9.375 
Q 8.59375 20.453125 8.59375 31.390625 
Q 8.59375 42.28125 12.203125 53.3125 
Q 15.828125 64.359375 23.1875 75.875 
z
" id="DejaVuSans-40"/>
     <path d="M 8.203125 72.90625 
L 55.078125 72.90625 
L 55.078125 68.703125 
L 28.609375 0 
L 18.3125 0 
L 43.21875 64.59375 
L 8.203125 64.59375 
z
" id="DejaVuSans-55"/>
     <path d="M 11.71875 12.40625 
L 22.015625 12.40625 
L 22.015625 4 
L 14.015625 -11.625 
L 7.71875 -11.625 
L 11.71875 4 
z
" id="DejaVuSans-44"/>
     <path d="M 8.015625 75.875 
L 15.828125 75.875 
Q 23.140625 64.359375 26.78125 53.3125 
Q 30.421875 42.28125 30.421875 31.390625 
Q 30.421875 20.453125 26.78125 9.375 
Q 23.140625 -1.703125 15.828125 -13.1875 
L 8.015625 -13.1875 
Q 14.5 -2 17.703125 9.0625 
Q 20.90625 20.125 20.90625 31.390625 
Q 20.90625 42.671875 17.703125 53.65625 
Q 14.5 64.65625 8.015625 75.875 
z
" id="DejaVuSans-41"/>
    </defs>
    <g style="fill:#ffa500;" transform="translate(174.374722 143.569274)scale(0.12 -0.12)">
     <use xlink:href="#DejaVuSans-40"/>
     <use x="39.013672" xlink:href="#DejaVuSans-48"/>
     <use x="102.636719" xlink:href="#DejaVuSans-46"/>
     <use x="134.423828" xlink:href="#DejaVuSans-52"/>
     <use x="198.046875" xlink:href="#DejaVuSans-55"/>
     <use x="261.669922" xlink:href="#DejaVuSans-44"/>
     <use x="293.457031" xlink:href="#DejaVuSans-48"/>
     <use x="357.080078" xlink:href="#DejaVuSans-46"/>
     <use x="388.867188" xlink:href="#DejaVuSans-51"/>
     <use x="452.490234" xlink:href="#DejaVuSans-56"/>
     <use x="516.113281" xlink:href="#DejaVuSans-41"/>
    </g>
   </g>
   <g id="text_15">
    <!-- Precision - recall curve -->
    <defs>
     <path id="ArialMT-32"/>
     <path d="M 3.171875 21.484375 
L 3.171875 30.328125 
L 30.171875 30.328125 
L 30.171875 21.484375 
z
" id="ArialMT-45"/>
     <path d="M 40.578125 0 
L 40.578125 7.625 
Q 34.515625 -1.171875 24.125 -1.171875 
Q 19.53125 -1.171875 15.546875 0.578125 
Q 11.578125 2.34375 9.640625 5 
Q 7.71875 7.671875 6.9375 11.53125 
Q 6.390625 14.109375 6.390625 19.734375 
L 6.390625 51.859375 
L 15.1875 51.859375 
L 15.1875 23.09375 
Q 15.1875 16.21875 15.71875 13.8125 
Q 16.546875 10.359375 19.234375 8.375 
Q 21.921875 6.390625 25.875 6.390625 
Q 29.828125 6.390625 33.296875 8.421875 
Q 36.765625 10.453125 38.203125 13.9375 
Q 39.65625 17.4375 39.65625 24.078125 
L 39.65625 51.859375 
L 48.4375 51.859375 
L 48.4375 0 
z
" id="ArialMT-117"/>
     <path d="M 21 0 
L 1.265625 51.859375 
L 10.546875 51.859375 
L 21.6875 20.796875 
Q 23.484375 15.765625 25 10.359375 
Q 26.171875 14.453125 28.265625 20.21875 
L 39.796875 51.859375 
L 48.828125 51.859375 
L 29.203125 0 
z
" id="ArialMT-118"/>
    </defs>
    <g transform="translate(152.945 20.084062)scale(0.18 -0.18)">
     <use xlink:href="#ArialMT-80"/>
     <use x="66.699219" xlink:href="#ArialMT-114"/>
     <use x="100" xlink:href="#ArialMT-101"/>
     <use x="155.615234" xlink:href="#ArialMT-99"/>
     <use x="205.615234" xlink:href="#ArialMT-105"/>
     <use x="227.832031" xlink:href="#ArialMT-115"/>
     <use x="277.832031" xlink:href="#ArialMT-105"/>
     <use x="300.048828" xlink:href="#ArialMT-111"/>
     <use x="355.664062" xlink:href="#ArialMT-110"/>
     <use x="411.279297" xlink:href="#ArialMT-32"/>
     <use x="439.0625" xlink:href="#ArialMT-45"/>
     <use x="472.363281" xlink:href="#ArialMT-32"/>
     <use x="500.146484" xlink:href="#ArialMT-114"/>
     <use x="533.447266" xlink:href="#ArialMT-101"/>
     <use x="589.0625" xlink:href="#ArialMT-99"/>
     <use x="639.0625" xlink:href="#ArialMT-97"/>
     <use x="694.677734" xlink:href="#ArialMT-108"/>
     <use x="716.894531" xlink:href="#ArialMT-108"/>
     <use x="739.111328" xlink:href="#ArialMT-32"/>
     <use x="766.894531" xlink:href="#ArialMT-99"/>
     <use x="816.894531" xlink:href="#ArialMT-117"/>
     <use x="872.509766" xlink:href="#ArialMT-114"/>
     <use x="905.810547" xlink:href="#ArialMT-118"/>
     <use x="955.810547" xlink:href="#ArialMT-101"/>
    </g>
   </g>
   <g id="legend_1">
    <g id="patch_7">
     <path d="M 270.96375 114.681562 
L 405.76875 114.681562 
Q 407.36875 114.681562 407.36875 113.081562 
L 407.36875 31.684062 
Q 407.36875 30.084062 405.76875 30.084062 
L 270.96375 30.084062 
Q 269.36375 30.084062 269.36375 31.684062 
L 269.36375 113.081562 
Q 269.36375 114.681562 270.96375 114.681562 
z
" style="fill:#ffffff;opacity:0.8;stroke:#cccccc;stroke-linejoin:miter;"/>
    </g>
    <g id="line2d_19">
     <path d="M 272.56375 36.562812 
L 288.56375 36.562812 
" style="fill:none;stroke:#ff0000;stroke-linecap:square;stroke-width:1.5;"/>
    </g>
    <g id="line2d_20"/>
    <g id="text_16">
     <!-- Node2Vec, AUC:0.09 -->
     <defs>
      <path d="M 9.8125 72.90625 
L 23.09375 72.90625 
L 55.421875 11.921875 
L 55.421875 72.90625 
L 64.984375 72.90625 
L 64.984375 0 
L 51.703125 0 
L 19.390625 60.984375 
L 19.390625 0 
L 9.8125 0 
z
" id="DejaVuSans-78"/>
      <path d="M 30.609375 48.390625 
Q 23.390625 48.390625 19.1875 42.75 
Q 14.984375 37.109375 14.984375 27.296875 
Q 14.984375 17.484375 19.15625 11.84375 
Q 23.34375 6.203125 30.609375 6.203125 
Q 37.796875 6.203125 41.984375 11.859375 
Q 46.1875 17.53125 46.1875 27.296875 
Q 46.1875 37.015625 41.984375 42.703125 
Q 37.796875 48.390625 30.609375 48.390625 
z
M 30.609375 56 
Q 42.328125 56 49.015625 48.375 
Q 55.71875 40.765625 55.71875 27.296875 
Q 55.71875 13.875 49.015625 6.21875 
Q 42.328125 -1.421875 30.609375 -1.421875 
Q 18.84375 -1.421875 12.171875 6.21875 
Q 5.515625 13.875 5.515625 27.296875 
Q 5.515625 40.765625 12.171875 48.375 
Q 18.84375 56 30.609375 56 
z
" id="DejaVuSans-111"/>
      <path d="M 45.40625 46.390625 
L 45.40625 75.984375 
L 54.390625 75.984375 
L 54.390625 0 
L 45.40625 0 
L 45.40625 8.203125 
Q 42.578125 3.328125 38.25 0.953125 
Q 33.9375 -1.421875 27.875 -1.421875 
Q 17.96875 -1.421875 11.734375 6.484375 
Q 5.515625 14.40625 5.515625 27.296875 
Q 5.515625 40.1875 11.734375 48.09375 
Q 17.96875 56 27.875 56 
Q 33.9375 56 38.25 53.625 
Q 42.578125 51.265625 45.40625 46.390625 
z
M 14.796875 27.296875 
Q 14.796875 17.390625 18.875 11.75 
Q 22.953125 6.109375 30.078125 6.109375 
Q 37.203125 6.109375 41.296875 11.75 
Q 45.40625 17.390625 45.40625 27.296875 
Q 45.40625 37.203125 41.296875 42.84375 
Q 37.203125 48.484375 30.078125 48.484375 
Q 22.953125 48.484375 18.875 42.84375 
Q 14.796875 37.203125 14.796875 27.296875 
z
" id="DejaVuSans-100"/>
      <path d="M 56.203125 29.59375 
L 56.203125 25.203125 
L 14.890625 25.203125 
Q 15.484375 15.921875 20.484375 11.0625 
Q 25.484375 6.203125 34.421875 6.203125 
Q 39.59375 6.203125 44.453125 7.46875 
Q 49.3125 8.734375 54.109375 11.28125 
L 54.109375 2.78125 
Q 49.265625 0.734375 44.1875 -0.34375 
Q 39.109375 -1.421875 33.890625 -1.421875 
Q 20.796875 -1.421875 13.15625 6.1875 
Q 5.515625 13.8125 5.515625 26.8125 
Q 5.515625 40.234375 12.765625 48.109375 
Q 20.015625 56 32.328125 56 
Q 43.359375 56 49.78125 48.890625 
Q 56.203125 41.796875 56.203125 29.59375 
z
M 47.21875 32.234375 
Q 47.125 39.59375 43.09375 43.984375 
Q 39.0625 48.390625 32.421875 48.390625 
Q 24.90625 48.390625 20.390625 44.140625 
Q 15.875 39.890625 15.1875 32.171875 
z
" id="DejaVuSans-101"/>
      <path d="M 28.609375 0 
L 0.78125 72.90625 
L 11.078125 72.90625 
L 34.1875 11.53125 
L 57.328125 72.90625 
L 67.578125 72.90625 
L 39.796875 0 
z
" id="DejaVuSans-86"/>
      <path d="M 48.78125 52.59375 
L 48.78125 44.1875 
Q 44.96875 46.296875 41.140625 47.34375 
Q 37.3125 48.390625 33.40625 48.390625 
Q 24.65625 48.390625 19.8125 42.84375 
Q 14.984375 37.3125 14.984375 27.296875 
Q 14.984375 17.28125 19.8125 11.734375 
Q 24.65625 6.203125 33.40625 6.203125 
Q 37.3125 6.203125 41.140625 7.25 
Q 44.96875 8.296875 48.78125 10.40625 
L 48.78125 2.09375 
Q 45.015625 0.34375 40.984375 -0.53125 
Q 36.96875 -1.421875 32.421875 -1.421875 
Q 20.0625 -1.421875 12.78125 6.34375 
Q 5.515625 14.109375 5.515625 27.296875 
Q 5.515625 40.671875 12.859375 48.328125 
Q 20.21875 56 33.015625 56 
Q 37.15625 56 41.109375 55.140625 
Q 45.0625 54.296875 48.78125 52.59375 
z
" id="DejaVuSans-99"/>
      <path id="DejaVuSans-32"/>
      <path d="M 34.1875 63.1875 
L 20.796875 26.90625 
L 47.609375 26.90625 
z
M 28.609375 72.90625 
L 39.796875 72.90625 
L 67.578125 0 
L 57.328125 0 
L 50.6875 18.703125 
L 17.828125 18.703125 
L 11.1875 0 
L 0.78125 0 
z
" id="DejaVuSans-65"/>
      <path d="M 8.6875 72.90625 
L 18.609375 72.90625 
L 18.609375 28.609375 
Q 18.609375 16.890625 22.84375 11.734375 
Q 27.09375 6.59375 36.625 6.59375 
Q 46.09375 6.59375 50.34375 11.734375 
Q 54.59375 16.890625 54.59375 28.609375 
L 54.59375 72.90625 
L 64.5 72.90625 
L 64.5 27.390625 
Q 64.5 13.140625 57.4375 5.859375 
Q 50.390625 -1.421875 36.625 -1.421875 
Q 22.796875 -1.421875 15.734375 5.859375 
Q 8.6875 13.140625 8.6875 27.390625 
z
" id="DejaVuSans-85"/>
      <path d="M 64.40625 67.28125 
L 64.40625 56.890625 
Q 59.421875 61.53125 53.78125 63.8125 
Q 48.140625 66.109375 41.796875 66.109375 
Q 29.296875 66.109375 22.65625 58.46875 
Q 16.015625 50.828125 16.015625 36.375 
Q 16.015625 21.96875 22.65625 14.328125 
Q 29.296875 6.6875 41.796875 6.6875 
Q 48.140625 6.6875 53.78125 8.984375 
Q 59.421875 11.28125 64.40625 15.921875 
L 64.40625 5.609375 
Q 59.234375 2.09375 53.4375 0.328125 
Q 47.65625 -1.421875 41.21875 -1.421875 
Q 24.65625 -1.421875 15.125 8.703125 
Q 5.609375 18.84375 5.609375 36.375 
Q 5.609375 53.953125 15.125 64.078125 
Q 24.65625 74.21875 41.21875 74.21875 
Q 47.75 74.21875 53.53125 72.484375 
Q 59.328125 70.75 64.40625 67.28125 
z
" id="DejaVuSans-67"/>
      <path d="M 11.71875 12.40625 
L 22.015625 12.40625 
L 22.015625 0 
L 11.71875 0 
z
M 11.71875 51.703125 
L 22.015625 51.703125 
L 22.015625 39.3125 
L 11.71875 39.3125 
z
" id="DejaVuSans-58"/>
      <path d="M 10.984375 1.515625 
L 10.984375 10.5 
Q 14.703125 8.734375 18.5 7.8125 
Q 22.3125 6.890625 25.984375 6.890625 
Q 35.75 6.890625 40.890625 13.453125 
Q 46.046875 20.015625 46.78125 33.40625 
Q 43.953125 29.203125 39.59375 26.953125 
Q 35.25 24.703125 29.984375 24.703125 
Q 19.046875 24.703125 12.671875 31.3125 
Q 6.296875 37.9375 6.296875 49.421875 
Q 6.296875 60.640625 12.9375 67.421875 
Q 19.578125 74.21875 30.609375 74.21875 
Q 43.265625 74.21875 49.921875 64.515625 
Q 56.59375 54.828125 56.59375 36.375 
Q 56.59375 19.140625 48.40625 8.859375 
Q 40.234375 -1.421875 26.421875 -1.421875 
Q 22.703125 -1.421875 18.890625 -0.6875 
Q 15.09375 0.046875 10.984375 1.515625 
z
M 30.609375 32.421875 
Q 37.25 32.421875 41.125 36.953125 
Q 45.015625 41.5 45.015625 49.421875 
Q 45.015625 57.28125 41.125 61.84375 
Q 37.25 66.40625 30.609375 66.40625 
Q 23.96875 66.40625 20.09375 61.84375 
Q 16.21875 57.28125 16.21875 49.421875 
Q 16.21875 41.5 20.09375 36.953125 
Q 23.96875 32.421875 30.609375 32.421875 
z
" id="DejaVuSans-57"/>
     </defs>
     <g transform="translate(294.96375 39.362812)scale(0.08 -0.08)">
      <use xlink:href="#DejaVuSans-78"/>
      <use x="74.804688" xlink:href="#DejaVuSans-111"/>
      <use x="135.986328" xlink:href="#DejaVuSans-100"/>
      <use x="199.462891" xlink:href="#DejaVuSans-101"/>
      <use x="260.986328" xlink:href="#DejaVuSans-50"/>
      <use x="324.609375" xlink:href="#DejaVuSans-86"/>
      <use x="385.267578" xlink:href="#DejaVuSans-101"/>
      <use x="446.791016" xlink:href="#DejaVuSans-99"/>
      <use x="501.771484" xlink:href="#DejaVuSans-44"/>
      <use x="533.558594" xlink:href="#DejaVuSans-32"/>
      <use x="565.345703" xlink:href="#DejaVuSans-65"/>
      <use x="633.753906" xlink:href="#DejaVuSans-85"/>
      <use x="706.947266" xlink:href="#DejaVuSans-67"/>
      <use x="776.771484" xlink:href="#DejaVuSans-58"/>
      <use x="810.462891" xlink:href="#DejaVuSans-48"/>
      <use x="874.085938" xlink:href="#DejaVuSans-46"/>
      <use x="905.873047" xlink:href="#DejaVuSans-48"/>
      <use x="969.496094" xlink:href="#DejaVuSans-57"/>
     </g>
    </g>
    <g id="line2d_21">
     <path d="M 272.56375 48.305312 
L 288.56375 48.305312 
" style="fill:none;stroke:#008000;stroke-linecap:square;stroke-width:1.5;"/>
    </g>
    <g id="line2d_22"/>
    <g id="text_17">
     <!-- Struc2Vec, AUC:0.01 -->
     <defs>
      <path d="M 53.515625 70.515625 
L 53.515625 60.890625 
Q 47.90625 63.578125 42.921875 64.890625 
Q 37.9375 66.21875 33.296875 66.21875 
Q 25.25 66.21875 20.875 63.09375 
Q 16.5 59.96875 16.5 54.203125 
Q 16.5 49.359375 19.40625 46.890625 
Q 22.3125 44.4375 30.421875 42.921875 
L 36.375 41.703125 
Q 47.40625 39.59375 52.65625 34.296875 
Q 57.90625 29 57.90625 20.125 
Q 57.90625 9.515625 50.796875 4.046875 
Q 43.703125 -1.421875 29.984375 -1.421875 
Q 24.8125 -1.421875 18.96875 -0.25 
Q 13.140625 0.921875 6.890625 3.21875 
L 6.890625 13.375 
Q 12.890625 10.015625 18.65625 8.296875 
Q 24.421875 6.59375 29.984375 6.59375 
Q 38.421875 6.59375 43.015625 9.90625 
Q 47.609375 13.234375 47.609375 19.390625 
Q 47.609375 24.75 44.3125 27.78125 
Q 41.015625 30.8125 33.5 32.328125 
L 27.484375 33.5 
Q 16.453125 35.6875 11.515625 40.375 
Q 6.59375 45.0625 6.59375 53.421875 
Q 6.59375 63.09375 13.40625 68.65625 
Q 20.21875 74.21875 32.171875 74.21875 
Q 37.3125 74.21875 42.625 73.28125 
Q 47.953125 72.359375 53.515625 70.515625 
z
" id="DejaVuSans-83"/>
      <path d="M 18.3125 70.21875 
L 18.3125 54.6875 
L 36.8125 54.6875 
L 36.8125 47.703125 
L 18.3125 47.703125 
L 18.3125 18.015625 
Q 18.3125 11.328125 20.140625 9.421875 
Q 21.96875 7.515625 27.59375 7.515625 
L 36.8125 7.515625 
L 36.8125 0 
L 27.59375 0 
Q 17.1875 0 13.234375 3.875 
Q 9.28125 7.765625 9.28125 18.015625 
L 9.28125 47.703125 
L 2.6875 47.703125 
L 2.6875 54.6875 
L 9.28125 54.6875 
L 9.28125 70.21875 
z
" id="DejaVuSans-116"/>
      <path d="M 41.109375 46.296875 
Q 39.59375 47.171875 37.8125 47.578125 
Q 36.03125 48 33.890625 48 
Q 26.265625 48 22.1875 43.046875 
Q 18.109375 38.09375 18.109375 28.8125 
L 18.109375 0 
L 9.078125 0 
L 9.078125 54.6875 
L 18.109375 54.6875 
L 18.109375 46.1875 
Q 20.953125 51.171875 25.484375 53.578125 
Q 30.03125 56 36.53125 56 
Q 37.453125 56 38.578125 55.875 
Q 39.703125 55.765625 41.0625 55.515625 
z
" id="DejaVuSans-114"/>
      <path d="M 8.5 21.578125 
L 8.5 54.6875 
L 17.484375 54.6875 
L 17.484375 21.921875 
Q 17.484375 14.15625 20.5 10.265625 
Q 23.53125 6.390625 29.59375 6.390625 
Q 36.859375 6.390625 41.078125 11.03125 
Q 45.3125 15.671875 45.3125 23.6875 
L 45.3125 54.6875 
L 54.296875 54.6875 
L 54.296875 0 
L 45.3125 0 
L 45.3125 8.40625 
Q 42.046875 3.421875 37.71875 1 
Q 33.40625 -1.421875 27.6875 -1.421875 
Q 18.265625 -1.421875 13.375 4.4375 
Q 8.5 10.296875 8.5 21.578125 
z
M 31.109375 56 
z
" id="DejaVuSans-117"/>
     </defs>
     <g transform="translate(294.96375 51.105312)scale(0.08 -0.08)">
      <use xlink:href="#DejaVuSans-83"/>
      <use x="63.476562" xlink:href="#DejaVuSans-116"/>
      <use x="102.685547" xlink:href="#DejaVuSans-114"/>
      <use x="143.798828" xlink:href="#DejaVuSans-117"/>
      <use x="207.177734" xlink:href="#DejaVuSans-99"/>
      <use x="262.158203" xlink:href="#DejaVuSans-50"/>
      <use x="325.78125" xlink:href="#DejaVuSans-86"/>
      <use x="386.439453" xlink:href="#DejaVuSans-101"/>
      <use x="447.962891" xlink:href="#DejaVuSans-99"/>
      <use x="502.943359" xlink:href="#DejaVuSans-44"/>
      <use x="534.730469" xlink:href="#DejaVuSans-32"/>
      <use x="566.517578" xlink:href="#DejaVuSans-65"/>
      <use x="634.925781" xlink:href="#DejaVuSans-85"/>
      <use x="708.119141" xlink:href="#DejaVuSans-67"/>
      <use x="777.943359" xlink:href="#DejaVuSans-58"/>
      <use x="811.634766" xlink:href="#DejaVuSans-48"/>
      <use x="875.257812" xlink:href="#DejaVuSans-46"/>
      <use x="907.044922" xlink:href="#DejaVuSans-48"/>
      <use x="970.667969" xlink:href="#DejaVuSans-49"/>
     </g>
    </g>
    <g id="line2d_23">
     <path d="M 272.56375 60.047812 
L 288.56375 60.047812 
" style="fill:none;stroke:#0000ff;stroke-linecap:square;stroke-width:1.5;"/>
    </g>
    <g id="line2d_24"/>
    <g id="text_18">
     <!-- Graph-SAGE, AUC:0.07 -->
     <defs>
      <path d="M 59.515625 10.40625 
L 59.515625 29.984375 
L 43.40625 29.984375 
L 43.40625 38.09375 
L 69.28125 38.09375 
L 69.28125 6.78125 
Q 63.578125 2.734375 56.6875 0.65625 
Q 49.8125 -1.421875 42 -1.421875 
Q 24.90625 -1.421875 15.25 8.5625 
Q 5.609375 18.5625 5.609375 36.375 
Q 5.609375 54.25 15.25 64.234375 
Q 24.90625 74.21875 42 74.21875 
Q 49.125 74.21875 55.546875 72.453125 
Q 61.96875 70.703125 67.390625 67.28125 
L 67.390625 56.78125 
Q 61.921875 61.421875 55.765625 63.765625 
Q 49.609375 66.109375 42.828125 66.109375 
Q 29.4375 66.109375 22.71875 58.640625 
Q 16.015625 51.171875 16.015625 36.375 
Q 16.015625 21.625 22.71875 14.15625 
Q 29.4375 6.6875 42.828125 6.6875 
Q 48.046875 6.6875 52.140625 7.59375 
Q 56.25 8.5 59.515625 10.40625 
z
" id="DejaVuSans-71"/>
      <path d="M 34.28125 27.484375 
Q 23.390625 27.484375 19.1875 25 
Q 14.984375 22.515625 14.984375 16.5 
Q 14.984375 11.71875 18.140625 8.90625 
Q 21.296875 6.109375 26.703125 6.109375 
Q 34.1875 6.109375 38.703125 11.40625 
Q 43.21875 16.703125 43.21875 25.484375 
L 43.21875 27.484375 
z
M 52.203125 31.203125 
L 52.203125 0 
L 43.21875 0 
L 43.21875 8.296875 
Q 40.140625 3.328125 35.546875 0.953125 
Q 30.953125 -1.421875 24.3125 -1.421875 
Q 15.921875 -1.421875 10.953125 3.296875 
Q 6 8.015625 6 15.921875 
Q 6 25.140625 12.171875 29.828125 
Q 18.359375 34.515625 30.609375 34.515625 
L 43.21875 34.515625 
L 43.21875 35.40625 
Q 43.21875 41.609375 39.140625 45 
Q 35.0625 48.390625 27.6875 48.390625 
Q 23 48.390625 18.546875 47.265625 
Q 14.109375 46.140625 10.015625 43.890625 
L 10.015625 52.203125 
Q 14.9375 54.109375 19.578125 55.046875 
Q 24.21875 56 28.609375 56 
Q 40.484375 56 46.34375 49.84375 
Q 52.203125 43.703125 52.203125 31.203125 
z
" id="DejaVuSans-97"/>
      <path d="M 18.109375 8.203125 
L 18.109375 -20.796875 
L 9.078125 -20.796875 
L 9.078125 54.6875 
L 18.109375 54.6875 
L 18.109375 46.390625 
Q 20.953125 51.265625 25.265625 53.625 
Q 29.59375 56 35.59375 56 
Q 45.5625 56 51.78125 48.09375 
Q 58.015625 40.1875 58.015625 27.296875 
Q 58.015625 14.40625 51.78125 6.484375 
Q 45.5625 -1.421875 35.59375 -1.421875 
Q 29.59375 -1.421875 25.265625 0.953125 
Q 20.953125 3.328125 18.109375 8.203125 
z
M 48.6875 27.296875 
Q 48.6875 37.203125 44.609375 42.84375 
Q 40.53125 48.484375 33.40625 48.484375 
Q 26.265625 48.484375 22.1875 42.84375 
Q 18.109375 37.203125 18.109375 27.296875 
Q 18.109375 17.390625 22.1875 11.75 
Q 26.265625 6.109375 33.40625 6.109375 
Q 40.53125 6.109375 44.609375 11.75 
Q 48.6875 17.390625 48.6875 27.296875 
z
" id="DejaVuSans-112"/>
      <path d="M 54.890625 33.015625 
L 54.890625 0 
L 45.90625 0 
L 45.90625 32.71875 
Q 45.90625 40.484375 42.875 44.328125 
Q 39.84375 48.1875 33.796875 48.1875 
Q 26.515625 48.1875 22.3125 43.546875 
Q 18.109375 38.921875 18.109375 30.90625 
L 18.109375 0 
L 9.078125 0 
L 9.078125 75.984375 
L 18.109375 75.984375 
L 18.109375 46.1875 
Q 21.34375 51.125 25.703125 53.5625 
Q 30.078125 56 35.796875 56 
Q 45.21875 56 50.046875 50.171875 
Q 54.890625 44.34375 54.890625 33.015625 
z
" id="DejaVuSans-104"/>
      <path d="M 4.890625 31.390625 
L 31.203125 31.390625 
L 31.203125 23.390625 
L 4.890625 23.390625 
z
" id="DejaVuSans-45"/>
      <path d="M 9.8125 72.90625 
L 55.90625 72.90625 
L 55.90625 64.59375 
L 19.671875 64.59375 
L 19.671875 43.015625 
L 54.390625 43.015625 
L 54.390625 34.71875 
L 19.671875 34.71875 
L 19.671875 8.296875 
L 56.78125 8.296875 
L 56.78125 0 
L 9.8125 0 
z
" id="DejaVuSans-69"/>
     </defs>
     <g transform="translate(294.96375 62.847812)scale(0.08 -0.08)">
      <use xlink:href="#DejaVuSans-71"/>
      <use x="77.490234" xlink:href="#DejaVuSans-114"/>
      <use x="118.603516" xlink:href="#DejaVuSans-97"/>
      <use x="179.882812" xlink:href="#DejaVuSans-112"/>
      <use x="243.359375" xlink:href="#DejaVuSans-104"/>
      <use x="306.738281" xlink:href="#DejaVuSans-45"/>
      <use x="342.822266" xlink:href="#DejaVuSans-83"/>
      <use x="408.173828" xlink:href="#DejaVuSans-65"/>
      <use x="474.832031" xlink:href="#DejaVuSans-71"/>
      <use x="552.322266" xlink:href="#DejaVuSans-69"/>
      <use x="615.505859" xlink:href="#DejaVuSans-44"/>
      <use x="647.292969" xlink:href="#DejaVuSans-32"/>
      <use x="679.080078" xlink:href="#DejaVuSans-65"/>
      <use x="747.488281" xlink:href="#DejaVuSans-85"/>
      <use x="820.681641" xlink:href="#DejaVuSans-67"/>
      <use x="890.505859" xlink:href="#DejaVuSans-58"/>
      <use x="924.197266" xlink:href="#DejaVuSans-48"/>
      <use x="987.820312" xlink:href="#DejaVuSans-46"/>
      <use x="1019.607422" xlink:href="#DejaVuSans-48"/>
      <use x="1083.230469" xlink:href="#DejaVuSans-55"/>
     </g>
    </g>
    <g id="line2d_25">
     <path d="M 272.56375 71.790312 
L 288.56375 71.790312 
" style="fill:none;stroke:#bfbf00;stroke-linecap:square;stroke-width:1.5;"/>
    </g>
    <g id="line2d_26"/>
    <g id="text_19">
     <!-- Spectral-GCN, AUC:0.04 -->
     <defs>
      <path d="M 9.421875 75.984375 
L 18.40625 75.984375 
L 18.40625 0 
L 9.421875 0 
z
" id="DejaVuSans-108"/>
     </defs>
     <g transform="translate(294.96375 74.590312)scale(0.08 -0.08)">
      <use xlink:href="#DejaVuSans-83"/>
      <use x="63.476562" xlink:href="#DejaVuSans-112"/>
      <use x="126.953125" xlink:href="#DejaVuSans-101"/>
      <use x="188.476562" xlink:href="#DejaVuSans-99"/>
      <use x="243.457031" xlink:href="#DejaVuSans-116"/>
      <use x="282.666016" xlink:href="#DejaVuSans-114"/>
      <use x="323.779297" xlink:href="#DejaVuSans-97"/>
      <use x="385.058594" xlink:href="#DejaVuSans-108"/>
      <use x="412.841797" xlink:href="#DejaVuSans-45"/>
      <use x="452.550781" xlink:href="#DejaVuSans-71"/>
      <use x="530.041016" xlink:href="#DejaVuSans-67"/>
      <use x="599.865234" xlink:href="#DejaVuSans-78"/>
      <use x="674.669922" xlink:href="#DejaVuSans-44"/>
      <use x="706.457031" xlink:href="#DejaVuSans-32"/>
      <use x="738.244141" xlink:href="#DejaVuSans-65"/>
      <use x="806.652344" xlink:href="#DejaVuSans-85"/>
      <use x="879.845703" xlink:href="#DejaVuSans-67"/>
      <use x="949.669922" xlink:href="#DejaVuSans-58"/>
      <use x="983.361328" xlink:href="#DejaVuSans-48"/>
      <use x="1046.984375" xlink:href="#DejaVuSans-46"/>
      <use x="1078.771484" xlink:href="#DejaVuSans-48"/>
      <use x="1142.394531" xlink:href="#DejaVuSans-52"/>
     </g>
    </g>
    <g id="line2d_27">
     <path d="M 272.56375 83.532812 
L 288.56375 83.532812 
" style="fill:none;stroke:#bf00bf;stroke-linecap:square;stroke-width:1.5;"/>
    </g>
    <g id="line2d_28"/>
    <g id="text_20">
     <!-- Relational-GCN, AUC:0.16 -->
     <defs>
      <path d="M 44.390625 34.1875 
Q 47.5625 33.109375 50.5625 29.59375 
Q 53.5625 26.078125 56.59375 19.921875 
L 66.609375 0 
L 56 0 
L 46.6875 18.703125 
Q 43.0625 26.03125 39.671875 28.421875 
Q 36.28125 30.8125 30.421875 30.8125 
L 19.671875 30.8125 
L 19.671875 0 
L 9.8125 0 
L 9.8125 72.90625 
L 32.078125 72.90625 
Q 44.578125 72.90625 50.734375 67.671875 
Q 56.890625 62.453125 56.890625 51.90625 
Q 56.890625 45.015625 53.6875 40.46875 
Q 50.484375 35.9375 44.390625 34.1875 
z
M 19.671875 64.796875 
L 19.671875 38.921875 
L 32.078125 38.921875 
Q 39.203125 38.921875 42.84375 42.21875 
Q 46.484375 45.515625 46.484375 51.90625 
Q 46.484375 58.296875 42.84375 61.546875 
Q 39.203125 64.796875 32.078125 64.796875 
z
" id="DejaVuSans-82"/>
      <path d="M 9.421875 54.6875 
L 18.40625 54.6875 
L 18.40625 0 
L 9.421875 0 
z
M 9.421875 75.984375 
L 18.40625 75.984375 
L 18.40625 64.59375 
L 9.421875 64.59375 
z
" id="DejaVuSans-105"/>
      <path d="M 54.890625 33.015625 
L 54.890625 0 
L 45.90625 0 
L 45.90625 32.71875 
Q 45.90625 40.484375 42.875 44.328125 
Q 39.84375 48.1875 33.796875 48.1875 
Q 26.515625 48.1875 22.3125 43.546875 
Q 18.109375 38.921875 18.109375 30.90625 
L 18.109375 0 
L 9.078125 0 
L 9.078125 54.6875 
L 18.109375 54.6875 
L 18.109375 46.1875 
Q 21.34375 51.125 25.703125 53.5625 
Q 30.078125 56 35.796875 56 
Q 45.21875 56 50.046875 50.171875 
Q 54.890625 44.34375 54.890625 33.015625 
z
" id="DejaVuSans-110"/>
     </defs>
     <g transform="translate(294.96375 86.332812)scale(0.08 -0.08)">
      <use xlink:href="#DejaVuSans-82"/>
      <use x="64.982422" xlink:href="#DejaVuSans-101"/>
      <use x="126.505859" xlink:href="#DejaVuSans-108"/>
      <use x="154.289062" xlink:href="#DejaVuSans-97"/>
      <use x="215.568359" xlink:href="#DejaVuSans-116"/>
      <use x="254.777344" xlink:href="#DejaVuSans-105"/>
      <use x="282.560547" xlink:href="#DejaVuSans-111"/>
      <use x="343.742188" xlink:href="#DejaVuSans-110"/>
      <use x="407.121094" xlink:href="#DejaVuSans-97"/>
      <use x="468.400391" xlink:href="#DejaVuSans-108"/>
      <use x="496.183594" xlink:href="#DejaVuSans-45"/>
      <use x="535.892578" xlink:href="#DejaVuSans-71"/>
      <use x="613.382812" xlink:href="#DejaVuSans-67"/>
      <use x="683.207031" xlink:href="#DejaVuSans-78"/>
      <use x="758.011719" xlink:href="#DejaVuSans-44"/>
      <use x="789.798828" xlink:href="#DejaVuSans-32"/>
      <use x="821.585938" xlink:href="#DejaVuSans-65"/>
      <use x="889.994141" xlink:href="#DejaVuSans-85"/>
      <use x="963.1875" xlink:href="#DejaVuSans-67"/>
      <use x="1033.011719" xlink:href="#DejaVuSans-58"/>
      <use x="1066.703125" xlink:href="#DejaVuSans-48"/>
      <use x="1130.326172" xlink:href="#DejaVuSans-46"/>
      <use x="1162.113281" xlink:href="#DejaVuSans-49"/>
      <use x="1225.736328" xlink:href="#DejaVuSans-54"/>
     </g>
    </g>
    <g id="line2d_29">
     <path d="M 272.56375 95.275312 
L 288.56375 95.275312 
" style="fill:none;stroke:#00bfbf;stroke-linecap:square;stroke-width:1.5;"/>
    </g>
    <g id="line2d_30"/>
    <g id="text_21">
     <!-- GAT, AUC:0.05 -->
     <defs>
      <path d="M -0.296875 72.90625 
L 61.375 72.90625 
L 61.375 64.59375 
L 35.5 64.59375 
L 35.5 0 
L 25.59375 0 
L 25.59375 64.59375 
L -0.296875 64.59375 
z
" id="DejaVuSans-84"/>
     </defs>
     <g transform="translate(294.96375 98.075312)scale(0.08 -0.08)">
      <use xlink:href="#DejaVuSans-71"/>
      <use x="77.490234" xlink:href="#DejaVuSans-65"/>
      <use x="138.148438" xlink:href="#DejaVuSans-84"/>
      <use x="199.232422" xlink:href="#DejaVuSans-44"/>
      <use x="231.019531" xlink:href="#DejaVuSans-32"/>
      <use x="262.806641" xlink:href="#DejaVuSans-65"/>
      <use x="331.214844" xlink:href="#DejaVuSans-85"/>
      <use x="404.408203" xlink:href="#DejaVuSans-67"/>
      <use x="474.232422" xlink:href="#DejaVuSans-58"/>
      <use x="507.923828" xlink:href="#DejaVuSans-48"/>
      <use x="571.546875" xlink:href="#DejaVuSans-46"/>
      <use x="603.333984" xlink:href="#DejaVuSans-48"/>
      <use x="666.957031" xlink:href="#DejaVuSans-53"/>
     </g>
    </g>
    <g id="line2d_31">
     <path d="M 272.56375 107.017812 
L 288.56375 107.017812 
" style="fill:none;stroke:#ffa500;stroke-linecap:square;stroke-width:1.5;"/>
    </g>
    <g id="line2d_32"/>
    <g id="text_22">
     <!-- Improved R-GCN, AUC:0.28 -->
     <defs>
      <path d="M 9.8125 72.90625 
L 19.671875 72.90625 
L 19.671875 0 
L 9.8125 0 
z
" id="DejaVuSans-73"/>
      <path d="M 52 44.1875 
Q 55.375 50.25 60.0625 53.125 
Q 64.75 56 71.09375 56 
Q 79.640625 56 84.28125 50.015625 
Q 88.921875 44.046875 88.921875 33.015625 
L 88.921875 0 
L 79.890625 0 
L 79.890625 32.71875 
Q 79.890625 40.578125 77.09375 44.375 
Q 74.3125 48.1875 68.609375 48.1875 
Q 61.625 48.1875 57.5625 43.546875 
Q 53.515625 38.921875 53.515625 30.90625 
L 53.515625 0 
L 44.484375 0 
L 44.484375 32.71875 
Q 44.484375 40.625 41.703125 44.40625 
Q 38.921875 48.1875 33.109375 48.1875 
Q 26.21875 48.1875 22.15625 43.53125 
Q 18.109375 38.875 18.109375 30.90625 
L 18.109375 0 
L 9.078125 0 
L 9.078125 54.6875 
L 18.109375 54.6875 
L 18.109375 46.1875 
Q 21.1875 51.21875 25.484375 53.609375 
Q 29.78125 56 35.6875 56 
Q 41.65625 56 45.828125 52.96875 
Q 50 49.953125 52 44.1875 
z
" id="DejaVuSans-109"/>
      <path d="M 2.984375 54.6875 
L 12.5 54.6875 
L 29.59375 8.796875 
L 46.6875 54.6875 
L 56.203125 54.6875 
L 35.6875 0 
L 23.484375 0 
z
" id="DejaVuSans-118"/>
     </defs>
     <g transform="translate(294.96375 109.817812)scale(0.08 -0.08)">
      <use xlink:href="#DejaVuSans-73"/>
      <use x="29.492188" xlink:href="#DejaVuSans-109"/>
      <use x="126.904297" xlink:href="#DejaVuSans-112"/>
      <use x="190.380859" xlink:href="#DejaVuSans-114"/>
      <use x="229.244141" xlink:href="#DejaVuSans-111"/>
      <use x="290.425781" xlink:href="#DejaVuSans-118"/>
      <use x="349.605469" xlink:href="#DejaVuSans-101"/>
      <use x="411.128906" xlink:href="#DejaVuSans-100"/>
      <use x="474.605469" xlink:href="#DejaVuSans-32"/>
      <use x="506.392578" xlink:href="#DejaVuSans-82"/>
      <use x="571.875" xlink:href="#DejaVuSans-45"/>
      <use x="611.583984" xlink:href="#DejaVuSans-71"/>
      <use x="689.074219" xlink:href="#DejaVuSans-67"/>
      <use x="758.898438" xlink:href="#DejaVuSans-78"/>
      <use x="833.703125" xlink:href="#DejaVuSans-44"/>
      <use x="865.490234" xlink:href="#DejaVuSans-32"/>
      <use x="897.277344" xlink:href="#DejaVuSans-65"/>
      <use x="965.685547" xlink:href="#DejaVuSans-85"/>
      <use x="1038.878906" xlink:href="#DejaVuSans-67"/>
      <use x="1108.703125" xlink:href="#DejaVuSans-58"/>
      <use x="1142.394531" xlink:href="#DejaVuSans-48"/>
      <use x="1206.017578" xlink:href="#DejaVuSans-46"/>
      <use x="1237.804688" xlink:href="#DejaVuSans-50"/>
      <use x="1301.427734" xlink:href="#DejaVuSans-56"/>
     </g>
    </g>
   </g>
  </g>
 </g>
 <defs>
  <clipPath id="p101a641568">
   <rect height="271.8" width="334.8" x="76.56875" y="26.084062"/>
  </clipPath>
 </defs>
</svg>
