<?xml version="1.0" encoding="utf-8" standalone="no"?>
<!DOCTYPE svg PUBLIC "-//W3C//DTD SVG 1.1//EN"
  "http://www.w3.org/Graphics/SVG/1.1/DTD/svg11.dtd">
<!-- Created with matplotlib (https://matplotlib.org/) -->
<svg height="351.795312pt" version="1.1" viewBox="0 0 420.179522 351.795312" width="420.179522pt" xmlns="http://www.w3.org/2000/svg" xmlns:xlink="http://www.w3.org/1999/xlink">
 <defs>
  <style type="text/css">
*{stroke-linecap:butt;stroke-linejoin:round;}
  </style>
 </defs>
 <g id="figure_1">
  <g id="patch_1">
   <path d="M 0 351.795312 
L 420.179522 351.795312 
L 420.179522 0 
L 0 0 
z
" style="fill:#ffffff;"/>
  </g>
  <g id="axes_1">
   <g id="patch_2">
    <path d="M 76.56875 297.884062 
L 411.36875 297.884062 
L 411.36875 26.084062 
L 76.56875 26.084062 
z
" style="fill:#ffffff;"/>
   </g>
   <g id="PathCollection_1">
    <defs>
     <path d="M 0 -3.535534 
L -3.535534 3.535534 
L 3.535534 3.535534 
z
" id="m53e29c2da1" style="stroke:#ffa500;"/>
    </defs>
    <g clip-path="url(#pade25f6064)">
     <use style="fill:#ffa500;stroke:#ffa500;" x="242.375194" xlink:href="#m53e29c2da1" y="146.613194"/>
    </g>
   </g>
   <g id="matplotlib.axis_1">
    <g id="xtick_1">
     <g id="line2d_1">
      <defs>
       <path d="M 0 0 
L 0 3.5 
" id="m57123c7b4b" style="stroke:#000000;stroke-width:0.8;"/>
      </defs>
      <g>
       <use style="stroke:#000000;stroke-width:0.8;" x="88.678099" xlink:href="#m57123c7b4b" y="297.884062"/>
      </g>
     </g>
     <g id="text_1">
      <!-- 0.0 -->
      <defs>
       <path d="M 31.78125 66.40625 
Q 24.171875 66.40625 20.328125 58.90625 
Q 16.5 51.421875 16.5 36.375 
Q 16.5 21.390625 20.328125 13.890625 
Q 24.171875 6.390625 31.78125 6.390625 
Q 39.453125 6.390625 43.28125 13.890625 
Q 47.125 21.390625 47.125 36.375 
Q 47.125 51.421875 43.28125 58.90625 
Q 39.453125 66.40625 31.78125 66.40625 
z
M 31.78125 74.21875 
Q 44.046875 74.21875 50.515625 64.515625 
Q 56.984375 54.828125 56.984375 36.375 
Q 56.984375 17.96875 50.515625 8.265625 
Q 44.046875 -1.421875 31.78125 -1.421875 
Q 19.53125 -1.421875 13.0625 8.265625 
Q 6.59375 17.96875 6.59375 36.375 
Q 6.59375 54.828125 13.0625 64.515625 
Q 19.53125 74.21875 31.78125 74.21875 
z
" id="DejaVuSans-48"/>
       <path d="M 10.6875 12.40625 
L 21 12.40625 
L 21 0 
L 10.6875 0 
z
" id="DejaVuSans-46"/>
      </defs>
      <g transform="translate(74.365287 318.56125)scale(0.18 -0.18)">
       <use xlink:href="#DejaVuSans-48"/>
       <use x="63.623047" xlink:href="#DejaVuSans-46"/>
       <use x="95.410156" xlink:href="#DejaVuSans-48"/>
      </g>
     </g>
    </g>
    <g id="xtick_2">
     <g id="line2d_2">
      <g>
       <use style="stroke:#000000;stroke-width:0.8;" x="150.675821" xlink:href="#m57123c7b4b" y="297.884062"/>
      </g>
     </g>
     <g id="text_2">
      <!-- 0.2 -->
      <defs>
       <path d="M 19.1875 8.296875 
L 53.609375 8.296875 
L 53.609375 0 
L 7.328125 0 
L 7.328125 8.296875 
Q 12.9375 14.109375 22.625 23.890625 
Q 32.328125 33.6875 34.8125 36.53125 
Q 39.546875 41.84375 41.421875 45.53125 
Q 43.3125 49.21875 43.3125 52.78125 
Q 43.3125 58.59375 39.234375 62.25 
Q 35.15625 65.921875 28.609375 65.921875 
Q 23.96875 65.921875 18.8125 64.3125 
Q 13.671875 62.703125 7.8125 59.421875 
L 7.8125 69.390625 
Q 13.765625 71.78125 18.9375 73 
Q 24.125 74.21875 28.421875 74.21875 
Q 39.75 74.21875 46.484375 68.546875 
Q 53.21875 62.890625 53.21875 53.421875 
Q 53.21875 48.921875 51.53125 44.890625 
Q 49.859375 40.875 45.40625 35.40625 
Q 44.1875 33.984375 37.640625 27.21875 
Q 31.109375 20.453125 19.1875 8.296875 
z
" id="DejaVuSans-50"/>
      </defs>
      <g transform="translate(136.363009 318.56125)scale(0.18 -0.18)">
       <use xlink:href="#DejaVuSans-48"/>
       <use x="63.623047" xlink:href="#DejaVuSans-46"/>
       <use x="95.410156" xlink:href="#DejaVuSans-50"/>
      </g>
     </g>
    </g>
    <g id="xtick_3">
     <g id="line2d_3">
      <g>
       <use style="stroke:#000000;stroke-width:0.8;" x="212.673543" xlink:href="#m57123c7b4b" y="297.884062"/>
      </g>
     </g>
     <g id="text_3">
      <!-- 0.4 -->
      <defs>
       <path d="M 37.796875 64.3125 
L 12.890625 25.390625 
L 37.796875 25.390625 
z
M 35.203125 72.90625 
L 47.609375 72.90625 
L 47.609375 25.390625 
L 58.015625 25.390625 
L 58.015625 17.1875 
L 47.609375 17.1875 
L 47.609375 0 
L 37.796875 0 
L 37.796875 17.1875 
L 4.890625 17.1875 
L 4.890625 26.703125 
z
" id="DejaVuSans-52"/>
      </defs>
      <g transform="translate(198.360731 318.56125)scale(0.18 -0.18)">
       <use xlink:href="#DejaVuSans-48"/>
       <use x="63.623047" xlink:href="#DejaVuSans-46"/>
       <use x="95.410156" xlink:href="#DejaVuSans-52"/>
      </g>
     </g>
    </g>
    <g id="xtick_4">
     <g id="line2d_4">
      <g>
       <use style="stroke:#000000;stroke-width:0.8;" x="274.671265" xlink:href="#m57123c7b4b" y="297.884062"/>
      </g>
     </g>
     <g id="text_4">
      <!-- 0.6 -->
      <defs>
       <path d="M 33.015625 40.375 
Q 26.375 40.375 22.484375 35.828125 
Q 18.609375 31.296875 18.609375 23.390625 
Q 18.609375 15.53125 22.484375 10.953125 
Q 26.375 6.390625 33.015625 6.390625 
Q 39.65625 6.390625 43.53125 10.953125 
Q 47.40625 15.53125 47.40625 23.390625 
Q 47.40625 31.296875 43.53125 35.828125 
Q 39.65625 40.375 33.015625 40.375 
z
M 52.59375 71.296875 
L 52.59375 62.3125 
Q 48.875 64.0625 45.09375 64.984375 
Q 41.3125 65.921875 37.59375 65.921875 
Q 27.828125 65.921875 22.671875 59.328125 
Q 17.53125 52.734375 16.796875 39.40625 
Q 19.671875 43.65625 24.015625 45.921875 
Q 28.375 48.1875 33.59375 48.1875 
Q 44.578125 48.1875 50.953125 41.515625 
Q 57.328125 34.859375 57.328125 23.390625 
Q 57.328125 12.15625 50.6875 5.359375 
Q 44.046875 -1.421875 33.015625 -1.421875 
Q 20.359375 -1.421875 13.671875 8.265625 
Q 6.984375 17.96875 6.984375 36.375 
Q 6.984375 53.65625 15.1875 63.9375 
Q 23.390625 74.21875 37.203125 74.21875 
Q 40.921875 74.21875 44.703125 73.484375 
Q 48.484375 72.75 52.59375 71.296875 
z
" id="DejaVuSans-54"/>
      </defs>
      <g transform="translate(260.358453 318.56125)scale(0.18 -0.18)">
       <use xlink:href="#DejaVuSans-48"/>
       <use x="63.623047" xlink:href="#DejaVuSans-46"/>
       <use x="95.410156" xlink:href="#DejaVuSans-54"/>
      </g>
     </g>
    </g>
    <g id="xtick_5">
     <g id="line2d_5">
      <g>
       <use style="stroke:#000000;stroke-width:0.8;" x="336.668987" xlink:href="#m57123c7b4b" y="297.884062"/>
      </g>
     </g>
     <g id="text_5">
      <!-- 0.8 -->
      <defs>
       <path d="M 31.78125 34.625 
Q 24.75 34.625 20.71875 30.859375 
Q 16.703125 27.09375 16.703125 20.515625 
Q 16.703125 13.921875 20.71875 10.15625 
Q 24.75 6.390625 31.78125 6.390625 
Q 38.8125 6.390625 42.859375 10.171875 
Q 46.921875 13.96875 46.921875 20.515625 
Q 46.921875 27.09375 42.890625 30.859375 
Q 38.875 34.625 31.78125 34.625 
z
M 21.921875 38.8125 
Q 15.578125 40.375 12.03125 44.71875 
Q 8.5 49.078125 8.5 55.328125 
Q 8.5 64.0625 14.71875 69.140625 
Q 20.953125 74.21875 31.78125 74.21875 
Q 42.671875 74.21875 48.875 69.140625 
Q 55.078125 64.0625 55.078125 55.328125 
Q 55.078125 49.078125 51.53125 44.71875 
Q 48 40.375 41.703125 38.8125 
Q 48.828125 37.15625 52.796875 32.3125 
Q 56.78125 27.484375 56.78125 20.515625 
Q 56.78125 9.90625 50.3125 4.234375 
Q 43.84375 -1.421875 31.78125 -1.421875 
Q 19.734375 -1.421875 13.25 4.234375 
Q 6.78125 9.90625 6.78125 20.515625 
Q 6.78125 27.484375 10.78125 32.3125 
Q 14.796875 37.15625 21.921875 38.8125 
z
M 18.3125 54.390625 
Q 18.3125 48.734375 21.84375 45.5625 
Q 25.390625 42.390625 31.78125 42.390625 
Q 38.140625 42.390625 41.71875 45.5625 
Q 45.3125 48.734375 45.3125 54.390625 
Q 45.3125 60.0625 41.71875 63.234375 
Q 38.140625 66.40625 31.78125 66.40625 
Q 25.390625 66.40625 21.84375 63.234375 
Q 18.3125 60.0625 18.3125 54.390625 
z
" id="DejaVuSans-56"/>
      </defs>
      <g transform="translate(322.356175 318.56125)scale(0.18 -0.18)">
       <use xlink:href="#DejaVuSans-48"/>
       <use x="63.623047" xlink:href="#DejaVuSans-46"/>
       <use x="95.410156" xlink:href="#DejaVuSans-56"/>
      </g>
     </g>
    </g>
    <g id="xtick_6">
     <g id="line2d_6">
      <g>
       <use style="stroke:#000000;stroke-width:0.8;" x="398.666709" xlink:href="#m57123c7b4b" y="297.884062"/>
      </g>
     </g>
     <g id="text_6">
      <!-- 1.0 -->
      <defs>
       <path d="M 12.40625 8.296875 
L 28.515625 8.296875 
L 28.515625 63.921875 
L 10.984375 60.40625 
L 10.984375 69.390625 
L 28.421875 72.90625 
L 38.28125 72.90625 
L 38.28125 8.296875 
L 54.390625 8.296875 
L 54.390625 0 
L 12.40625 0 
z
" id="DejaVuSans-49"/>
      </defs>
      <g transform="translate(384.353897 318.56125)scale(0.18 -0.18)">
       <use xlink:href="#DejaVuSans-49"/>
       <use x="63.623047" xlink:href="#DejaVuSans-46"/>
       <use x="95.410156" xlink:href="#DejaVuSans-48"/>
      </g>
     </g>
    </g>
    <g id="text_7">
     <!-- Recall -->
     <defs>
      <path d="M 7.859375 0 
L 7.859375 71.578125 
L 39.59375 71.578125 
Q 49.171875 71.578125 54.140625 69.640625 
Q 59.125 67.71875 62.109375 62.828125 
Q 65.09375 57.953125 65.09375 52.046875 
Q 65.09375 44.4375 60.15625 39.203125 
Q 55.21875 33.984375 44.921875 32.5625 
Q 48.6875 30.765625 50.640625 29 
Q 54.78125 25.203125 58.5 19.484375 
L 70.953125 0 
L 59.03125 0 
L 49.5625 14.890625 
Q 45.40625 21.34375 42.71875 24.75 
Q 40.046875 28.171875 37.921875 29.53125 
Q 35.796875 30.90625 33.59375 31.453125 
Q 31.984375 31.78125 28.328125 31.78125 
L 17.328125 31.78125 
L 17.328125 0 
z
M 17.328125 39.984375 
L 37.703125 39.984375 
Q 44.1875 39.984375 47.84375 41.328125 
Q 51.515625 42.671875 53.421875 45.625 
Q 55.328125 48.578125 55.328125 52.046875 
Q 55.328125 57.125 51.640625 60.390625 
Q 47.953125 63.671875 39.984375 63.671875 
L 17.328125 63.671875 
z
" id="ArialMT-82"/>
      <path d="M 42.09375 16.703125 
L 51.171875 15.578125 
Q 49.03125 7.625 43.21875 3.21875 
Q 37.40625 -1.171875 28.375 -1.171875 
Q 17 -1.171875 10.328125 5.828125 
Q 3.65625 12.84375 3.65625 25.484375 
Q 3.65625 38.578125 10.390625 45.796875 
Q 17.140625 53.03125 27.875 53.03125 
Q 38.28125 53.03125 44.875 45.953125 
Q 51.46875 38.875 51.46875 26.03125 
Q 51.46875 25.25 51.421875 23.6875 
L 12.75 23.6875 
Q 13.234375 15.140625 17.578125 10.59375 
Q 21.921875 6.0625 28.421875 6.0625 
Q 33.25 6.0625 36.671875 8.59375 
Q 40.09375 11.140625 42.09375 16.703125 
z
M 13.234375 30.90625 
L 42.1875 30.90625 
Q 41.609375 37.453125 38.875 40.71875 
Q 34.671875 45.796875 27.984375 45.796875 
Q 21.921875 45.796875 17.796875 41.75 
Q 13.671875 37.703125 13.234375 30.90625 
z
" id="ArialMT-101"/>
      <path d="M 40.4375 19 
L 49.078125 17.875 
Q 47.65625 8.9375 41.8125 3.875 
Q 35.984375 -1.171875 27.484375 -1.171875 
Q 16.84375 -1.171875 10.375 5.78125 
Q 3.90625 12.75 3.90625 25.734375 
Q 3.90625 34.125 6.6875 40.421875 
Q 9.46875 46.734375 15.15625 49.875 
Q 20.84375 53.03125 27.546875 53.03125 
Q 35.984375 53.03125 41.359375 48.75 
Q 46.734375 44.484375 48.25 36.625 
L 39.703125 35.296875 
Q 38.484375 40.53125 35.375 43.15625 
Q 32.28125 45.796875 27.875 45.796875 
Q 21.234375 45.796875 17.078125 41.03125 
Q 12.9375 36.28125 12.9375 25.984375 
Q 12.9375 15.53125 16.9375 10.796875 
Q 20.953125 6.0625 27.390625 6.0625 
Q 32.5625 6.0625 36.03125 9.234375 
Q 39.5 12.40625 40.4375 19 
z
" id="ArialMT-99"/>
      <path d="M 40.4375 6.390625 
Q 35.546875 2.25 31.03125 0.53125 
Q 26.515625 -1.171875 21.34375 -1.171875 
Q 12.796875 -1.171875 8.203125 3 
Q 3.609375 7.171875 3.609375 13.671875 
Q 3.609375 17.484375 5.34375 20.625 
Q 7.078125 23.78125 9.890625 25.6875 
Q 12.703125 27.59375 16.21875 28.5625 
Q 18.796875 29.25 24.03125 29.890625 
Q 34.671875 31.15625 39.703125 32.90625 
Q 39.75 34.71875 39.75 35.203125 
Q 39.75 40.578125 37.25 42.78125 
Q 33.890625 45.75 27.25 45.75 
Q 21.046875 45.75 18.09375 43.578125 
Q 15.140625 41.40625 13.71875 35.890625 
L 5.125 37.0625 
Q 6.296875 42.578125 8.984375 45.96875 
Q 11.671875 49.359375 16.75 51.1875 
Q 21.828125 53.03125 28.515625 53.03125 
Q 35.15625 53.03125 39.296875 51.46875 
Q 43.453125 49.90625 45.40625 47.53125 
Q 47.359375 45.171875 48.140625 41.546875 
Q 48.578125 39.3125 48.578125 33.453125 
L 48.578125 21.734375 
Q 48.578125 9.46875 49.140625 6.21875 
Q 49.703125 2.984375 51.375 0 
L 42.1875 0 
Q 40.828125 2.734375 40.4375 6.390625 
z
M 39.703125 26.03125 
Q 34.90625 24.078125 25.34375 22.703125 
Q 19.921875 21.921875 17.671875 20.9375 
Q 15.4375 19.96875 14.203125 18.09375 
Q 12.984375 16.21875 12.984375 13.921875 
Q 12.984375 10.40625 15.640625 8.0625 
Q 18.3125 5.71875 23.4375 5.71875 
Q 28.515625 5.71875 32.46875 7.9375 
Q 36.421875 10.15625 38.28125 14.015625 
Q 39.703125 17 39.703125 22.796875 
z
" id="ArialMT-97"/>
      <path d="M 6.390625 0 
L 6.390625 71.578125 
L 15.1875 71.578125 
L 15.1875 0 
z
" id="ArialMT-108"/>
     </defs>
     <g transform="translate(216.18125 340.620312)scale(0.2 -0.2)">
      <use xlink:href="#ArialMT-82"/>
      <use x="72.216797" xlink:href="#ArialMT-101"/>
      <use x="127.832031" xlink:href="#ArialMT-99"/>
      <use x="177.832031" xlink:href="#ArialMT-97"/>
      <use x="233.447266" xlink:href="#ArialMT-108"/>
      <use x="255.664062" xlink:href="#ArialMT-108"/>
     </g>
    </g>
   </g>
   <g id="matplotlib.axis_2">
    <g id="ytick_1">
     <g id="line2d_7">
      <defs>
       <path d="M 0 0 
L -3.5 0 
" id="m611ff25eec" style="stroke:#000000;stroke-width:0.8;"/>
      </defs>
      <g>
       <use style="stroke:#000000;stroke-width:0.8;" x="76.56875" xlink:href="#m611ff25eec" y="289.117227"/>
      </g>
     </g>
     <g id="text_8">
      <!-- 0.00 -->
      <g transform="translate(29.490625 295.955821)scale(0.18 -0.18)">
       <use xlink:href="#DejaVuSans-48"/>
       <use x="63.623047" xlink:href="#DejaVuSans-46"/>
       <use x="95.410156" xlink:href="#DejaVuSans-48"/>
       <use x="159.033203" xlink:href="#DejaVuSans-48"/>
      </g>
     </g>
    </g>
    <g id="ytick_2">
     <g id="line2d_8">
      <g>
       <use style="stroke:#000000;stroke-width:0.8;" x="76.56875" xlink:href="#m611ff25eec" y="223.358936"/>
      </g>
     </g>
     <g id="text_9">
      <!-- 0.15 -->
      <defs>
       <path d="M 10.796875 72.90625 
L 49.515625 72.90625 
L 49.515625 64.59375 
L 19.828125 64.59375 
L 19.828125 46.734375 
Q 21.96875 47.46875 24.109375 47.828125 
Q 26.265625 48.1875 28.421875 48.1875 
Q 40.625 48.1875 47.75 41.5 
Q 54.890625 34.8125 54.890625 23.390625 
Q 54.890625 11.625 47.5625 5.09375 
Q 40.234375 -1.421875 26.90625 -1.421875 
Q 22.3125 -1.421875 17.546875 -0.640625 
Q 12.796875 0.140625 7.71875 1.703125 
L 7.71875 11.625 
Q 12.109375 9.234375 16.796875 8.0625 
Q 21.484375 6.890625 26.703125 6.890625 
Q 35.15625 6.890625 40.078125 11.328125 
Q 45.015625 15.765625 45.015625 23.390625 
Q 45.015625 31 40.078125 35.4375 
Q 35.15625 39.890625 26.703125 39.890625 
Q 22.75 39.890625 18.8125 39.015625 
Q 14.890625 38.140625 10.796875 36.28125 
z
" id="DejaVuSans-53"/>
      </defs>
      <g transform="translate(29.490625 230.19753)scale(0.18 -0.18)">
       <use xlink:href="#DejaVuSans-48"/>
       <use x="63.623047" xlink:href="#DejaVuSans-46"/>
       <use x="95.410156" xlink:href="#DejaVuSans-49"/>
       <use x="159.033203" xlink:href="#DejaVuSans-53"/>
      </g>
     </g>
    </g>
    <g id="ytick_3">
     <g id="line2d_9">
      <g>
       <use style="stroke:#000000;stroke-width:0.8;" x="76.56875" xlink:href="#m611ff25eec" y="157.600645"/>
      </g>
     </g>
     <g id="text_10">
      <!-- 0.30 -->
      <defs>
       <path d="M 40.578125 39.3125 
Q 47.65625 37.796875 51.625 33 
Q 55.609375 28.21875 55.609375 21.1875 
Q 55.609375 10.40625 48.1875 4.484375 
Q 40.765625 -1.421875 27.09375 -1.421875 
Q 22.515625 -1.421875 17.65625 -0.515625 
Q 12.796875 0.390625 7.625 2.203125 
L 7.625 11.71875 
Q 11.71875 9.328125 16.59375 8.109375 
Q 21.484375 6.890625 26.8125 6.890625 
Q 36.078125 6.890625 40.9375 10.546875 
Q 45.796875 14.203125 45.796875 21.1875 
Q 45.796875 27.640625 41.28125 31.265625 
Q 36.765625 34.90625 28.71875 34.90625 
L 20.21875 34.90625 
L 20.21875 43.015625 
L 29.109375 43.015625 
Q 36.375 43.015625 40.234375 45.921875 
Q 44.09375 48.828125 44.09375 54.296875 
Q 44.09375 59.90625 40.109375 62.90625 
Q 36.140625 65.921875 28.71875 65.921875 
Q 24.65625 65.921875 20.015625 65.03125 
Q 15.375 64.15625 9.8125 62.3125 
L 9.8125 71.09375 
Q 15.4375 72.65625 20.34375 73.4375 
Q 25.25 74.21875 29.59375 74.21875 
Q 40.828125 74.21875 47.359375 69.109375 
Q 53.90625 64.015625 53.90625 55.328125 
Q 53.90625 49.265625 50.4375 45.09375 
Q 46.96875 40.921875 40.578125 39.3125 
z
" id="DejaVuSans-51"/>
      </defs>
      <g transform="translate(29.490625 164.439238)scale(0.18 -0.18)">
       <use xlink:href="#DejaVuSans-48"/>
       <use x="63.623047" xlink:href="#DejaVuSans-46"/>
       <use x="95.410156" xlink:href="#DejaVuSans-51"/>
       <use x="159.033203" xlink:href="#DejaVuSans-48"/>
      </g>
     </g>
    </g>
    <g id="ytick_4">
     <g id="line2d_10">
      <g>
       <use style="stroke:#000000;stroke-width:0.8;" x="76.56875" xlink:href="#m611ff25eec" y="91.842354"/>
      </g>
     </g>
     <g id="text_11">
      <!-- 0.45 -->
      <g transform="translate(29.490625 98.680947)scale(0.18 -0.18)">
       <use xlink:href="#DejaVuSans-48"/>
       <use x="63.623047" xlink:href="#DejaVuSans-46"/>
       <use x="95.410156" xlink:href="#DejaVuSans-52"/>
       <use x="159.033203" xlink:href="#DejaVuSans-53"/>
      </g>
     </g>
    </g>
    <g id="ytick_5">
     <g id="line2d_11">
      <g>
       <use style="stroke:#000000;stroke-width:0.8;" x="76.56875" xlink:href="#m611ff25eec" y="26.084062"/>
      </g>
     </g>
     <g id="text_12">
      <!-- 0.60 -->
      <g transform="translate(29.490625 32.922656)scale(0.18 -0.18)">
       <use xlink:href="#DejaVuSans-48"/>
       <use x="63.623047" xlink:href="#DejaVuSans-46"/>
       <use x="95.410156" xlink:href="#DejaVuSans-54"/>
       <use x="159.033203" xlink:href="#DejaVuSans-48"/>
      </g>
     </g>
    </g>
    <g id="text_13">
     <!-- Precision -->
     <defs>
      <path d="M 7.71875 0 
L 7.71875 71.578125 
L 34.71875 71.578125 
Q 41.84375 71.578125 45.609375 70.90625 
Q 50.875 70.015625 54.4375 67.546875 
Q 58.015625 65.09375 60.1875 60.640625 
Q 62.359375 56.203125 62.359375 50.875 
Q 62.359375 41.75 56.546875 35.421875 
Q 50.734375 29.109375 35.546875 29.109375 
L 17.1875 29.109375 
L 17.1875 0 
z
M 17.1875 37.546875 
L 35.6875 37.546875 
Q 44.875 37.546875 48.734375 40.96875 
Q 52.59375 44.390625 52.59375 50.59375 
Q 52.59375 55.078125 50.3125 58.265625 
Q 48.046875 61.46875 44.34375 62.5 
Q 41.9375 63.140625 35.5 63.140625 
L 17.1875 63.140625 
z
" id="ArialMT-80"/>
      <path d="M 6.5 0 
L 6.5 51.859375 
L 14.40625 51.859375 
L 14.40625 44 
Q 17.4375 49.515625 20 51.265625 
Q 22.5625 53.03125 25.640625 53.03125 
Q 30.078125 53.03125 34.671875 50.203125 
L 31.640625 42.046875 
Q 28.421875 43.953125 25.203125 43.953125 
Q 22.3125 43.953125 20.015625 42.21875 
Q 17.71875 40.484375 16.75 37.40625 
Q 15.28125 32.71875 15.28125 27.15625 
L 15.28125 0 
z
" id="ArialMT-114"/>
      <path d="M 6.640625 61.46875 
L 6.640625 71.578125 
L 15.4375 71.578125 
L 15.4375 61.46875 
z
M 6.640625 0 
L 6.640625 51.859375 
L 15.4375 51.859375 
L 15.4375 0 
z
" id="ArialMT-105"/>
      <path d="M 3.078125 15.484375 
L 11.765625 16.84375 
Q 12.5 11.625 15.84375 8.84375 
Q 19.1875 6.0625 25.203125 6.0625 
Q 31.25 6.0625 34.171875 8.515625 
Q 37.109375 10.984375 37.109375 14.3125 
Q 37.109375 17.28125 34.515625 19 
Q 32.71875 20.171875 25.53125 21.96875 
Q 15.875 24.421875 12.140625 26.203125 
Q 8.40625 27.984375 6.46875 31.125 
Q 4.546875 34.28125 4.546875 38.09375 
Q 4.546875 41.546875 6.125 44.5 
Q 7.71875 47.46875 10.453125 49.421875 
Q 12.5 50.921875 16.03125 51.96875 
Q 19.578125 53.03125 23.640625 53.03125 
Q 29.734375 53.03125 34.34375 51.265625 
Q 38.96875 49.515625 41.15625 46.5 
Q 43.359375 43.5 44.1875 38.484375 
L 35.59375 37.3125 
Q 35.015625 41.3125 32.203125 43.546875 
Q 29.390625 45.796875 24.265625 45.796875 
Q 18.21875 45.796875 15.625 43.796875 
Q 13.03125 41.796875 13.03125 39.109375 
Q 13.03125 37.40625 14.109375 36.03125 
Q 15.1875 34.625 17.484375 33.6875 
Q 18.796875 33.203125 25.25 31.453125 
Q 34.578125 28.953125 38.25 27.359375 
Q 41.9375 25.78125 44.03125 22.75 
Q 46.140625 19.734375 46.140625 15.234375 
Q 46.140625 10.84375 43.578125 6.953125 
Q 41.015625 3.078125 36.171875 0.953125 
Q 31.34375 -1.171875 25.25 -1.171875 
Q 15.140625 -1.171875 9.84375 3.03125 
Q 4.546875 7.234375 3.078125 15.484375 
z
" id="ArialMT-115"/>
      <path d="M 3.328125 25.921875 
Q 3.328125 40.328125 11.328125 47.265625 
Q 18.015625 53.03125 27.640625 53.03125 
Q 38.328125 53.03125 45.109375 46.015625 
Q 51.90625 39.015625 51.90625 26.65625 
Q 51.90625 16.65625 48.90625 10.90625 
Q 45.90625 5.171875 40.15625 2 
Q 34.421875 -1.171875 27.640625 -1.171875 
Q 16.75 -1.171875 10.03125 5.8125 
Q 3.328125 12.796875 3.328125 25.921875 
z
M 12.359375 25.921875 
Q 12.359375 15.96875 16.703125 11.015625 
Q 21.046875 6.0625 27.640625 6.0625 
Q 34.1875 6.0625 38.53125 11.03125 
Q 42.875 16.015625 42.875 26.21875 
Q 42.875 35.84375 38.5 40.796875 
Q 34.125 45.75 27.640625 45.75 
Q 21.046875 45.75 16.703125 40.8125 
Q 12.359375 35.890625 12.359375 25.921875 
z
" id="ArialMT-111"/>
      <path d="M 6.59375 0 
L 6.59375 51.859375 
L 14.5 51.859375 
L 14.5 44.484375 
Q 20.21875 53.03125 31 53.03125 
Q 35.6875 53.03125 39.625 51.34375 
Q 43.5625 49.65625 45.515625 46.921875 
Q 47.46875 44.1875 48.25 40.4375 
Q 48.734375 37.984375 48.734375 31.890625 
L 48.734375 0 
L 39.9375 0 
L 39.9375 31.546875 
Q 39.9375 36.921875 38.90625 39.578125 
Q 37.890625 42.234375 35.28125 43.8125 
Q 32.671875 45.40625 29.15625 45.40625 
Q 23.53125 45.40625 19.453125 41.84375 
Q 15.375 38.28125 15.375 28.328125 
L 15.375 0 
z
" id="ArialMT-110"/>
     </defs>
     <g transform="translate(21.515625 203.110625)rotate(-90)scale(0.2 -0.2)">
      <use xlink:href="#ArialMT-80"/>
      <use x="66.699219" xlink:href="#ArialMT-114"/>
      <use x="100" xlink:href="#ArialMT-101"/>
      <use x="155.615234" xlink:href="#ArialMT-99"/>
      <use x="205.615234" xlink:href="#ArialMT-105"/>
      <use x="227.832031" xlink:href="#ArialMT-115"/>
      <use x="277.832031" xlink:href="#ArialMT-105"/>
      <use x="300.048828" xlink:href="#ArialMT-111"/>
      <use x="355.664062" xlink:href="#ArialMT-110"/>
     </g>
    </g>
   </g>
   <g id="line2d_12">
    <path clip-path="url(#pade25f6064)" d="M 92.83812 119.594813 
L 94.694473 118.703158 
L 96.60674 124.402059 
L 98.642019 127.510173 
L 100.643749 133.484908 
L 102.634297 137.647409 
L 104.826135 140.796433 
L 108.829596 145.537389 
L 110.674766 150.370583 
L 112.564668 152.854412 
L 114.711775 155.394916 
L 116.568128 158.926564 
L 118.491578 161.385639 
L 120.247286 163.818954 
L 122.181919 165.093406 
L 123.859346 167.282372 
L 125.503225 169.839884 
L 127.281299 171.878501 
L 128.858081 174.152606 
L 130.468411 175.640866 
L 132.03401 176.893217 
L 133.476598 178.288957 
L 134.81854 180.18014 
L 136.42887 181.473791 
L 137.793178 183.057804 
L 139.392326 184.021687 
L 140.834913 185.243804 
L 142.612986 186.134018 
L 146.325693 189.724463 
L 147.645269 190.829752 
L 148.819468 192.182192 
L 150.150227 193.242066 
L 151.033673 194.860465 
L 152.051312 195.976289 
L 153.326157 196.835811 
L 154.578636 197.386088 
L 155.764018 198.126906 
L 157.665103 199.87719 
L 158.794571 200.746067 
L 159.73393 201.659732 
L 161.724478 203.238077 
L 162.607923 204.148829 
L 164.553739 205.473159 
L 165.772669 205.923793 
L 167.863862 207.12706 
L 168.635479 208.00138 
L 172.113345 210.527703 
L 172.806682 211.14854 
L 174.48411 212.338432 
L 175.792503 213.703234 
L 176.675948 214.089933 
L 179.505209 216.228951 
L 180.388655 216.540669 
L 181.048443 217.055736 
L 182.524579 217.761527 
L 183.553401 218.040768 
L 184.224372 218.597359 
L 185.66696 219.431107 
L 186.091908 220.007374 
L 186.595137 220.427297 
L 188.13837 221.144906 
L 188.663964 221.615332 
L 189.513861 221.850145 
L 190.06182 222.31782 
L 193.841624 224.430626 
L 194.568509 224.740097 
L 195.608514 225.41484 
L 198.739712 227.274825 
L 199.209392 227.655766 
L 200.204665 228.181889 
L 201.490693 229.086492 
L 203.089841 229.826656 
L 205.885553 231.535286 
L 206.880827 232.056745 
L 207.227495 232.30148 
L 207.820186 232.466908 
L 208.535889 232.950914 
L 208.781912 233.290747 
L 210.336328 233.848083 
L 210.66063 234.162472 
L 212.393972 235.001638 
L 215.010759 236.219156 
L 216.531627 237.30136 
L 218.242603 238.278752 
L 220.837024 239.441536 
L 221.910578 240.170009 
L 223.588005 240.954763 
L 224.326073 241.276809 
L 224.54973 241.446674 
L 225.634467 241.876593 
L 228.11706 242.964629 
L 229.212979 243.539319 
L 229.984596 243.741421 
L 236.168712 246.258759 
L 236.716672 246.632685 
L 237.980334 247.031946 
L 238.427648 247.253236 
L 239.333459 247.52295 
L 242.990251 248.975458 
L 250.337383 251.563476 
L 251.310291 251.863968 
L 251.891799 252.106197 
L 252.059542 252.194386 
L 252.853525 252.366851 
L 252.998902 252.477205 
L 253.748153 252.678444 
L 254.653963 253.084954 
L 255.447946 253.277972 
L 255.81698 253.423103 
L 257.997636 254.198994 
L 258.243658 254.371982 
L 261.520234 255.556709 
L 263.331855 256.253547 
L 264.248849 256.522507 
L 264.45014 256.660363 
L 265.445414 257.01237 
L 266.518968 257.256675 
L 272.546524 259.146892 
L 273.362872 259.488496 
L 275.308688 260.062398 
L 275.610625 260.157197 
L 276.192133 260.275464 
L 277.075578 260.551252 
L 278.328058 260.835651 
L 279.368063 261.213314 
L 280.083765 261.375749 
L 282.387432 262.021596 
L 283.293243 262.275597 
L 283.550449 262.354337 
L 284.500991 262.606164 
L 285.563362 262.833497 
L 286.603367 263.117435 
L 286.938852 263.243988 
L 287.978857 263.511369 
L 292.787483 264.809066 
L 293.469637 264.94337 
L 295.71739 265.635067 
L 296.108789 265.791447 
L 296.567286 265.90429 
L 297.350086 266.071054 
L 298.356542 266.360721 
L 299.083428 266.535095 
L 299.676119 266.680034 
L 303.455922 267.527056 
L 303.836139 267.628575 
L 305.804321 268.235638 
L 306.97852 268.496011 
L 309.315736 269.02018 
L 312.055534 269.606526 
L 312.066717 269.65044 
L 313.14027 269.967504 
L 315.119635 270.519824 
L 316.573406 270.810048 
L 323.070642 272.322571 
L 324.188927 272.554674 
L 324.401401 272.629148 
L 328.147656 273.499718 
L 328.717981 273.640056 
L 334.253492 274.953813 
L 335.427691 275.174079 
L 341.15331 276.448865 
L 343.401063 276.949678 
L 349.439803 278.100605 
L 352.078955 278.668291 
L 354.718108 279.27397 
L 355.556822 279.425471 
L 359.482002 280.241803 
L 365.308267 281.378394 
L 366.236444 281.579329 
L 366.236444 281.579329 
" style="fill:none;stroke:#ff0000;stroke-linecap:square;stroke-width:1.5;"/>
   </g>
   <g id="line2d_13">
    <path clip-path="url(#pade25f6064)" d="M 91.786932 282.403994 
L 91.909943 282.525775 
L 92.155966 282.442783 
L 92.301343 282.65861 
L 92.737474 282.739835 
L 92.771023 282.904968 
L 92.849303 282.845645 
L 93.743931 283.239173 
L 93.855759 283.229658 
L 94.347805 283.353593 
L 94.459633 283.402047 
L 94.638559 283.460805 
L 94.649741 283.505214 
L 94.739204 283.473096 
L 95.432541 283.586549 
L 95.790392 283.576605 
L 95.946952 283.674422 
L 96.349535 283.666767 
L 97.065237 283.628404 
L 97.400723 283.687145 
L 97.903951 283.666194 
L 98.161156 283.786969 
L 98.586105 283.872523 
L 99.805035 283.896254 
L 99.961595 283.933847 
L 101.974508 284.026307 
L 102.242897 284.08219 
L 103.126342 284.167666 
L 103.752582 284.301497 
L 104.580113 284.338399 
L 105.530655 284.394812 
L 106.112163 284.424603 
L 107.051522 284.449499 
L 118.256738 284.898378 
L 121.376754 284.9183 
L 124.440855 284.989862 
L 134.796174 285.21933 
L 139.403508 285.304275 
L 161.512003 285.604371 
L 174.439378 285.800979 
L 297.316537 286.701186 
L 391.699794 287.114186 
L 391.699794 287.114186 
" style="fill:none;stroke:#008000;stroke-linecap:square;stroke-width:1.5;"/>
   </g>
   <g id="line2d_14">
    <path clip-path="url(#pade25f6064)" d="M 91.842846 231.466681 
L 92.044137 231.869951 
L 92.223063 233.485046 
L 92.480269 232.572414 
L 92.771023 234.33736 
L 92.949948 234.904068 
L 93.22952 234.098984 
L 93.397262 234.769403 
L 93.520274 235.796365 
L 93.699199 235.975627 
L 93.844576 236.863477 
L 94.068233 237.136093 
L 95.085873 236.980101 
L 95.264798 237.680795 
L 95.633832 236.830034 
L 95.913404 237.16898 
L 96.260072 237.290291 
L 96.562009 237.234741 
L 97.177066 237.589955 
L 97.848037 237.770468 
L 98.183522 238.008968 
L 98.429545 238.611894 
L 98.76503 238.974376 
L 99.480733 239.336647 
L 99.872133 239.295815 
L 100.218801 239.499214 
L 100.632566 239.578388 
L 100.956869 239.879227 
L 101.225257 240.291337 
L 101.694937 240.230051 
L 102.287628 239.890531 
L 103.036879 240.360971 
L 104.009787 240.121484 
L 104.423553 240.330382 
L 104.870867 240.24989 
L 105.664849 240.862713 
L 106.626574 240.937707 
L 109.724224 240.784048 
L 110.372829 240.576967 
L 110.831326 240.622262 
L 111.27864 240.929292 
L 112.508753 240.775384 
L 112.989616 241.00977 
L 113.627038 240.918677 
L 114.040804 241.228519 
L 114.353924 241.701538 
L 114.980163 241.586226 
L 115.561672 241.657702 
L 115.941888 242.069139 
L 116.411568 242.234789 
L 116.769419 242.61249 
L 117.239099 242.841364 
L 118.267921 243.139334 
L 119.129001 243.776442 
L 119.710509 243.783581 
L 120.247286 243.961937 
L 121.533314 244.065433 
L 122.058908 244.287148 
L 123.199558 244.452201 
L 123.769884 244.551222 
L 124.519135 244.437751 
L 125.805162 244.617573 
L 127.762161 244.799045 
L 128.533778 244.819731 
L 129.383674 244.654173 
L 130.50196 245.153764 
L 130.982822 245.39625 
L 131.664976 245.455557 
L 133.487781 245.986625 
L 134.091654 246.152266 
L 134.840905 246.200534 
L 135.701985 246.089799 
L 138.609526 246.343635 
L 139.548885 246.224108 
L 140.331685 246.300806 
L 142.624169 247.13135 
L 143.899014 247.440685 
L 146.918384 247.67438 
L 147.589355 247.81617 
L 149.322697 247.801642 
L 151.145501 248.252166 
L 152.621637 248.42791 
L 153.985945 248.672535 
L 155.797567 248.627754 
L 158.872851 248.838453 
L 159.49909 248.983728 
L 166.354178 249.625012 
L 166.879772 249.796863 
L 170.592478 250.228985 
L 173.611847 250.557875 
L 177.291005 250.992295 
L 180.321558 251.240237 
L 182.468665 251.509416 
L 186.908256 251.999598 
L 188.798158 252.33009 
L 190.319026 252.419977 
L 192.879898 252.539045 
L 193.808075 252.552431 
L 194.411949 252.682145 
L 196.760347 252.788445 
L 197.297124 252.945456 
L 212.684726 254.333094 
L 214.966028 254.486618 
L 216.162593 254.698761 
L 218.399163 254.867656 
L 221.440898 255.26936 
L 222.995314 255.34463 
L 226.596192 255.604054 
L 230.901589 256.107202 
L 256.040637 258.247375 
L 257.248385 258.343444 
L 259.775709 258.535183 
L 270.567159 259.608295 
L 272.032113 259.7497 
L 291.344895 262.026619 
L 292.821031 262.249985 
L 295.135882 262.456499 
L 302.751403 263.284097 
L 304.943241 263.567161 
L 307.828417 263.829051 
L 309.628855 264.036927 
L 337.194581 267.30278 
L 360.343082 270.842102 
L 361.327172 271.067577 
L 364.201165 271.617622 
L 373.95261 273.70853 
L 374.97025 273.903019 
L 375.797781 274.065512 
L 376.547032 274.267312 
L 378.336288 274.76699 
L 378.962527 274.909307 
L 381.892434 275.683491 
L 382.104908 275.775591 
L 384.263198 276.433941 
L 384.911804 276.6078 
L 386.242563 277.03647 
L 387.114825 277.315702 
L 391.666245 279.247937 
L 392.001731 279.405715 
L 394.104107 280.620653 
L 394.104107 280.620653 
" style="fill:none;stroke:#0000ff;stroke-linecap:square;stroke-width:1.5;"/>
   </g>
   <g id="line2d_15">
    <path clip-path="url(#pade25f6064)" d="M 91.954675 265.956776 
L 92.044137 266.060269 
L 92.178332 265.864281 
L 92.234246 266.323313 
L 92.346074 266.209554 
L 92.424354 266.305766 
L 92.569731 266.051119 
L 92.75984 266.859355 
L 92.99468 266.968274 
L 93.095325 267.52846 
L 93.218337 267.469723 
L 93.296617 267.557987 
L 93.464359 267.362987 
L 93.788662 267.988394 
L 93.922856 267.927465 
L 94.336622 268.261206 
L 94.638559 268.079942 
L 94.750387 268.171779 
L 95.041141 268.115028 
L 95.242433 268.270329 
L 95.376627 268.297852 
L 95.555552 268.176723 
L 95.835124 268.229146 
L 96.349535 267.64692 
L 96.52846 267.596332 
L 96.718569 267.979793 
L 96.863946 268.035867 
L 97.199431 267.985387 
L 97.46782 268.175605 
L 98.183522 268.102659 
L 98.395996 268.342895 
L 98.664385 268.162242 
L 99.223527 268.535705 
L 99.447184 268.483394 
L 99.592561 268.58124 
L 99.816218 268.536766 
L 99.883315 268.737465 
L 100.062241 268.779096 
L 100.487189 268.734241 
L 100.632566 268.833405 
L 101.113429 268.713404 
L 101.448914 268.841021 
L 101.773217 268.674687 
L 101.952143 268.738638 
L 102.679028 268.663231 
L 103.260536 268.86216 
L 103.62957 268.678354 
L 103.797313 268.771854 
L 104.322907 268.700247 
L 104.703124 268.84255 
L 105.094524 268.924115 
L 105.374095 269.163134 
L 107.174534 269.433356 
L 107.454105 269.698826 
L 108.069162 269.620796 
L 108.192173 269.767584 
L 108.449379 269.795999 
L 108.919058 270.125739 
L 109.377555 270.211393 
L 109.612395 270.255736 
L 110.562937 270.200584 
L 112.765959 270.561734 
L 113.347467 270.592109 
L 114.029621 270.755867 
L 114.801238 270.903016 
L 115.852426 271.061255 
L 116.355654 271.127245 
L 117.820607 271.257382 
L 119.319109 271.555532 
L 120.269652 271.608705 
L 121.097182 271.712801 
L 122.349662 271.798185 
L 123.747518 272.024481 
L 125.044729 272.101774 
L 125.670968 272.14622 
L 126.77807 272.328904 
L 139.202217 273.031466 
L 140.085662 273.179542 
L 144.055574 273.360146 
L 145.744184 273.539316 
L 146.817738 273.63302 
L 153.930031 274.058313 
L 154.612185 274.145383 
L 155.942944 274.197613 
L 162.182974 274.558613 
L 170.469466 275.019866 
L 172.996791 275.19368 
L 178.867787 275.501258 
L 239.646578 277.924856 
L 251.064269 278.322635 
L 259.183018 278.645209 
L 283.818837 279.466974 
L 287.811115 279.643124 
L 337.138667 281.457794 
L 342.115036 281.655213 
L 362.06524 282.528048 
L 371.8726 283.130637 
L 380.226189 283.707973 
L 385.515678 284.135856 
L 394.327764 285.178133 
L 394.719163 285.262322 
L 396.150568 285.62813 
L 396.150568 285.62813 
" style="fill:none;stroke:#bfbf00;stroke-linecap:square;stroke-width:1.5;"/>
   </g>
   <g id="line2d_16">
    <path clip-path="url(#pade25f6064)" d="M 91.89876 148.832873 
L 92.234246 148.585395 
L 92.580914 149.137699 
L 92.826937 151.284877 
L 93.095325 152.337211 
L 93.945222 152.102606 
L 94.60501 155.123016 
L 95.029958 155.959618 
L 95.343078 158.997899 
L 95.723295 159.938171 
L 96.260072 160.112246 
L 96.696203 160.821459 
L 97.165883 161.924202 
L 97.747391 161.135528 
L 98.709116 162.67524 
L 99.223527 163.195674 
L 99.749121 163.464441 
L 100.487189 162.665883 
L 101.057515 163.587949 
L 101.739669 163.247538 
L 103.327633 167.109775 
L 103.976239 167.223809 
L 104.669575 167.766916 
L 105.922055 169.259916 
L 106.682488 169.489149 
L 107.420557 169.569667 
L 108.046796 170.45977 
L 108.829596 170.395215 
L 110.249818 171.025951 
L 111.066166 171.137123 
L 111.770685 171.975344 
L 112.609399 172.518716 
L 113.425747 172.680118 
L 114.040804 173.746449 
L 114.801238 174.361984 
L 115.6735 174.498999 
L 116.411568 174.831119 
L 117.854156 176.008458 
L 119.643412 176.259468 
L 120.403846 176.828632 
L 121.343205 176.631886 
L 122.260199 176.87569 
L 123.904078 178.065831 
L 124.999997 177.928238 
L 125.536774 178.792049 
L 127.035276 180.044768 
L 127.739796 180.8605 
L 128.701521 181.17881 
L 129.450772 181.555662 
L 130.334217 182.168667 
L 131.217662 182.932556 
L 132.089924 183.150566 
L 132.984552 183.530864 
L 133.95746 183.70506 
L 137.28995 185.665988 
L 139.079206 186.37061 
L 139.940285 186.932066 
L 141.930833 187.367139 
L 142.735998 188.026232 
L 145.878379 188.60814 
L 146.694727 189.114585 
L 147.466343 189.810599 
L 148.450434 190.273596 
L 149.456891 190.599878 
L 150.351519 191.071354 
L 151.41389 191.13085 
L 153.18078 192.008064 
L 154.220785 192.063679 
L 155.148962 192.330766 
L 156.054772 192.72325 
L 156.859938 193.322827 
L 158.727474 194.087769 
L 160.572644 194.88786 
L 161.433723 195.209803 
L 162.160609 195.822816 
L 163.983413 196.58043 
L 164.665567 197.262445 
L 165.549012 197.588759 
L 166.577835 197.740356 
L 167.237623 198.367582 
L 167.975691 198.810931 
L 169.820861 199.368963 
L 172.918511 201.311288 
L 173.801956 201.70134 
L 174.730132 201.97628 
L 175.468201 202.402629 
L 176.351646 202.70483 
L 179.292735 204.432675 
L 183.329744 206.243147 
L 185.029538 206.935459 
L 185.543949 207.48072 
L 187.925896 208.582796 
L 190.240746 209.532888 
L 192.935813 210.993957 
L 193.863989 211.217179 
L 196.894542 212.444779 
L 198.113472 213.216323 
L 198.817992 213.487705 
L 199.444232 213.853956 
L 201.691984 214.708748 
L 203.604252 215.758606 
L 205.12512 216.169217 
L 209.352237 217.746718 
L 210.067939 218.031253 
L 211.13031 218.721497 
L 213.91484 219.720879 
L 214.38452 220.04254 
L 216.319153 220.843689 
L 219.99831 222.458363 
L 220.613367 222.717905 
L 221.944126 223.099952 
L 222.984131 223.585106 
L 223.498543 223.869294 
L 226.517912 225.019365 
L 227.625014 225.482814 
L 228.933408 225.878017 
L 229.705024 226.041565 
L 230.129973 226.28805 
L 230.733847 226.488874 
L 231.125246 226.760923 
L 232.12052 227.222359 
L 236.336455 229.240909 
L 239.881418 230.59414 
L 240.865509 230.98068 
L 242.050891 231.313622 
L 242.263365 231.611146 
L 242.621217 231.83497 
L 244.332193 232.322322 
L 246.099083 233.138086 
L 246.71414 233.283523 
L 247.877156 233.90268 
L 248.302104 234.090239 
L 248.894796 234.221423 
L 249.588132 234.655512 
L 251.902982 235.545002 
L 253.099547 235.820708 
L 254.05009 236.126458 
L 255.123643 236.693043 
L 255.995905 237.005312 
L 256.812254 237.312457 
L 258.500864 237.953528 
L 258.791618 238.153027 
L 261.128834 238.823811 
L 261.497868 238.986941 
L 262.873358 239.386829 
L 270.712536 242.119488 
L 273.005021 242.897414 
L 273.8661 243.116965 
L 274.88374 243.514909 
L 276.505253 244.344036 
L 279.099674 245.115051 
L 280.016668 245.505981 
L 281.850655 246.002437 
L 284.154323 246.775584 
L 284.825294 246.975796 
L 285.026585 247.107298 
L 286.133687 247.387876 
L 289.544456 248.334462 
L 293.01114 249.358469 
L 306.173355 253.579761 
L 313.520487 255.784998 
L 314.07963 256.012081 
L 316.539857 256.746143 
L 331.714985 261.366797 
L 332.318859 261.660756 
L 333.962738 262.058806 
L 342.148584 264.386052 
L 342.741275 264.57113 
L 345.402794 265.278791 
L 346.01785 265.453618 
L 350.625185 266.698828 
L 351.575727 266.948851 
L 352.872938 267.268683 
L 357.077689 268.450168 
L 357.480272 268.573717 
L 358.710385 268.93575 
L 359.482002 269.188228 
L 366.728489 271.231067 
L 367.063975 271.349114 
L 368.003334 271.621496 
L 372.062709 272.994263 
L 372.465291 273.152042 
L 373.840782 273.621611 
L 375.730684 274.242384 
L 375.864878 274.32615 
L 376.81542 274.544317 
L 378.97371 275.20468 
L 380.494578 275.680354 
L 381.008989 275.888405 
L 381.657594 276.143938 
L 383.547496 276.801592 
L 384.207284 277.077592 
L 387.137191 278.303956 
L 387.338482 278.420328 
L 388.098916 278.710977 
L 388.098916 278.710977 
" style="fill:none;stroke:#bf00bf;stroke-linecap:square;stroke-width:1.5;"/>
   </g>
   <g id="line2d_17">
    <path clip-path="url(#pade25f6064)" d="M 91.921126 261.782741 
L 92.144783 261.320036 
L 92.29016 261.428623 
L 92.648011 261.271824 
L 92.815754 261.40903 
L 93.07296 260.951995 
L 93.240702 261.226606 
L 93.430811 261.22156 
L 93.755113 261.99055 
L 94.314256 261.571053 
L 94.705656 261.979124 
L 94.906947 262.207104 
L 95.197701 262.040147 
L 95.913404 262.386718 
L 96.248889 262.106935 
L 96.830397 261.980834 
L 97.098786 262.239958 
L 97.445454 262.086423 
L 97.971048 262.239484 
L 98.899225 262.324369 
L 99.268259 262.213331 
L 99.54783 262.292315 
L 100.039875 262.786958 
L 100.464824 262.6335 
L 101.54956 262.678386 
L 101.829131 262.85946 
L 102.265263 262.770976 
L 102.790857 262.536732 
L 107.140985 262.252867 
L 107.510019 262.356564 
L 108.035613 262.257158 
L 109.310458 262.404754 
L 110.719497 262.488858 
L 111.077349 262.64873 
L 112.072622 262.668518 
L 113.51521 262.744327 
L 114.588764 262.719805 
L 115.013712 262.82061 
L 116.020168 262.841637 
L 117.160819 262.806473 
L 118.312653 262.761597 
L 119.419755 262.804339 
L 120.526857 262.827388 
L 120.962988 262.94139 
L 123.24429 262.954753 
L 124.765157 263.195467 
L 125.928174 263.251096 
L 128.410767 263.330516 
L 128.880446 263.420063 
L 130.144108 263.449377 
L 132.224118 263.777898 
L 134.281763 263.753332 
L 134.874454 263.802951 
L 136.249945 263.791574 
L 139.437057 263.897061 
L 141.852553 264.071115 
L 143.194495 264.115829 
L 144.804825 264.01429 
L 147.76828 264.286907 
L 149.378611 264.486767 
L 158.20188 264.724813 
L 159.364896 264.837845 
L 162.071146 264.967143 
L 179.661769 265.758245 
L 180.847152 265.847251 
L 183.631681 265.917017 
L 185.320292 266.056221 
L 192.969361 266.432686 
L 199.198209 266.590348 
L 214.060217 267.23332 
L 219.864116 267.401423 
L 222.156601 267.514793 
L 226.227158 267.693163 
L 231.673206 267.998482 
L 236.716672 268.218274 
L 246.255643 268.684333 
L 247.675865 268.772117 
L 253.479764 269.025194 
L 259.563235 269.3041 
L 263.868632 269.530265 
L 268.364138 269.787751 
L 271.86437 269.935684 
L 277.802464 270.300088 
L 294.118242 271.192891 
L 303.019791 271.737391 
L 306.698949 271.957238 
L 311.228003 272.300198 
L 315.086086 272.572719 
L 354.181331 275.915759 
L 355.154239 276.021821 
L 360.835127 276.678666 
L 364.380091 277.038244 
L 365.431278 277.165999 
L 368.361185 277.528299 
L 373.829599 278.254503 
L 374.34401 278.37415 
L 376.301009 278.658112 
L 377.687682 278.910929 
L 379.566401 279.204439 
L 388.54623 281.043453 
L 393.824535 282.463533 
L 393.824535 282.463533 
" style="fill:none;stroke:#00bfbf;stroke-linecap:square;stroke-width:1.5;"/>
   </g>
   <g id="line2d_18">
    <path clip-path="url(#pade25f6064)" d="M 92.066503 71.716657 
L 92.491451 75.253829 
L 92.871668 73.374802 
L 93.22952 72.583048 
L 93.531456 74.133435 
L 93.811028 73.908274 
L 94.224793 73.829356 
L 94.504364 74.857879 
L 94.83985 75.54329 
L 95.678564 74.550168 
L 96.103512 75.70811 
L 96.629106 74.155641 
L 97.031689 74.659932 
L 97.512551 75.992919 
L 97.948682 75.96523 
L 98.429545 75.316967 
L 99.100516 73.39485 
L 99.62611 75.061144 
L 100.218801 75.107273 
L 101.102246 77.907451 
L 101.560743 80.515957 
L 102.142251 79.415247 
L 102.723759 80.313249 
L 103.282902 79.780656 
L 103.875593 81.024276 
L 104.524198 80.661973 
L 105.217535 79.963437 
L 105.743129 80.581998 
L 106.4141 80.134861 
L 107.017974 79.202682 
L 107.588299 79.291262 
L 108.214539 79.520922 
L 108.80723 79.862522 
L 109.444652 80.537252 
L 110.137989 79.846645 
L 110.6524 80.890586 
L 111.983159 82.51346 
L 112.631765 82.328326 
L 113.235639 82.617574 
L 113.817147 83.376603 
L 114.544032 82.895374 
L 115.226186 82.990359 
L 115.83006 83.910453 
L 116.679957 82.583817 
L 117.350928 83.21351 
L 118.021899 83.259728 
L 118.704052 83.837595 
L 119.587498 83.324749 
L 120.023629 84.282543 
L 120.638686 85.026228 
L 121.790519 85.594388 
L 122.584502 85.59644 
L 123.188375 85.73971 
L 123.859346 86.744438 
L 125.3243 87.658881 
L 126.017637 87.744334 
L 126.722156 87.631407 
L 127.929904 88.498712 
L 128.690338 89.352271 
L 129.316577 89.405029 
L 130.781531 89.246422 
L 131.418953 89.602907 
L 133.062832 89.213231 
L 133.756169 89.597697 
L 134.628431 89.279332 
L 136.451236 89.03217 
L 137.111024 89.510303 
L 137.748447 90.393135 
L 140.152759 91.050603 
L 140.946742 90.836953 
L 141.60653 90.979977 
L 142.299867 91.368086 
L 143.76482 91.179346 
L 144.547619 91.107148 
L 145.117945 91.550721 
L 146.582898 91.830923 
L 147.220321 92.276644 
L 148.696457 92.326356 
L 149.222051 93.062715 
L 149.937753 93.316755 
L 150.675821 93.446473 
L 151.25733 94.014424 
L 151.905935 94.239549 
L 152.610455 94.228606 
L 153.124866 94.716369 
L 153.706374 95.052843 
L 154.399711 95.183479 
L 155.171327 95.126108 
L 155.741653 95.394106 
L 156.256064 95.999983 
L 157.41908 96.825606 
L 158.04532 96.938815 
L 158.727474 96.869521 
L 159.297799 97.42466 
L 159.901673 97.615372 
L 162.764483 99.67593 
L 166.622566 101.151639 
L 167.002783 101.801841 
L 170.111615 102.419418 
L 171.218717 103.069256 
L 172.583025 104.505355 
L 173.880236 104.643417 
L 174.361098 105.035816 
L 175.445835 105.522624 
L 177.324554 107.145897 
L 178.56585 107.414157 
L 179.617038 107.822671 
L 180.578763 108.396004 
L 181.171454 108.318814 
L 182.222642 108.835004 
L 183.754693 109.606562 
L 184.347384 109.680141 
L 185.286743 110.195359 
L 186.080725 110.763975 
L 186.617502 110.79725 
L 187.98181 111.416454 
L 188.328478 111.743413 
L 190.095369 112.597834 
L 191.314299 113.294353 
L 191.918173 113.426846 
L 192.835167 113.897234 
L 193.304847 113.95649 
L 194.121195 114.336416 
L 194.490229 114.529365 
L 194.814532 114.910801 
L 196.011097 115.569945 
L 196.413679 115.805403 
L 196.883359 115.88865 
L 198.348312 116.987785 
L 199.611974 117.518956 
L 200.540151 118.440341 
L 200.842088 118.563807 
L 202.038653 119.572177 
L 202.463601 119.712188 
L 203.134572 120.137925 
L 204.230491 120.620371 
L 204.543611 120.870964 
L 204.935011 120.981465 
L 205.404691 121.673569 
L 206.086845 122.058246 
L 207.261044 122.653258 
L 207.630078 123.316707 
L 208.066209 123.46272 
L 208.368146 123.717013 
L 209.51998 124.039787 
L 210.716545 124.97907 
L 211.488161 125.662902 
L 211.857195 125.787259 
L 212.584081 126.571774 
L 213.467526 127.174084 
L 213.747097 127.405489 
L 214.261508 127.428313 
L 214.619359 127.593557 
L 214.999576 127.644757 
L 215.771193 128.237427 
L 215.972484 128.475406 
L 216.263238 128.573617 
L 217.001307 129.190053 
L 217.325609 129.369918 
L 218.130774 130.351537 
L 219.070134 130.686432 
L 220.38971 131.616662 
L 220.960036 131.8557 
L 222.570366 132.715952 
L 223.464994 133.616995 
L 224.135965 134.083909 
L 226.081781 135.494296 
L 227.077055 136.018931 
L 229.425453 138.294194 
L 229.861584 138.555307 
L 230.297716 138.789499 
L 232.176434 140.222211 
L 232.545468 140.511898 
L 232.713211 140.635969 
L 233.182891 140.806996 
L 233.585474 141.018064 
L 233.663753 141.215687 
L 234.256445 141.37996 
L 235.173438 141.99565 
L 235.542472 142.283318 
L 235.676667 142.467062 
L 237.108071 143.07938 
L 237.398825 143.342108 
L 238.271088 143.705131 
L 238.729585 144.036494 
L 238.964424 144.302329 
L 239.367007 144.384004 
L 239.791955 144.560242 
L 242.274548 146.416255 
L 242.375194 146.613194 
L 242.967885 146.837638 
L 243.22509 147.094897 
L 243.661222 147.381872 
L 244.991981 148.632669 
L 245.282735 148.824858 
L 246.076717 149.378128 
L 247.373928 150.502385 
L 247.955436 150.890694 
L 248.805333 151.584111 
L 249.453938 152.36631 
L 249.744692 152.67261 
L 250.449212 153.022768 
L 251.366205 153.948258 
L 251.57868 154.095093 
L 252.339113 154.61936 
L 252.48449 154.832068 
L 253.200193 155.682383 
L 253.446216 155.888034 
L 253.81525 156.252836 
L 254.161918 156.510072 
L 254.530952 156.701565 
L 254.709878 156.87114 
L 255.011815 157.164172 
L 255.313752 157.460161 
L 255.526226 157.573313 
L 255.805797 157.907051 
L 256.387305 158.309763 
L 256.890534 158.909474 
L 257.930539 159.754552 
L 258.120647 160.034575 
L 258.60151 160.659288 
L 258.836349 160.882365 
L 259.127104 161.189536 
L 259.943452 161.776329 
L 260.178291 162.009147 
L 260.357217 162.140605 
L 260.670337 162.482425 
L 260.770983 162.68615 
L 261.017005 162.735147 
L 264.76326 166.423585 
L 265.020466 166.738138 
L 265.613157 167.218059 
L 266.049288 167.592476 
L 266.53015 168.00177 
L 267.637253 169.035532 
L 267.749081 169.323425 
L 268.118115 169.586495 
L 268.297041 169.805879 
L 269.515971 171.095981 
L 269.773177 171.185317 
L 269.974468 171.464663 
L 270.321137 171.800949 
L 270.567159 171.956683 
L 270.746085 172.141271 
L 271.137485 172.472872 
L 271.271679 172.544867 
L 271.47297 172.687504 
L 271.752542 172.851353 
L 271.965016 173.105452 
L 272.546524 173.691578 
L 272.770181 173.905406 
L 274.033843 175.355682 
L 274.402877 175.690347 
L 274.939654 176.523733 
L 275.107397 176.637404 
L 275.297505 176.883718 
L 276.538801 178.035592 
L 277.27687 178.853195 
L 277.489344 179.103059 
L 277.668269 179.382095 
L 277.981389 179.860534 
L 278.193863 179.953265 
L 278.193863 179.953265 
" style="fill:none;stroke:#ffa500;stroke-linecap:square;stroke-width:1.5;"/>
   </g>
   <g id="patch_3">
    <path d="M 76.56875 297.884062 
L 76.56875 26.084062 
" style="fill:none;stroke:#000000;stroke-linecap:square;stroke-linejoin:miter;stroke-width:0.8;"/>
   </g>
   <g id="patch_4">
    <path d="M 411.36875 297.884062 
L 411.36875 26.084062 
" style="fill:none;stroke:#000000;stroke-linecap:square;stroke-linejoin:miter;stroke-width:0.8;"/>
   </g>
   <g id="patch_5">
    <path d="M 76.56875 297.884062 
L 411.36875 297.884062 
" style="fill:none;stroke:#000000;stroke-linecap:square;stroke-linejoin:miter;stroke-width:0.8;"/>
   </g>
   <g id="patch_6">
    <path d="M 76.56875 26.084062 
L 411.36875 26.084062 
" style="fill:none;stroke:#000000;stroke-linecap:square;stroke-linejoin:miter;stroke-width:0.8;"/>
   </g>
   <g id="text_14">
    <!-- (0.5,0.33) -->
    <defs>
     <path d="M 31 75.875 
Q 24.46875 64.65625 21.28125 53.65625 
Q 18.109375 42.671875 18.109375 31.390625 
Q 18.109375 20.125 21.3125 9.0625 
Q 24.515625 -2 31 -13.1875 
L 23.1875 -13.1875 
Q 15.875 -1.703125 12.234375 9.375 
Q 8.59375 20.453125 8.59375 31.390625 
Q 8.59375 42.28125 12.203125 53.3125 
Q 15.828125 64.359375 23.1875 75.875 
z
" id="DejaVuSans-40"/>
     <path d="M 11.71875 12.40625 
L 22.015625 12.40625 
L 22.015625 4 
L 14.015625 -11.625 
L 7.71875 -11.625 
L 11.71875 4 
z
" id="DejaVuSans-44"/>
     <path d="M 8.015625 75.875 
L 15.828125 75.875 
Q 23.140625 64.359375 26.78125 53.3125 
Q 30.421875 42.28125 30.421875 31.390625 
Q 30.421875 20.453125 26.78125 9.375 
Q 23.140625 -1.703125 15.828125 -13.1875 
L 8.015625 -13.1875 
Q 14.5 -2 17.703125 9.0625 
Q 20.90625 20.125 20.90625 31.390625 
Q 20.90625 42.671875 17.703125 53.65625 
Q 14.5 64.65625 8.015625 75.875 
z
" id="DejaVuSans-41"/>
    </defs>
    <g style="fill:#ffa500;" transform="translate(180.377472 168.532624)scale(0.12 -0.12)">
     <use xlink:href="#DejaVuSans-40"/>
     <use x="39.013672" xlink:href="#DejaVuSans-48"/>
     <use x="102.636719" xlink:href="#DejaVuSans-46"/>
     <use x="134.423828" xlink:href="#DejaVuSans-53"/>
     <use x="198.046875" xlink:href="#DejaVuSans-44"/>
     <use x="229.833984" xlink:href="#DejaVuSans-48"/>
     <use x="293.457031" xlink:href="#DejaVuSans-46"/>
     <use x="325.244141" xlink:href="#DejaVuSans-51"/>
     <use x="388.867188" xlink:href="#DejaVuSans-51"/>
     <use x="452.490234" xlink:href="#DejaVuSans-41"/>
    </g>
   </g>
   <g id="text_15">
    <!-- Precision - recall curve - Asian cities -->
    <defs>
     <path id="ArialMT-32"/>
     <path d="M 3.171875 21.484375 
L 3.171875 30.328125 
L 30.171875 30.328125 
L 30.171875 21.484375 
z
" id="ArialMT-45"/>
     <path d="M 40.578125 0 
L 40.578125 7.625 
Q 34.515625 -1.171875 24.125 -1.171875 
Q 19.53125 -1.171875 15.546875 0.578125 
Q 11.578125 2.34375 9.640625 5 
Q 7.71875 7.671875 6.9375 11.53125 
Q 6.390625 14.109375 6.390625 19.734375 
L 6.390625 51.859375 
L 15.1875 51.859375 
L 15.1875 23.09375 
Q 15.1875 16.21875 15.71875 13.8125 
Q 16.546875 10.359375 19.234375 8.375 
Q 21.921875 6.390625 25.875 6.390625 
Q 29.828125 6.390625 33.296875 8.421875 
Q 36.765625 10.453125 38.203125 13.9375 
Q 39.65625 17.4375 39.65625 24.078125 
L 39.65625 51.859375 
L 48.4375 51.859375 
L 48.4375 0 
z
" id="ArialMT-117"/>
     <path d="M 21 0 
L 1.265625 51.859375 
L 10.546875 51.859375 
L 21.6875 20.796875 
Q 23.484375 15.765625 25 10.359375 
Q 26.171875 14.453125 28.265625 20.21875 
L 39.796875 51.859375 
L 48.828125 51.859375 
L 29.203125 0 
z
" id="ArialMT-118"/>
     <path d="M -0.140625 0 
L 27.34375 71.578125 
L 37.546875 71.578125 
L 66.84375 0 
L 56.0625 0 
L 47.703125 21.6875 
L 17.78125 21.6875 
L 9.90625 0 
z
M 20.515625 29.390625 
L 44.78125 29.390625 
L 37.3125 49.21875 
Q 33.890625 58.25 32.234375 64.0625 
Q 30.859375 57.171875 28.375 50.390625 
z
" id="ArialMT-65"/>
     <path d="M 25.78125 7.859375 
L 27.046875 0.09375 
Q 23.34375 -0.6875 20.40625 -0.6875 
Q 15.625 -0.6875 12.984375 0.828125 
Q 10.359375 2.34375 9.28125 4.8125 
Q 8.203125 7.28125 8.203125 15.1875 
L 8.203125 45.015625 
L 1.765625 45.015625 
L 1.765625 51.859375 
L 8.203125 51.859375 
L 8.203125 64.703125 
L 16.9375 69.96875 
L 16.9375 51.859375 
L 25.78125 51.859375 
L 25.78125 45.015625 
L 16.9375 45.015625 
L 16.9375 14.703125 
Q 16.9375 10.9375 17.40625 9.859375 
Q 17.875 8.796875 18.921875 8.15625 
Q 19.96875 7.515625 21.921875 7.515625 
Q 23.390625 7.515625 25.78125 7.859375 
z
" id="ArialMT-116"/>
    </defs>
    <g transform="translate(99.925156 20.084062)scale(0.18 -0.18)">
     <use xlink:href="#ArialMT-80"/>
     <use x="66.699219" xlink:href="#ArialMT-114"/>
     <use x="100" xlink:href="#ArialMT-101"/>
     <use x="155.615234" xlink:href="#ArialMT-99"/>
     <use x="205.615234" xlink:href="#ArialMT-105"/>
     <use x="227.832031" xlink:href="#ArialMT-115"/>
     <use x="277.832031" xlink:href="#ArialMT-105"/>
     <use x="300.048828" xlink:href="#ArialMT-111"/>
     <use x="355.664062" xlink:href="#ArialMT-110"/>
     <use x="411.279297" xlink:href="#ArialMT-32"/>
     <use x="439.0625" xlink:href="#ArialMT-45"/>
     <use x="472.363281" xlink:href="#ArialMT-32"/>
     <use x="500.146484" xlink:href="#ArialMT-114"/>
     <use x="533.447266" xlink:href="#ArialMT-101"/>
     <use x="589.0625" xlink:href="#ArialMT-99"/>
     <use x="639.0625" xlink:href="#ArialMT-97"/>
     <use x="694.677734" xlink:href="#ArialMT-108"/>
     <use x="716.894531" xlink:href="#ArialMT-108"/>
     <use x="739.111328" xlink:href="#ArialMT-32"/>
     <use x="766.894531" xlink:href="#ArialMT-99"/>
     <use x="816.894531" xlink:href="#ArialMT-117"/>
     <use x="872.509766" xlink:href="#ArialMT-114"/>
     <use x="905.810547" xlink:href="#ArialMT-118"/>
     <use x="955.810547" xlink:href="#ArialMT-101"/>
     <use x="1011.425781" xlink:href="#ArialMT-32"/>
     <use x="1039.208984" xlink:href="#ArialMT-45"/>
     <use x="1072.509766" xlink:href="#ArialMT-32"/>
     <use x="1094.792969" xlink:href="#ArialMT-65"/>
     <use x="1161.492188" xlink:href="#ArialMT-115"/>
     <use x="1211.492188" xlink:href="#ArialMT-105"/>
     <use x="1233.708984" xlink:href="#ArialMT-97"/>
     <use x="1289.324219" xlink:href="#ArialMT-110"/>
     <use x="1344.939453" xlink:href="#ArialMT-32"/>
     <use x="1372.722656" xlink:href="#ArialMT-99"/>
     <use x="1422.722656" xlink:href="#ArialMT-105"/>
     <use x="1444.939453" xlink:href="#ArialMT-116"/>
     <use x="1472.722656" xlink:href="#ArialMT-105"/>
     <use x="1494.939453" xlink:href="#ArialMT-101"/>
     <use x="1550.554688" xlink:href="#ArialMT-115"/>
    </g>
   </g>
   <g id="legend_1">
    <g id="patch_7">
     <path d="M 235.8625 136.830937 
L 404.36875 136.830937 
Q 406.36875 136.830937 406.36875 134.830937 
L 406.36875 33.084062 
Q 406.36875 31.084062 404.36875 31.084062 
L 235.8625 31.084062 
Q 233.8625 31.084062 233.8625 33.084062 
L 233.8625 134.830937 
Q 233.8625 136.830937 235.8625 136.830937 
z
" style="fill:#ffffff;opacity:0.8;stroke:#cccccc;stroke-linejoin:miter;"/>
    </g>
    <g id="line2d_19">
     <path d="M 237.8625 39.1825 
L 257.8625 39.1825 
" style="fill:none;stroke:#ff0000;stroke-linecap:square;stroke-width:1.5;"/>
    </g>
    <g id="line2d_20"/>
    <g id="text_16">
     <!-- Node2Vec, AUC:0.12 -->
     <defs>
      <path d="M 9.8125 72.90625 
L 23.09375 72.90625 
L 55.421875 11.921875 
L 55.421875 72.90625 
L 64.984375 72.90625 
L 64.984375 0 
L 51.703125 0 
L 19.390625 60.984375 
L 19.390625 0 
L 9.8125 0 
z
" id="DejaVuSans-78"/>
      <path d="M 30.609375 48.390625 
Q 23.390625 48.390625 19.1875 42.75 
Q 14.984375 37.109375 14.984375 27.296875 
Q 14.984375 17.484375 19.15625 11.84375 
Q 23.34375 6.203125 30.609375 6.203125 
Q 37.796875 6.203125 41.984375 11.859375 
Q 46.1875 17.53125 46.1875 27.296875 
Q 46.1875 37.015625 41.984375 42.703125 
Q 37.796875 48.390625 30.609375 48.390625 
z
M 30.609375 56 
Q 42.328125 56 49.015625 48.375 
Q 55.71875 40.765625 55.71875 27.296875 
Q 55.71875 13.875 49.015625 6.21875 
Q 42.328125 -1.421875 30.609375 -1.421875 
Q 18.84375 -1.421875 12.171875 6.21875 
Q 5.515625 13.875 5.515625 27.296875 
Q 5.515625 40.765625 12.171875 48.375 
Q 18.84375 56 30.609375 56 
z
" id="DejaVuSans-111"/>
      <path d="M 45.40625 46.390625 
L 45.40625 75.984375 
L 54.390625 75.984375 
L 54.390625 0 
L 45.40625 0 
L 45.40625 8.203125 
Q 42.578125 3.328125 38.25 0.953125 
Q 33.9375 -1.421875 27.875 -1.421875 
Q 17.96875 -1.421875 11.734375 6.484375 
Q 5.515625 14.40625 5.515625 27.296875 
Q 5.515625 40.1875 11.734375 48.09375 
Q 17.96875 56 27.875 56 
Q 33.9375 56 38.25 53.625 
Q 42.578125 51.265625 45.40625 46.390625 
z
M 14.796875 27.296875 
Q 14.796875 17.390625 18.875 11.75 
Q 22.953125 6.109375 30.078125 6.109375 
Q 37.203125 6.109375 41.296875 11.75 
Q 45.40625 17.390625 45.40625 27.296875 
Q 45.40625 37.203125 41.296875 42.84375 
Q 37.203125 48.484375 30.078125 48.484375 
Q 22.953125 48.484375 18.875 42.84375 
Q 14.796875 37.203125 14.796875 27.296875 
z
" id="DejaVuSans-100"/>
      <path d="M 56.203125 29.59375 
L 56.203125 25.203125 
L 14.890625 25.203125 
Q 15.484375 15.921875 20.484375 11.0625 
Q 25.484375 6.203125 34.421875 6.203125 
Q 39.59375 6.203125 44.453125 7.46875 
Q 49.3125 8.734375 54.109375 11.28125 
L 54.109375 2.78125 
Q 49.265625 0.734375 44.1875 -0.34375 
Q 39.109375 -1.421875 33.890625 -1.421875 
Q 20.796875 -1.421875 13.15625 6.1875 
Q 5.515625 13.8125 5.515625 26.8125 
Q 5.515625 40.234375 12.765625 48.109375 
Q 20.015625 56 32.328125 56 
Q 43.359375 56 49.78125 48.890625 
Q 56.203125 41.796875 56.203125 29.59375 
z
M 47.21875 32.234375 
Q 47.125 39.59375 43.09375 43.984375 
Q 39.0625 48.390625 32.421875 48.390625 
Q 24.90625 48.390625 20.390625 44.140625 
Q 15.875 39.890625 15.1875 32.171875 
z
" id="DejaVuSans-101"/>
      <path d="M 28.609375 0 
L 0.78125 72.90625 
L 11.078125 72.90625 
L 34.1875 11.53125 
L 57.328125 72.90625 
L 67.578125 72.90625 
L 39.796875 0 
z
" id="DejaVuSans-86"/>
      <path d="M 48.78125 52.59375 
L 48.78125 44.1875 
Q 44.96875 46.296875 41.140625 47.34375 
Q 37.3125 48.390625 33.40625 48.390625 
Q 24.65625 48.390625 19.8125 42.84375 
Q 14.984375 37.3125 14.984375 27.296875 
Q 14.984375 17.28125 19.8125 11.734375 
Q 24.65625 6.203125 33.40625 6.203125 
Q 37.3125 6.203125 41.140625 7.25 
Q 44.96875 8.296875 48.78125 10.40625 
L 48.78125 2.09375 
Q 45.015625 0.34375 40.984375 -0.53125 
Q 36.96875 -1.421875 32.421875 -1.421875 
Q 20.0625 -1.421875 12.78125 6.34375 
Q 5.515625 14.109375 5.515625 27.296875 
Q 5.515625 40.671875 12.859375 48.328125 
Q 20.21875 56 33.015625 56 
Q 37.15625 56 41.109375 55.140625 
Q 45.0625 54.296875 48.78125 52.59375 
z
" id="DejaVuSans-99"/>
      <path id="DejaVuSans-32"/>
      <path d="M 34.1875 63.1875 
L 20.796875 26.90625 
L 47.609375 26.90625 
z
M 28.609375 72.90625 
L 39.796875 72.90625 
L 67.578125 0 
L 57.328125 0 
L 50.6875 18.703125 
L 17.828125 18.703125 
L 11.1875 0 
L 0.78125 0 
z
" id="DejaVuSans-65"/>
      <path d="M 8.6875 72.90625 
L 18.609375 72.90625 
L 18.609375 28.609375 
Q 18.609375 16.890625 22.84375 11.734375 
Q 27.09375 6.59375 36.625 6.59375 
Q 46.09375 6.59375 50.34375 11.734375 
Q 54.59375 16.890625 54.59375 28.609375 
L 54.59375 72.90625 
L 64.5 72.90625 
L 64.5 27.390625 
Q 64.5 13.140625 57.4375 5.859375 
Q 50.390625 -1.421875 36.625 -1.421875 
Q 22.796875 -1.421875 15.734375 5.859375 
Q 8.6875 13.140625 8.6875 27.390625 
z
" id="DejaVuSans-85"/>
      <path d="M 64.40625 67.28125 
L 64.40625 56.890625 
Q 59.421875 61.53125 53.78125 63.8125 
Q 48.140625 66.109375 41.796875 66.109375 
Q 29.296875 66.109375 22.65625 58.46875 
Q 16.015625 50.828125 16.015625 36.375 
Q 16.015625 21.96875 22.65625 14.328125 
Q 29.296875 6.6875 41.796875 6.6875 
Q 48.140625 6.6875 53.78125 8.984375 
Q 59.421875 11.28125 64.40625 15.921875 
L 64.40625 5.609375 
Q 59.234375 2.09375 53.4375 0.328125 
Q 47.65625 -1.421875 41.21875 -1.421875 
Q 24.65625 -1.421875 15.125 8.703125 
Q 5.609375 18.84375 5.609375 36.375 
Q 5.609375 53.953125 15.125 64.078125 
Q 24.65625 74.21875 41.21875 74.21875 
Q 47.75 74.21875 53.53125 72.484375 
Q 59.328125 70.75 64.40625 67.28125 
z
" id="DejaVuSans-67"/>
      <path d="M 11.71875 12.40625 
L 22.015625 12.40625 
L 22.015625 0 
L 11.71875 0 
z
M 11.71875 51.703125 
L 22.015625 51.703125 
L 22.015625 39.3125 
L 11.71875 39.3125 
z
" id="DejaVuSans-58"/>
     </defs>
     <g transform="translate(265.8625 42.6825)scale(0.1 -0.1)">
      <use xlink:href="#DejaVuSans-78"/>
      <use x="74.804688" xlink:href="#DejaVuSans-111"/>
      <use x="135.986328" xlink:href="#DejaVuSans-100"/>
      <use x="199.462891" xlink:href="#DejaVuSans-101"/>
      <use x="260.986328" xlink:href="#DejaVuSans-50"/>
      <use x="324.609375" xlink:href="#DejaVuSans-86"/>
      <use x="385.267578" xlink:href="#DejaVuSans-101"/>
      <use x="446.791016" xlink:href="#DejaVuSans-99"/>
      <use x="501.771484" xlink:href="#DejaVuSans-44"/>
      <use x="533.558594" xlink:href="#DejaVuSans-32"/>
      <use x="565.345703" xlink:href="#DejaVuSans-65"/>
      <use x="633.753906" xlink:href="#DejaVuSans-85"/>
      <use x="706.947266" xlink:href="#DejaVuSans-67"/>
      <use x="776.771484" xlink:href="#DejaVuSans-58"/>
      <use x="810.462891" xlink:href="#DejaVuSans-48"/>
      <use x="874.085938" xlink:href="#DejaVuSans-46"/>
      <use x="905.873047" xlink:href="#DejaVuSans-49"/>
      <use x="969.496094" xlink:href="#DejaVuSans-50"/>
     </g>
    </g>
    <g id="line2d_21">
     <path d="M 237.8625 53.860625 
L 257.8625 53.860625 
" style="fill:none;stroke:#008000;stroke-linecap:square;stroke-width:1.5;"/>
    </g>
    <g id="line2d_22"/>
    <g id="text_17">
     <!-- Struc2Vec, AUC:0.01 -->
     <defs>
      <path d="M 53.515625 70.515625 
L 53.515625 60.890625 
Q 47.90625 63.578125 42.921875 64.890625 
Q 37.9375 66.21875 33.296875 66.21875 
Q 25.25 66.21875 20.875 63.09375 
Q 16.5 59.96875 16.5 54.203125 
Q 16.5 49.359375 19.40625 46.890625 
Q 22.3125 44.4375 30.421875 42.921875 
L 36.375 41.703125 
Q 47.40625 39.59375 52.65625 34.296875 
Q 57.90625 29 57.90625 20.125 
Q 57.90625 9.515625 50.796875 4.046875 
Q 43.703125 -1.421875 29.984375 -1.421875 
Q 24.8125 -1.421875 18.96875 -0.25 
Q 13.140625 0.921875 6.890625 3.21875 
L 6.890625 13.375 
Q 12.890625 10.015625 18.65625 8.296875 
Q 24.421875 6.59375 29.984375 6.59375 
Q 38.421875 6.59375 43.015625 9.90625 
Q 47.609375 13.234375 47.609375 19.390625 
Q 47.609375 24.75 44.3125 27.78125 
Q 41.015625 30.8125 33.5 32.328125 
L 27.484375 33.5 
Q 16.453125 35.6875 11.515625 40.375 
Q 6.59375 45.0625 6.59375 53.421875 
Q 6.59375 63.09375 13.40625 68.65625 
Q 20.21875 74.21875 32.171875 74.21875 
Q 37.3125 74.21875 42.625 73.28125 
Q 47.953125 72.359375 53.515625 70.515625 
z
" id="DejaVuSans-83"/>
      <path d="M 18.3125 70.21875 
L 18.3125 54.6875 
L 36.8125 54.6875 
L 36.8125 47.703125 
L 18.3125 47.703125 
L 18.3125 18.015625 
Q 18.3125 11.328125 20.140625 9.421875 
Q 21.96875 7.515625 27.59375 7.515625 
L 36.8125 7.515625 
L 36.8125 0 
L 27.59375 0 
Q 17.1875 0 13.234375 3.875 
Q 9.28125 7.765625 9.28125 18.015625 
L 9.28125 47.703125 
L 2.6875 47.703125 
L 2.6875 54.6875 
L 9.28125 54.6875 
L 9.28125 70.21875 
z
" id="DejaVuSans-116"/>
      <path d="M 41.109375 46.296875 
Q 39.59375 47.171875 37.8125 47.578125 
Q 36.03125 48 33.890625 48 
Q 26.265625 48 22.1875 43.046875 
Q 18.109375 38.09375 18.109375 28.8125 
L 18.109375 0 
L 9.078125 0 
L 9.078125 54.6875 
L 18.109375 54.6875 
L 18.109375 46.1875 
Q 20.953125 51.171875 25.484375 53.578125 
Q 30.03125 56 36.53125 56 
Q 37.453125 56 38.578125 55.875 
Q 39.703125 55.765625 41.0625 55.515625 
z
" id="DejaVuSans-114"/>
      <path d="M 8.5 21.578125 
L 8.5 54.6875 
L 17.484375 54.6875 
L 17.484375 21.921875 
Q 17.484375 14.15625 20.5 10.265625 
Q 23.53125 6.390625 29.59375 6.390625 
Q 36.859375 6.390625 41.078125 11.03125 
Q 45.3125 15.671875 45.3125 23.6875 
L 45.3125 54.6875 
L 54.296875 54.6875 
L 54.296875 0 
L 45.3125 0 
L 45.3125 8.40625 
Q 42.046875 3.421875 37.71875 1 
Q 33.40625 -1.421875 27.6875 -1.421875 
Q 18.265625 -1.421875 13.375 4.4375 
Q 8.5 10.296875 8.5 21.578125 
z
M 31.109375 56 
z
" id="DejaVuSans-117"/>
     </defs>
     <g transform="translate(265.8625 57.360625)scale(0.1 -0.1)">
      <use xlink:href="#DejaVuSans-83"/>
      <use x="63.476562" xlink:href="#DejaVuSans-116"/>
      <use x="102.685547" xlink:href="#DejaVuSans-114"/>
      <use x="143.798828" xlink:href="#DejaVuSans-117"/>
      <use x="207.177734" xlink:href="#DejaVuSans-99"/>
      <use x="262.158203" xlink:href="#DejaVuSans-50"/>
      <use x="325.78125" xlink:href="#DejaVuSans-86"/>
      <use x="386.439453" xlink:href="#DejaVuSans-101"/>
      <use x="447.962891" xlink:href="#DejaVuSans-99"/>
      <use x="502.943359" xlink:href="#DejaVuSans-44"/>
      <use x="534.730469" xlink:href="#DejaVuSans-32"/>
      <use x="566.517578" xlink:href="#DejaVuSans-65"/>
      <use x="634.925781" xlink:href="#DejaVuSans-85"/>
      <use x="708.119141" xlink:href="#DejaVuSans-67"/>
      <use x="777.943359" xlink:href="#DejaVuSans-58"/>
      <use x="811.634766" xlink:href="#DejaVuSans-48"/>
      <use x="875.257812" xlink:href="#DejaVuSans-46"/>
      <use x="907.044922" xlink:href="#DejaVuSans-48"/>
      <use x="970.667969" xlink:href="#DejaVuSans-49"/>
     </g>
    </g>
    <g id="line2d_23">
     <path d="M 237.8625 68.53875 
L 257.8625 68.53875 
" style="fill:none;stroke:#0000ff;stroke-linecap:square;stroke-width:1.5;"/>
    </g>
    <g id="line2d_24"/>
    <g id="text_18">
     <!-- Graph-SAGE, AUC:0.07 -->
     <defs>
      <path d="M 59.515625 10.40625 
L 59.515625 29.984375 
L 43.40625 29.984375 
L 43.40625 38.09375 
L 69.28125 38.09375 
L 69.28125 6.78125 
Q 63.578125 2.734375 56.6875 0.65625 
Q 49.8125 -1.421875 42 -1.421875 
Q 24.90625 -1.421875 15.25 8.5625 
Q 5.609375 18.5625 5.609375 36.375 
Q 5.609375 54.25 15.25 64.234375 
Q 24.90625 74.21875 42 74.21875 
Q 49.125 74.21875 55.546875 72.453125 
Q 61.96875 70.703125 67.390625 67.28125 
L 67.390625 56.78125 
Q 61.921875 61.421875 55.765625 63.765625 
Q 49.609375 66.109375 42.828125 66.109375 
Q 29.4375 66.109375 22.71875 58.640625 
Q 16.015625 51.171875 16.015625 36.375 
Q 16.015625 21.625 22.71875 14.15625 
Q 29.4375 6.6875 42.828125 6.6875 
Q 48.046875 6.6875 52.140625 7.59375 
Q 56.25 8.5 59.515625 10.40625 
z
" id="DejaVuSans-71"/>
      <path d="M 34.28125 27.484375 
Q 23.390625 27.484375 19.1875 25 
Q 14.984375 22.515625 14.984375 16.5 
Q 14.984375 11.71875 18.140625 8.90625 
Q 21.296875 6.109375 26.703125 6.109375 
Q 34.1875 6.109375 38.703125 11.40625 
Q 43.21875 16.703125 43.21875 25.484375 
L 43.21875 27.484375 
z
M 52.203125 31.203125 
L 52.203125 0 
L 43.21875 0 
L 43.21875 8.296875 
Q 40.140625 3.328125 35.546875 0.953125 
Q 30.953125 -1.421875 24.3125 -1.421875 
Q 15.921875 -1.421875 10.953125 3.296875 
Q 6 8.015625 6 15.921875 
Q 6 25.140625 12.171875 29.828125 
Q 18.359375 34.515625 30.609375 34.515625 
L 43.21875 34.515625 
L 43.21875 35.40625 
Q 43.21875 41.609375 39.140625 45 
Q 35.0625 48.390625 27.6875 48.390625 
Q 23 48.390625 18.546875 47.265625 
Q 14.109375 46.140625 10.015625 43.890625 
L 10.015625 52.203125 
Q 14.9375 54.109375 19.578125 55.046875 
Q 24.21875 56 28.609375 56 
Q 40.484375 56 46.34375 49.84375 
Q 52.203125 43.703125 52.203125 31.203125 
z
" id="DejaVuSans-97"/>
      <path d="M 18.109375 8.203125 
L 18.109375 -20.796875 
L 9.078125 -20.796875 
L 9.078125 54.6875 
L 18.109375 54.6875 
L 18.109375 46.390625 
Q 20.953125 51.265625 25.265625 53.625 
Q 29.59375 56 35.59375 56 
Q 45.5625 56 51.78125 48.09375 
Q 58.015625 40.1875 58.015625 27.296875 
Q 58.015625 14.40625 51.78125 6.484375 
Q 45.5625 -1.421875 35.59375 -1.421875 
Q 29.59375 -1.421875 25.265625 0.953125 
Q 20.953125 3.328125 18.109375 8.203125 
z
M 48.6875 27.296875 
Q 48.6875 37.203125 44.609375 42.84375 
Q 40.53125 48.484375 33.40625 48.484375 
Q 26.265625 48.484375 22.1875 42.84375 
Q 18.109375 37.203125 18.109375 27.296875 
Q 18.109375 17.390625 22.1875 11.75 
Q 26.265625 6.109375 33.40625 6.109375 
Q 40.53125 6.109375 44.609375 11.75 
Q 48.6875 17.390625 48.6875 27.296875 
z
" id="DejaVuSans-112"/>
      <path d="M 54.890625 33.015625 
L 54.890625 0 
L 45.90625 0 
L 45.90625 32.71875 
Q 45.90625 40.484375 42.875 44.328125 
Q 39.84375 48.1875 33.796875 48.1875 
Q 26.515625 48.1875 22.3125 43.546875 
Q 18.109375 38.921875 18.109375 30.90625 
L 18.109375 0 
L 9.078125 0 
L 9.078125 75.984375 
L 18.109375 75.984375 
L 18.109375 46.1875 
Q 21.34375 51.125 25.703125 53.5625 
Q 30.078125 56 35.796875 56 
Q 45.21875 56 50.046875 50.171875 
Q 54.890625 44.34375 54.890625 33.015625 
z
" id="DejaVuSans-104"/>
      <path d="M 4.890625 31.390625 
L 31.203125 31.390625 
L 31.203125 23.390625 
L 4.890625 23.390625 
z
" id="DejaVuSans-45"/>
      <path d="M 9.8125 72.90625 
L 55.90625 72.90625 
L 55.90625 64.59375 
L 19.671875 64.59375 
L 19.671875 43.015625 
L 54.390625 43.015625 
L 54.390625 34.71875 
L 19.671875 34.71875 
L 19.671875 8.296875 
L 56.78125 8.296875 
L 56.78125 0 
L 9.8125 0 
z
" id="DejaVuSans-69"/>
      <path d="M 8.203125 72.90625 
L 55.078125 72.90625 
L 55.078125 68.703125 
L 28.609375 0 
L 18.3125 0 
L 43.21875 64.59375 
L 8.203125 64.59375 
z
" id="DejaVuSans-55"/>
     </defs>
     <g transform="translate(265.8625 72.03875)scale(0.1 -0.1)">
      <use xlink:href="#DejaVuSans-71"/>
      <use x="77.490234" xlink:href="#DejaVuSans-114"/>
      <use x="118.603516" xlink:href="#DejaVuSans-97"/>
      <use x="179.882812" xlink:href="#DejaVuSans-112"/>
      <use x="243.359375" xlink:href="#DejaVuSans-104"/>
      <use x="306.738281" xlink:href="#DejaVuSans-45"/>
      <use x="342.822266" xlink:href="#DejaVuSans-83"/>
      <use x="408.173828" xlink:href="#DejaVuSans-65"/>
      <use x="474.832031" xlink:href="#DejaVuSans-71"/>
      <use x="552.322266" xlink:href="#DejaVuSans-69"/>
      <use x="615.505859" xlink:href="#DejaVuSans-44"/>
      <use x="647.292969" xlink:href="#DejaVuSans-32"/>
      <use x="679.080078" xlink:href="#DejaVuSans-65"/>
      <use x="747.488281" xlink:href="#DejaVuSans-85"/>
      <use x="820.681641" xlink:href="#DejaVuSans-67"/>
      <use x="890.505859" xlink:href="#DejaVuSans-58"/>
      <use x="924.197266" xlink:href="#DejaVuSans-48"/>
      <use x="987.820312" xlink:href="#DejaVuSans-46"/>
      <use x="1019.607422" xlink:href="#DejaVuSans-48"/>
      <use x="1083.230469" xlink:href="#DejaVuSans-55"/>
     </g>
    </g>
    <g id="line2d_25">
     <path d="M 237.8625 83.216875 
L 257.8625 83.216875 
" style="fill:none;stroke:#bfbf00;stroke-linecap:square;stroke-width:1.5;"/>
    </g>
    <g id="line2d_26"/>
    <g id="text_19">
     <!-- Spectral-GCN, AUC:0.03 -->
     <defs>
      <path d="M 9.421875 75.984375 
L 18.40625 75.984375 
L 18.40625 0 
L 9.421875 0 
z
" id="DejaVuSans-108"/>
     </defs>
     <g transform="translate(265.8625 86.716875)scale(0.1 -0.1)">
      <use xlink:href="#DejaVuSans-83"/>
      <use x="63.476562" xlink:href="#DejaVuSans-112"/>
      <use x="126.953125" xlink:href="#DejaVuSans-101"/>
      <use x="188.476562" xlink:href="#DejaVuSans-99"/>
      <use x="243.457031" xlink:href="#DejaVuSans-116"/>
      <use x="282.666016" xlink:href="#DejaVuSans-114"/>
      <use x="323.779297" xlink:href="#DejaVuSans-97"/>
      <use x="385.058594" xlink:href="#DejaVuSans-108"/>
      <use x="412.841797" xlink:href="#DejaVuSans-45"/>
      <use x="452.550781" xlink:href="#DejaVuSans-71"/>
      <use x="530.041016" xlink:href="#DejaVuSans-67"/>
      <use x="599.865234" xlink:href="#DejaVuSans-78"/>
      <use x="674.669922" xlink:href="#DejaVuSans-44"/>
      <use x="706.457031" xlink:href="#DejaVuSans-32"/>
      <use x="738.244141" xlink:href="#DejaVuSans-65"/>
      <use x="806.652344" xlink:href="#DejaVuSans-85"/>
      <use x="879.845703" xlink:href="#DejaVuSans-67"/>
      <use x="949.669922" xlink:href="#DejaVuSans-58"/>
      <use x="983.361328" xlink:href="#DejaVuSans-48"/>
      <use x="1046.984375" xlink:href="#DejaVuSans-46"/>
      <use x="1078.771484" xlink:href="#DejaVuSans-48"/>
      <use x="1142.394531" xlink:href="#DejaVuSans-51"/>
     </g>
    </g>
    <g id="line2d_27">
     <path d="M 237.8625 97.895 
L 257.8625 97.895 
" style="fill:none;stroke:#bf00bf;stroke-linecap:square;stroke-width:1.5;"/>
    </g>
    <g id="line2d_28"/>
    <g id="text_20">
     <!-- Relational-GCN, AUC:0.14 -->
     <defs>
      <path d="M 44.390625 34.1875 
Q 47.5625 33.109375 50.5625 29.59375 
Q 53.5625 26.078125 56.59375 19.921875 
L 66.609375 0 
L 56 0 
L 46.6875 18.703125 
Q 43.0625 26.03125 39.671875 28.421875 
Q 36.28125 30.8125 30.421875 30.8125 
L 19.671875 30.8125 
L 19.671875 0 
L 9.8125 0 
L 9.8125 72.90625 
L 32.078125 72.90625 
Q 44.578125 72.90625 50.734375 67.671875 
Q 56.890625 62.453125 56.890625 51.90625 
Q 56.890625 45.015625 53.6875 40.46875 
Q 50.484375 35.9375 44.390625 34.1875 
z
M 19.671875 64.796875 
L 19.671875 38.921875 
L 32.078125 38.921875 
Q 39.203125 38.921875 42.84375 42.21875 
Q 46.484375 45.515625 46.484375 51.90625 
Q 46.484375 58.296875 42.84375 61.546875 
Q 39.203125 64.796875 32.078125 64.796875 
z
" id="DejaVuSans-82"/>
      <path d="M 9.421875 54.6875 
L 18.40625 54.6875 
L 18.40625 0 
L 9.421875 0 
z
M 9.421875 75.984375 
L 18.40625 75.984375 
L 18.40625 64.59375 
L 9.421875 64.59375 
z
" id="DejaVuSans-105"/>
      <path d="M 54.890625 33.015625 
L 54.890625 0 
L 45.90625 0 
L 45.90625 32.71875 
Q 45.90625 40.484375 42.875 44.328125 
Q 39.84375 48.1875 33.796875 48.1875 
Q 26.515625 48.1875 22.3125 43.546875 
Q 18.109375 38.921875 18.109375 30.90625 
L 18.109375 0 
L 9.078125 0 
L 9.078125 54.6875 
L 18.109375 54.6875 
L 18.109375 46.1875 
Q 21.34375 51.125 25.703125 53.5625 
Q 30.078125 56 35.796875 56 
Q 45.21875 56 50.046875 50.171875 
Q 54.890625 44.34375 54.890625 33.015625 
z
" id="DejaVuSans-110"/>
     </defs>
     <g transform="translate(265.8625 101.395)scale(0.1 -0.1)">
      <use xlink:href="#DejaVuSans-82"/>
      <use x="64.982422" xlink:href="#DejaVuSans-101"/>
      <use x="126.505859" xlink:href="#DejaVuSans-108"/>
      <use x="154.289062" xlink:href="#DejaVuSans-97"/>
      <use x="215.568359" xlink:href="#DejaVuSans-116"/>
      <use x="254.777344" xlink:href="#DejaVuSans-105"/>
      <use x="282.560547" xlink:href="#DejaVuSans-111"/>
      <use x="343.742188" xlink:href="#DejaVuSans-110"/>
      <use x="407.121094" xlink:href="#DejaVuSans-97"/>
      <use x="468.400391" xlink:href="#DejaVuSans-108"/>
      <use x="496.183594" xlink:href="#DejaVuSans-45"/>
      <use x="535.892578" xlink:href="#DejaVuSans-71"/>
      <use x="613.382812" xlink:href="#DejaVuSans-67"/>
      <use x="683.207031" xlink:href="#DejaVuSans-78"/>
      <use x="758.011719" xlink:href="#DejaVuSans-44"/>
      <use x="789.798828" xlink:href="#DejaVuSans-32"/>
      <use x="821.585938" xlink:href="#DejaVuSans-65"/>
      <use x="889.994141" xlink:href="#DejaVuSans-85"/>
      <use x="963.1875" xlink:href="#DejaVuSans-67"/>
      <use x="1033.011719" xlink:href="#DejaVuSans-58"/>
      <use x="1066.703125" xlink:href="#DejaVuSans-48"/>
      <use x="1130.326172" xlink:href="#DejaVuSans-46"/>
      <use x="1162.113281" xlink:href="#DejaVuSans-49"/>
      <use x="1225.736328" xlink:href="#DejaVuSans-52"/>
     </g>
    </g>
    <g id="line2d_29">
     <path d="M 237.8625 112.573125 
L 257.8625 112.573125 
" style="fill:none;stroke:#00bfbf;stroke-linecap:square;stroke-width:1.5;"/>
    </g>
    <g id="line2d_30"/>
    <g id="text_21">
     <!-- GAT, AUC:0.04 -->
     <defs>
      <path d="M -0.296875 72.90625 
L 61.375 72.90625 
L 61.375 64.59375 
L 35.5 64.59375 
L 35.5 0 
L 25.59375 0 
L 25.59375 64.59375 
L -0.296875 64.59375 
z
" id="DejaVuSans-84"/>
     </defs>
     <g transform="translate(265.8625 116.073125)scale(0.1 -0.1)">
      <use xlink:href="#DejaVuSans-71"/>
      <use x="77.490234" xlink:href="#DejaVuSans-65"/>
      <use x="138.148438" xlink:href="#DejaVuSans-84"/>
      <use x="199.232422" xlink:href="#DejaVuSans-44"/>
      <use x="231.019531" xlink:href="#DejaVuSans-32"/>
      <use x="262.806641" xlink:href="#DejaVuSans-65"/>
      <use x="331.214844" xlink:href="#DejaVuSans-85"/>
      <use x="404.408203" xlink:href="#DejaVuSans-67"/>
      <use x="474.232422" xlink:href="#DejaVuSans-58"/>
      <use x="507.923828" xlink:href="#DejaVuSans-48"/>
      <use x="571.546875" xlink:href="#DejaVuSans-46"/>
      <use x="603.333984" xlink:href="#DejaVuSans-48"/>
      <use x="666.957031" xlink:href="#DejaVuSans-52"/>
     </g>
    </g>
    <g id="line2d_31">
     <path d="M 237.8625 127.25125 
L 257.8625 127.25125 
" style="fill:none;stroke:#ffa500;stroke-linecap:square;stroke-width:1.5;"/>
    </g>
    <g id="line2d_32"/>
    <g id="text_22">
     <!-- Improved R-GCN, AUC:0.24 -->
     <defs>
      <path d="M 9.8125 72.90625 
L 19.671875 72.90625 
L 19.671875 0 
L 9.8125 0 
z
" id="DejaVuSans-73"/>
      <path d="M 52 44.1875 
Q 55.375 50.25 60.0625 53.125 
Q 64.75 56 71.09375 56 
Q 79.640625 56 84.28125 50.015625 
Q 88.921875 44.046875 88.921875 33.015625 
L 88.921875 0 
L 79.890625 0 
L 79.890625 32.71875 
Q 79.890625 40.578125 77.09375 44.375 
Q 74.3125 48.1875 68.609375 48.1875 
Q 61.625 48.1875 57.5625 43.546875 
Q 53.515625 38.921875 53.515625 30.90625 
L 53.515625 0 
L 44.484375 0 
L 44.484375 32.71875 
Q 44.484375 40.625 41.703125 44.40625 
Q 38.921875 48.1875 33.109375 48.1875 
Q 26.21875 48.1875 22.15625 43.53125 
Q 18.109375 38.875 18.109375 30.90625 
L 18.109375 0 
L 9.078125 0 
L 9.078125 54.6875 
L 18.109375 54.6875 
L 18.109375 46.1875 
Q 21.1875 51.21875 25.484375 53.609375 
Q 29.78125 56 35.6875 56 
Q 41.65625 56 45.828125 52.96875 
Q 50 49.953125 52 44.1875 
z
" id="DejaVuSans-109"/>
      <path d="M 2.984375 54.6875 
L 12.5 54.6875 
L 29.59375 8.796875 
L 46.6875 54.6875 
L 56.203125 54.6875 
L 35.6875 0 
L 23.484375 0 
z
" id="DejaVuSans-118"/>
     </defs>
     <g transform="translate(265.8625 130.75125)scale(0.1 -0.1)">
      <use xlink:href="#DejaVuSans-73"/>
      <use x="29.492188" xlink:href="#DejaVuSans-109"/>
      <use x="126.904297" xlink:href="#DejaVuSans-112"/>
      <use x="190.380859" xlink:href="#DejaVuSans-114"/>
      <use x="229.244141" xlink:href="#DejaVuSans-111"/>
      <use x="290.425781" xlink:href="#DejaVuSans-118"/>
      <use x="349.605469" xlink:href="#DejaVuSans-101"/>
      <use x="411.128906" xlink:href="#DejaVuSans-100"/>
      <use x="474.605469" xlink:href="#DejaVuSans-32"/>
      <use x="506.392578" xlink:href="#DejaVuSans-82"/>
      <use x="571.875" xlink:href="#DejaVuSans-45"/>
      <use x="611.583984" xlink:href="#DejaVuSans-71"/>
      <use x="689.074219" xlink:href="#DejaVuSans-67"/>
      <use x="758.898438" xlink:href="#DejaVuSans-78"/>
      <use x="833.703125" xlink:href="#DejaVuSans-44"/>
      <use x="865.490234" xlink:href="#DejaVuSans-32"/>
      <use x="897.277344" xlink:href="#DejaVuSans-65"/>
      <use x="965.685547" xlink:href="#DejaVuSans-85"/>
      <use x="1038.878906" xlink:href="#DejaVuSans-67"/>
      <use x="1108.703125" xlink:href="#DejaVuSans-58"/>
      <use x="1142.394531" xlink:href="#DejaVuSans-48"/>
      <use x="1206.017578" xlink:href="#DejaVuSans-46"/>
      <use x="1237.804688" xlink:href="#DejaVuSans-50"/>
      <use x="1301.427734" xlink:href="#DejaVuSans-52"/>
     </g>
    </g>
   </g>
  </g>
 </g>
 <defs>
  <clipPath id="pade25f6064">
   <rect height="271.8" width="334.8" x="76.56875" y="26.084062"/>
  </clipPath>
 </defs>
</svg>
