<?xml version="1.0" encoding="utf-8" standalone="no"?>
<!DOCTYPE svg PUBLIC "-//W3C//DTD SVG 1.1//EN"
  "http://www.w3.org/Graphics/SVG/1.1/DTD/svg11.dtd">
<!-- Created with matplotlib (https://matplotlib.org/) -->
<svg height="353.483125pt" version="1.1" viewBox="0 0 407.11625 353.483125" width="407.11625pt" xmlns="http://www.w3.org/2000/svg" xmlns:xlink="http://www.w3.org/1999/xlink">
 <defs>
  <style type="text/css">
*{stroke-linecap:butt;stroke-linejoin:round;}
  </style>
 </defs>
 <g id="figure_1">
  <g id="patch_1">
   <path d="M 0 353.483125 
L 407.11625 353.483125 
L 407.11625 0 
L 0 0 
z
" style="fill:#ffffff;"/>
  </g>
  <g id="axes_1">
   <g id="patch_2">
    <path d="M 65.11625 299.571875 
L 399.91625 299.571875 
L 399.91625 27.771875 
L 65.11625 27.771875 
z
" style="fill:#ffffff;"/>
   </g>
   <g id="matplotlib.axis_1">
    <g id="xtick_1">
     <g id="line2d_1">
      <defs>
       <path d="M 0 0 
L 0 3.5 
" id="m228737839a" style="stroke:#000000;stroke-width:0.8;"/>
      </defs>
      <g>
       <use style="stroke:#000000;stroke-width:0.8;" x="80.334432" xlink:href="#m228737839a" y="299.571875"/>
      </g>
     </g>
     <g id="text_1">
      <!-- 0.0 -->
      <defs>
       <path d="M 31.78125 66.40625 
Q 24.171875 66.40625 20.328125 58.90625 
Q 16.5 51.421875 16.5 36.375 
Q 16.5 21.390625 20.328125 13.890625 
Q 24.171875 6.390625 31.78125 6.390625 
Q 39.453125 6.390625 43.28125 13.890625 
Q 47.125 21.390625 47.125 36.375 
Q 47.125 51.421875 43.28125 58.90625 
Q 39.453125 66.40625 31.78125 66.40625 
z
M 31.78125 74.21875 
Q 44.046875 74.21875 50.515625 64.515625 
Q 56.984375 54.828125 56.984375 36.375 
Q 56.984375 17.96875 50.515625 8.265625 
Q 44.046875 -1.421875 31.78125 -1.421875 
Q 19.53125 -1.421875 13.0625 8.265625 
Q 6.59375 17.96875 6.59375 36.375 
Q 6.59375 54.828125 13.0625 64.515625 
Q 19.53125 74.21875 31.78125 74.21875 
z
" id="DejaVuSans-48"/>
       <path d="M 10.6875 12.40625 
L 21 12.40625 
L 21 0 
L 10.6875 0 
z
" id="DejaVuSans-46"/>
      </defs>
      <g transform="translate(66.021619 320.249062)scale(0.18 -0.18)">
       <use xlink:href="#DejaVuSans-48"/>
       <use x="63.623047" xlink:href="#DejaVuSans-46"/>
       <use x="95.410156" xlink:href="#DejaVuSans-48"/>
      </g>
     </g>
    </g>
    <g id="xtick_2">
     <g id="line2d_2">
      <g>
       <use style="stroke:#000000;stroke-width:0.8;" x="141.207159" xlink:href="#m228737839a" y="299.571875"/>
      </g>
     </g>
     <g id="text_2">
      <!-- 0.2 -->
      <defs>
       <path d="M 19.1875 8.296875 
L 53.609375 8.296875 
L 53.609375 0 
L 7.328125 0 
L 7.328125 8.296875 
Q 12.9375 14.109375 22.625 23.890625 
Q 32.328125 33.6875 34.8125 36.53125 
Q 39.546875 41.84375 41.421875 45.53125 
Q 43.3125 49.21875 43.3125 52.78125 
Q 43.3125 58.59375 39.234375 62.25 
Q 35.15625 65.921875 28.609375 65.921875 
Q 23.96875 65.921875 18.8125 64.3125 
Q 13.671875 62.703125 7.8125 59.421875 
L 7.8125 69.390625 
Q 13.765625 71.78125 18.9375 73 
Q 24.125 74.21875 28.421875 74.21875 
Q 39.75 74.21875 46.484375 68.546875 
Q 53.21875 62.890625 53.21875 53.421875 
Q 53.21875 48.921875 51.53125 44.890625 
Q 49.859375 40.875 45.40625 35.40625 
Q 44.1875 33.984375 37.640625 27.21875 
Q 31.109375 20.453125 19.1875 8.296875 
z
" id="DejaVuSans-50"/>
      </defs>
      <g transform="translate(126.894347 320.249062)scale(0.18 -0.18)">
       <use xlink:href="#DejaVuSans-48"/>
       <use x="63.623047" xlink:href="#DejaVuSans-46"/>
       <use x="95.410156" xlink:href="#DejaVuSans-50"/>
      </g>
     </g>
    </g>
    <g id="xtick_3">
     <g id="line2d_3">
      <g>
       <use style="stroke:#000000;stroke-width:0.8;" x="202.079886" xlink:href="#m228737839a" y="299.571875"/>
      </g>
     </g>
     <g id="text_3">
      <!-- 0.4 -->
      <defs>
       <path d="M 37.796875 64.3125 
L 12.890625 25.390625 
L 37.796875 25.390625 
z
M 35.203125 72.90625 
L 47.609375 72.90625 
L 47.609375 25.390625 
L 58.015625 25.390625 
L 58.015625 17.1875 
L 47.609375 17.1875 
L 47.609375 0 
L 37.796875 0 
L 37.796875 17.1875 
L 4.890625 17.1875 
L 4.890625 26.703125 
z
" id="DejaVuSans-52"/>
      </defs>
      <g transform="translate(187.767074 320.249062)scale(0.18 -0.18)">
       <use xlink:href="#DejaVuSans-48"/>
       <use x="63.623047" xlink:href="#DejaVuSans-46"/>
       <use x="95.410156" xlink:href="#DejaVuSans-52"/>
      </g>
     </g>
    </g>
    <g id="xtick_4">
     <g id="line2d_4">
      <g>
       <use style="stroke:#000000;stroke-width:0.8;" x="262.952614" xlink:href="#m228737839a" y="299.571875"/>
      </g>
     </g>
     <g id="text_4">
      <!-- 0.6 -->
      <defs>
       <path d="M 33.015625 40.375 
Q 26.375 40.375 22.484375 35.828125 
Q 18.609375 31.296875 18.609375 23.390625 
Q 18.609375 15.53125 22.484375 10.953125 
Q 26.375 6.390625 33.015625 6.390625 
Q 39.65625 6.390625 43.53125 10.953125 
Q 47.40625 15.53125 47.40625 23.390625 
Q 47.40625 31.296875 43.53125 35.828125 
Q 39.65625 40.375 33.015625 40.375 
z
M 52.59375 71.296875 
L 52.59375 62.3125 
Q 48.875 64.0625 45.09375 64.984375 
Q 41.3125 65.921875 37.59375 65.921875 
Q 27.828125 65.921875 22.671875 59.328125 
Q 17.53125 52.734375 16.796875 39.40625 
Q 19.671875 43.65625 24.015625 45.921875 
Q 28.375 48.1875 33.59375 48.1875 
Q 44.578125 48.1875 50.953125 41.515625 
Q 57.328125 34.859375 57.328125 23.390625 
Q 57.328125 12.15625 50.6875 5.359375 
Q 44.046875 -1.421875 33.015625 -1.421875 
Q 20.359375 -1.421875 13.671875 8.265625 
Q 6.984375 17.96875 6.984375 36.375 
Q 6.984375 53.65625 15.1875 63.9375 
Q 23.390625 74.21875 37.203125 74.21875 
Q 40.921875 74.21875 44.703125 73.484375 
Q 48.484375 72.75 52.59375 71.296875 
z
" id="DejaVuSans-54"/>
      </defs>
      <g transform="translate(248.639801 320.249062)scale(0.18 -0.18)">
       <use xlink:href="#DejaVuSans-48"/>
       <use x="63.623047" xlink:href="#DejaVuSans-46"/>
       <use x="95.410156" xlink:href="#DejaVuSans-54"/>
      </g>
     </g>
    </g>
    <g id="xtick_5">
     <g id="line2d_5">
      <g>
       <use style="stroke:#000000;stroke-width:0.8;" x="323.825341" xlink:href="#m228737839a" y="299.571875"/>
      </g>
     </g>
     <g id="text_5">
      <!-- 0.8 -->
      <defs>
       <path d="M 31.78125 34.625 
Q 24.75 34.625 20.71875 30.859375 
Q 16.703125 27.09375 16.703125 20.515625 
Q 16.703125 13.921875 20.71875 10.15625 
Q 24.75 6.390625 31.78125 6.390625 
Q 38.8125 6.390625 42.859375 10.171875 
Q 46.921875 13.96875 46.921875 20.515625 
Q 46.921875 27.09375 42.890625 30.859375 
Q 38.875 34.625 31.78125 34.625 
z
M 21.921875 38.8125 
Q 15.578125 40.375 12.03125 44.71875 
Q 8.5 49.078125 8.5 55.328125 
Q 8.5 64.0625 14.71875 69.140625 
Q 20.953125 74.21875 31.78125 74.21875 
Q 42.671875 74.21875 48.875 69.140625 
Q 55.078125 64.0625 55.078125 55.328125 
Q 55.078125 49.078125 51.53125 44.71875 
Q 48 40.375 41.703125 38.8125 
Q 48.828125 37.15625 52.796875 32.3125 
Q 56.78125 27.484375 56.78125 20.515625 
Q 56.78125 9.90625 50.3125 4.234375 
Q 43.84375 -1.421875 31.78125 -1.421875 
Q 19.734375 -1.421875 13.25 4.234375 
Q 6.78125 9.90625 6.78125 20.515625 
Q 6.78125 27.484375 10.78125 32.3125 
Q 14.796875 37.15625 21.921875 38.8125 
z
M 18.3125 54.390625 
Q 18.3125 48.734375 21.84375 45.5625 
Q 25.390625 42.390625 31.78125 42.390625 
Q 38.140625 42.390625 41.71875 45.5625 
Q 45.3125 48.734375 45.3125 54.390625 
Q 45.3125 60.0625 41.71875 63.234375 
Q 38.140625 66.40625 31.78125 66.40625 
Q 25.390625 66.40625 21.84375 63.234375 
Q 18.3125 60.0625 18.3125 54.390625 
z
" id="DejaVuSans-56"/>
      </defs>
      <g transform="translate(309.512528 320.249062)scale(0.18 -0.18)">
       <use xlink:href="#DejaVuSans-48"/>
       <use x="63.623047" xlink:href="#DejaVuSans-46"/>
       <use x="95.410156" xlink:href="#DejaVuSans-56"/>
      </g>
     </g>
    </g>
    <g id="xtick_6">
     <g id="line2d_6">
      <g>
       <use style="stroke:#000000;stroke-width:0.8;" x="384.698068" xlink:href="#m228737839a" y="299.571875"/>
      </g>
     </g>
     <g id="text_6">
      <!-- 1.0 -->
      <defs>
       <path d="M 12.40625 8.296875 
L 28.515625 8.296875 
L 28.515625 63.921875 
L 10.984375 60.40625 
L 10.984375 69.390625 
L 28.421875 72.90625 
L 38.28125 72.90625 
L 38.28125 8.296875 
L 54.390625 8.296875 
L 54.390625 0 
L 12.40625 0 
z
" id="DejaVuSans-49"/>
      </defs>
      <g transform="translate(370.385256 320.249062)scale(0.18 -0.18)">
       <use xlink:href="#DejaVuSans-49"/>
       <use x="63.623047" xlink:href="#DejaVuSans-46"/>
       <use x="95.410156" xlink:href="#DejaVuSans-48"/>
      </g>
     </g>
    </g>
    <g id="text_7">
     <!-- False positive rate -->
     <defs>
      <path d="M 8.203125 0 
L 8.203125 71.578125 
L 56.5 71.578125 
L 56.5 63.140625 
L 17.671875 63.140625 
L 17.671875 40.96875 
L 51.265625 40.96875 
L 51.265625 32.515625 
L 17.671875 32.515625 
L 17.671875 0 
z
" id="ArialMT-70"/>
      <path d="M 40.4375 6.390625 
Q 35.546875 2.25 31.03125 0.53125 
Q 26.515625 -1.171875 21.34375 -1.171875 
Q 12.796875 -1.171875 8.203125 3 
Q 3.609375 7.171875 3.609375 13.671875 
Q 3.609375 17.484375 5.34375 20.625 
Q 7.078125 23.78125 9.890625 25.6875 
Q 12.703125 27.59375 16.21875 28.5625 
Q 18.796875 29.25 24.03125 29.890625 
Q 34.671875 31.15625 39.703125 32.90625 
Q 39.75 34.71875 39.75 35.203125 
Q 39.75 40.578125 37.25 42.78125 
Q 33.890625 45.75 27.25 45.75 
Q 21.046875 45.75 18.09375 43.578125 
Q 15.140625 41.40625 13.71875 35.890625 
L 5.125 37.0625 
Q 6.296875 42.578125 8.984375 45.96875 
Q 11.671875 49.359375 16.75 51.1875 
Q 21.828125 53.03125 28.515625 53.03125 
Q 35.15625 53.03125 39.296875 51.46875 
Q 43.453125 49.90625 45.40625 47.53125 
Q 47.359375 45.171875 48.140625 41.546875 
Q 48.578125 39.3125 48.578125 33.453125 
L 48.578125 21.734375 
Q 48.578125 9.46875 49.140625 6.21875 
Q 49.703125 2.984375 51.375 0 
L 42.1875 0 
Q 40.828125 2.734375 40.4375 6.390625 
z
M 39.703125 26.03125 
Q 34.90625 24.078125 25.34375 22.703125 
Q 19.921875 21.921875 17.671875 20.9375 
Q 15.4375 19.96875 14.203125 18.09375 
Q 12.984375 16.21875 12.984375 13.921875 
Q 12.984375 10.40625 15.640625 8.0625 
Q 18.3125 5.71875 23.4375 5.71875 
Q 28.515625 5.71875 32.46875 7.9375 
Q 36.421875 10.15625 38.28125 14.015625 
Q 39.703125 17 39.703125 22.796875 
z
" id="ArialMT-97"/>
      <path d="M 6.390625 0 
L 6.390625 71.578125 
L 15.1875 71.578125 
L 15.1875 0 
z
" id="ArialMT-108"/>
      <path d="M 3.078125 15.484375 
L 11.765625 16.84375 
Q 12.5 11.625 15.84375 8.84375 
Q 19.1875 6.0625 25.203125 6.0625 
Q 31.25 6.0625 34.171875 8.515625 
Q 37.109375 10.984375 37.109375 14.3125 
Q 37.109375 17.28125 34.515625 19 
Q 32.71875 20.171875 25.53125 21.96875 
Q 15.875 24.421875 12.140625 26.203125 
Q 8.40625 27.984375 6.46875 31.125 
Q 4.546875 34.28125 4.546875 38.09375 
Q 4.546875 41.546875 6.125 44.5 
Q 7.71875 47.46875 10.453125 49.421875 
Q 12.5 50.921875 16.03125 51.96875 
Q 19.578125 53.03125 23.640625 53.03125 
Q 29.734375 53.03125 34.34375 51.265625 
Q 38.96875 49.515625 41.15625 46.5 
Q 43.359375 43.5 44.1875 38.484375 
L 35.59375 37.3125 
Q 35.015625 41.3125 32.203125 43.546875 
Q 29.390625 45.796875 24.265625 45.796875 
Q 18.21875 45.796875 15.625 43.796875 
Q 13.03125 41.796875 13.03125 39.109375 
Q 13.03125 37.40625 14.109375 36.03125 
Q 15.1875 34.625 17.484375 33.6875 
Q 18.796875 33.203125 25.25 31.453125 
Q 34.578125 28.953125 38.25 27.359375 
Q 41.9375 25.78125 44.03125 22.75 
Q 46.140625 19.734375 46.140625 15.234375 
Q 46.140625 10.84375 43.578125 6.953125 
Q 41.015625 3.078125 36.171875 0.953125 
Q 31.34375 -1.171875 25.25 -1.171875 
Q 15.140625 -1.171875 9.84375 3.03125 
Q 4.546875 7.234375 3.078125 15.484375 
z
" id="ArialMT-115"/>
      <path d="M 42.09375 16.703125 
L 51.171875 15.578125 
Q 49.03125 7.625 43.21875 3.21875 
Q 37.40625 -1.171875 28.375 -1.171875 
Q 17 -1.171875 10.328125 5.828125 
Q 3.65625 12.84375 3.65625 25.484375 
Q 3.65625 38.578125 10.390625 45.796875 
Q 17.140625 53.03125 27.875 53.03125 
Q 38.28125 53.03125 44.875 45.953125 
Q 51.46875 38.875 51.46875 26.03125 
Q 51.46875 25.25 51.421875 23.6875 
L 12.75 23.6875 
Q 13.234375 15.140625 17.578125 10.59375 
Q 21.921875 6.0625 28.421875 6.0625 
Q 33.25 6.0625 36.671875 8.59375 
Q 40.09375 11.140625 42.09375 16.703125 
z
M 13.234375 30.90625 
L 42.1875 30.90625 
Q 41.609375 37.453125 38.875 40.71875 
Q 34.671875 45.796875 27.984375 45.796875 
Q 21.921875 45.796875 17.796875 41.75 
Q 13.671875 37.703125 13.234375 30.90625 
z
" id="ArialMT-101"/>
      <path id="ArialMT-32"/>
      <path d="M 6.59375 -19.875 
L 6.59375 51.859375 
L 14.59375 51.859375 
L 14.59375 45.125 
Q 17.4375 49.078125 21 51.046875 
Q 24.5625 53.03125 29.640625 53.03125 
Q 36.28125 53.03125 41.359375 49.609375 
Q 46.4375 46.1875 49.015625 39.953125 
Q 51.609375 33.734375 51.609375 26.3125 
Q 51.609375 18.359375 48.75 11.984375 
Q 45.90625 5.609375 40.453125 2.21875 
Q 35.015625 -1.171875 29 -1.171875 
Q 24.609375 -1.171875 21.109375 0.6875 
Q 17.625 2.546875 15.375 5.375 
L 15.375 -19.875 
z
M 14.546875 25.640625 
Q 14.546875 15.625 18.59375 10.84375 
Q 22.65625 6.0625 28.421875 6.0625 
Q 34.28125 6.0625 38.453125 11.015625 
Q 42.625 15.96875 42.625 26.375 
Q 42.625 36.28125 38.546875 41.203125 
Q 34.46875 46.140625 28.8125 46.140625 
Q 23.1875 46.140625 18.859375 40.890625 
Q 14.546875 35.640625 14.546875 25.640625 
z
" id="ArialMT-112"/>
      <path d="M 3.328125 25.921875 
Q 3.328125 40.328125 11.328125 47.265625 
Q 18.015625 53.03125 27.640625 53.03125 
Q 38.328125 53.03125 45.109375 46.015625 
Q 51.90625 39.015625 51.90625 26.65625 
Q 51.90625 16.65625 48.90625 10.90625 
Q 45.90625 5.171875 40.15625 2 
Q 34.421875 -1.171875 27.640625 -1.171875 
Q 16.75 -1.171875 10.03125 5.8125 
Q 3.328125 12.796875 3.328125 25.921875 
z
M 12.359375 25.921875 
Q 12.359375 15.96875 16.703125 11.015625 
Q 21.046875 6.0625 27.640625 6.0625 
Q 34.1875 6.0625 38.53125 11.03125 
Q 42.875 16.015625 42.875 26.21875 
Q 42.875 35.84375 38.5 40.796875 
Q 34.125 45.75 27.640625 45.75 
Q 21.046875 45.75 16.703125 40.8125 
Q 12.359375 35.890625 12.359375 25.921875 
z
" id="ArialMT-111"/>
      <path d="M 6.640625 61.46875 
L 6.640625 71.578125 
L 15.4375 71.578125 
L 15.4375 61.46875 
z
M 6.640625 0 
L 6.640625 51.859375 
L 15.4375 51.859375 
L 15.4375 0 
z
" id="ArialMT-105"/>
      <path d="M 25.78125 7.859375 
L 27.046875 0.09375 
Q 23.34375 -0.6875 20.40625 -0.6875 
Q 15.625 -0.6875 12.984375 0.828125 
Q 10.359375 2.34375 9.28125 4.8125 
Q 8.203125 7.28125 8.203125 15.1875 
L 8.203125 45.015625 
L 1.765625 45.015625 
L 1.765625 51.859375 
L 8.203125 51.859375 
L 8.203125 64.703125 
L 16.9375 69.96875 
L 16.9375 51.859375 
L 25.78125 51.859375 
L 25.78125 45.015625 
L 16.9375 45.015625 
L 16.9375 14.703125 
Q 16.9375 10.9375 17.40625 9.859375 
Q 17.875 8.796875 18.921875 8.15625 
Q 19.96875 7.515625 21.921875 7.515625 
Q 23.390625 7.515625 25.78125 7.859375 
z
" id="ArialMT-116"/>
      <path d="M 21 0 
L 1.265625 51.859375 
L 10.546875 51.859375 
L 21.6875 20.796875 
Q 23.484375 15.765625 25 10.359375 
Q 26.171875 14.453125 28.265625 20.21875 
L 39.796875 51.859375 
L 48.828125 51.859375 
L 29.203125 0 
z
" id="ArialMT-118"/>
      <path d="M 6.5 0 
L 6.5 51.859375 
L 14.40625 51.859375 
L 14.40625 44 
Q 17.4375 49.515625 20 51.265625 
Q 22.5625 53.03125 25.640625 53.03125 
Q 30.078125 53.03125 34.671875 50.203125 
L 31.640625 42.046875 
Q 28.421875 43.953125 25.203125 43.953125 
Q 22.3125 43.953125 20.015625 42.21875 
Q 17.71875 40.484375 16.75 37.40625 
Q 15.28125 32.71875 15.28125 27.15625 
L 15.28125 0 
z
" id="ArialMT-114"/>
     </defs>
     <g transform="translate(151.374062 342.308125)scale(0.2 -0.2)">
      <use xlink:href="#ArialMT-70"/>
      <use x="61.083984" xlink:href="#ArialMT-97"/>
      <use x="116.699219" xlink:href="#ArialMT-108"/>
      <use x="138.916016" xlink:href="#ArialMT-115"/>
      <use x="188.916016" xlink:href="#ArialMT-101"/>
      <use x="244.53125" xlink:href="#ArialMT-32"/>
      <use x="272.314453" xlink:href="#ArialMT-112"/>
      <use x="327.929688" xlink:href="#ArialMT-111"/>
      <use x="383.544922" xlink:href="#ArialMT-115"/>
      <use x="433.544922" xlink:href="#ArialMT-105"/>
      <use x="455.761719" xlink:href="#ArialMT-116"/>
      <use x="483.544922" xlink:href="#ArialMT-105"/>
      <use x="505.761719" xlink:href="#ArialMT-118"/>
      <use x="555.761719" xlink:href="#ArialMT-101"/>
      <use x="611.376953" xlink:href="#ArialMT-32"/>
      <use x="639.160156" xlink:href="#ArialMT-114"/>
      <use x="672.460938" xlink:href="#ArialMT-97"/>
      <use x="728.076172" xlink:href="#ArialMT-116"/>
      <use x="755.859375" xlink:href="#ArialMT-101"/>
     </g>
    </g>
   </g>
   <g id="matplotlib.axis_2">
    <g id="ytick_1">
     <g id="line2d_7">
      <defs>
       <path d="M 0 0 
L -3.5 0 
" id="m7ab3a6d145" style="stroke:#000000;stroke-width:0.8;"/>
      </defs>
      <g>
       <use style="stroke:#000000;stroke-width:0.8;" x="65.11625" xlink:href="#m7ab3a6d145" y="287.21733"/>
      </g>
     </g>
     <g id="text_8">
      <!-- 0.0 -->
      <g transform="translate(29.490625 294.055923)scale(0.18 -0.18)">
       <use xlink:href="#DejaVuSans-48"/>
       <use x="63.623047" xlink:href="#DejaVuSans-46"/>
       <use x="95.410156" xlink:href="#DejaVuSans-48"/>
      </g>
     </g>
    </g>
    <g id="ytick_2">
     <g id="line2d_8">
      <g>
       <use style="stroke:#000000;stroke-width:0.8;" x="65.11625" xlink:href="#m7ab3a6d145" y="237.799148"/>
      </g>
     </g>
     <g id="text_9">
      <!-- 0.2 -->
      <g transform="translate(29.490625 244.637741)scale(0.18 -0.18)">
       <use xlink:href="#DejaVuSans-48"/>
       <use x="63.623047" xlink:href="#DejaVuSans-46"/>
       <use x="95.410156" xlink:href="#DejaVuSans-50"/>
      </g>
     </g>
    </g>
    <g id="ytick_3">
     <g id="line2d_9">
      <g>
       <use style="stroke:#000000;stroke-width:0.8;" x="65.11625" xlink:href="#m7ab3a6d145" y="188.380966"/>
      </g>
     </g>
     <g id="text_10">
      <!-- 0.4 -->
      <g transform="translate(29.490625 195.21956)scale(0.18 -0.18)">
       <use xlink:href="#DejaVuSans-48"/>
       <use x="63.623047" xlink:href="#DejaVuSans-46"/>
       <use x="95.410156" xlink:href="#DejaVuSans-52"/>
      </g>
     </g>
    </g>
    <g id="ytick_4">
     <g id="line2d_10">
      <g>
       <use style="stroke:#000000;stroke-width:0.8;" x="65.11625" xlink:href="#m7ab3a6d145" y="138.962784"/>
      </g>
     </g>
     <g id="text_11">
      <!-- 0.6 -->
      <g transform="translate(29.490625 145.801378)scale(0.18 -0.18)">
       <use xlink:href="#DejaVuSans-48"/>
       <use x="63.623047" xlink:href="#DejaVuSans-46"/>
       <use x="95.410156" xlink:href="#DejaVuSans-54"/>
      </g>
     </g>
    </g>
    <g id="ytick_5">
     <g id="line2d_11">
      <g>
       <use style="stroke:#000000;stroke-width:0.8;" x="65.11625" xlink:href="#m7ab3a6d145" y="89.544602"/>
      </g>
     </g>
     <g id="text_12">
      <!-- 0.8 -->
      <g transform="translate(29.490625 96.383196)scale(0.18 -0.18)">
       <use xlink:href="#DejaVuSans-48"/>
       <use x="63.623047" xlink:href="#DejaVuSans-46"/>
       <use x="95.410156" xlink:href="#DejaVuSans-56"/>
      </g>
     </g>
    </g>
    <g id="ytick_6">
     <g id="line2d_12">
      <g>
       <use style="stroke:#000000;stroke-width:0.8;" x="65.11625" xlink:href="#m7ab3a6d145" y="40.12642"/>
      </g>
     </g>
     <g id="text_13">
      <!-- 1.0 -->
      <g transform="translate(29.490625 46.965014)scale(0.18 -0.18)">
       <use xlink:href="#DejaVuSans-49"/>
       <use x="63.623047" xlink:href="#DejaVuSans-46"/>
       <use x="95.410156" xlink:href="#DejaVuSans-48"/>
      </g>
     </g>
    </g>
    <g id="text_14">
     <!-- True positive rate -->
     <defs>
      <path d="M 25.921875 0 
L 25.921875 63.140625 
L 2.34375 63.140625 
L 2.34375 71.578125 
L 59.078125 71.578125 
L 59.078125 63.140625 
L 35.40625 63.140625 
L 35.40625 0 
z
" id="ArialMT-84"/>
      <path d="M 40.578125 0 
L 40.578125 7.625 
Q 34.515625 -1.171875 24.125 -1.171875 
Q 19.53125 -1.171875 15.546875 0.578125 
Q 11.578125 2.34375 9.640625 5 
Q 7.71875 7.671875 6.9375 11.53125 
Q 6.390625 14.109375 6.390625 19.734375 
L 6.390625 51.859375 
L 15.1875 51.859375 
L 15.1875 23.09375 
Q 15.1875 16.21875 15.71875 13.8125 
Q 16.546875 10.359375 19.234375 8.375 
Q 21.921875 6.390625 25.875 6.390625 
Q 29.828125 6.390625 33.296875 8.421875 
Q 36.765625 10.453125 38.203125 13.9375 
Q 39.65625 17.4375 39.65625 24.078125 
L 39.65625 51.859375 
L 48.4375 51.859375 
L 48.4375 0 
z
" id="ArialMT-117"/>
     </defs>
     <g transform="translate(21.515625 240.546875)rotate(-90)scale(0.2 -0.2)">
      <use xlink:href="#ArialMT-84"/>
      <use x="57.333984" xlink:href="#ArialMT-114"/>
      <use x="90.634766" xlink:href="#ArialMT-117"/>
      <use x="146.25" xlink:href="#ArialMT-101"/>
      <use x="201.865234" xlink:href="#ArialMT-32"/>
      <use x="229.648438" xlink:href="#ArialMT-112"/>
      <use x="285.263672" xlink:href="#ArialMT-111"/>
      <use x="340.878906" xlink:href="#ArialMT-115"/>
      <use x="390.878906" xlink:href="#ArialMT-105"/>
      <use x="413.095703" xlink:href="#ArialMT-116"/>
      <use x="440.878906" xlink:href="#ArialMT-105"/>
      <use x="463.095703" xlink:href="#ArialMT-118"/>
      <use x="513.095703" xlink:href="#ArialMT-101"/>
      <use x="568.710938" xlink:href="#ArialMT-32"/>
      <use x="596.494141" xlink:href="#ArialMT-114"/>
      <use x="629.794922" xlink:href="#ArialMT-97"/>
      <use x="685.410156" xlink:href="#ArialMT-116"/>
      <use x="713.193359" xlink:href="#ArialMT-101"/>
     </g>
    </g>
   </g>
   <g id="line2d_13">
    <path clip-path="url(#pe83eb750c5)" d="M 80.334432 287.21733 
L 80.457772 284.794236 
L 80.754067 277.008029 
L 81.367963 263.648708 
L 83.084068 235.653902 
L 83.228432 233.796197 
L 83.981926 224.604597 
L 84.315504 221.664577 
L 84.944537 214.686068 
L 85.172996 212.586053 
L 85.382393 210.873734 
L 86.965067 197.54672 
L 87.147834 196.351328 
L 87.464593 194.380545 
L 87.889555 191.311294 
L 88.292932 188.242042 
L 90.884189 174.155792 
L 92.59721 166.127276 
L 93.155323 164.043416 
L 93.383782 162.734946 
L 93.807342 160.828779 
L 94.203431 159.617232 
L 94.475058 158.437993 
L 94.595875 158.147222 
L 95.168564 155.901822 
L 95.836001 154.205657 
L 96.674151 151.249483 
L 96.881306 150.603325 
L 97.306547 149.407932 
L 97.743002 148.131769 
L 98.308403 146.306372 
L 98.604699 145.207903 
L 98.973317 144.206358 
L 100.41443 139.974022 
L 100.709885 139.117862 
L 100.995528 138.358626 
L 101.092799 138.116317 
L 101.394421 137.486313 
L 102.012241 136.339382 
L 103.171074 133.577055 
L 103.562958 132.995513 
L 105.120684 129.764722 
L 108.643156 123.787758 
L 108.783595 123.351601 
L 108.866569 123.351601 
L 109.706962 121.736206 
L 109.779284 121.736206 
L 110.25246 120.831584 
L 113.65804 116.114629 
L 113.85258 115.759242 
L 113.948729 115.743088 
L 114.619249 114.838466 
L 115.002724 114.580003 
L 115.307149 114.176154 
L 116.027846 113.562304 
L 116.133525 113.481534 
L 116.457573 112.948454 
L 116.670053 112.803068 
L 116.899634 112.366911 
L 117.007276 112.350757 
L 117.322353 111.882292 
L 118.730389 110.299205 
L 119.07546 109.701508 
L 119.442676 109.362275 
L 119.811574 108.813041 
L 120.462472 108.183037 
L 120.994515 107.375339 
L 121.129628 107.310723 
L 121.552627 106.713027 
L 122.275567 106.293024 
L 123.154082 105.275325 
L 123.763493 104.742244 
L 125.015672 103.546851 
L 125.173491 103.498389 
L 125.500061 103.013771 
L 125.84289 102.609922 
L 126.029581 102.609922 
L 126.550412 101.996071 
L 127.997131 100.881449 
L 128.382007 100.574523 
L 130.799187 98.571433 
L 131.02204 98.506817 
L 131.458214 98.216046 
L 131.686393 98.135276 
L 132.120324 97.602195 
L 133.073685 96.84296 
L 133.30775 96.697574 
L 133.769433 96.212955 
L 135.7695 95.066024 
L 138.0283 93.482937 
L 139.495483 92.917548 
L 140.452207 92.562161 
L 141.105067 91.964465 
L 141.744192 91.770617 
L 143.840127 90.381377 
L 144.207904 90.219838 
L 144.57484 89.880605 
L 146.175174 89.185984 
L 147.829609 87.990592 
L 148.689623 87.619051 
L 149.123836 87.16674 
L 150.981221 86.39135 
L 151.475421 85.939039 
L 153.978097 84.775954 
L 154.530603 84.549799 
L 155.646268 83.822871 
L 156.207744 83.596716 
L 157.956927 82.546709 
L 159.19509 81.965166 
L 159.84767 81.609779 
L 160.505295 81.399778 
L 163.944513 79.525919 
L 165.45935 78.847453 
L 167.028008 78.185141 
L 168.716361 77.73283 
L 172.301905 76.246666 
L 174.188723 75.794355 
L 175.189177 75.374352 
L 180.725452 73.85588 
L 181.9325 73.193568 
L 187.260499 71.61048 
L 188.687596 70.99663 
L 190.208039 70.512011 
L 196.855774 69.042001 
L 202.598923 67.475068 
L 204.734944 67.087373 
L 206.934316 66.328137 
L 211.694111 65.3589 
L 219.939376 63.323501 
L 223.029037 62.386572 
L 233.694005 60.351173 
L 237.830933 59.640399 
L 242.333116 59.026549 
L 247.168597 58.154235 
L 252.50949 56.813457 
L 265.140605 54.21267 
L 272.674985 53.211125 
L 281.454535 52.274195 
L 304.079818 49.140328 
L 319.860023 46.749542 
L 384.698068 40.12642 
L 384.698068 40.12642 
" style="fill:none;stroke:#ff0000;stroke-linecap:square;stroke-width:1.5;"/>
   </g>
   <g id="line2d_14">
    <path clip-path="url(#pe83eb750c5)" d="M 80.334432 287.21733 
L 80.493933 286.506555 
L 80.552519 286.409632 
L 80.690155 286.054245 
L 81.07391 285.343471 
L 81.122405 285.246547 
L 81.351705 284.745774 
L 81.405245 284.648851 
L 81.570913 284.180386 
L 81.82404 283.663459 
L 81.857398 283.614997 
L 82.030074 283.194995 
L 82.087258 283.114225 
L 82.360288 282.532682 
L 82.392524 282.435759 
L 83.445398 280.093435 
L 83.518841 280.044973 
L 84.084802 278.978812 
L 84.170019 278.817272 
L 86.180177 275.521865 
L 86.37668 275.166478 
L 86.847333 274.294165 
L 87.111112 273.631853 
L 87.51505 272.646461 
L 87.70062 272.501076 
L 88.325729 271.612608 
L 88.731068 270.998758 
L 88.876273 270.80491 
L 92.118988 266.411034 
L 92.219342 266.346419 
L 92.530775 265.8618 
L 92.749142 265.603337 
L 92.858466 265.554875 
L 93.174665 265.08641 
L 94.311073 263.648708 
L 94.794621 262.792548 
L 98.697484 257.12251 
L 99.182434 256.363274 
L 99.828846 255.539422 
L 100.154015 254.941726 
L 101.023 254.037104 
L 101.731362 252.938635 
L 101.899833 252.841711 
L 102.283308 252.098629 
L 102.636789 251.743242 
L 103.0354 250.935545 
L 103.226857 250.757851 
L 103.614256 250.063231 
L 105.245986 247.720907 
L 105.910339 246.783978 
L 106.568805 245.814741 
L 106.795021 245.378584 
L 107.018154 245.28166 
L 107.698766 244.344731 
L 108.162692 243.989344 
L 108.63783 243.327031 
L 109.126704 242.874721 
L 109.883562 241.889329 
L 111.162091 240.322396 
L 114.174105 236.203137 
L 114.782394 235.637748 
L 115.638484 234.313124 
L 116.853381 232.633113 
L 117.800294 231.195411 
L 126.841662 219.548408 
L 127.246721 219.031482 
L 128.068332 218.385324 
L 128.905361 217.012237 
L 131.066049 214.589144 
L 132.409332 213.345289 
L 132.855317 212.763747 
L 133.296818 212.004511 
L 133.760463 211.584508 
L 134.691118 210.550655 
L 135.17803 210.114498 
L 137.650993 207.0614 
L 138.173505 206.560628 
L 138.669667 205.930624 
L 139.180686 205.462159 
L 140.776535 203.313683 
L 142.973105 200.761358 
L 144.092693 199.679043 
L 149.413123 193.411308 
L 150.668386 192.425916 
L 151.317041 191.650527 
L 151.97775 191.182062 
L 154.607971 188.516659 
L 155.281575 188.015887 
L 160.875314 182.297386 
L 161.628248 181.489688 
L 162.361279 180.536605 
L 164.597093 178.51736 
L 165.332086 177.435045 
L 166.86206 175.787342 
L 170.831919 171.571159 
L 171.649045 170.973463 
L 175.03304 167.742672 
L 179.414406 164.221109 
L 180.310301 163.268026 
L 184.939188 159.64954 
L 185.862834 158.761072 
L 186.812831 157.597988 
L 190.674208 154.205657 
L 192.665024 152.541799 
L 194.67294 150.797172 
L 196.730472 148.600234 
L 199.869749 146.015601 
L 205.212044 141.411724 
L 214.067281 134.174752 
L 215.21406 133.060129 
L 217.531727 131.121654 
L 218.69869 130.152417 
L 219.870698 129.328565 
L 222.227889 127.39009 
L 224.596013 125.726233 
L 225.797175 124.643918 
L 229.496528 121.881591 
L 230.728244 121.251587 
L 231.982385 120.363119 
L 233.242693 119.716961 
L 236.889907 116.890019 
L 238.151056 116.050013 
L 239.386136 114.644619 
L 241.944596 113.077685 
L 245.747666 110.137665 
L 247.01302 108.732271 
L 250.832349 105.679173 
L 253.433137 104.241471 
L 257.346652 101.672992 
L 259.964259 99.928365 
L 262.586631 97.796043 
L 266.454174 95.162948 
L 269.032536 93.289089 
L 270.351712 92.594469 
L 272.983054 90.494455 
L 274.272515 89.702911 
L 275.537309 89.089061 
L 280.757946 85.890577 
L 282.030588 84.953648 
L 284.617079 83.402868 
L 287.200768 82.239783 
L 288.528072 81.2867 
L 289.794267 80.608234 
L 292.3645 78.475912 
L 296.249704 76.569745 
L 298.774245 75.552046 
L 300.009605 74.922041 
L 301.273557 74.421269 
L 303.807629 72.854335 
L 305.05252 72.288947 
L 307.587153 70.883552 
L 310.048342 69.785083 
L 311.262679 69.187387 
L 313.697799 67.685069 
L 314.962032 67.071219 
L 318.59607 64.648125 
L 320.949898 63.371963 
L 324.467605 61.869645 
L 331.404627 59.123473 
L 332.537952 58.735778 
L 335.896718 56.878073 
L 336.998367 56.554994 
L 345.57777 52.920354 
L 346.641015 52.66189 
L 347.662493 52.096502 
L 349.667045 51.43419 
L 350.690205 51.19188 
L 353.683437 49.980334 
L 354.663708 49.511869 
L 358.45052 48.510324 
L 359.382296 48.219552 
L 360.307625 47.702626 
L 361.237158 47.460316 
L 362.140622 47.072621 
L 363.042124 46.911082 
L 366.481342 45.812613 
L 368.164089 45.247224 
L 369.794697 44.681836 
L 371.366158 44.277987 
L 374.408446 43.14721 
L 376.495692 42.727207 
L 377.176023 42.355666 
L 380.064977 41.418737 
L 381.054779 41.127966 
L 384.698068 40.12642 
L 384.698068 40.12642 
" style="fill:none;stroke:#008000;stroke-linecap:square;stroke-width:1.5;"/>
   </g>
   <g id="line2d_15">
    <path clip-path="url(#pe83eb750c5)" d="M 80.334432 287.21733 
L 80.440952 285.375779 
L 81.153081 276.119562 
L 81.230178 275.29571 
L 83.037744 254.18249 
L 84.371284 240.564705 
L 84.510495 239.417774 
L 85.024978 234.103123 
L 85.182578 232.665421 
L 85.569699 229.321552 
L 85.985971 225.945375 
L 87.408731 213.167596 
L 88.009573 208.337563 
L 88.671576 202.958296 
L 89.0147 200.099046 
L 89.452085 196.674407 
L 90.088751 191.90899 
L 90.522322 189.518204 
L 90.997846 186.045104 
L 91.260059 184.300477 
L 92.082659 178.985825 
L 92.426736 176.998889 
L 93.544921 169.568069 
L 94.902707 161.410321 
L 95.192708 159.633386 
L 95.625052 157.097215 
L 98.93452 139.76402 
L 99.803023 136.242458 
L 100.119994 134.869372 
L 100.516515 132.898589 
L 100.90636 131.18627 
L 101.535944 128.553175 
L 102.775768 123.83622 
L 103.26328 122.527749 
L 104.538111 118.166181 
L 104.887093 117.067712 
L 105.228855 115.678472 
L 105.654661 114.07923 
L 105.90189 113.400764 
L 106.178678 112.560759 
L 106.438984 111.753061 
L 106.696293 110.961517 
L 107.064481 109.523815 
L 107.327375 108.699963 
L 108.520069 105.436864 
L 113.162395 92.594469 
L 113.553194 91.641386 
L 114.473868 89.41214 
L 114.777626 88.927521 
L 115.8307 86.714429 
L 116.037202 86.245964 
L 117.458872 83.322098 
L 117.573429 83.225175 
L 118.111203 82.207476 
L 118.677719 81.351316 
L 119.241784 80.269001 
L 119.477979 80.010538 
L 123.075676 73.968958 
L 123.452173 73.484339 
L 123.95031 72.563564 
L 124.841289 71.594327 
L 124.962928 71.190478 
L 125.091515 71.15817 
L 126.434998 69.591236 
L 126.567126 69.510466 
L 126.827023 69.058155 
L 127.231989 68.702768 
L 128.377689 67.232758 
L 128.667962 66.958141 
L 129.246874 66.085828 
L 129.687391 65.714287 
L 130.432484 64.777357 
L 130.72303 64.486586 
L 131.17499 64.195815 
L 132.116504 63.323501 
L 132.598431 63.065038 
L 134.04966 61.530412 
L 134.389243 61.094255 
L 134.877435 60.658098 
L 135.56491 60.189634 
L 136.084977 59.866555 
L 136.457115 59.462706 
L 136.802419 59.252704 
L 137.919786 58.445006 
L 138.300505 58.218851 
L 138.892221 57.976542 
L 139.671368 57.637309 
L 142.968031 55.60191 
L 143.422442 55.391909 
L 144.348429 54.891136 
L 144.578631 54.632673 
L 144.808834 54.600365 
L 145.264062 54.277286 
L 149.048509 52.290349 
L 149.563536 52.144964 
L 150.351809 51.854192 
L 151.172502 51.563421 
L 153.502451 50.319567 
L 153.824462 50.061103 
L 155.376353 49.673408 
L 156.713571 49.269559 
L 157.378706 49.140328 
L 158.414209 48.720325 
L 159.145544 48.510324 
L 159.886142 48.235706 
L 162.656745 47.541086 
L 164.777604 46.830312 
L 165.230926 46.636465 
L 166.157321 46.555695 
L 167.101151 46.345693 
L 169.641551 46.08723 
L 170.713014 45.861075 
L 171.249699 45.828767 
L 171.790198 45.570304 
L 176.654418 44.681836 
L 180.903901 44.164909 
L 182.449254 43.971062 
L 191.679965 43.131056 
L 193.863347 42.953363 
L 197.459409 42.791823 
L 200.101153 42.727207 
L 201.51397 42.53336 
L 209.565335 42.032587 
L 211.438829 41.822586 
L 235.430968 41.127966 
L 255.179343 40.756425 
L 262.563258 40.724117 
L 271.761822 40.514115 
L 284.200929 40.352576 
L 384.698068 40.12642 
L 384.698068 40.12642 
" style="fill:none;stroke:#0000ff;stroke-linecap:square;stroke-width:1.5;"/>
   </g>
   <g id="line2d_16">
    <path clip-path="url(#pe83eb750c5)" d="M 80.334432 287.21733 
L 80.346691 287.13656 
L 80.461656 286.215784 
L 80.553737 285.472702 
L 80.823169 283.663459 
L 81.47155 279.641124 
L 81.59101 279.027274 
L 82.211331 275.231094 
L 82.520538 273.664161 
L 83.02712 270.917988 
L 83.214415 269.722595 
L 83.494608 268.317201 
L 83.677408 267.461042 
L 84.360523 264.068711 
L 84.535287 263.487168 
L 84.836457 261.758695 
L 84.984794 261.371 
L 85.366603 259.674835 
L 89.437918 242.583949 
L 89.754344 241.372403 
L 91.811592 232.843114 
L 92.379334 230.597714 
L 92.569081 229.96771 
L 93.779482 225.767681 
L 94.42691 223.441512 
L 95.292281 220.663031 
L 95.85975 218.498401 
L 96.316886 216.463003 
L 96.667502 215.18684 
L 100.953082 200.309047 
L 101.383247 199.0975 
L 101.666574 198.241341 
L 102.098782 197.239795 
L 103.898584 192.183607 
L 104.063404 191.892836 
L 104.516725 190.535904 
L 107.59599 181.877383 
L 108.281966 179.841985 
L 109.510348 176.304268 
L 111.137975 171.603467 
L 111.694411 170.246535 
L 112.652408 167.77498 
L 113.233226 166.127276 
L 114.795743 162.58956 
L 115.384053 161.006472 
L 116.398306 158.502609 
L 118.713271 153.171804 
L 119.826552 150.425631 
L 120.929617 148.293309 
L 121.599384 146.839453 
L 122.044124 145.967139 
L 123.409811 143.334045 
L 125.129791 140.410179 
L 126.617798 136.98554 
L 129.40965 132.010121 
L 129.94579 131.202424 
L 131.268433 128.908562 
L 132.623086 126.921625 
L 134.29253 123.933144 
L 135.117582 122.608519 
L 135.682872 121.606974 
L 136.545246 120.104656 
L 137.981355 117.891564 
L 138.581925 117.116174 
L 141.271071 113.271533 
L 142.520566 111.46229 
L 142.828684 111.074595 
L 143.462353 109.846894 
L 145.409539 107.326877 
L 146.065685 106.713027 
L 148.095961 103.999162 
L 148.431458 103.659929 
L 149.119477 102.658384 
L 149.818121 102.092995 
L 151.251915 100.348368 
L 152.312481 99.411439 
L 153.044906 98.426047 
L 153.804029 97.666811 
L 155.685288 95.663721 
L 156.049117 95.098332 
L 160.787474 90.607533 
L 164.118054 87.344433 
L 164.535415 87.150586 
L 166.717707 85.212111 
L 168.481004 83.483638 
L 168.925335 83.209021 
L 170.303554 81.835935 
L 170.768181 81.254392 
L 173.603622 79.299763 
L 176.560975 77.361289 
L 177.068101 76.87667 
L 178.051297 76.149742 
L 178.555972 75.762047 
L 179.582212 75.164351 
L 182.234172 73.16126 
L 182.764046 72.983567 
L 184.951242 71.481249 
L 191.748617 67.571991 
L 192.955341 67.071219 
L 196.604527 65.019666 
L 197.251274 64.454278 
L 199.140024 63.695042 
L 200.404911 63.081192 
L 201.053292 62.887344 
L 201.705079 62.483495 
L 205.052413 61.175025 
L 208.513351 59.705015 
L 210.665812 58.865009 
L 211.404095 58.428852 
L 213.574128 57.669617 
L 214.331753 57.508077 
L 218.14535 56.102683 
L 219.681576 55.747296 
L 225.392505 53.792667 
L 226.226546 53.711897 
L 227.96369 53.114201 
L 230.561708 52.710352 
L 232.349387 52.177272 
L 237.869752 50.755723 
L 242.693651 49.673408 
L 243.666359 49.334175 
L 246.755022 48.994942 
L 247.813681 48.655709 
L 251.003552 48.025705 
L 253.170452 47.654164 
L 256.558924 47.056468 
L 257.69359 46.94339 
L 260.001609 46.523387 
L 266.010438 45.537996 
L 269.780991 45.182609 
L 280.807554 43.906446 
L 285.263402 43.583367 
L 301.769328 42.113357 
L 307.335324 41.741816 
L 319.45133 41.224889 
L 352.319068 40.594885 
L 358.459481 40.497961 
L 364.883492 40.36873 
L 380.871531 40.142574 
L 384.698068 40.12642 
L 384.698068 40.12642 
" style="fill:none;stroke:#bfbf00;stroke-linecap:square;stroke-width:1.5;"/>
   </g>
   <g id="line2d_17">
    <path clip-path="url(#pe83eb750c5)" d="M 80.334432 287.21733 
L 80.443267 281.450367 
L 81.980856 240.112394 
L 82.903709 223.425358 
L 83.528253 215.235302 
L 83.636952 213.571445 
L 84.909604 196.8521 
L 85.623504 189.259741 
L 86.239602 183.072776 
L 87.060431 175.528879 
L 87.282733 174.026561 
L 87.601747 171.361158 
L 88.239367 166.2242 
L 88.546667 163.671875 
L 89.304156 158.211838 
L 90.370034 150.91025 
L 90.526544 150.086398 
L 91.63247 143.091735 
L 92.362307 139.440941 
L 93.045695 136.420151 
L 93.259824 135.51553 
L 94.394218 130.281648 
L 94.786789 128.456251 
L 95.588002 124.660072 
L 95.84572 123.626218 
L 96.468493 121.364665 
L 96.915276 120.04004 
L 97.256085 118.941571 
L 97.596757 117.681563 
L 97.762258 117.083866 
L 98.576003 114.127692 
L 99.198367 112.269987 
L 99.562332 111.13921 
L 99.823183 110.363821 
L 100.193959 108.942272 
L 100.709258 107.262261 
L 101.605549 104.56455 
L 101.813413 104.11224 
L 102.181328 103.126848 
L 102.26115 103.062233 
L 102.545293 102.286843 
L 103.602862 99.508362 
L 103.992708 98.506817 
L 104.145813 98.248354 
L 104.549689 97.246808 
L 104.78752 96.632958 
L 108.366692 88.55598 
L 108.957862 87.457511 
L 109.263391 86.908277 
L 109.359559 86.827507 
L 109.8863 85.648268 
L 110.206132 85.115188 
L 111.075861 83.289791 
L 111.410949 82.83748 
L 112.089842 81.577471 
L 112.433784 81.060545 
L 113.15068 80.058999 
L 114.00529 78.282064 
L 114.910435 76.779746 
L 115.307637 76.117434 
L 117.281385 73.758957 
L 117.588548 73.484339 
L 117.896393 73.096644 
L 118.364562 72.402024 
L 118.856569 71.69125 
L 119.655876 70.705859 
L 120.504492 69.785083 
L 121.354334 68.67046 
L 121.529778 68.605845 
L 123.629661 66.538138 
L 124.022776 66.231213 
L 124.642824 65.633517 
L 126.183137 64.373508 
L 127.837054 63.097346 
L 129.651703 61.627336 
L 132.563015 59.688861 
L 133.833624 58.945779 
L 136.62534 57.378845 
L 138.199298 56.748841 
L 139.860161 56.070375 
L 150.142448 51.724961 
L 151.552268 51.337266 
L 156.440597 49.899564 
L 160.403894 48.930326 
L 162.68031 48.364938 
L 172.816983 46.814158 
L 174.691431 46.588003 
L 178.976194 45.844921 
L 181.423695 45.39261 
L 187.185023 44.601066 
L 190.657812 44.035678 
L 205.391179 42.985671 
L 223.40282 42.032587 
L 241.307805 41.257197 
L 384.698068 40.12642 
L 384.698068 40.12642 
" style="fill:none;stroke:#bf00bf;stroke-linecap:square;stroke-width:1.5;"/>
   </g>
   <g id="line2d_18">
    <path clip-path="url(#pe83eb750c5)" d="M 80.334432 287.21733 
L 80.442314 285.74732 
L 80.825621 282.241911 
L 83.447886 261.322538 
L 83.68885 259.610219 
L 84.06126 256.831739 
L 84.465 253.891719 
L 84.604483 253.116329 
L 85.026748 250.176309 
L 85.814885 244.958581 
L 86.50127 240.677783 
L 87.332179 235.185438 
L 89.310285 223.780745 
L 89.490769 222.924585 
L 91.213202 212.892979 
L 92.099685 208.418333 
L 92.680368 205.688314 
L 93.350271 202.021366 
L 95.400162 191.731296 
L 100.680925 168.711909 
L 100.872852 168.065751 
L 102.375434 162.072633 
L 102.753974 160.780317 
L 103.620706 157.56568 
L 104.126607 155.966438 
L 104.322484 155.433358 
L 104.930545 153.60796 
L 105.739659 150.474093 
L 106.244197 148.713312 
L 107.370964 144.303282 
L 107.690659 143.366352 
L 112.06437 130.572419 
L 112.611271 129.134717 
L 113.309915 127.067011 
L 113.900405 125.516231 
L 116.745108 118.246951 
L 117.116156 117.310022 
L 117.736477 115.759242 
L 118.874685 113.190763 
L 119.239604 112.140756 
L 123.161628 103.563005 
L 123.448768 103.09454 
L 124.151907 101.349913 
L 124.581664 100.461446 
L 124.869212 99.799133 
L 125.005563 99.637594 
L 125.278946 98.991436 
L 125.57889 98.555279 
L 126.728404 96.487573 
L 127.028484 95.712183 
L 128.367473 92.998318 
L 128.674364 92.449084 
L 131.515526 87.570589 
L 133.377033 85.179803 
L 135.25366 82.207476 
L 137.601453 79.138224 
L 137.972092 78.621297 
L 138.162929 78.492066 
L 139.292011 76.812054 
L 140.069387 76.052818 
L 140.891441 75.245121 
L 141.281015 74.889734 
L 145.283541 70.46355 
L 146.391782 69.397389 
L 146.8402 68.880462 
L 147.533259 68.024302 
L 152.507267 63.969659 
L 154.154237 62.887344 
L 156.398779 61.078101 
L 156.687826 60.965024 
L 157.878886 60.09271 
L 158.189182 59.979632 
L 159.115849 59.252704 
L 159.735898 58.881163 
L 161.3608 57.540385 
L 162.695702 56.716533 
L 163.040597 56.490378 
L 163.748504 56.280376 
L 166.280459 54.664981 
L 167.432016 53.970361 
L 172.859482 51.854192 
L 173.758089 51.498805 
L 174.673178 51.224188 
L 177.615275 50.222643 
L 178.145013 50.141873 
L 179.743217 49.511869 
L 180.306737 49.366483 
L 181.402174 48.898018 
L 183.145991 48.558785 
L 184.344543 48.090321 
L 184.975897 47.993397 
L 189.655 46.523387 
L 191.089475 46.200308 
L 193.372158 45.861075 
L 197.560344 45.004915 
L 199.363415 44.746452 
L 207.535467 43.857984 
L 224.593062 42.258743 
L 228.38541 42.177973 
L 248.49094 41.321813 
L 259.477864 40.98258 
L 263.885765 40.756425 
L 287.893431 40.4495 
L 321.353838 40.158728 
L 384.698068 40.12642 
L 384.698068 40.12642 
" style="fill:none;stroke:#00bfbf;stroke-linecap:square;stroke-width:1.5;"/>
   </g>
   <g id="patch_3">
    <path d="M 65.11625 299.571875 
L 65.11625 27.771875 
" style="fill:none;stroke:#000000;stroke-linecap:square;stroke-linejoin:miter;stroke-width:0.8;"/>
   </g>
   <g id="patch_4">
    <path d="M 399.91625 299.571875 
L 399.91625 27.771875 
" style="fill:none;stroke:#000000;stroke-linecap:square;stroke-linejoin:miter;stroke-width:0.8;"/>
   </g>
   <g id="patch_5">
    <path d="M 65.11625 299.571875 
L 399.91625 299.571875 
" style="fill:none;stroke:#000000;stroke-linecap:square;stroke-linejoin:miter;stroke-width:0.8;"/>
   </g>
   <g id="patch_6">
    <path d="M 65.11625 27.771875 
L 399.91625 27.771875 
" style="fill:none;stroke:#000000;stroke-linecap:square;stroke-linejoin:miter;stroke-width:0.8;"/>
   </g>
   <g id="text_15">
    <!-- ROC curve - European cities -->
    <defs>
     <path d="M 7.859375 0 
L 7.859375 71.578125 
L 39.59375 71.578125 
Q 49.171875 71.578125 54.140625 69.640625 
Q 59.125 67.71875 62.109375 62.828125 
Q 65.09375 57.953125 65.09375 52.046875 
Q 65.09375 44.4375 60.15625 39.203125 
Q 55.21875 33.984375 44.921875 32.5625 
Q 48.6875 30.765625 50.640625 29 
Q 54.78125 25.203125 58.5 19.484375 
L 70.953125 0 
L 59.03125 0 
L 49.5625 14.890625 
Q 45.40625 21.34375 42.71875 24.75 
Q 40.046875 28.171875 37.921875 29.53125 
Q 35.796875 30.90625 33.59375 31.453125 
Q 31.984375 31.78125 28.328125 31.78125 
L 17.328125 31.78125 
L 17.328125 0 
z
M 17.328125 39.984375 
L 37.703125 39.984375 
Q 44.1875 39.984375 47.84375 41.328125 
Q 51.515625 42.671875 53.421875 45.625 
Q 55.328125 48.578125 55.328125 52.046875 
Q 55.328125 57.125 51.640625 60.390625 
Q 47.953125 63.671875 39.984375 63.671875 
L 17.328125 63.671875 
z
" id="ArialMT-82"/>
     <path d="M 4.828125 34.859375 
Q 4.828125 52.6875 14.390625 62.765625 
Q 23.96875 72.859375 39.109375 72.859375 
Q 49.03125 72.859375 56.984375 68.109375 
Q 64.9375 63.375 69.109375 54.90625 
Q 73.296875 46.4375 73.296875 35.6875 
Q 73.296875 24.8125 68.890625 16.21875 
Q 64.5 7.625 56.4375 3.203125 
Q 48.390625 -1.21875 39.0625 -1.21875 
Q 28.953125 -1.21875 20.984375 3.65625 
Q 13.03125 8.546875 8.921875 16.984375 
Q 4.828125 25.4375 4.828125 34.859375 
z
M 14.59375 34.71875 
Q 14.59375 21.78125 21.546875 14.328125 
Q 28.515625 6.890625 39.015625 6.890625 
Q 49.703125 6.890625 56.609375 14.40625 
Q 63.53125 21.921875 63.53125 35.75 
Q 63.53125 44.484375 60.578125 51 
Q 57.625 57.515625 51.921875 61.109375 
Q 46.234375 64.703125 39.15625 64.703125 
Q 29.109375 64.703125 21.84375 57.78125 
Q 14.59375 50.875 14.59375 34.71875 
z
" id="ArialMT-79"/>
     <path d="M 58.796875 25.09375 
L 68.265625 22.703125 
Q 65.28125 11.03125 57.546875 4.90625 
Q 49.8125 -1.21875 38.625 -1.21875 
Q 27.046875 -1.21875 19.796875 3.484375 
Q 12.546875 8.203125 8.765625 17.140625 
Q 4.984375 26.078125 4.984375 36.328125 
Q 4.984375 47.515625 9.25 55.828125 
Q 13.53125 64.15625 21.40625 68.46875 
Q 29.296875 72.796875 38.765625 72.796875 
Q 49.515625 72.796875 56.828125 67.328125 
Q 64.15625 61.859375 67.046875 51.953125 
L 57.71875 49.75 
Q 55.21875 57.5625 50.484375 61.125 
Q 45.75 64.703125 38.578125 64.703125 
Q 30.328125 64.703125 24.78125 60.734375 
Q 19.234375 56.78125 16.984375 50.109375 
Q 14.75 43.453125 14.75 36.375 
Q 14.75 27.25 17.40625 20.4375 
Q 20.0625 13.625 25.671875 10.25 
Q 31.296875 6.890625 37.84375 6.890625 
Q 45.796875 6.890625 51.3125 11.46875 
Q 56.84375 16.0625 58.796875 25.09375 
z
" id="ArialMT-67"/>
     <path d="M 40.4375 19 
L 49.078125 17.875 
Q 47.65625 8.9375 41.8125 3.875 
Q 35.984375 -1.171875 27.484375 -1.171875 
Q 16.84375 -1.171875 10.375 5.78125 
Q 3.90625 12.75 3.90625 25.734375 
Q 3.90625 34.125 6.6875 40.421875 
Q 9.46875 46.734375 15.15625 49.875 
Q 20.84375 53.03125 27.546875 53.03125 
Q 35.984375 53.03125 41.359375 48.75 
Q 46.734375 44.484375 48.25 36.625 
L 39.703125 35.296875 
Q 38.484375 40.53125 35.375 43.15625 
Q 32.28125 45.796875 27.875 45.796875 
Q 21.234375 45.796875 17.078125 41.03125 
Q 12.9375 36.28125 12.9375 25.984375 
Q 12.9375 15.53125 16.9375 10.796875 
Q 20.953125 6.0625 27.390625 6.0625 
Q 32.5625 6.0625 36.03125 9.234375 
Q 39.5 12.40625 40.4375 19 
z
" id="ArialMT-99"/>
     <path d="M 3.171875 21.484375 
L 3.171875 30.328125 
L 30.171875 30.328125 
L 30.171875 21.484375 
z
" id="ArialMT-45"/>
     <path d="M 7.90625 0 
L 7.90625 71.578125 
L 59.671875 71.578125 
L 59.671875 63.140625 
L 17.390625 63.140625 
L 17.390625 41.21875 
L 56.984375 41.21875 
L 56.984375 32.8125 
L 17.390625 32.8125 
L 17.390625 8.453125 
L 61.328125 8.453125 
L 61.328125 0 
z
" id="ArialMT-69"/>
     <path d="M 6.59375 0 
L 6.59375 51.859375 
L 14.5 51.859375 
L 14.5 44.484375 
Q 20.21875 53.03125 31 53.03125 
Q 35.6875 53.03125 39.625 51.34375 
Q 43.5625 49.65625 45.515625 46.921875 
Q 47.46875 44.1875 48.25 40.4375 
Q 48.734375 37.984375 48.734375 31.890625 
L 48.734375 0 
L 39.9375 0 
L 39.9375 31.546875 
Q 39.9375 36.921875 38.90625 39.578125 
Q 37.890625 42.234375 35.28125 43.8125 
Q 32.671875 45.40625 29.15625 45.40625 
Q 23.53125 45.40625 19.453125 41.84375 
Q 15.375 38.28125 15.375 28.328125 
L 15.375 0 
z
" id="ArialMT-110"/>
    </defs>
    <g transform="translate(105.252187 21.771875)scale(0.2 -0.2)">
     <use xlink:href="#ArialMT-82"/>
     <use x="72.216797" xlink:href="#ArialMT-79"/>
     <use x="150" xlink:href="#ArialMT-67"/>
     <use x="222.216797" xlink:href="#ArialMT-32"/>
     <use x="250" xlink:href="#ArialMT-99"/>
     <use x="300" xlink:href="#ArialMT-117"/>
     <use x="355.615234" xlink:href="#ArialMT-114"/>
     <use x="388.916016" xlink:href="#ArialMT-118"/>
     <use x="438.916016" xlink:href="#ArialMT-101"/>
     <use x="494.53125" xlink:href="#ArialMT-32"/>
     <use x="522.314453" xlink:href="#ArialMT-45"/>
     <use x="555.615234" xlink:href="#ArialMT-32"/>
     <use x="583.398438" xlink:href="#ArialMT-69"/>
     <use x="650.097656" xlink:href="#ArialMT-117"/>
     <use x="705.712891" xlink:href="#ArialMT-114"/>
     <use x="739.013672" xlink:href="#ArialMT-111"/>
     <use x="794.628906" xlink:href="#ArialMT-112"/>
     <use x="850.244141" xlink:href="#ArialMT-101"/>
     <use x="905.859375" xlink:href="#ArialMT-97"/>
     <use x="961.474609" xlink:href="#ArialMT-110"/>
     <use x="1017.089844" xlink:href="#ArialMT-32"/>
     <use x="1044.873047" xlink:href="#ArialMT-99"/>
     <use x="1094.873047" xlink:href="#ArialMT-105"/>
     <use x="1117.089844" xlink:href="#ArialMT-116"/>
     <use x="1144.873047" xlink:href="#ArialMT-105"/>
     <use x="1167.089844" xlink:href="#ArialMT-101"/>
     <use x="1222.705078" xlink:href="#ArialMT-115"/>
    </g>
   </g>
   <g id="legend_1">
    <g id="patch_7">
     <path d="M 239.194062 292.571875 
L 390.11625 292.571875 
Q 392.91625 292.571875 392.91625 289.771875 
L 392.91625 167.875625 
Q 392.91625 165.075625 390.11625 165.075625 
L 239.194062 165.075625 
Q 236.394062 165.075625 236.394062 167.875625 
L 236.394062 289.771875 
Q 236.394062 292.571875 239.194062 292.571875 
z
" style="fill:#ffffff;opacity:0.8;stroke:#cccccc;stroke-linejoin:miter;"/>
    </g>
    <g id="line2d_19">
     <path d="M 241.994062 176.413437 
L 269.994062 176.413437 
" style="fill:none;stroke:#ff0000;stroke-linecap:square;stroke-width:1.5;"/>
    </g>
    <g id="line2d_20"/>
    <g id="text_16">
     <!-- Node2Vec -->
     <defs>
      <path d="M 9.8125 72.90625 
L 23.09375 72.90625 
L 55.421875 11.921875 
L 55.421875 72.90625 
L 64.984375 72.90625 
L 64.984375 0 
L 51.703125 0 
L 19.390625 60.984375 
L 19.390625 0 
L 9.8125 0 
z
" id="DejaVuSans-78"/>
      <path d="M 30.609375 48.390625 
Q 23.390625 48.390625 19.1875 42.75 
Q 14.984375 37.109375 14.984375 27.296875 
Q 14.984375 17.484375 19.15625 11.84375 
Q 23.34375 6.203125 30.609375 6.203125 
Q 37.796875 6.203125 41.984375 11.859375 
Q 46.1875 17.53125 46.1875 27.296875 
Q 46.1875 37.015625 41.984375 42.703125 
Q 37.796875 48.390625 30.609375 48.390625 
z
M 30.609375 56 
Q 42.328125 56 49.015625 48.375 
Q 55.71875 40.765625 55.71875 27.296875 
Q 55.71875 13.875 49.015625 6.21875 
Q 42.328125 -1.421875 30.609375 -1.421875 
Q 18.84375 -1.421875 12.171875 6.21875 
Q 5.515625 13.875 5.515625 27.296875 
Q 5.515625 40.765625 12.171875 48.375 
Q 18.84375 56 30.609375 56 
z
" id="DejaVuSans-111"/>
      <path d="M 45.40625 46.390625 
L 45.40625 75.984375 
L 54.390625 75.984375 
L 54.390625 0 
L 45.40625 0 
L 45.40625 8.203125 
Q 42.578125 3.328125 38.25 0.953125 
Q 33.9375 -1.421875 27.875 -1.421875 
Q 17.96875 -1.421875 11.734375 6.484375 
Q 5.515625 14.40625 5.515625 27.296875 
Q 5.515625 40.1875 11.734375 48.09375 
Q 17.96875 56 27.875 56 
Q 33.9375 56 38.25 53.625 
Q 42.578125 51.265625 45.40625 46.390625 
z
M 14.796875 27.296875 
Q 14.796875 17.390625 18.875 11.75 
Q 22.953125 6.109375 30.078125 6.109375 
Q 37.203125 6.109375 41.296875 11.75 
Q 45.40625 17.390625 45.40625 27.296875 
Q 45.40625 37.203125 41.296875 42.84375 
Q 37.203125 48.484375 30.078125 48.484375 
Q 22.953125 48.484375 18.875 42.84375 
Q 14.796875 37.203125 14.796875 27.296875 
z
" id="DejaVuSans-100"/>
      <path d="M 56.203125 29.59375 
L 56.203125 25.203125 
L 14.890625 25.203125 
Q 15.484375 15.921875 20.484375 11.0625 
Q 25.484375 6.203125 34.421875 6.203125 
Q 39.59375 6.203125 44.453125 7.46875 
Q 49.3125 8.734375 54.109375 11.28125 
L 54.109375 2.78125 
Q 49.265625 0.734375 44.1875 -0.34375 
Q 39.109375 -1.421875 33.890625 -1.421875 
Q 20.796875 -1.421875 13.15625 6.1875 
Q 5.515625 13.8125 5.515625 26.8125 
Q 5.515625 40.234375 12.765625 48.109375 
Q 20.015625 56 32.328125 56 
Q 43.359375 56 49.78125 48.890625 
Q 56.203125 41.796875 56.203125 29.59375 
z
M 47.21875 32.234375 
Q 47.125 39.59375 43.09375 43.984375 
Q 39.0625 48.390625 32.421875 48.390625 
Q 24.90625 48.390625 20.390625 44.140625 
Q 15.875 39.890625 15.1875 32.171875 
z
" id="DejaVuSans-101"/>
      <path d="M 28.609375 0 
L 0.78125 72.90625 
L 11.078125 72.90625 
L 34.1875 11.53125 
L 57.328125 72.90625 
L 67.578125 72.90625 
L 39.796875 0 
z
" id="DejaVuSans-86"/>
      <path d="M 48.78125 52.59375 
L 48.78125 44.1875 
Q 44.96875 46.296875 41.140625 47.34375 
Q 37.3125 48.390625 33.40625 48.390625 
Q 24.65625 48.390625 19.8125 42.84375 
Q 14.984375 37.3125 14.984375 27.296875 
Q 14.984375 17.28125 19.8125 11.734375 
Q 24.65625 6.203125 33.40625 6.203125 
Q 37.3125 6.203125 41.140625 7.25 
Q 44.96875 8.296875 48.78125 10.40625 
L 48.78125 2.09375 
Q 45.015625 0.34375 40.984375 -0.53125 
Q 36.96875 -1.421875 32.421875 -1.421875 
Q 20.0625 -1.421875 12.78125 6.34375 
Q 5.515625 14.109375 5.515625 27.296875 
Q 5.515625 40.671875 12.859375 48.328125 
Q 20.21875 56 33.015625 56 
Q 37.15625 56 41.109375 55.140625 
Q 45.0625 54.296875 48.78125 52.59375 
z
" id="DejaVuSans-99"/>
     </defs>
     <g transform="translate(281.194062 181.313437)scale(0.14 -0.14)">
      <use xlink:href="#DejaVuSans-78"/>
      <use x="74.804688" xlink:href="#DejaVuSans-111"/>
      <use x="135.986328" xlink:href="#DejaVuSans-100"/>
      <use x="199.462891" xlink:href="#DejaVuSans-101"/>
      <use x="260.986328" xlink:href="#DejaVuSans-50"/>
      <use x="324.609375" xlink:href="#DejaVuSans-86"/>
      <use x="385.267578" xlink:href="#DejaVuSans-101"/>
      <use x="446.791016" xlink:href="#DejaVuSans-99"/>
     </g>
    </g>
    <g id="line2d_21">
     <path d="M 241.994062 196.962812 
L 269.994062 196.962812 
" style="fill:none;stroke:#008000;stroke-linecap:square;stroke-width:1.5;"/>
    </g>
    <g id="line2d_22"/>
    <g id="text_17">
     <!-- Struc2Vec -->
     <defs>
      <path d="M 53.515625 70.515625 
L 53.515625 60.890625 
Q 47.90625 63.578125 42.921875 64.890625 
Q 37.9375 66.21875 33.296875 66.21875 
Q 25.25 66.21875 20.875 63.09375 
Q 16.5 59.96875 16.5 54.203125 
Q 16.5 49.359375 19.40625 46.890625 
Q 22.3125 44.4375 30.421875 42.921875 
L 36.375 41.703125 
Q 47.40625 39.59375 52.65625 34.296875 
Q 57.90625 29 57.90625 20.125 
Q 57.90625 9.515625 50.796875 4.046875 
Q 43.703125 -1.421875 29.984375 -1.421875 
Q 24.8125 -1.421875 18.96875 -0.25 
Q 13.140625 0.921875 6.890625 3.21875 
L 6.890625 13.375 
Q 12.890625 10.015625 18.65625 8.296875 
Q 24.421875 6.59375 29.984375 6.59375 
Q 38.421875 6.59375 43.015625 9.90625 
Q 47.609375 13.234375 47.609375 19.390625 
Q 47.609375 24.75 44.3125 27.78125 
Q 41.015625 30.8125 33.5 32.328125 
L 27.484375 33.5 
Q 16.453125 35.6875 11.515625 40.375 
Q 6.59375 45.0625 6.59375 53.421875 
Q 6.59375 63.09375 13.40625 68.65625 
Q 20.21875 74.21875 32.171875 74.21875 
Q 37.3125 74.21875 42.625 73.28125 
Q 47.953125 72.359375 53.515625 70.515625 
z
" id="DejaVuSans-83"/>
      <path d="M 18.3125 70.21875 
L 18.3125 54.6875 
L 36.8125 54.6875 
L 36.8125 47.703125 
L 18.3125 47.703125 
L 18.3125 18.015625 
Q 18.3125 11.328125 20.140625 9.421875 
Q 21.96875 7.515625 27.59375 7.515625 
L 36.8125 7.515625 
L 36.8125 0 
L 27.59375 0 
Q 17.1875 0 13.234375 3.875 
Q 9.28125 7.765625 9.28125 18.015625 
L 9.28125 47.703125 
L 2.6875 47.703125 
L 2.6875 54.6875 
L 9.28125 54.6875 
L 9.28125 70.21875 
z
" id="DejaVuSans-116"/>
      <path d="M 41.109375 46.296875 
Q 39.59375 47.171875 37.8125 47.578125 
Q 36.03125 48 33.890625 48 
Q 26.265625 48 22.1875 43.046875 
Q 18.109375 38.09375 18.109375 28.8125 
L 18.109375 0 
L 9.078125 0 
L 9.078125 54.6875 
L 18.109375 54.6875 
L 18.109375 46.1875 
Q 20.953125 51.171875 25.484375 53.578125 
Q 30.03125 56 36.53125 56 
Q 37.453125 56 38.578125 55.875 
Q 39.703125 55.765625 41.0625 55.515625 
z
" id="DejaVuSans-114"/>
      <path d="M 8.5 21.578125 
L 8.5 54.6875 
L 17.484375 54.6875 
L 17.484375 21.921875 
Q 17.484375 14.15625 20.5 10.265625 
Q 23.53125 6.390625 29.59375 6.390625 
Q 36.859375 6.390625 41.078125 11.03125 
Q 45.3125 15.671875 45.3125 23.6875 
L 45.3125 54.6875 
L 54.296875 54.6875 
L 54.296875 0 
L 45.3125 0 
L 45.3125 8.40625 
Q 42.046875 3.421875 37.71875 1 
Q 33.40625 -1.421875 27.6875 -1.421875 
Q 18.265625 -1.421875 13.375 4.4375 
Q 8.5 10.296875 8.5 21.578125 
z
M 31.109375 56 
z
" id="DejaVuSans-117"/>
     </defs>
     <g transform="translate(281.194062 201.862812)scale(0.14 -0.14)">
      <use xlink:href="#DejaVuSans-83"/>
      <use x="63.476562" xlink:href="#DejaVuSans-116"/>
      <use x="102.685547" xlink:href="#DejaVuSans-114"/>
      <use x="143.798828" xlink:href="#DejaVuSans-117"/>
      <use x="207.177734" xlink:href="#DejaVuSans-99"/>
      <use x="262.158203" xlink:href="#DejaVuSans-50"/>
      <use x="325.78125" xlink:href="#DejaVuSans-86"/>
      <use x="386.439453" xlink:href="#DejaVuSans-101"/>
      <use x="447.962891" xlink:href="#DejaVuSans-99"/>
     </g>
    </g>
    <g id="line2d_23">
     <path d="M 241.994062 217.512187 
L 269.994062 217.512187 
" style="fill:none;stroke:#0000ff;stroke-linecap:square;stroke-width:1.5;"/>
    </g>
    <g id="line2d_24"/>
    <g id="text_18">
     <!-- Graph-SAGE -->
     <defs>
      <path d="M 59.515625 10.40625 
L 59.515625 29.984375 
L 43.40625 29.984375 
L 43.40625 38.09375 
L 69.28125 38.09375 
L 69.28125 6.78125 
Q 63.578125 2.734375 56.6875 0.65625 
Q 49.8125 -1.421875 42 -1.421875 
Q 24.90625 -1.421875 15.25 8.5625 
Q 5.609375 18.5625 5.609375 36.375 
Q 5.609375 54.25 15.25 64.234375 
Q 24.90625 74.21875 42 74.21875 
Q 49.125 74.21875 55.546875 72.453125 
Q 61.96875 70.703125 67.390625 67.28125 
L 67.390625 56.78125 
Q 61.921875 61.421875 55.765625 63.765625 
Q 49.609375 66.109375 42.828125 66.109375 
Q 29.4375 66.109375 22.71875 58.640625 
Q 16.015625 51.171875 16.015625 36.375 
Q 16.015625 21.625 22.71875 14.15625 
Q 29.4375 6.6875 42.828125 6.6875 
Q 48.046875 6.6875 52.140625 7.59375 
Q 56.25 8.5 59.515625 10.40625 
z
" id="DejaVuSans-71"/>
      <path d="M 34.28125 27.484375 
Q 23.390625 27.484375 19.1875 25 
Q 14.984375 22.515625 14.984375 16.5 
Q 14.984375 11.71875 18.140625 8.90625 
Q 21.296875 6.109375 26.703125 6.109375 
Q 34.1875 6.109375 38.703125 11.40625 
Q 43.21875 16.703125 43.21875 25.484375 
L 43.21875 27.484375 
z
M 52.203125 31.203125 
L 52.203125 0 
L 43.21875 0 
L 43.21875 8.296875 
Q 40.140625 3.328125 35.546875 0.953125 
Q 30.953125 -1.421875 24.3125 -1.421875 
Q 15.921875 -1.421875 10.953125 3.296875 
Q 6 8.015625 6 15.921875 
Q 6 25.140625 12.171875 29.828125 
Q 18.359375 34.515625 30.609375 34.515625 
L 43.21875 34.515625 
L 43.21875 35.40625 
Q 43.21875 41.609375 39.140625 45 
Q 35.0625 48.390625 27.6875 48.390625 
Q 23 48.390625 18.546875 47.265625 
Q 14.109375 46.140625 10.015625 43.890625 
L 10.015625 52.203125 
Q 14.9375 54.109375 19.578125 55.046875 
Q 24.21875 56 28.609375 56 
Q 40.484375 56 46.34375 49.84375 
Q 52.203125 43.703125 52.203125 31.203125 
z
" id="DejaVuSans-97"/>
      <path d="M 18.109375 8.203125 
L 18.109375 -20.796875 
L 9.078125 -20.796875 
L 9.078125 54.6875 
L 18.109375 54.6875 
L 18.109375 46.390625 
Q 20.953125 51.265625 25.265625 53.625 
Q 29.59375 56 35.59375 56 
Q 45.5625 56 51.78125 48.09375 
Q 58.015625 40.1875 58.015625 27.296875 
Q 58.015625 14.40625 51.78125 6.484375 
Q 45.5625 -1.421875 35.59375 -1.421875 
Q 29.59375 -1.421875 25.265625 0.953125 
Q 20.953125 3.328125 18.109375 8.203125 
z
M 48.6875 27.296875 
Q 48.6875 37.203125 44.609375 42.84375 
Q 40.53125 48.484375 33.40625 48.484375 
Q 26.265625 48.484375 22.1875 42.84375 
Q 18.109375 37.203125 18.109375 27.296875 
Q 18.109375 17.390625 22.1875 11.75 
Q 26.265625 6.109375 33.40625 6.109375 
Q 40.53125 6.109375 44.609375 11.75 
Q 48.6875 17.390625 48.6875 27.296875 
z
" id="DejaVuSans-112"/>
      <path d="M 54.890625 33.015625 
L 54.890625 0 
L 45.90625 0 
L 45.90625 32.71875 
Q 45.90625 40.484375 42.875 44.328125 
Q 39.84375 48.1875 33.796875 48.1875 
Q 26.515625 48.1875 22.3125 43.546875 
Q 18.109375 38.921875 18.109375 30.90625 
L 18.109375 0 
L 9.078125 0 
L 9.078125 75.984375 
L 18.109375 75.984375 
L 18.109375 46.1875 
Q 21.34375 51.125 25.703125 53.5625 
Q 30.078125 56 35.796875 56 
Q 45.21875 56 50.046875 50.171875 
Q 54.890625 44.34375 54.890625 33.015625 
z
" id="DejaVuSans-104"/>
      <path d="M 4.890625 31.390625 
L 31.203125 31.390625 
L 31.203125 23.390625 
L 4.890625 23.390625 
z
" id="DejaVuSans-45"/>
      <path d="M 34.1875 63.1875 
L 20.796875 26.90625 
L 47.609375 26.90625 
z
M 28.609375 72.90625 
L 39.796875 72.90625 
L 67.578125 0 
L 57.328125 0 
L 50.6875 18.703125 
L 17.828125 18.703125 
L 11.1875 0 
L 0.78125 0 
z
" id="DejaVuSans-65"/>
      <path d="M 9.8125 72.90625 
L 55.90625 72.90625 
L 55.90625 64.59375 
L 19.671875 64.59375 
L 19.671875 43.015625 
L 54.390625 43.015625 
L 54.390625 34.71875 
L 19.671875 34.71875 
L 19.671875 8.296875 
L 56.78125 8.296875 
L 56.78125 0 
L 9.8125 0 
z
" id="DejaVuSans-69"/>
     </defs>
     <g transform="translate(281.194062 222.412187)scale(0.14 -0.14)">
      <use xlink:href="#DejaVuSans-71"/>
      <use x="77.490234" xlink:href="#DejaVuSans-114"/>
      <use x="118.603516" xlink:href="#DejaVuSans-97"/>
      <use x="179.882812" xlink:href="#DejaVuSans-112"/>
      <use x="243.359375" xlink:href="#DejaVuSans-104"/>
      <use x="306.738281" xlink:href="#DejaVuSans-45"/>
      <use x="342.822266" xlink:href="#DejaVuSans-83"/>
      <use x="408.173828" xlink:href="#DejaVuSans-65"/>
      <use x="474.832031" xlink:href="#DejaVuSans-71"/>
      <use x="552.322266" xlink:href="#DejaVuSans-69"/>
     </g>
    </g>
    <g id="line2d_25">
     <path d="M 241.994062 238.061562 
L 269.994062 238.061562 
" style="fill:none;stroke:#bfbf00;stroke-linecap:square;stroke-width:1.5;"/>
    </g>
    <g id="line2d_26"/>
    <g id="text_19">
     <!-- Spectral-GCN -->
     <defs>
      <path d="M 9.421875 75.984375 
L 18.40625 75.984375 
L 18.40625 0 
L 9.421875 0 
z
" id="DejaVuSans-108"/>
      <path d="M 64.40625 67.28125 
L 64.40625 56.890625 
Q 59.421875 61.53125 53.78125 63.8125 
Q 48.140625 66.109375 41.796875 66.109375 
Q 29.296875 66.109375 22.65625 58.46875 
Q 16.015625 50.828125 16.015625 36.375 
Q 16.015625 21.96875 22.65625 14.328125 
Q 29.296875 6.6875 41.796875 6.6875 
Q 48.140625 6.6875 53.78125 8.984375 
Q 59.421875 11.28125 64.40625 15.921875 
L 64.40625 5.609375 
Q 59.234375 2.09375 53.4375 0.328125 
Q 47.65625 -1.421875 41.21875 -1.421875 
Q 24.65625 -1.421875 15.125 8.703125 
Q 5.609375 18.84375 5.609375 36.375 
Q 5.609375 53.953125 15.125 64.078125 
Q 24.65625 74.21875 41.21875 74.21875 
Q 47.75 74.21875 53.53125 72.484375 
Q 59.328125 70.75 64.40625 67.28125 
z
" id="DejaVuSans-67"/>
     </defs>
     <g transform="translate(281.194062 242.961562)scale(0.14 -0.14)">
      <use xlink:href="#DejaVuSans-83"/>
      <use x="63.476562" xlink:href="#DejaVuSans-112"/>
      <use x="126.953125" xlink:href="#DejaVuSans-101"/>
      <use x="188.476562" xlink:href="#DejaVuSans-99"/>
      <use x="243.457031" xlink:href="#DejaVuSans-116"/>
      <use x="282.666016" xlink:href="#DejaVuSans-114"/>
      <use x="323.779297" xlink:href="#DejaVuSans-97"/>
      <use x="385.058594" xlink:href="#DejaVuSans-108"/>
      <use x="412.841797" xlink:href="#DejaVuSans-45"/>
      <use x="452.550781" xlink:href="#DejaVuSans-71"/>
      <use x="530.041016" xlink:href="#DejaVuSans-67"/>
      <use x="599.865234" xlink:href="#DejaVuSans-78"/>
     </g>
    </g>
    <g id="line2d_27">
     <path d="M 241.994062 258.610937 
L 269.994062 258.610937 
" style="fill:none;stroke:#bf00bf;stroke-linecap:square;stroke-width:1.5;"/>
    </g>
    <g id="line2d_28"/>
    <g id="text_20">
     <!-- Relational-GCN -->
     <defs>
      <path d="M 44.390625 34.1875 
Q 47.5625 33.109375 50.5625 29.59375 
Q 53.5625 26.078125 56.59375 19.921875 
L 66.609375 0 
L 56 0 
L 46.6875 18.703125 
Q 43.0625 26.03125 39.671875 28.421875 
Q 36.28125 30.8125 30.421875 30.8125 
L 19.671875 30.8125 
L 19.671875 0 
L 9.8125 0 
L 9.8125 72.90625 
L 32.078125 72.90625 
Q 44.578125 72.90625 50.734375 67.671875 
Q 56.890625 62.453125 56.890625 51.90625 
Q 56.890625 45.015625 53.6875 40.46875 
Q 50.484375 35.9375 44.390625 34.1875 
z
M 19.671875 64.796875 
L 19.671875 38.921875 
L 32.078125 38.921875 
Q 39.203125 38.921875 42.84375 42.21875 
Q 46.484375 45.515625 46.484375 51.90625 
Q 46.484375 58.296875 42.84375 61.546875 
Q 39.203125 64.796875 32.078125 64.796875 
z
" id="DejaVuSans-82"/>
      <path d="M 9.421875 54.6875 
L 18.40625 54.6875 
L 18.40625 0 
L 9.421875 0 
z
M 9.421875 75.984375 
L 18.40625 75.984375 
L 18.40625 64.59375 
L 9.421875 64.59375 
z
" id="DejaVuSans-105"/>
      <path d="M 54.890625 33.015625 
L 54.890625 0 
L 45.90625 0 
L 45.90625 32.71875 
Q 45.90625 40.484375 42.875 44.328125 
Q 39.84375 48.1875 33.796875 48.1875 
Q 26.515625 48.1875 22.3125 43.546875 
Q 18.109375 38.921875 18.109375 30.90625 
L 18.109375 0 
L 9.078125 0 
L 9.078125 54.6875 
L 18.109375 54.6875 
L 18.109375 46.1875 
Q 21.34375 51.125 25.703125 53.5625 
Q 30.078125 56 35.796875 56 
Q 45.21875 56 50.046875 50.171875 
Q 54.890625 44.34375 54.890625 33.015625 
z
" id="DejaVuSans-110"/>
     </defs>
     <g transform="translate(281.194062 263.510937)scale(0.14 -0.14)">
      <use xlink:href="#DejaVuSans-82"/>
      <use x="64.982422" xlink:href="#DejaVuSans-101"/>
      <use x="126.505859" xlink:href="#DejaVuSans-108"/>
      <use x="154.289062" xlink:href="#DejaVuSans-97"/>
      <use x="215.568359" xlink:href="#DejaVuSans-116"/>
      <use x="254.777344" xlink:href="#DejaVuSans-105"/>
      <use x="282.560547" xlink:href="#DejaVuSans-111"/>
      <use x="343.742188" xlink:href="#DejaVuSans-110"/>
      <use x="407.121094" xlink:href="#DejaVuSans-97"/>
      <use x="468.400391" xlink:href="#DejaVuSans-108"/>
      <use x="496.183594" xlink:href="#DejaVuSans-45"/>
      <use x="535.892578" xlink:href="#DejaVuSans-71"/>
      <use x="613.382812" xlink:href="#DejaVuSans-67"/>
      <use x="683.207031" xlink:href="#DejaVuSans-78"/>
     </g>
    </g>
    <g id="line2d_29">
     <path d="M 241.994062 279.160312 
L 269.994062 279.160312 
" style="fill:none;stroke:#00bfbf;stroke-linecap:square;stroke-width:1.5;"/>
    </g>
    <g id="line2d_30"/>
    <g id="text_21">
     <!-- GAT -->
     <defs>
      <path d="M -0.296875 72.90625 
L 61.375 72.90625 
L 61.375 64.59375 
L 35.5 64.59375 
L 35.5 0 
L 25.59375 0 
L 25.59375 64.59375 
L -0.296875 64.59375 
z
" id="DejaVuSans-84"/>
     </defs>
     <g transform="translate(281.194062 284.060312)scale(0.14 -0.14)">
      <use xlink:href="#DejaVuSans-71"/>
      <use x="77.490234" xlink:href="#DejaVuSans-65"/>
      <use x="138.148438" xlink:href="#DejaVuSans-84"/>
     </g>
    </g>
   </g>
  </g>
 </g>
 <defs>
  <clipPath id="pe83eb750c5">
   <rect height="271.8" width="334.8" x="65.11625" y="27.771875"/>
  </clipPath>
 </defs>
</svg>
