<?xml version="1.0" encoding="utf-8" standalone="no"?>
<!DOCTYPE svg PUBLIC "-//W3C//DTD SVG 1.1//EN"
  "http://www.w3.org/Graphics/SVG/1.1/DTD/svg11.dtd">
<!-- Created with matplotlib (https://matplotlib.org/) -->
<svg height="351.795312pt" version="1.1" viewBox="0 0 411.451336 351.795312" width="411.451336pt" xmlns="http://www.w3.org/2000/svg" xmlns:xlink="http://www.w3.org/1999/xlink">
 <defs>
  <style type="text/css">
*{stroke-linecap:butt;stroke-linejoin:round;}
  </style>
 </defs>
 <g id="figure_1">
  <g id="patch_1">
   <path d="M 0 351.795312 
L 411.451336 351.795312 
L 411.451336 0 
L 0 0 
z
" style="fill:#ffffff;"/>
  </g>
  <g id="axes_1">
   <g id="patch_2">
    <path d="M 65.11625 297.884062 
L 399.91625 297.884062 
L 399.91625 26.084062 
L 65.11625 26.084062 
z
" style="fill:#ffffff;"/>
   </g>
   <g id="PathCollection_1">
    <defs>
     <path d="M 0 -3.535534 
L -3.535534 3.535534 
L 3.535534 3.535534 
z
" id="m68ad7533f3" style="stroke:#ffa500;"/>
    </defs>
    <g clip-path="url(#p6af1a0ac52)">
     <use style="fill:#ffa500;stroke:#ffa500;" x="246.526958" xlink:href="#m68ad7533f3" y="113.257265"/>
    </g>
   </g>
   <g id="matplotlib.axis_1">
    <g id="xtick_1">
     <g id="line2d_1">
      <defs>
       <path d="M 0 0 
L 0 3.5 
" id="m5490002469" style="stroke:#000000;stroke-width:0.8;"/>
      </defs>
      <g>
       <use style="stroke:#000000;stroke-width:0.8;" x="77.180145" xlink:href="#m5490002469" y="297.884062"/>
      </g>
     </g>
     <g id="text_1">
      <!-- 0.0 -->
      <defs>
       <path d="M 31.78125 66.40625 
Q 24.171875 66.40625 20.328125 58.90625 
Q 16.5 51.421875 16.5 36.375 
Q 16.5 21.390625 20.328125 13.890625 
Q 24.171875 6.390625 31.78125 6.390625 
Q 39.453125 6.390625 43.28125 13.890625 
Q 47.125 21.390625 47.125 36.375 
Q 47.125 51.421875 43.28125 58.90625 
Q 39.453125 66.40625 31.78125 66.40625 
z
M 31.78125 74.21875 
Q 44.046875 74.21875 50.515625 64.515625 
Q 56.984375 54.828125 56.984375 36.375 
Q 56.984375 17.96875 50.515625 8.265625 
Q 44.046875 -1.421875 31.78125 -1.421875 
Q 19.53125 -1.421875 13.0625 8.265625 
Q 6.59375 17.96875 6.59375 36.375 
Q 6.59375 54.828125 13.0625 64.515625 
Q 19.53125 74.21875 31.78125 74.21875 
z
" id="DejaVuSans-48"/>
       <path d="M 10.6875 12.40625 
L 21 12.40625 
L 21 0 
L 10.6875 0 
z
" id="DejaVuSans-46"/>
      </defs>
      <g transform="translate(62.867333 318.56125)scale(0.18 -0.18)">
       <use xlink:href="#DejaVuSans-48"/>
       <use x="63.623047" xlink:href="#DejaVuSans-46"/>
       <use x="95.410156" xlink:href="#DejaVuSans-48"/>
      </g>
     </g>
    </g>
    <g id="xtick_2">
     <g id="line2d_2">
      <g>
       <use style="stroke:#000000;stroke-width:0.8;" x="139.731821" xlink:href="#m5490002469" y="297.884062"/>
      </g>
     </g>
     <g id="text_2">
      <!-- 0.2 -->
      <defs>
       <path d="M 19.1875 8.296875 
L 53.609375 8.296875 
L 53.609375 0 
L 7.328125 0 
L 7.328125 8.296875 
Q 12.9375 14.109375 22.625 23.890625 
Q 32.328125 33.6875 34.8125 36.53125 
Q 39.546875 41.84375 41.421875 45.53125 
Q 43.3125 49.21875 43.3125 52.78125 
Q 43.3125 58.59375 39.234375 62.25 
Q 35.15625 65.921875 28.609375 65.921875 
Q 23.96875 65.921875 18.8125 64.3125 
Q 13.671875 62.703125 7.8125 59.421875 
L 7.8125 69.390625 
Q 13.765625 71.78125 18.9375 73 
Q 24.125 74.21875 28.421875 74.21875 
Q 39.75 74.21875 46.484375 68.546875 
Q 53.21875 62.890625 53.21875 53.421875 
Q 53.21875 48.921875 51.53125 44.890625 
Q 49.859375 40.875 45.40625 35.40625 
Q 44.1875 33.984375 37.640625 27.21875 
Q 31.109375 20.453125 19.1875 8.296875 
z
" id="DejaVuSans-50"/>
      </defs>
      <g transform="translate(125.419008 318.56125)scale(0.18 -0.18)">
       <use xlink:href="#DejaVuSans-48"/>
       <use x="63.623047" xlink:href="#DejaVuSans-46"/>
       <use x="95.410156" xlink:href="#DejaVuSans-50"/>
      </g>
     </g>
    </g>
    <g id="xtick_3">
     <g id="line2d_3">
      <g>
       <use style="stroke:#000000;stroke-width:0.8;" x="202.283496" xlink:href="#m5490002469" y="297.884062"/>
      </g>
     </g>
     <g id="text_3">
      <!-- 0.4 -->
      <defs>
       <path d="M 37.796875 64.3125 
L 12.890625 25.390625 
L 37.796875 25.390625 
z
M 35.203125 72.90625 
L 47.609375 72.90625 
L 47.609375 25.390625 
L 58.015625 25.390625 
L 58.015625 17.1875 
L 47.609375 17.1875 
L 47.609375 0 
L 37.796875 0 
L 37.796875 17.1875 
L 4.890625 17.1875 
L 4.890625 26.703125 
z
" id="DejaVuSans-52"/>
      </defs>
      <g transform="translate(187.970684 318.56125)scale(0.18 -0.18)">
       <use xlink:href="#DejaVuSans-48"/>
       <use x="63.623047" xlink:href="#DejaVuSans-46"/>
       <use x="95.410156" xlink:href="#DejaVuSans-52"/>
      </g>
     </g>
    </g>
    <g id="xtick_4">
     <g id="line2d_4">
      <g>
       <use style="stroke:#000000;stroke-width:0.8;" x="264.835172" xlink:href="#m5490002469" y="297.884062"/>
      </g>
     </g>
     <g id="text_4">
      <!-- 0.6 -->
      <defs>
       <path d="M 33.015625 40.375 
Q 26.375 40.375 22.484375 35.828125 
Q 18.609375 31.296875 18.609375 23.390625 
Q 18.609375 15.53125 22.484375 10.953125 
Q 26.375 6.390625 33.015625 6.390625 
Q 39.65625 6.390625 43.53125 10.953125 
Q 47.40625 15.53125 47.40625 23.390625 
Q 47.40625 31.296875 43.53125 35.828125 
Q 39.65625 40.375 33.015625 40.375 
z
M 52.59375 71.296875 
L 52.59375 62.3125 
Q 48.875 64.0625 45.09375 64.984375 
Q 41.3125 65.921875 37.59375 65.921875 
Q 27.828125 65.921875 22.671875 59.328125 
Q 17.53125 52.734375 16.796875 39.40625 
Q 19.671875 43.65625 24.015625 45.921875 
Q 28.375 48.1875 33.59375 48.1875 
Q 44.578125 48.1875 50.953125 41.515625 
Q 57.328125 34.859375 57.328125 23.390625 
Q 57.328125 12.15625 50.6875 5.359375 
Q 44.046875 -1.421875 33.015625 -1.421875 
Q 20.359375 -1.421875 13.671875 8.265625 
Q 6.984375 17.96875 6.984375 36.375 
Q 6.984375 53.65625 15.1875 63.9375 
Q 23.390625 74.21875 37.203125 74.21875 
Q 40.921875 74.21875 44.703125 73.484375 
Q 48.484375 72.75 52.59375 71.296875 
z
" id="DejaVuSans-54"/>
      </defs>
      <g transform="translate(250.52236 318.56125)scale(0.18 -0.18)">
       <use xlink:href="#DejaVuSans-48"/>
       <use x="63.623047" xlink:href="#DejaVuSans-46"/>
       <use x="95.410156" xlink:href="#DejaVuSans-54"/>
      </g>
     </g>
    </g>
    <g id="xtick_5">
     <g id="line2d_5">
      <g>
       <use style="stroke:#000000;stroke-width:0.8;" x="327.386848" xlink:href="#m5490002469" y="297.884062"/>
      </g>
     </g>
     <g id="text_5">
      <!-- 0.8 -->
      <defs>
       <path d="M 31.78125 34.625 
Q 24.75 34.625 20.71875 30.859375 
Q 16.703125 27.09375 16.703125 20.515625 
Q 16.703125 13.921875 20.71875 10.15625 
Q 24.75 6.390625 31.78125 6.390625 
Q 38.8125 6.390625 42.859375 10.171875 
Q 46.921875 13.96875 46.921875 20.515625 
Q 46.921875 27.09375 42.890625 30.859375 
Q 38.875 34.625 31.78125 34.625 
z
M 21.921875 38.8125 
Q 15.578125 40.375 12.03125 44.71875 
Q 8.5 49.078125 8.5 55.328125 
Q 8.5 64.0625 14.71875 69.140625 
Q 20.953125 74.21875 31.78125 74.21875 
Q 42.671875 74.21875 48.875 69.140625 
Q 55.078125 64.0625 55.078125 55.328125 
Q 55.078125 49.078125 51.53125 44.71875 
Q 48 40.375 41.703125 38.8125 
Q 48.828125 37.15625 52.796875 32.3125 
Q 56.78125 27.484375 56.78125 20.515625 
Q 56.78125 9.90625 50.3125 4.234375 
Q 43.84375 -1.421875 31.78125 -1.421875 
Q 19.734375 -1.421875 13.25 4.234375 
Q 6.78125 9.90625 6.78125 20.515625 
Q 6.78125 27.484375 10.78125 32.3125 
Q 14.796875 37.15625 21.921875 38.8125 
z
M 18.3125 54.390625 
Q 18.3125 48.734375 21.84375 45.5625 
Q 25.390625 42.390625 31.78125 42.390625 
Q 38.140625 42.390625 41.71875 45.5625 
Q 45.3125 48.734375 45.3125 54.390625 
Q 45.3125 60.0625 41.71875 63.234375 
Q 38.140625 66.40625 31.78125 66.40625 
Q 25.390625 66.40625 21.84375 63.234375 
Q 18.3125 60.0625 18.3125 54.390625 
z
" id="DejaVuSans-56"/>
      </defs>
      <g transform="translate(313.074035 318.56125)scale(0.18 -0.18)">
       <use xlink:href="#DejaVuSans-48"/>
       <use x="63.623047" xlink:href="#DejaVuSans-46"/>
       <use x="95.410156" xlink:href="#DejaVuSans-56"/>
      </g>
     </g>
    </g>
    <g id="xtick_6">
     <g id="line2d_6">
      <g>
       <use style="stroke:#000000;stroke-width:0.8;" x="389.938523" xlink:href="#m5490002469" y="297.884062"/>
      </g>
     </g>
     <g id="text_6">
      <!-- 1.0 -->
      <defs>
       <path d="M 12.40625 8.296875 
L 28.515625 8.296875 
L 28.515625 63.921875 
L 10.984375 60.40625 
L 10.984375 69.390625 
L 28.421875 72.90625 
L 38.28125 72.90625 
L 38.28125 8.296875 
L 54.390625 8.296875 
L 54.390625 0 
L 12.40625 0 
z
" id="DejaVuSans-49"/>
      </defs>
      <g transform="translate(375.625711 318.56125)scale(0.18 -0.18)">
       <use xlink:href="#DejaVuSans-49"/>
       <use x="63.623047" xlink:href="#DejaVuSans-46"/>
       <use x="95.410156" xlink:href="#DejaVuSans-48"/>
      </g>
     </g>
    </g>
    <g id="text_7">
     <!-- Recall -->
     <defs>
      <path d="M 7.859375 0 
L 7.859375 71.578125 
L 39.59375 71.578125 
Q 49.171875 71.578125 54.140625 69.640625 
Q 59.125 67.71875 62.109375 62.828125 
Q 65.09375 57.953125 65.09375 52.046875 
Q 65.09375 44.4375 60.15625 39.203125 
Q 55.21875 33.984375 44.921875 32.5625 
Q 48.6875 30.765625 50.640625 29 
Q 54.78125 25.203125 58.5 19.484375 
L 70.953125 0 
L 59.03125 0 
L 49.5625 14.890625 
Q 45.40625 21.34375 42.71875 24.75 
Q 40.046875 28.171875 37.921875 29.53125 
Q 35.796875 30.90625 33.59375 31.453125 
Q 31.984375 31.78125 28.328125 31.78125 
L 17.328125 31.78125 
L 17.328125 0 
z
M 17.328125 39.984375 
L 37.703125 39.984375 
Q 44.1875 39.984375 47.84375 41.328125 
Q 51.515625 42.671875 53.421875 45.625 
Q 55.328125 48.578125 55.328125 52.046875 
Q 55.328125 57.125 51.640625 60.390625 
Q 47.953125 63.671875 39.984375 63.671875 
L 17.328125 63.671875 
z
" id="ArialMT-82"/>
      <path d="M 42.09375 16.703125 
L 51.171875 15.578125 
Q 49.03125 7.625 43.21875 3.21875 
Q 37.40625 -1.171875 28.375 -1.171875 
Q 17 -1.171875 10.328125 5.828125 
Q 3.65625 12.84375 3.65625 25.484375 
Q 3.65625 38.578125 10.390625 45.796875 
Q 17.140625 53.03125 27.875 53.03125 
Q 38.28125 53.03125 44.875 45.953125 
Q 51.46875 38.875 51.46875 26.03125 
Q 51.46875 25.25 51.421875 23.6875 
L 12.75 23.6875 
Q 13.234375 15.140625 17.578125 10.59375 
Q 21.921875 6.0625 28.421875 6.0625 
Q 33.25 6.0625 36.671875 8.59375 
Q 40.09375 11.140625 42.09375 16.703125 
z
M 13.234375 30.90625 
L 42.1875 30.90625 
Q 41.609375 37.453125 38.875 40.71875 
Q 34.671875 45.796875 27.984375 45.796875 
Q 21.921875 45.796875 17.796875 41.75 
Q 13.671875 37.703125 13.234375 30.90625 
z
" id="ArialMT-101"/>
      <path d="M 40.4375 19 
L 49.078125 17.875 
Q 47.65625 8.9375 41.8125 3.875 
Q 35.984375 -1.171875 27.484375 -1.171875 
Q 16.84375 -1.171875 10.375 5.78125 
Q 3.90625 12.75 3.90625 25.734375 
Q 3.90625 34.125 6.6875 40.421875 
Q 9.46875 46.734375 15.15625 49.875 
Q 20.84375 53.03125 27.546875 53.03125 
Q 35.984375 53.03125 41.359375 48.75 
Q 46.734375 44.484375 48.25 36.625 
L 39.703125 35.296875 
Q 38.484375 40.53125 35.375 43.15625 
Q 32.28125 45.796875 27.875 45.796875 
Q 21.234375 45.796875 17.078125 41.03125 
Q 12.9375 36.28125 12.9375 25.984375 
Q 12.9375 15.53125 16.9375 10.796875 
Q 20.953125 6.0625 27.390625 6.0625 
Q 32.5625 6.0625 36.03125 9.234375 
Q 39.5 12.40625 40.4375 19 
z
" id="ArialMT-99"/>
      <path d="M 40.4375 6.390625 
Q 35.546875 2.25 31.03125 0.53125 
Q 26.515625 -1.171875 21.34375 -1.171875 
Q 12.796875 -1.171875 8.203125 3 
Q 3.609375 7.171875 3.609375 13.671875 
Q 3.609375 17.484375 5.34375 20.625 
Q 7.078125 23.78125 9.890625 25.6875 
Q 12.703125 27.59375 16.21875 28.5625 
Q 18.796875 29.25 24.03125 29.890625 
Q 34.671875 31.15625 39.703125 32.90625 
Q 39.75 34.71875 39.75 35.203125 
Q 39.75 40.578125 37.25 42.78125 
Q 33.890625 45.75 27.25 45.75 
Q 21.046875 45.75 18.09375 43.578125 
Q 15.140625 41.40625 13.71875 35.890625 
L 5.125 37.0625 
Q 6.296875 42.578125 8.984375 45.96875 
Q 11.671875 49.359375 16.75 51.1875 
Q 21.828125 53.03125 28.515625 53.03125 
Q 35.15625 53.03125 39.296875 51.46875 
Q 43.453125 49.90625 45.40625 47.53125 
Q 47.359375 45.171875 48.140625 41.546875 
Q 48.578125 39.3125 48.578125 33.453125 
L 48.578125 21.734375 
Q 48.578125 9.46875 49.140625 6.21875 
Q 49.703125 2.984375 51.375 0 
L 42.1875 0 
Q 40.828125 2.734375 40.4375 6.390625 
z
M 39.703125 26.03125 
Q 34.90625 24.078125 25.34375 22.703125 
Q 19.921875 21.921875 17.671875 20.9375 
Q 15.4375 19.96875 14.203125 18.09375 
Q 12.984375 16.21875 12.984375 13.921875 
Q 12.984375 10.40625 15.640625 8.0625 
Q 18.3125 5.71875 23.4375 5.71875 
Q 28.515625 5.71875 32.46875 7.9375 
Q 36.421875 10.15625 38.28125 14.015625 
Q 39.703125 17 39.703125 22.796875 
z
" id="ArialMT-97"/>
      <path d="M 6.390625 0 
L 6.390625 71.578125 
L 15.1875 71.578125 
L 15.1875 0 
z
" id="ArialMT-108"/>
     </defs>
     <g transform="translate(204.72875 340.620312)scale(0.2 -0.2)">
      <use xlink:href="#ArialMT-82"/>
      <use x="72.216797" xlink:href="#ArialMT-101"/>
      <use x="127.832031" xlink:href="#ArialMT-99"/>
      <use x="177.832031" xlink:href="#ArialMT-97"/>
      <use x="233.447266" xlink:href="#ArialMT-108"/>
      <use x="255.664062" xlink:href="#ArialMT-108"/>
     </g>
    </g>
   </g>
   <g id="matplotlib.axis_2">
    <g id="ytick_1">
     <g id="line2d_7">
      <defs>
       <path d="M 0 0 
L -3.5 0 
" id="m8bdd98fe99" style="stroke:#000000;stroke-width:0.8;"/>
      </defs>
      <g>
       <use style="stroke:#000000;stroke-width:0.8;" x="65.11625" xlink:href="#m8bdd98fe99" y="290.528195"/>
      </g>
     </g>
     <g id="text_8">
      <!-- 0.0 -->
      <g transform="translate(29.490625 297.366789)scale(0.18 -0.18)">
       <use xlink:href="#DejaVuSans-48"/>
       <use x="63.623047" xlink:href="#DejaVuSans-46"/>
       <use x="95.410156" xlink:href="#DejaVuSans-48"/>
      </g>
     </g>
    </g>
    <g id="ytick_2">
     <g id="line2d_8">
      <g>
       <use style="stroke:#000000;stroke-width:0.8;" x="65.11625" xlink:href="#m8bdd98fe99" y="224.417162"/>
      </g>
     </g>
     <g id="text_9">
      <!-- 0.2 -->
      <g transform="translate(29.490625 231.255756)scale(0.18 -0.18)">
       <use xlink:href="#DejaVuSans-48"/>
       <use x="63.623047" xlink:href="#DejaVuSans-46"/>
       <use x="95.410156" xlink:href="#DejaVuSans-50"/>
      </g>
     </g>
    </g>
    <g id="ytick_3">
     <g id="line2d_9">
      <g>
       <use style="stroke:#000000;stroke-width:0.8;" x="65.11625" xlink:href="#m8bdd98fe99" y="158.306129"/>
      </g>
     </g>
     <g id="text_10">
      <!-- 0.4 -->
      <g transform="translate(29.490625 165.144722)scale(0.18 -0.18)">
       <use xlink:href="#DejaVuSans-48"/>
       <use x="63.623047" xlink:href="#DejaVuSans-46"/>
       <use x="95.410156" xlink:href="#DejaVuSans-52"/>
      </g>
     </g>
    </g>
    <g id="ytick_4">
     <g id="line2d_10">
      <g>
       <use style="stroke:#000000;stroke-width:0.8;" x="65.11625" xlink:href="#m8bdd98fe99" y="92.195096"/>
      </g>
     </g>
     <g id="text_11">
      <!-- 0.6 -->
      <g transform="translate(29.490625 99.033689)scale(0.18 -0.18)">
       <use xlink:href="#DejaVuSans-48"/>
       <use x="63.623047" xlink:href="#DejaVuSans-46"/>
       <use x="95.410156" xlink:href="#DejaVuSans-54"/>
      </g>
     </g>
    </g>
    <g id="ytick_5">
     <g id="line2d_11">
      <g>
       <use style="stroke:#000000;stroke-width:0.8;" x="65.11625" xlink:href="#m8bdd98fe99" y="26.084062"/>
      </g>
     </g>
     <g id="text_12">
      <!-- 0.8 -->
      <g transform="translate(29.490625 32.922656)scale(0.18 -0.18)">
       <use xlink:href="#DejaVuSans-48"/>
       <use x="63.623047" xlink:href="#DejaVuSans-46"/>
       <use x="95.410156" xlink:href="#DejaVuSans-56"/>
      </g>
     </g>
    </g>
    <g id="text_13">
     <!-- Precision -->
     <defs>
      <path d="M 7.71875 0 
L 7.71875 71.578125 
L 34.71875 71.578125 
Q 41.84375 71.578125 45.609375 70.90625 
Q 50.875 70.015625 54.4375 67.546875 
Q 58.015625 65.09375 60.1875 60.640625 
Q 62.359375 56.203125 62.359375 50.875 
Q 62.359375 41.75 56.546875 35.421875 
Q 50.734375 29.109375 35.546875 29.109375 
L 17.1875 29.109375 
L 17.1875 0 
z
M 17.1875 37.546875 
L 35.6875 37.546875 
Q 44.875 37.546875 48.734375 40.96875 
Q 52.59375 44.390625 52.59375 50.59375 
Q 52.59375 55.078125 50.3125 58.265625 
Q 48.046875 61.46875 44.34375 62.5 
Q 41.9375 63.140625 35.5 63.140625 
L 17.1875 63.140625 
z
" id="ArialMT-80"/>
      <path d="M 6.5 0 
L 6.5 51.859375 
L 14.40625 51.859375 
L 14.40625 44 
Q 17.4375 49.515625 20 51.265625 
Q 22.5625 53.03125 25.640625 53.03125 
Q 30.078125 53.03125 34.671875 50.203125 
L 31.640625 42.046875 
Q 28.421875 43.953125 25.203125 43.953125 
Q 22.3125 43.953125 20.015625 42.21875 
Q 17.71875 40.484375 16.75 37.40625 
Q 15.28125 32.71875 15.28125 27.15625 
L 15.28125 0 
z
" id="ArialMT-114"/>
      <path d="M 6.640625 61.46875 
L 6.640625 71.578125 
L 15.4375 71.578125 
L 15.4375 61.46875 
z
M 6.640625 0 
L 6.640625 51.859375 
L 15.4375 51.859375 
L 15.4375 0 
z
" id="ArialMT-105"/>
      <path d="M 3.078125 15.484375 
L 11.765625 16.84375 
Q 12.5 11.625 15.84375 8.84375 
Q 19.1875 6.0625 25.203125 6.0625 
Q 31.25 6.0625 34.171875 8.515625 
Q 37.109375 10.984375 37.109375 14.3125 
Q 37.109375 17.28125 34.515625 19 
Q 32.71875 20.171875 25.53125 21.96875 
Q 15.875 24.421875 12.140625 26.203125 
Q 8.40625 27.984375 6.46875 31.125 
Q 4.546875 34.28125 4.546875 38.09375 
Q 4.546875 41.546875 6.125 44.5 
Q 7.71875 47.46875 10.453125 49.421875 
Q 12.5 50.921875 16.03125 51.96875 
Q 19.578125 53.03125 23.640625 53.03125 
Q 29.734375 53.03125 34.34375 51.265625 
Q 38.96875 49.515625 41.15625 46.5 
Q 43.359375 43.5 44.1875 38.484375 
L 35.59375 37.3125 
Q 35.015625 41.3125 32.203125 43.546875 
Q 29.390625 45.796875 24.265625 45.796875 
Q 18.21875 45.796875 15.625 43.796875 
Q 13.03125 41.796875 13.03125 39.109375 
Q 13.03125 37.40625 14.109375 36.03125 
Q 15.1875 34.625 17.484375 33.6875 
Q 18.796875 33.203125 25.25 31.453125 
Q 34.578125 28.953125 38.25 27.359375 
Q 41.9375 25.78125 44.03125 22.75 
Q 46.140625 19.734375 46.140625 15.234375 
Q 46.140625 10.84375 43.578125 6.953125 
Q 41.015625 3.078125 36.171875 0.953125 
Q 31.34375 -1.171875 25.25 -1.171875 
Q 15.140625 -1.171875 9.84375 3.03125 
Q 4.546875 7.234375 3.078125 15.484375 
z
" id="ArialMT-115"/>
      <path d="M 3.328125 25.921875 
Q 3.328125 40.328125 11.328125 47.265625 
Q 18.015625 53.03125 27.640625 53.03125 
Q 38.328125 53.03125 45.109375 46.015625 
Q 51.90625 39.015625 51.90625 26.65625 
Q 51.90625 16.65625 48.90625 10.90625 
Q 45.90625 5.171875 40.15625 2 
Q 34.421875 -1.171875 27.640625 -1.171875 
Q 16.75 -1.171875 10.03125 5.8125 
Q 3.328125 12.796875 3.328125 25.921875 
z
M 12.359375 25.921875 
Q 12.359375 15.96875 16.703125 11.015625 
Q 21.046875 6.0625 27.640625 6.0625 
Q 34.1875 6.0625 38.53125 11.03125 
Q 42.875 16.015625 42.875 26.21875 
Q 42.875 35.84375 38.5 40.796875 
Q 34.125 45.75 27.640625 45.75 
Q 21.046875 45.75 16.703125 40.8125 
Q 12.359375 35.890625 12.359375 25.921875 
z
" id="ArialMT-111"/>
      <path d="M 6.59375 0 
L 6.59375 51.859375 
L 14.5 51.859375 
L 14.5 44.484375 
Q 20.21875 53.03125 31 53.03125 
Q 35.6875 53.03125 39.625 51.34375 
Q 43.5625 49.65625 45.515625 46.921875 
Q 47.46875 44.1875 48.25 40.4375 
Q 48.734375 37.984375 48.734375 31.890625 
L 48.734375 0 
L 39.9375 0 
L 39.9375 31.546875 
Q 39.9375 36.921875 38.90625 39.578125 
Q 37.890625 42.234375 35.28125 43.8125 
Q 32.671875 45.40625 29.15625 45.40625 
Q 23.53125 45.40625 19.453125 41.84375 
Q 15.375 38.28125 15.375 28.328125 
L 15.375 0 
z
" id="ArialMT-110"/>
     </defs>
     <g transform="translate(21.515625 203.110625)rotate(-90)scale(0.2 -0.2)">
      <use xlink:href="#ArialMT-80"/>
      <use x="66.699219" xlink:href="#ArialMT-114"/>
      <use x="100" xlink:href="#ArialMT-101"/>
      <use x="155.615234" xlink:href="#ArialMT-99"/>
      <use x="205.615234" xlink:href="#ArialMT-105"/>
      <use x="227.832031" xlink:href="#ArialMT-115"/>
      <use x="277.832031" xlink:href="#ArialMT-105"/>
      <use x="300.048828" xlink:href="#ArialMT-111"/>
      <use x="355.664062" xlink:href="#ArialMT-110"/>
     </g>
    </g>
   </g>
   <g id="line2d_12">
    <path clip-path="url(#p6af1a0ac52)" d="M 80.718287 198.07741 
L 82.370532 204.644606 
L 82.988038 208.944367 
L 83.905952 210.230587 
L 84.72373 211.807997 
L 85.691712 211.157604 
L 86.559559 212.407084 
L 87.277201 214.28501 
L 88.128357 214.92004 
L 88.996203 215.130947 
L 89.630399 216.653374 
L 90.398109 217.806059 
L 91.13244 219.415452 
L 91.850082 220.69931 
L 92.968268 224.023476 
L 94.436931 225.075487 
L 95.071126 226.310156 
L 95.605185 227.03952 
L 96.389584 227.25379 
L 97.02378 228.092914 
L 98.425685 229.321399 
L 98.909676 230.334793 
L 101.012534 231.494581 
L 101.496525 232.001171 
L 102.214167 232.331863 
L 102.814983 232.791928 
L 103.282285 233.465471 
L 103.93317 233.93523 
L 104.600744 234.207326 
L 105.268317 234.677945 
L 106.086096 234.770351 
L 108.105507 235.647922 
L 109.190314 236.625389 
L 109.824509 236.871273 
L 110.408637 237.336945 
L 111.009453 237.53165 
L 111.777163 237.601582 
L 112.62832 237.55557 
L 113.779885 237.888047 
L 114.397391 238.032965 
L 115.532266 238.570892 
L 116.283287 238.636017 
L 116.733899 238.980903 
L 117.318027 239.189146 
L 118.336077 239.922965 
L 118.820068 240.297661 
L 119.370816 240.531578 
L 120.188594 240.475862 
L 120.589139 240.884798 
L 121.373538 240.913068 
L 123.509775 242.434844 
L 125.796215 243.026483 
L 126.797576 243.364951 
L 129.217532 243.61127 
L 129.684833 243.852856 
L 130.319029 244.003235 
L 131.487283 244.760749 
L 131.921206 244.922872 
L 133.690277 245.13685 
L 134.691638 245.451301 
L 136.260436 245.71488 
L 136.594223 245.902621 
L 137.361933 245.904733 
L 137.779167 246.033448 
L 138.179711 246.290374 
L 139.715131 246.601883 
L 142.251912 247.081892 
L 142.836039 247.522572 
L 143.937536 247.649071 
L 144.905519 247.871168 
L 145.739986 248.063981 
L 146.207288 248.137764 
L 147.025066 248.443276 
L 148.410282 248.763558 
L 148.610554 249.002627 
L 149.72874 249.469724 
L 150.663344 249.604973 
L 153.099988 250.312757 
L 156.287654 251.013631 
L 156.571373 251.176587 
L 158.974639 251.790459 
L 159.725659 252.173063 
L 160.610195 252.276262 
L 162.679674 252.688629 
L 163.781171 252.943543 
L 165.133008 253.044317 
L 165.833961 253.177964 
L 168.253916 253.607395 
L 168.838043 253.78795 
L 170.690561 254.044385 
L 175.680676 255.25288 
L 177.516504 255.359765 
L 178.40104 255.571227 
L 179.652741 255.854181 
L 181.672152 256.267167 
L 183.057368 256.304185 
L 183.407844 256.527716 
L 184.375826 256.709749 
L 185.343808 256.896144 
L 185.527391 256.985975 
L 186.495373 257.134149 
L 187.813832 257.490122 
L 188.581542 257.554187 
L 188.715057 257.666906 
L 197.84413 259.408715 
L 200.698008 259.99618 
L 204.019189 260.629365 
L 204.469801 260.753128 
L 205.120686 260.920129 
L 207.123407 261.332005 
L 208.108079 261.53537 
L 208.542002 261.642739 
L 213.815836 262.552807 
L 215.985451 262.824543 
L 216.335927 262.944438 
L 219.623729 263.885373 
L 221.509625 264.058316 
L 223.629172 264.355678 
L 225.21466 264.587046 
L 225.948992 264.69062 
L 226.900284 264.805318 
L 229.921056 265.268176 
L 229.987814 265.325738 
L 231.256204 265.52258 
L 233.959879 266.142425 
L 235.645503 266.338249 
L 240.118248 267.129898 
L 240.685686 267.236871 
L 243.005505 267.67895 
L 244.524236 267.866191 
L 246.426821 268.073729 
L 252.1012 268.840472 
L 255.872992 269.433456 
L 257.224829 269.53377 
L 258.009229 269.64845 
L 259.461202 269.84838 
L 262.615489 270.441904 
L 267.689051 271.130754 
L 268.47345 271.240959 
L 270.042249 271.449894 
L 270.409414 271.552699 
L 272.312 271.77916 
L 273.246603 272.001765 
L 273.730594 272.093493 
L 274.982296 272.201988 
L 275.90021 272.348508 
L 276.951639 272.478996 
L 279.137943 272.819072 
L 280.990461 273.043443 
L 282.692774 273.297875 
L 291.037448 274.394279 
L 291.087516 274.436288 
L 291.955362 274.589663 
L 292.255771 274.652786 
L 297.729877 275.365325 
L 298.747927 275.472754 
L 302.185933 276.019041 
L 305.957725 276.509192 
L 307.459766 276.681891 
L 313.050698 277.417972 
L 314.369156 277.616977 
L 316.054781 277.803422 
L 319.759816 278.352488 
L 321.345304 278.602947 
L 323.798638 278.917707 
L 325.267301 279.136823 
L 330.357552 279.873599 
L 331.192019 279.998845 
L 338.034652 280.936373 
L 345.912024 282.081234 
L 347.614337 282.298016 
L 349.667127 282.650125 
L 350.201186 282.705641 
L 350.201186 282.705641 
" style="fill:none;stroke:#ff0000;stroke-linecap:square;stroke-width:1.5;"/>
   </g>
   <g id="line2d_13">
    <path clip-path="url(#p6af1a0ac52)" d="M 80.334432 282.203754 
L 80.467947 282.453878 
L 80.618151 282.569527 
L 80.718287 282.489918 
L 80.734976 282.73881 
L 80.868491 282.524175 
L 80.935248 282.593178 
L 81.085452 282.455777 
L 81.118831 282.530346 
L 81.319103 282.58616 
L 81.66958 282.22496 
L 81.702958 282.252865 
L 81.736337 282.26961 
L 81.936609 282.200764 
L 82.003367 282.375046 
L 82.337154 282.131849 
L 82.554115 282.034837 
L 82.68763 282.232894 
L 82.887902 282.318328 
L 83.154932 282.153195 
L 83.18831 282.242451 
L 83.288446 282.193723 
L 83.538787 282.258347 
L 83.822506 282.463897 
L 84.139603 282.315033 
L 84.306497 282.433508 
L 84.690352 282.314511 
L 84.873934 282.433325 
L 85.007449 282.526627 
L 85.2411 282.529691 
L 85.958742 282.48229 
L 85.992121 282.522088 
L 86.492801 282.449631 
L 86.793209 282.422628 
L 86.943414 282.376145 
L 86.960103 282.436235 
L 87.277201 282.493084 
L 87.727813 282.452785 
L 88.512212 282.536493 
L 88.56228 282.650684 
L 89.229854 282.500045 
L 89.546952 282.509687 
L 90.498245 282.53816 
L 91.883461 282.429552 
L 92.334073 282.415315 
L 95.98904 283.026923 
L 96.823507 283.080437 
L 97.257431 283.079884 
L 97.958383 283.055818 
L 98.091898 283.154539 
L 100.86233 283.342764 
L 101.446457 283.380046 
L 102.514575 283.372954 
L 104.750948 283.532587 
L 105.71893 283.629021 
L 105.952581 283.702175 
L 107.120835 283.693694 
L 107.871856 283.736952 
L 110.642287 283.736128 
L 118.903515 283.914234 
L 119.354127 283.960495 
L 126.647372 284.083811 
L 127.164742 284.134044 
L 130.686194 284.22865 
L 132.204925 284.283157 
L 136.243747 284.358148 
L 139.665063 284.36375 
L 158.390512 284.579625 
L 162.0121 284.668387 
L 195.006941 285.353031 
L 312.082716 286.637483 
L 364.720919 287.137243 
L 384.698068 287.413064 
L 384.698068 287.413064 
" style="fill:none;stroke:#008000;stroke-linecap:square;stroke-width:1.5;"/>
   </g>
   <g id="line2d_14">
    <path clip-path="url(#p6af1a0ac52)" d="M 80.568083 235.162932 
L 80.751666 236.363719 
L 81.118831 234.566201 
L 81.40255 233.714026 
L 81.602822 233.572981 
L 81.702958 233.974881 
L 81.936609 233.154125 
L 82.103503 233.099588 
L 82.186949 233.272681 
L 82.320464 233.903617 
L 82.470668 234.009324 
L 82.537426 234.769809 
L 82.871213 235.165075 
L 83.655612 234.028017 
L 84.172982 235.632192 
L 84.656973 234.771902 
L 84.807177 235.31485 
L 84.974071 235.49459 
L 85.474751 234.800272 
L 85.691712 234.945229 
L 85.841917 235.541615 
L 86.27584 235.570121 
L 86.843277 235.020236 
L 87.04355 235.497743 
L 87.277201 235.344455 
L 87.510851 235.361399 
L 87.79457 235.145401 
L 88.111668 235.125525 
L 88.31194 235.325317 
L 88.595659 235.381919 
L 88.929446 234.962093 
L 89.096339 235.332594 
L 89.396748 234.980357 
L 89.780603 235.496409 
L 90.064322 235.56619 
L 90.281283 235.795901 
L 90.348041 236.21582 
L 90.598381 236.400628 
L 90.715206 236.86922 
L 91.316023 237.178304 
L 91.716567 237.161457 
L 91.950218 237.454661 
L 92.233937 237.531259 
L 92.40083 237.989626 
L 92.834753 237.742913 
L 93.352123 238.001472 
L 93.702599 237.983299 
L 93.986318 238.116126 
L 94.303416 238.954351 
L 94.987679 238.895585 
L 96.189312 238.582509 
L 96.623235 238.311684 
L 97.390945 238.337542 
L 97.858247 238.181844 
L 98.141966 238.650488 
L 98.442374 238.894149 
L 98.642646 239.318227 
L 99.009812 239.324245 
L 99.226774 239.587531 
L 99.593939 239.641493 
L 99.82759 239.854521 
L 100.027862 240.336311 
L 100.762194 240.648395 
L 101.062602 240.840754 
L 101.830312 241.042083 
L 102.147409 241.328063 
L 103.215528 241.75161 
L 103.732897 241.633321 
L 104.033306 241.871781 
L 104.517297 242.011227 
L 106.002649 241.95602 
L 106.770359 242.176218 
L 107.788409 242.183843 
L 109.090178 242.61148 
L 109.55748 242.603748 
L 109.991403 242.722438 
L 110.992764 242.623705 
L 111.710406 242.924754 
L 112.044193 243.153762 
L 112.511494 243.261374 
L 112.895349 243.556877 
L 114.113672 243.281629 
L 114.597663 243.278933 
L 115.315305 243.071638 
L 116.21653 243.484171 
L 117.601746 244.084024 
L 118.653174 244.148567 
L 120.989683 244.763042 
L 121.957665 244.930277 
L 122.291452 245.168737 
L 122.959026 245.172144 
L 126.580615 246.27877 
L 128.216171 246.454173 
L 128.833677 246.96928 
L 129.417804 247.030437 
L 130.218892 246.833647 
L 130.853088 246.814826 
L 131.987963 246.995024 
L 132.755673 247.010021 
L 134.140889 247.467707 
L 135.242386 247.604881 
L 136.060164 247.526771 
L 136.911321 247.884756 
L 137.44538 247.969821 
L 138.263158 248.3061 
L 141.100347 248.732735 
L 141.617717 248.868922 
L 142.869418 248.890114 
L 143.286652 249.09111 
L 145.539714 249.415817 
L 150.930373 249.787322 
L 151.347607 249.975325 
L 152.716133 250.06373 
L 154.919127 250.477057 
L 157.40584 250.704168 
L 158.757677 250.728366 
L 159.859174 250.858372 
L 161.094186 251.064076 
L 161.49473 251.22751 
L 162.178994 251.26706 
L 163.263801 251.215224 
L 168.637771 252.163185 
L 169.43886 252.157892 
L 169.922851 252.266722 
L 171.958951 252.322008 
L 175.997774 252.587336 
L 176.715416 252.581032 
L 178.551244 252.869148 
L 179.752877 252.986071 
L 180.1868 253.104567 
L 181.655462 253.200237 
L 182.056007 253.346212 
L 183.591427 253.542028 
L 186.662267 253.879299 
L 188.080861 253.931409 
L 189.215737 254.0582 
L 195.574379 254.958103 
L 196.82608 255.058206 
L 197.710615 255.233399 
L 199.095831 255.33405 
L 200.764766 255.724751 
L 201.565854 255.95145 
L 203.051206 255.97357 
L 206.472523 256.332529 
L 208.408487 256.471285 
L 211.212297 256.78101 
L 212.814475 256.99152 
L 214.316516 257.21524 
L 222.444229 257.881512 
L 224.480329 257.952129 
L 232.507905 258.637691 
L 233.442509 258.782449 
L 235.528677 258.992621 
L 236.596796 259.079048 
L 238.182284 259.23044 
L 240.101559 259.447012 
L 242.471446 259.722455 
L 243.372671 259.850665 
L 245.291946 260.074528 
L 247.127774 260.294998 
L 248.696573 260.4258 
L 250.015031 260.609046 
L 252.702016 260.938628 
L 252.952356 261.010738 
L 255.839614 261.284108 
L 278.136582 263.467919 
L 280.306198 263.663428 
L 291.271099 265.150788 
L 293.006791 265.30388 
L 300.750649 266.369646 
L 301.601805 266.516487 
L 307.326252 267.166269 
L 308.294234 267.359754 
L 310.764257 267.679835 
L 311.164802 267.772256 
L 312.433192 267.981255 
L 313.885165 268.254993 
L 316.889248 268.616484 
L 323.898774 269.640303 
L 325.717913 269.842105 
L 326.435555 269.953908 
L 330.624581 270.521775 
L 332.944401 270.833244 
L 334.763539 271.12526 
L 337.033291 271.581475 
L 343.475379 272.533796 
L 343.759098 272.613272 
L 349.450166 273.401245 
L 354.95765 274.498546 
L 358.011801 274.968274 
L 359.363638 275.150829 
L 363.702869 275.96216 
L 363.853073 276.039092 
L 367.291078 276.769179 
L 368.659605 277.156724 
L 370.378608 277.611725 
L 370.562191 277.684483 
L 372.281193 278.096705 
L 373.883371 278.441678 
L 374.517566 278.628356 
L 377.955572 279.393328 
L 378.472941 279.551764 
L 378.873486 279.712772 
L 379.474302 279.958137 
L 381.693986 280.587858 
L 381.860879 280.678078 
L 382.311491 280.861207 
L 382.762104 280.996454 
L 383.763465 281.379489 
L 384.39766 281.686313 
L 384.39766 281.686313 
" style="fill:none;stroke:#0000ff;stroke-linecap:square;stroke-width:1.5;"/>
   </g>
   <g id="line2d_15">
    <path clip-path="url(#p6af1a0ac52)" d="M 80.3845 229.148512 
L 80.518015 228.626479 
L 80.684908 229.206124 
L 80.785044 229.082484 
L 80.88518 229.52799 
L 81.018695 228.917427 
L 81.469307 225.179981 
L 81.602822 225.157211 
L 81.786405 224.417162 
L 81.986677 225.322792 
L 82.370532 227.187063 
L 82.520736 227.112336 
L 82.804455 227.94556 
L 82.93797 227.936794 
L 83.271757 227.818925 
L 83.438651 228.888122 
L 83.538787 229.510018 
L 83.588855 230.851099 
L 83.755748 230.593204 
L 83.872574 230.900385 
L 84.206361 230.440231 
L 84.289807 230.986334 
L 84.573526 230.48886 
L 84.757109 230.523379 
L 84.957381 230.09716 
L 85.040828 230.71587 
L 85.2411 230.528892 
L 85.524819 231.352548 
L 85.875295 231.407275 
L 86.125636 231.723824 
L 86.27584 231.903865 
L 86.359286 232.536061 
L 86.576248 232.225389 
L 86.926724 232.868632 
L 87.377337 233.05261 
L 87.477473 233.4466 
L 87.711124 233.570164 
L 87.777881 233.996407 
L 87.978153 234.172677 
L 88.211804 234.039838 
L 88.395387 234.091947 
L 88.645727 234.882177 
L 88.879378 234.826471 
L 89.012893 235.096877 
L 89.463505 235.310628 
L 89.713845 235.263963 
L 90.431487 235.769004 
L 90.581691 236.213524 
L 90.832032 236.416903 
L 91.082372 236.463311 
L 91.265955 236.690187 
L 91.482916 236.773778 
L 91.850082 237.312446 
L 92.133801 237.220522 
L 92.334073 237.320592 
L 92.834753 238.920215 
L 93.485638 239.379573 
L 93.635842 239.6259 
L 93.919561 239.339862 
L 94.053076 239.59993 
L 94.503688 239.868773 
L 95.171262 240.140968 
L 95.321466 240.442683 
L 95.905593 240.279869 
L 96.673303 240.555579 
L 96.990401 240.461973 
L 97.224052 240.591496 
L 97.374256 240.842263 
L 97.975072 241.065995 
L 98.29217 241.107053 
L 98.926365 241.744258 
L 99.360288 242.071564 
L 99.694075 242.590233 
L 99.961105 242.745943 
L 100.311581 243.296292 
L 100.695436 243.784696 
L 101.329631 243.749386 
L 101.463146 244.072311 
L 101.997205 244.231168 
L 102.180788 244.457146 
L 102.531264 244.378076 
L 102.798294 244.471902 
L 103.132081 244.440749 
L 103.699519 244.698672 
L 104.467229 245.088671 
L 104.767637 245.107772 
L 105.418522 245.798561 
L 105.735619 245.814788 
L 105.919202 246.03734 
L 106.503329 246.129034 
L 107.020699 246.368554 
L 107.387865 246.363077 
L 107.604826 246.577931 
L 107.888545 246.69557 
L 108.255711 246.698976 
L 108.506051 246.895843 
L 109.090178 247.048457 
L 109.407276 247.191782 
L 109.724373 247.644649 
L 110.024782 247.73563 
L 110.692356 247.416038 
L 111.293172 247.994058 
L 111.810542 248.130991 
L 112.294533 248.339049 
L 112.678388 248.328397 
L 113.462787 248.73298 
L 113.679749 248.983218 
L 114.013536 249.091455 
L 114.547595 249.522432 
L 114.998207 249.523213 
L 115.615713 249.711695 
L 116.266598 249.815063 
L 116.633763 250.212846 
L 117.501609 250.216182 
L 119.153855 250.974182 
L 119.687914 250.91197 
L 120.989683 251.662867 
L 121.290091 251.700707 
L 121.774082 251.968717 
L 122.157937 251.980113 
L 122.808822 252.211489 
L 124.477757 252.77406 
L 125.595943 252.946265 
L 126.313585 253.142317 
L 126.480479 253.394792 
L 127.381703 253.767254 
L 127.849005 253.782361 
L 128.065967 253.969043 
L 128.49989 253.995214 
L 129.067327 254.240775 
L 130.519301 254.484036 
L 131.05336 254.764953 
L 131.82107 254.839051 
L 135.592862 255.554099 
L 136.911321 255.92172 
L 138.413362 256.470152 
L 139.297898 256.799371 
L 140.098986 256.924501 
L 140.349327 257.0472 
L 141.517581 257.191631 
L 142.085019 257.403687 
L 149.495089 258.731202 
L 149.72874 258.86186 
L 151.998491 259.242488 
L 152.666065 259.417849 
L 153.700805 259.651238 
L 157.622802 260.296977 
L 158.907881 260.24668 
L 160.99405 260.37456 
L 162.496091 260.621324 
L 163.881307 260.984891 
L 164.098269 261.10383 
L 165.633689 261.376284 
L 166.434777 261.516329 
L 168.504256 261.825774 
L 169.622443 262.062452 
L 170.45691 262.153555 
L 171.157863 262.331383 
L 173.394235 262.564374 
L 174.078499 262.721714 
L 176.732105 263.221126 
L 176.949066 263.330733 
L 177.666708 263.471007 
L 179.035235 263.603972 
L 183.074057 264.045884 
L 183.741631 264.208271 
L 185.627527 264.536575 
L 187.363219 264.577791 
L 188.481406 264.630092 
L 189.382631 264.71635 
L 190.817914 264.974719 
L 192.169752 265.127815 
L 193.688482 265.25543 
L 194.940183 265.418685 
L 195.524311 265.574859 
L 198.394878 265.937166 
L 199.780094 266.070495 
L 215.117605 267.777702 
L 217.570939 267.968217 
L 219.540282 268.243166 
L 231.306272 269.531868 
L 233.976568 269.785565 
L 237.76505 270.186404 
L 240.218384 270.380742 
L 244.958159 270.944661 
L 248.129135 271.234791 
L 249.864827 271.416465 
L 259.277619 272.250661 
L 261.29703 272.474497 
L 265.736397 273.006896 
L 268.657033 273.28308 
L 270.242521 273.44518 
L 280.289508 274.286633 
L 282.342298 274.531869 
L 301.518359 276.0445 
L 303.704663 276.254853 
L 321.528887 277.935707 
L 324.432833 278.196935 
L 328.288073 278.502747 
L 334.196102 279.043179 
L 336.182134 279.237766 
L 338.435196 279.460149 
L 341.939959 279.816859 
L 345.878645 280.186885 
L 347.998192 280.405703 
L 351.63647 280.7795 
L 355.191301 281.154311 
L 355.591846 281.220412 
L 367.841827 282.54743 
L 369.944685 282.874007 
L 372.064232 283.168622 
L 373.849992 283.431596 
L 376.303326 283.723791 
L 378.806728 284.104993 
L 379.507681 284.209759 
L 381.310131 284.4978 
L 382.912308 284.798906 
L 382.912308 284.798906 
" style="fill:none;stroke:#bfbf00;stroke-linecap:square;stroke-width:1.5;"/>
   </g>
   <g id="line2d_16">
    <path clip-path="url(#p6af1a0ac52)" d="M 80.484636 129.717574 
L 80.835112 129.658014 
L 81.485997 126.836769 
L 81.769716 127.034183 
L 82.270396 123.884682 
L 82.654251 127.487452 
L 83.104864 129.115425 
L 83.672301 129.795746 
L 84.156292 129.300588 
L 84.556837 131.890428 
L 85.157653 131.569071 
L 85.808538 130.212041 
L 86.359286 130.347278 
L 87.126996 128.111972 
L 87.577609 129.640798 
L 88.0616 130.288814 
L 88.629038 129.932697 
L 89.34668 129.878385 
L 89.964186 131.379699 
L 90.681827 131.350142 
L 92.000286 131.775903 
L 92.834753 130.620642 
L 93.402191 131.626305 
L 95.087815 131.404959 
L 95.805457 132.337987 
L 96.606546 132.707763 
L 97.257431 132.539373 
L 98.125277 132.611662 
L 98.676025 134.631068 
L 99.460424 135.471573 
L 100.278202 136.647149 
L 101.045912 137.25521 
L 102.147409 135.848643 
L 102.764915 137.526665 
L 103.4158 137.964272 
L 104.68419 139.459168 
L 105.635483 139.47042 
L 106.202921 140.909394 
L 106.887184 141.077295 
L 108.2724 142.279694 
L 109.073489 142.243941 
L 109.857888 142.860612 
L 110.32519 144.318271 
L 111.510134 145.980581 
L 112.027503 146.886325 
L 112.745145 147.150817 
L 113.529545 146.969042 
L 114.313944 146.428422 
L 114.964829 147.106023 
L 115.732539 147.374383 
L 116.400112 147.890545 
L 117.217891 147.901964 
L 117.852086 148.353303 
L 119.437574 149.220466 
L 120.422245 149.289997 
L 121.32347 149.189945 
L 121.890908 149.784824 
L 122.775443 149.774343 
L 123.476396 150.212965 
L 124.160659 150.369618 
L 124.611272 150.959367 
L 125.512496 151.144421 
L 126.213449 151.729985 
L 126.914402 152.080634 
L 127.648733 152.271097 
L 128.533268 152.20122 
L 129.25091 152.77848 
L 130.051999 153.100536 
L 130.719573 153.646696 
L 131.520662 153.648172 
L 132.355129 153.840843 
L 133.122839 154.340767 
L 134.725016 154.340573 
L 135.592862 154.688923 
L 136.360572 154.689903 
L 136.978078 155.186045 
L 137.478759 155.898975 
L 138.914043 156.442927 
L 139.531549 156.773825 
L 140.349327 156.915284 
L 141.350687 156.429797 
L 142.034951 157.000401 
L 144.221255 157.810544 
L 144.755314 158.377932 
L 145.606471 158.409246 
L 146.057084 159.102264 
L 147.358853 159.865996 
L 147.94298 160.35694 
L 148.46035 161.195004 
L 149.044477 161.82121 
L 149.795497 162.12488 
L 151.197403 162.245717 
L 153.300261 164.035863 
L 153.934456 164.305743 
L 154.485204 164.747243 
L 155.069331 164.98287 
L 156.571373 165.303147 
L 157.172189 165.648325 
L 157.906521 165.828824 
L 159.224979 166.472222 
L 159.942621 166.701101 
L 160.610195 167.100852 
L 161.995411 167.550058 
L 163.146976 168.173376 
L 163.781171 168.446291 
L 164.331919 168.84773 
L 168.003576 169.660009 
L 168.287295 170.276252 
L 168.971558 170.746049 
L 171.74199 171.536736 
L 173.844848 172.066648 
L 174.612558 172.158505 
L 175.296821 172.378036 
L 176.765484 172.680153 
L 177.266164 172.979611 
L 177.63333 173.423337 
L 179.001856 173.745691 
L 179.502537 174.075071 
L 180.270247 174.32974 
L 180.637412 174.791879 
L 181.772288 175.177161 
L 182.172832 175.662831 
L 183.291019 176.325633 
L 184.926575 177.020182 
L 186.461995 177.097987 
L 186.812471 177.521852 
L 188.36458 178.367733 
L 188.765125 178.754977 
L 192.052926 180.38048 
L 193.121044 180.801191 
L 193.621725 181.256737 
L 194.823358 181.706816 
L 195.457553 181.987007 
L 196.709254 182.888107 
L 197.777372 183.291433 
L 198.061091 183.677163 
L 201.115242 184.926876 
L 201.565854 185.204453 
L 203.251479 185.721743 
L 204.002499 185.748288 
L 205.52123 186.413134 
L 205.955153 186.580538 
L 206.856378 187.113247 
L 207.991253 187.453267 
L 208.425176 187.688229 
L 209.076061 187.888816 
L 209.443227 188.206123 
L 209.893839 188.4278 
L 210.227626 188.752134 
L 211.212297 189.095804 
L 211.863182 189.149402 
L 213.298466 189.739084 
L 213.632253 190.148644 
L 214.883954 190.904033 
L 215.134294 191.313634 
L 216.703093 191.81624 
L 218.104998 192.218537 
L 218.772572 192.64233 
L 219.807312 193.381648 
L 220.791983 193.703223 
L 221.042323 194.043516 
L 221.543004 194.184028 
L 221.876791 194.440443 
L 224.914252 195.873056 
L 226.015749 196.478585 
L 226.633255 196.570997 
L 227.334207 197.088305 
L 228.051849 197.5184 
L 228.252122 197.833481 
L 228.569219 198.119852 
L 232.64142 200.157176 
L 232.89176 200.42946 
L 233.742917 200.768216 
L 234.827725 201.356842 
L 235.662192 201.641299 
L 237.230991 202.39608 
L 237.464642 202.655857 
L 238.649585 203.207479 
L 239.784461 203.731295 
L 240.051491 203.987583 
L 240.769133 204.3484 
L 241.653668 204.974681 
L 242.020834 205.144719 
L 242.571582 205.603463 
L 249.614487 208.773653 
L 250.098478 208.876459 
L 250.682605 209.263232 
L 251.900928 209.690473 
L 252.468365 210.014735 
L 254.237436 210.797844 
L 254.471087 210.974785 
L 256.624013 211.801223 
L 257.45848 212.298085 
L 257.658753 212.540946 
L 259.344377 213.293696 
L 262.214944 214.73424 
L 262.415217 214.914919 
L 263.449956 215.369269 
L 264.000705 215.704938 
L 264.684968 215.945167 
L 266.921341 216.932674 
L 268.523518 217.68916 
L 269.708462 218.289114 
L 270.275899 218.571031 
L 270.976852 219.097374 
L 271.644426 219.578819 
L 273.563701 220.578142 
L 273.947556 220.923341 
L 274.748645 221.290407 
L 274.932228 221.442434 
L 275.599801 221.690038 
L 275.750006 221.872432 
L 277.569144 222.416995 
L 281.52452 224.148259 
L 282.475813 224.441875 
L 283.260212 224.836381 
L 284.094679 225.380867 
L 284.995904 225.68977 
L 286.481256 226.448738 
L 287.048694 226.673775 
L 288.333774 227.28347 
L 288.500667 227.450966 
L 289.134863 227.658656 
L 292.656315 229.407728 
L 293.357268 229.783929 
L 296.044253 230.900134 
L 296.444797 231.179596 
L 297.295954 231.512952 
L 297.796634 231.727345 
L 302.25269 233.724885 
L 303.721353 234.549007 
L 303.838178 234.669275 
L 304.372237 234.859749 
L 305.32353 235.427606 
L 306.074551 235.74457 
L 314.068748 239.974375 
L 314.519361 240.448561 
L 316.371878 241.336375 
L 317.590201 241.895792 
L 318.441357 242.138266 
L 321.829295 243.905773 
L 321.94612 244.016869 
L 322.46349 244.178694 
L 326.752653 246.540849 
L 327.303401 246.700794 
L 327.870839 246.989243 
L 329.172608 247.478872 
L 330.007075 247.836735 
L 331.075194 248.274527 
L 333.411702 249.451931 
L 334.212791 250.002486 
L 335.26422 250.403031 
L 336.515921 251.24663 
L 336.5493 251.354815 
L 337.166806 251.592304 
L 339.787033 253.122061 
L 340.921909 253.507534 
L 343.291796 254.616891 
L 344.526808 255.301318 
L 344.960731 255.644921 
L 345.995471 256.14091 
L 346.579598 256.577967 
L 347.514201 256.971966 
L 349.633748 258.14533 
L 350.434837 258.769373 
L 352.554384 259.846166 
L 353.004997 260.085718 
L 353.372162 260.340584 
L 354.073115 260.673538 
L 354.156562 260.765964 
L 354.824136 261.095976 
L 355.124544 261.358884 
L 355.691982 261.69201 
L 357.143955 262.519149 
L 359.447085 263.678585 
L 363.335703 266.109826 
L 363.903141 266.360343 
L 365.421871 267.346153 
L 365.939241 267.719468 
L 366.189581 267.903699 
L 367.140874 268.345718 
L 372.665048 271.383301 
L 373.349312 271.901141 
L 374.801285 272.851284 
L 374.984868 273.085022 
L 375.502238 273.40999 
L 376.002918 273.74777 
L 376.570356 274.206831 
L 376.570356 274.206831 
" style="fill:none;stroke:#bf00bf;stroke-linecap:square;stroke-width:1.5;"/>
   </g>
   <g id="line2d_17">
    <path clip-path="url(#p6af1a0ac52)" d="M 80.3845 172.560552 
L 80.684908 169.593378 
L 81.068763 172.581252 
L 81.452618 174.448466 
L 81.569444 178.3527 
L 81.886541 178.219091 
L 82.153571 177.69264 
L 82.287086 180.34314 
L 82.520736 180.34314 
L 82.737698 180.673035 
L 82.954659 181.290289 
L 83.321825 181.722917 
L 83.622233 181.566373 
L 83.755748 182.714672 
L 83.989399 182.721234 
L 84.239739 183.053303 
L 84.573526 182.933824 
L 84.857245 183.220237 
L 85.407994 184.638853 
L 85.608266 186.586502 
L 86.092257 187.603146 
L 86.375976 188.88986 
L 86.559559 190.435521 
L 86.843277 190.689154 
L 87.010171 192.444068 
L 87.427405 194.018033 
L 87.761192 193.951248 
L 88.545591 195.183821 
L 89.062961 195.893986 
L 89.263233 196.38109 
L 89.797292 196.862638 
L 90.197836 198.609112 
L 90.331351 200.522158 
L 90.631759 200.791764 
L 91.048993 202.288123 
L 91.366091 202.642086 
L 91.699878 204.322262 
L 92.050354 204.384687 
L 92.267316 205.101703 
L 92.584413 205.375413 
L 93.585774 205.865421 
L 94.20328 206.55154 
L 94.553756 206.945993 
L 95.204641 209.188578 
L 95.905593 209.496319 
L 97.324188 211.725097 
L 97.674664 211.845942 
L 98.108587 211.782721 
L 98.709404 212.743415 
L 98.943055 213.556064 
L 99.293531 213.661646 
L 100.027862 213.593475 
L 100.361649 214.119288 
L 100.695436 214.325278 
L 102.097341 216.879656 
L 102.447818 217.136126 
L 102.714847 217.580062 
L 102.881741 218.229522 
L 103.232217 218.391104 
L 104.283646 220.77487 
L 104.70088 220.717044 
L 104.95122 221.305467 
L 105.218249 221.594149 
L 105.568726 221.64735 
L 105.835755 222.056338 
L 106.2363 222.276707 
L 106.73698 223.277971 
L 107.220971 223.364937 
L 107.971992 223.831533 
L 108.239021 224.338916 
L 108.706323 224.438154 
L 108.923285 224.80418 
L 109.490722 224.72984 
L 110.158296 225.308324 
L 110.508773 225.56228 
L 111.042832 225.424678 
L 111.359929 225.850926 
L 112.227776 226.140304 
L 112.745145 227.033238 
L 113.663059 227.237174 
L 114.93145 228.543963 
L 115.348684 228.73991 
L 116.550317 230.0661 
L 117.000929 230.252717 
L 117.334716 230.667008 
L 118.152494 230.923867 
L 119.253991 231.58149 
L 119.704603 231.715643 
L 120.05508 232.08788 
L 120.8061 232.466698 
L 121.123198 232.778095 
L 121.607189 232.842483 
L 121.824151 233.244244 
L 122.157937 233.568721 
L 122.575171 233.690844 
L 122.875579 233.972546 
L 126.747508 235.938068 
L 127.21481 236.548981 
L 128.049277 236.873272 
L 128.349686 237.133635 
L 128.933813 237.162328 
L 129.234221 237.454914 
L 129.651455 237.615133 
L 130.135446 237.652033 
L 131.086739 238.32847 
L 131.987963 238.665257 
L 132.405197 238.809105 
L 132.705605 239.142482 
L 133.122839 239.294972 
L 133.456626 239.540957 
L 134.074132 239.543553 
L 134.441297 239.702042 
L 134.992046 239.765988 
L 135.325833 239.96826 
L 135.859892 240.044659 
L 136.126922 240.364027 
L 137.011457 240.640165 
L 137.378623 240.831943 
L 137.628963 241.131759 
L 137.96275 241.333936 
L 138.179711 241.685248 
L 140.199122 242.471509 
L 140.900075 242.899709 
L 141.634406 243.262319 
L 142.185155 243.293902 
L 144.221255 244.163444 
L 144.87214 244.560775 
L 147.842844 245.836326 
L 148.393592 245.86169 
L 149.011098 246.20979 
L 150.012459 246.693902 
L 151.247471 247.129567 
L 151.78153 247.536499 
L 152.883027 247.970343 
L 153.433775 248.059715 
L 154.017902 248.432768 
L 154.785612 248.710813 
L 155.169467 248.8925 
L 157.255636 249.159222 
L 157.789695 249.475472 
L 158.640852 249.700224 
L 158.957949 249.851123 
L 159.892553 250.069046 
L 160.543437 250.359771 
L 161.377905 250.551907 
L 162.446023 250.918327 
L 164.265162 251.291688 
L 165.60031 251.618615 
L 166.284573 251.890091 
L 167.552964 252.171442 
L 167.786614 252.379647 
L 172.793419 253.475023 
L 173.344167 253.505708 
L 174.512422 253.857133 
L 175.747433 254.123115 
L 176.982445 254.394023 
L 177.733466 254.596989 
L 178.65138 254.73586 
L 179.018546 254.854755 
L 180.537276 255.022911 
L 184.52603 255.920948 
L 185.877867 256.121339 
L 187.079501 256.363426 
L 188.064172 256.468946 
L 189.232426 256.735315 
L 190.534196 256.959661 
L 194.77329 257.606775 
L 195.457553 257.806498 
L 205.27089 259.287681 
L 208.825721 259.908512 
L 215.952072 260.788888 
L 217.28722 261.082612 
L 218.739193 261.197921 
L 219.373389 261.343126 
L 221.793344 261.704578 
L 223.395521 261.938494 
L 228.619287 262.786007 
L 229.186725 262.935226 
L 233.459198 263.415757 
L 235.244958 263.710813 
L 236.696932 263.942928 
L 249.647866 265.443695 
L 252.1012 265.681321 
L 259.294309 266.617698 
L 273.84742 268.350535 
L 276.65123 268.68527 
L 283.994543 269.572454 
L 291.23772 270.332124 
L 292.839898 270.526725 
L 305.223394 271.848066 
L 307.059222 271.995686 
L 309.41242 272.285723 
L 314.135506 272.798118 
L 316.438636 272.965817 
L 317.707026 273.155425 
L 321.528887 273.540382 
L 323.097685 273.794545 
L 344.126264 275.995093 
L 345.845266 276.222533 
L 366.656883 279.196783 
L 373.199108 280.409899 
L 375.418791 280.816725 
L 376.570356 281.023923 
L 380.942965 282.093062 
L 380.942965 282.093062 
" style="fill:none;stroke:#00bfbf;stroke-linecap:square;stroke-width:1.5;"/>
   </g>
   <g id="line2d_18">
    <path clip-path="url(#p6af1a0ac52)" d="M 80.501325 86.240996 
L 81.085452 84.810353 
L 81.335793 86.289395 
L 81.819784 82.622457 
L 82.186949 84.360732 
L 82.587494 84.566899 
L 83.104864 84.294304 
L 83.588855 81.756511 
L 83.889263 84.826683 
L 84.456701 84.639549 
L 85.024139 81.990037 
L 85.541508 82.47777 
L 86.292529 78.444622 
L 86.709763 80.576026 
L 87.177064 81.22318 
L 87.711124 80.477531 
L 88.362008 80.800959 
L 88.962825 80.849896 
L 89.630399 79.403064 
L 90.231215 78.647753 
L 90.781964 79.39774 
L 91.516295 77.9931 
L 92.016975 78.810946 
L 92.818064 79.252485 
L 93.535706 78.105859 
L 94.153212 78.964568 
L 94.837475 79.467625 
L 95.421602 79.119888 
L 96.206002 78.943193 
L 96.723371 80.614909 
L 97.457703 81.23975 
L 98.192034 82.755377 
L 98.876297 82.228769 
L 99.894347 80.889062 
L 100.478475 82.759167 
L 101.129359 83.299421 
L 101.746865 84.001368 
L 102.314303 83.87976 
L 103.198838 83.233141 
L 103.749587 83.833842 
L 104.367093 83.342983 
L 105.017977 83.325633 
L 105.668862 83.461161 
L 106.369814 82.787992 
L 107.120835 83.10743 
L 107.571447 83.746692 
L 108.105507 84.223472 
L 108.606187 84.287182 
L 109.04011 84.645712 
L 109.724373 84.919719 
L 110.458705 84.099445 
L 111.209725 83.015269 
L 111.810542 83.369642 
L 112.478116 83.195996 
L 113.129 83.486664 
L 113.89671 83.047064 
L 114.430769 83.571917 
L 116.733899 83.275353 
L 117.568367 82.534565 
L 118.102426 83.02147 
L 118.870136 82.850427 
L 119.53771 83.07295 
L 120.188594 82.76218 
L 120.605828 82.97401 
L 121.423606 82.972121 
L 122.09118 83.373106 
L 123.426328 83.389261 
L 124.177349 83.167236 
L 124.811544 83.686616 
L 125.562564 83.511685 
L 126.230138 83.82572 
L 126.96447 83.506138 
L 127.698801 83.837328 
L 128.383064 83.981709 
L 130.669505 83.325123 
L 131.353768 83.228723 
L 131.921206 83.457732 
L 132.33844 83.813943 
L 133.656898 83.954108 
L 134.958667 84.296084 
L 135.876581 83.703339 
L 136.494087 84.279414 
L 137.812546 84.044887 
L 138.496809 84.057661 
L 138.964111 84.307227 
L 139.731821 84.213331 
L 140.132365 84.640797 
L 141.28393 84.648125 
L 141.8013 85.019267 
L 142.268602 85.508293 
L 142.785971 85.638199 
L 145.12248 85.611174 
L 145.589782 85.822707 
L 146.14053 85.936532 
L 146.541075 85.638222 
L 147.091823 85.752154 
L 147.525746 86.023568 
L 148.059805 86.002002 
L 148.877583 85.760352 
L 150.613276 85.561632 
L 151.197403 85.920776 
L 151.798219 85.887909 
L 152.432414 85.652148 
L 152.999852 86.01885 
L 154.284932 86.006317 
L 154.752234 86.406977 
L 155.286293 86.492561 
L 155.887109 86.350309 
L 156.354411 86.713053 
L 157.556044 86.640685 
L 159.558766 86.550161 
L 159.809106 86.872318 
L 160.393233 87.028003 
L 161.594866 86.806003 
L 162.128926 87.054281 
L 162.77981 86.923362 
L 163.347248 87.064161 
L 164.06489 87.115643 
L 165.299902 86.87227 
L 165.900718 87.168484 
L 167.169109 87.109632 
L 167.586342 87.256844 
L 167.90344 87.626447 
L 168.537635 87.537509 
L 169.622443 87.743273 
L 170.256638 87.722237 
L 170.607114 87.961384 
L 171.608475 88.16062 
L 171.892194 88.51435 
L 172.860176 88.90326 
L 174.412286 88.956665 
L 175.697365 88.721685 
L 176.031152 89.079667 
L 176.481765 89.197124 
L 176.882309 89.434859 
L 177.382989 89.489579 
L 177.733466 89.803052 
L 179.318954 90.271056 
L 180.203489 90.320479 
L 181.572016 90.757899 
L 181.97256 90.974702 
L 182.523309 90.885653 
L 183.023989 90.967904 
L 184.375826 91.600449 
L 184.692924 91.552641 
L 185.577459 91.864755 
L 185.827799 92.176814 
L 186.311791 92.279986 
L 186.645577 92.545241 
L 187.630249 92.804579 
L 188.414648 93.042521 
L 188.798503 93.192397 
L 189.833243 93.212368 
L 190.333923 93.120988 
L 191.852654 93.234541 
L 193.354695 93.660082 
L 193.905444 93.519006 
L 194.356056 93.547392 
L 194.706532 93.726582 
L 195.240592 93.73075 
L 195.574379 93.951923 
L 195.991612 93.967702 
L 196.275331 94.203462 
L 197.727304 94.227943 
L 198.878869 94.544109 
L 199.763405 95.168709 
L 200.163949 95.393931 
L 200.347532 95.695744 
L 201.716059 95.970485 
L 202.567215 95.975828 
L 203.551887 96.228885 
L 204.069257 96.592635 
L 204.870345 96.654866 
L 205.320958 96.654346 
L 205.52123 96.810071 
L 205.921774 96.913727 
L 206.138736 97.24785 
L 206.939824 97.217446 
L 207.373747 97.312187 
L 207.624088 97.519143 
L 209.526673 98.096653 
L 210.060732 98.083019 
L 210.361141 98.322554 
L 211.295744 98.596019 
L 211.445948 98.865758 
L 211.712978 99.077901 
L 212.480688 99.222461 
L 212.764407 99.326332 
L 213.014747 99.571527 
L 214.066176 100.053735 
L 214.700371 100.413407 
L 215.184362 100.88269 
L 215.584907 100.845522 
L 216.703093 101.342107 
L 217.337288 101.491608 
L 217.654386 101.591428 
L 218.255202 102.037719 
L 218.739193 102.26734 
L 219.256563 102.676651 
L 220.558332 103.09506 
L 220.758604 103.315154 
L 221.042323 103.351848 
L 221.743276 103.886591 
L 221.943548 104.101959 
L 223.061734 104.44056 
L 224.113163 104.77421 
L 224.246678 104.960754 
L 224.547086 105.018972 
L 225.114524 105.317007 
L 226.599876 105.723624 
L 227.200693 106.028947 
L 228.635977 106.379139 
L 228.986453 106.776451 
L 230.071261 106.899799 
L 230.371669 106.939772 
L 230.622009 107.094818 
L 231.256204 107.210763 
L 231.806953 107.490088 
L 232.190808 107.832784 
L 232.90845 108.007913 
L 233.075343 108.168415 
L 233.292305 108.216107 
L 233.943189 108.15494 
L 234.460559 108.632137 
L 237.24768 109.323657 
L 237.631535 109.334435 
L 238.198973 109.806472 
L 238.799789 109.991495 
L 239.250402 110.301301 
L 239.433985 110.42074 
L 239.767772 110.433769 
L 239.951354 110.582642 
L 240.802511 110.805322 
L 240.952715 110.939122 
L 242.237795 111.335551 
L 242.838612 111.575887 
L 243.105641 111.619193 
L 243.606322 112.10892 
L 244.207138 112.188783 
L 244.824644 112.565571 
L 245.291946 112.869344 
L 246.71054 113.336671 
L 247.144463 113.806382 
L 247.595076 113.968128 
L 247.862105 114.161976 
L 248.028999 114.329641 
L 248.329407 114.322601 
L 249.681244 115.010976 
L 250.215303 115.179208 
L 250.532401 115.458008 
L 250.682605 115.636267 
L 251.450315 115.796139 
L 251.750723 116.016156 
L 252.151268 116.143836 
L 252.618569 116.370421 
L 252.735395 116.481254 
L 253.453037 116.73539 
L 254.237436 117.315721 
L 254.504466 117.609647 
L 254.771495 117.757552 
L 254.888321 117.957524 
L 255.238797 118.107492 
L 255.322244 118.245683 
L 256.340294 118.562617 
L 256.44043 118.774469 
L 256.774217 118.919543 
L 257.341655 119.269651 
L 257.45848 119.577034 
L 257.97585 119.781289 
L 258.643424 120.061191 
L 258.760249 120.185742 
L 259.110726 120.356679 
L 259.194173 120.535521 
L 260.02864 120.788675 
L 260.362427 121.224719 
L 260.612767 121.348599 
L 261.063379 121.460475 
L 262.08143 121.85554 
L 262.198255 122.020605 
L 262.932586 122.364789 
L 264.100841 122.991863 
L 264.518074 123.087684 
L 267.505468 124.530084 
L 267.872633 124.866397 
L 268.857305 125.365658 
L 269.090956 125.673537 
L 269.357985 125.92959 
L 269.641704 126.184062 
L 269.875355 126.175859 
L 270.50955 126.637122 
L 271.043609 127.100708 
L 271.093678 127.280842 
L 272.445515 127.932742 
L 273.146467 128.195332 
L 273.496944 128.535094 
L 273.814041 128.91979 
L 274.531683 129.452873 
L 275.366151 129.969352 
L 275.666559 130.387554 
L 275.916899 130.420369 
L 276.417579 131.080639 
L 277.619213 132.021146 
L 278.603884 132.754316 
L 278.920982 132.985679 
L 279.021118 133.112296 
L 279.555177 133.240801 
L 279.905653 133.774199 
L 282.742842 135.931902 
L 283.243523 136.537679 
L 283.57731 136.775535 
L 286.447878 138.613841 
L 286.764975 139.000114 
L 287.566064 139.468618 
L 289.084794 141.28882 
L 289.318445 141.452917 
L 289.618854 141.727519 
L 289.869194 141.935778 
L 290.119534 142.085517 
L 290.603525 142.596805 
L 290.670283 142.90184 
L 291.154274 143.297075 
L 291.304478 143.734288 
L 291.50475 143.972371 
L 292.289149 144.914007 
L 292.656315 145.231571 
L 292.739762 145.427239 
L 293.223753 145.682327 
L 293.891327 146.52649 
L 294.942756 147.521438 
L 295.293232 148.042445 
L 295.760534 148.737968 
L 296.211146 149.21395 
L 296.645069 149.617911 
L 296.761894 149.948491 
L 297.763255 151.261113 
L 297.996906 151.428411 
L 298.213868 151.67154 
L 299.081714 153.431012 
L 299.498948 154.054451 
L 300.283347 154.996927 
L 300.46693 155.415841 
L 300.667202 155.583246 
L 301.051057 156.211371 
L 301.301397 156.943322 
L 301.418223 157.202691 
L 301.651873 157.570661 
L 301.802078 157.906065 
L 302.469651 158.865978 
L 302.736681 159.082258 
L 303.203983 159.695316 
L 303.871557 160.584896 
L 304.489063 161.997838 
L 304.639267 162.40305 
L 304.922986 162.748365 
L 305.006432 163.037418 
L 305.790832 164.299635 
L 306.441716 165.673613 
L 306.925707 166.86197 
L 307.37632 167.654606 
L 307.693417 168.423198 
L 308.544574 170.173992 
L 308.778225 170.641257 
L 310.497228 175.025153 
L 310.764257 176.125374 
L 311.231559 177.707108 
L 311.231559 177.707108 
" style="fill:none;stroke:#ffa500;stroke-linecap:square;stroke-width:1.5;"/>
   </g>
   <g id="patch_3">
    <path d="M 65.11625 297.884062 
L 65.11625 26.084062 
" style="fill:none;stroke:#000000;stroke-linecap:square;stroke-linejoin:miter;stroke-width:0.8;"/>
   </g>
   <g id="patch_4">
    <path d="M 399.91625 297.884062 
L 399.91625 26.084062 
" style="fill:none;stroke:#000000;stroke-linecap:square;stroke-linejoin:miter;stroke-width:0.8;"/>
   </g>
   <g id="patch_5">
    <path d="M 65.11625 297.884062 
L 399.91625 297.884062 
" style="fill:none;stroke:#000000;stroke-linecap:square;stroke-linejoin:miter;stroke-width:0.8;"/>
   </g>
   <g id="patch_6">
    <path d="M 65.11625 26.084062 
L 399.91625 26.084062 
" style="fill:none;stroke:#000000;stroke-linecap:square;stroke-linejoin:miter;stroke-width:0.8;"/>
   </g>
   <g id="text_14">
    <!-- (0.54,0.54) -->
    <defs>
     <path d="M 31 75.875 
Q 24.46875 64.65625 21.28125 53.65625 
Q 18.109375 42.671875 18.109375 31.390625 
Q 18.109375 20.125 21.3125 9.0625 
Q 24.515625 -2 31 -13.1875 
L 23.1875 -13.1875 
Q 15.875 -1.703125 12.234375 9.375 
Q 8.59375 20.453125 8.59375 31.390625 
Q 8.59375 42.28125 12.203125 53.3125 
Q 15.828125 64.359375 23.1875 75.875 
z
" id="DejaVuSans-40"/>
     <path d="M 10.796875 72.90625 
L 49.515625 72.90625 
L 49.515625 64.59375 
L 19.828125 64.59375 
L 19.828125 46.734375 
Q 21.96875 47.46875 24.109375 47.828125 
Q 26.265625 48.1875 28.421875 48.1875 
Q 40.625 48.1875 47.75 41.5 
Q 54.890625 34.8125 54.890625 23.390625 
Q 54.890625 11.625 47.5625 5.09375 
Q 40.234375 -1.421875 26.90625 -1.421875 
Q 22.3125 -1.421875 17.546875 -0.640625 
Q 12.796875 0.140625 7.71875 1.703125 
L 7.71875 11.625 
Q 12.109375 9.234375 16.796875 8.0625 
Q 21.484375 6.890625 26.703125 6.890625 
Q 35.15625 6.890625 40.078125 11.328125 
Q 45.015625 15.765625 45.015625 23.390625 
Q 45.015625 31 40.078125 35.4375 
Q 35.15625 39.890625 26.703125 39.890625 
Q 22.75 39.890625 18.8125 39.015625 
Q 14.890625 38.140625 10.796875 36.28125 
z
" id="DejaVuSans-53"/>
     <path d="M 11.71875 12.40625 
L 22.015625 12.40625 
L 22.015625 4 
L 14.015625 -11.625 
L 7.71875 -11.625 
L 11.71875 4 
z
" id="DejaVuSans-44"/>
     <path d="M 8.015625 75.875 
L 15.828125 75.875 
Q 23.140625 64.359375 26.78125 53.3125 
Q 30.421875 42.28125 30.421875 31.390625 
Q 30.421875 20.453125 26.78125 9.375 
Q 23.140625 -1.703125 15.828125 -13.1875 
L 8.015625 -13.1875 
Q 14.5 -2 17.703125 9.0625 
Q 20.90625 20.125 20.90625 31.390625 
Q 20.90625 42.671875 17.703125 53.65625 
Q 14.5 64.65625 8.015625 75.875 
z
" id="DejaVuSans-41"/>
    </defs>
    <g style="fill:#ffa500;" transform="translate(183.975282 129.785023)scale(0.12 -0.12)">
     <use xlink:href="#DejaVuSans-40"/>
     <use x="39.013672" xlink:href="#DejaVuSans-48"/>
     <use x="102.636719" xlink:href="#DejaVuSans-46"/>
     <use x="134.423828" xlink:href="#DejaVuSans-53"/>
     <use x="198.046875" xlink:href="#DejaVuSans-52"/>
     <use x="261.669922" xlink:href="#DejaVuSans-44"/>
     <use x="293.457031" xlink:href="#DejaVuSans-48"/>
     <use x="357.080078" xlink:href="#DejaVuSans-46"/>
     <use x="388.867188" xlink:href="#DejaVuSans-53"/>
     <use x="452.490234" xlink:href="#DejaVuSans-52"/>
     <use x="516.113281" xlink:href="#DejaVuSans-41"/>
    </g>
   </g>
   <g id="text_15">
    <!-- Precision - recall curve - American cities -->
    <defs>
     <path id="ArialMT-32"/>
     <path d="M 3.171875 21.484375 
L 3.171875 30.328125 
L 30.171875 30.328125 
L 30.171875 21.484375 
z
" id="ArialMT-45"/>
     <path d="M 40.578125 0 
L 40.578125 7.625 
Q 34.515625 -1.171875 24.125 -1.171875 
Q 19.53125 -1.171875 15.546875 0.578125 
Q 11.578125 2.34375 9.640625 5 
Q 7.71875 7.671875 6.9375 11.53125 
Q 6.390625 14.109375 6.390625 19.734375 
L 6.390625 51.859375 
L 15.1875 51.859375 
L 15.1875 23.09375 
Q 15.1875 16.21875 15.71875 13.8125 
Q 16.546875 10.359375 19.234375 8.375 
Q 21.921875 6.390625 25.875 6.390625 
Q 29.828125 6.390625 33.296875 8.421875 
Q 36.765625 10.453125 38.203125 13.9375 
Q 39.65625 17.4375 39.65625 24.078125 
L 39.65625 51.859375 
L 48.4375 51.859375 
L 48.4375 0 
z
" id="ArialMT-117"/>
     <path d="M 21 0 
L 1.265625 51.859375 
L 10.546875 51.859375 
L 21.6875 20.796875 
Q 23.484375 15.765625 25 10.359375 
Q 26.171875 14.453125 28.265625 20.21875 
L 39.796875 51.859375 
L 48.828125 51.859375 
L 29.203125 0 
z
" id="ArialMT-118"/>
     <path d="M -0.140625 0 
L 27.34375 71.578125 
L 37.546875 71.578125 
L 66.84375 0 
L 56.0625 0 
L 47.703125 21.6875 
L 17.78125 21.6875 
L 9.90625 0 
z
M 20.515625 29.390625 
L 44.78125 29.390625 
L 37.3125 49.21875 
Q 33.890625 58.25 32.234375 64.0625 
Q 30.859375 57.171875 28.375 50.390625 
z
" id="ArialMT-65"/>
     <path d="M 6.59375 0 
L 6.59375 51.859375 
L 14.453125 51.859375 
L 14.453125 44.578125 
Q 16.890625 48.390625 20.9375 50.703125 
Q 25 53.03125 30.171875 53.03125 
Q 35.9375 53.03125 39.625 50.640625 
Q 43.3125 48.25 44.828125 43.953125 
Q 50.984375 53.03125 60.84375 53.03125 
Q 68.5625 53.03125 72.703125 48.75 
Q 76.859375 44.484375 76.859375 35.59375 
L 76.859375 0 
L 68.109375 0 
L 68.109375 32.671875 
Q 68.109375 37.9375 67.25 40.25 
Q 66.40625 42.578125 64.15625 43.984375 
Q 61.921875 45.40625 58.890625 45.40625 
Q 53.421875 45.40625 49.796875 41.765625 
Q 46.1875 38.140625 46.1875 30.125 
L 46.1875 0 
L 37.40625 0 
L 37.40625 33.6875 
Q 37.40625 39.546875 35.25 42.46875 
Q 33.109375 45.40625 28.21875 45.40625 
Q 24.515625 45.40625 21.359375 43.453125 
Q 18.21875 41.5 16.796875 37.734375 
Q 15.375 33.984375 15.375 26.90625 
L 15.375 0 
z
" id="ArialMT-109"/>
     <path d="M 25.78125 7.859375 
L 27.046875 0.09375 
Q 23.34375 -0.6875 20.40625 -0.6875 
Q 15.625 -0.6875 12.984375 0.828125 
Q 10.359375 2.34375 9.28125 4.8125 
Q 8.203125 7.28125 8.203125 15.1875 
L 8.203125 45.015625 
L 1.765625 45.015625 
L 1.765625 51.859375 
L 8.203125 51.859375 
L 8.203125 64.703125 
L 16.9375 69.96875 
L 16.9375 51.859375 
L 25.78125 51.859375 
L 25.78125 45.015625 
L 16.9375 45.015625 
L 16.9375 14.703125 
Q 16.9375 10.9375 17.40625 9.859375 
Q 17.875 8.796875 18.921875 8.15625 
Q 19.96875 7.515625 21.921875 7.515625 
Q 23.390625 7.515625 25.78125 7.859375 
z
" id="ArialMT-116"/>
    </defs>
    <g transform="translate(72.974375 20.084062)scale(0.18 -0.18)">
     <use xlink:href="#ArialMT-80"/>
     <use x="66.699219" xlink:href="#ArialMT-114"/>
     <use x="100" xlink:href="#ArialMT-101"/>
     <use x="155.615234" xlink:href="#ArialMT-99"/>
     <use x="205.615234" xlink:href="#ArialMT-105"/>
     <use x="227.832031" xlink:href="#ArialMT-115"/>
     <use x="277.832031" xlink:href="#ArialMT-105"/>
     <use x="300.048828" xlink:href="#ArialMT-111"/>
     <use x="355.664062" xlink:href="#ArialMT-110"/>
     <use x="411.279297" xlink:href="#ArialMT-32"/>
     <use x="439.0625" xlink:href="#ArialMT-45"/>
     <use x="472.363281" xlink:href="#ArialMT-32"/>
     <use x="500.146484" xlink:href="#ArialMT-114"/>
     <use x="533.447266" xlink:href="#ArialMT-101"/>
     <use x="589.0625" xlink:href="#ArialMT-99"/>
     <use x="639.0625" xlink:href="#ArialMT-97"/>
     <use x="694.677734" xlink:href="#ArialMT-108"/>
     <use x="716.894531" xlink:href="#ArialMT-108"/>
     <use x="739.111328" xlink:href="#ArialMT-32"/>
     <use x="766.894531" xlink:href="#ArialMT-99"/>
     <use x="816.894531" xlink:href="#ArialMT-117"/>
     <use x="872.509766" xlink:href="#ArialMT-114"/>
     <use x="905.810547" xlink:href="#ArialMT-118"/>
     <use x="955.810547" xlink:href="#ArialMT-101"/>
     <use x="1011.425781" xlink:href="#ArialMT-32"/>
     <use x="1039.208984" xlink:href="#ArialMT-45"/>
     <use x="1072.509766" xlink:href="#ArialMT-32"/>
     <use x="1094.792969" xlink:href="#ArialMT-65"/>
     <use x="1161.492188" xlink:href="#ArialMT-109"/>
     <use x="1244.792969" xlink:href="#ArialMT-101"/>
     <use x="1300.408203" xlink:href="#ArialMT-114"/>
     <use x="1333.708984" xlink:href="#ArialMT-105"/>
     <use x="1355.925781" xlink:href="#ArialMT-99"/>
     <use x="1405.925781" xlink:href="#ArialMT-97"/>
     <use x="1461.541016" xlink:href="#ArialMT-110"/>
     <use x="1517.15625" xlink:href="#ArialMT-32"/>
     <use x="1544.939453" xlink:href="#ArialMT-99"/>
     <use x="1594.939453" xlink:href="#ArialMT-105"/>
     <use x="1617.15625" xlink:href="#ArialMT-116"/>
     <use x="1644.939453" xlink:href="#ArialMT-105"/>
     <use x="1667.15625" xlink:href="#ArialMT-101"/>
     <use x="1722.771484" xlink:href="#ArialMT-115"/>
    </g>
   </g>
   <g id="legend_1">
    <g id="patch_7">
     <path d="M 259.51125 114.681562 
L 394.31625 114.681562 
Q 395.91625 114.681562 395.91625 113.081562 
L 395.91625 31.684062 
Q 395.91625 30.084062 394.31625 30.084062 
L 259.51125 30.084062 
Q 257.91125 30.084062 257.91125 31.684062 
L 257.91125 113.081562 
Q 257.91125 114.681562 259.51125 114.681562 
z
" style="fill:#ffffff;opacity:0.8;stroke:#cccccc;stroke-linejoin:miter;"/>
    </g>
    <g id="line2d_19">
     <path d="M 261.11125 36.562812 
L 277.11125 36.562812 
" style="fill:none;stroke:#ff0000;stroke-linecap:square;stroke-width:1.5;"/>
    </g>
    <g id="line2d_20"/>
    <g id="text_16">
     <!-- Node2Vec, AUC:0.08 -->
     <defs>
      <path d="M 9.8125 72.90625 
L 23.09375 72.90625 
L 55.421875 11.921875 
L 55.421875 72.90625 
L 64.984375 72.90625 
L 64.984375 0 
L 51.703125 0 
L 19.390625 60.984375 
L 19.390625 0 
L 9.8125 0 
z
" id="DejaVuSans-78"/>
      <path d="M 30.609375 48.390625 
Q 23.390625 48.390625 19.1875 42.75 
Q 14.984375 37.109375 14.984375 27.296875 
Q 14.984375 17.484375 19.15625 11.84375 
Q 23.34375 6.203125 30.609375 6.203125 
Q 37.796875 6.203125 41.984375 11.859375 
Q 46.1875 17.53125 46.1875 27.296875 
Q 46.1875 37.015625 41.984375 42.703125 
Q 37.796875 48.390625 30.609375 48.390625 
z
M 30.609375 56 
Q 42.328125 56 49.015625 48.375 
Q 55.71875 40.765625 55.71875 27.296875 
Q 55.71875 13.875 49.015625 6.21875 
Q 42.328125 -1.421875 30.609375 -1.421875 
Q 18.84375 -1.421875 12.171875 6.21875 
Q 5.515625 13.875 5.515625 27.296875 
Q 5.515625 40.765625 12.171875 48.375 
Q 18.84375 56 30.609375 56 
z
" id="DejaVuSans-111"/>
      <path d="M 45.40625 46.390625 
L 45.40625 75.984375 
L 54.390625 75.984375 
L 54.390625 0 
L 45.40625 0 
L 45.40625 8.203125 
Q 42.578125 3.328125 38.25 0.953125 
Q 33.9375 -1.421875 27.875 -1.421875 
Q 17.96875 -1.421875 11.734375 6.484375 
Q 5.515625 14.40625 5.515625 27.296875 
Q 5.515625 40.1875 11.734375 48.09375 
Q 17.96875 56 27.875 56 
Q 33.9375 56 38.25 53.625 
Q 42.578125 51.265625 45.40625 46.390625 
z
M 14.796875 27.296875 
Q 14.796875 17.390625 18.875 11.75 
Q 22.953125 6.109375 30.078125 6.109375 
Q 37.203125 6.109375 41.296875 11.75 
Q 45.40625 17.390625 45.40625 27.296875 
Q 45.40625 37.203125 41.296875 42.84375 
Q 37.203125 48.484375 30.078125 48.484375 
Q 22.953125 48.484375 18.875 42.84375 
Q 14.796875 37.203125 14.796875 27.296875 
z
" id="DejaVuSans-100"/>
      <path d="M 56.203125 29.59375 
L 56.203125 25.203125 
L 14.890625 25.203125 
Q 15.484375 15.921875 20.484375 11.0625 
Q 25.484375 6.203125 34.421875 6.203125 
Q 39.59375 6.203125 44.453125 7.46875 
Q 49.3125 8.734375 54.109375 11.28125 
L 54.109375 2.78125 
Q 49.265625 0.734375 44.1875 -0.34375 
Q 39.109375 -1.421875 33.890625 -1.421875 
Q 20.796875 -1.421875 13.15625 6.1875 
Q 5.515625 13.8125 5.515625 26.8125 
Q 5.515625 40.234375 12.765625 48.109375 
Q 20.015625 56 32.328125 56 
Q 43.359375 56 49.78125 48.890625 
Q 56.203125 41.796875 56.203125 29.59375 
z
M 47.21875 32.234375 
Q 47.125 39.59375 43.09375 43.984375 
Q 39.0625 48.390625 32.421875 48.390625 
Q 24.90625 48.390625 20.390625 44.140625 
Q 15.875 39.890625 15.1875 32.171875 
z
" id="DejaVuSans-101"/>
      <path d="M 28.609375 0 
L 0.78125 72.90625 
L 11.078125 72.90625 
L 34.1875 11.53125 
L 57.328125 72.90625 
L 67.578125 72.90625 
L 39.796875 0 
z
" id="DejaVuSans-86"/>
      <path d="M 48.78125 52.59375 
L 48.78125 44.1875 
Q 44.96875 46.296875 41.140625 47.34375 
Q 37.3125 48.390625 33.40625 48.390625 
Q 24.65625 48.390625 19.8125 42.84375 
Q 14.984375 37.3125 14.984375 27.296875 
Q 14.984375 17.28125 19.8125 11.734375 
Q 24.65625 6.203125 33.40625 6.203125 
Q 37.3125 6.203125 41.140625 7.25 
Q 44.96875 8.296875 48.78125 10.40625 
L 48.78125 2.09375 
Q 45.015625 0.34375 40.984375 -0.53125 
Q 36.96875 -1.421875 32.421875 -1.421875 
Q 20.0625 -1.421875 12.78125 6.34375 
Q 5.515625 14.109375 5.515625 27.296875 
Q 5.515625 40.671875 12.859375 48.328125 
Q 20.21875 56 33.015625 56 
Q 37.15625 56 41.109375 55.140625 
Q 45.0625 54.296875 48.78125 52.59375 
z
" id="DejaVuSans-99"/>
      <path id="DejaVuSans-32"/>
      <path d="M 34.1875 63.1875 
L 20.796875 26.90625 
L 47.609375 26.90625 
z
M 28.609375 72.90625 
L 39.796875 72.90625 
L 67.578125 0 
L 57.328125 0 
L 50.6875 18.703125 
L 17.828125 18.703125 
L 11.1875 0 
L 0.78125 0 
z
" id="DejaVuSans-65"/>
      <path d="M 8.6875 72.90625 
L 18.609375 72.90625 
L 18.609375 28.609375 
Q 18.609375 16.890625 22.84375 11.734375 
Q 27.09375 6.59375 36.625 6.59375 
Q 46.09375 6.59375 50.34375 11.734375 
Q 54.59375 16.890625 54.59375 28.609375 
L 54.59375 72.90625 
L 64.5 72.90625 
L 64.5 27.390625 
Q 64.5 13.140625 57.4375 5.859375 
Q 50.390625 -1.421875 36.625 -1.421875 
Q 22.796875 -1.421875 15.734375 5.859375 
Q 8.6875 13.140625 8.6875 27.390625 
z
" id="DejaVuSans-85"/>
      <path d="M 64.40625 67.28125 
L 64.40625 56.890625 
Q 59.421875 61.53125 53.78125 63.8125 
Q 48.140625 66.109375 41.796875 66.109375 
Q 29.296875 66.109375 22.65625 58.46875 
Q 16.015625 50.828125 16.015625 36.375 
Q 16.015625 21.96875 22.65625 14.328125 
Q 29.296875 6.6875 41.796875 6.6875 
Q 48.140625 6.6875 53.78125 8.984375 
Q 59.421875 11.28125 64.40625 15.921875 
L 64.40625 5.609375 
Q 59.234375 2.09375 53.4375 0.328125 
Q 47.65625 -1.421875 41.21875 -1.421875 
Q 24.65625 -1.421875 15.125 8.703125 
Q 5.609375 18.84375 5.609375 36.375 
Q 5.609375 53.953125 15.125 64.078125 
Q 24.65625 74.21875 41.21875 74.21875 
Q 47.75 74.21875 53.53125 72.484375 
Q 59.328125 70.75 64.40625 67.28125 
z
" id="DejaVuSans-67"/>
      <path d="M 11.71875 12.40625 
L 22.015625 12.40625 
L 22.015625 0 
L 11.71875 0 
z
M 11.71875 51.703125 
L 22.015625 51.703125 
L 22.015625 39.3125 
L 11.71875 39.3125 
z
" id="DejaVuSans-58"/>
     </defs>
     <g transform="translate(283.51125 39.362812)scale(0.08 -0.08)">
      <use xlink:href="#DejaVuSans-78"/>
      <use x="74.804688" xlink:href="#DejaVuSans-111"/>
      <use x="135.986328" xlink:href="#DejaVuSans-100"/>
      <use x="199.462891" xlink:href="#DejaVuSans-101"/>
      <use x="260.986328" xlink:href="#DejaVuSans-50"/>
      <use x="324.609375" xlink:href="#DejaVuSans-86"/>
      <use x="385.267578" xlink:href="#DejaVuSans-101"/>
      <use x="446.791016" xlink:href="#DejaVuSans-99"/>
      <use x="501.771484" xlink:href="#DejaVuSans-44"/>
      <use x="533.558594" xlink:href="#DejaVuSans-32"/>
      <use x="565.345703" xlink:href="#DejaVuSans-65"/>
      <use x="633.753906" xlink:href="#DejaVuSans-85"/>
      <use x="706.947266" xlink:href="#DejaVuSans-67"/>
      <use x="776.771484" xlink:href="#DejaVuSans-58"/>
      <use x="810.462891" xlink:href="#DejaVuSans-48"/>
      <use x="874.085938" xlink:href="#DejaVuSans-46"/>
      <use x="905.873047" xlink:href="#DejaVuSans-48"/>
      <use x="969.496094" xlink:href="#DejaVuSans-56"/>
     </g>
    </g>
    <g id="line2d_21">
     <path d="M 261.11125 48.305312 
L 277.11125 48.305312 
" style="fill:none;stroke:#008000;stroke-linecap:square;stroke-width:1.5;"/>
    </g>
    <g id="line2d_22"/>
    <g id="text_17">
     <!-- Struc2Vec, AUC:0.01 -->
     <defs>
      <path d="M 53.515625 70.515625 
L 53.515625 60.890625 
Q 47.90625 63.578125 42.921875 64.890625 
Q 37.9375 66.21875 33.296875 66.21875 
Q 25.25 66.21875 20.875 63.09375 
Q 16.5 59.96875 16.5 54.203125 
Q 16.5 49.359375 19.40625 46.890625 
Q 22.3125 44.4375 30.421875 42.921875 
L 36.375 41.703125 
Q 47.40625 39.59375 52.65625 34.296875 
Q 57.90625 29 57.90625 20.125 
Q 57.90625 9.515625 50.796875 4.046875 
Q 43.703125 -1.421875 29.984375 -1.421875 
Q 24.8125 -1.421875 18.96875 -0.25 
Q 13.140625 0.921875 6.890625 3.21875 
L 6.890625 13.375 
Q 12.890625 10.015625 18.65625 8.296875 
Q 24.421875 6.59375 29.984375 6.59375 
Q 38.421875 6.59375 43.015625 9.90625 
Q 47.609375 13.234375 47.609375 19.390625 
Q 47.609375 24.75 44.3125 27.78125 
Q 41.015625 30.8125 33.5 32.328125 
L 27.484375 33.5 
Q 16.453125 35.6875 11.515625 40.375 
Q 6.59375 45.0625 6.59375 53.421875 
Q 6.59375 63.09375 13.40625 68.65625 
Q 20.21875 74.21875 32.171875 74.21875 
Q 37.3125 74.21875 42.625 73.28125 
Q 47.953125 72.359375 53.515625 70.515625 
z
" id="DejaVuSans-83"/>
      <path d="M 18.3125 70.21875 
L 18.3125 54.6875 
L 36.8125 54.6875 
L 36.8125 47.703125 
L 18.3125 47.703125 
L 18.3125 18.015625 
Q 18.3125 11.328125 20.140625 9.421875 
Q 21.96875 7.515625 27.59375 7.515625 
L 36.8125 7.515625 
L 36.8125 0 
L 27.59375 0 
Q 17.1875 0 13.234375 3.875 
Q 9.28125 7.765625 9.28125 18.015625 
L 9.28125 47.703125 
L 2.6875 47.703125 
L 2.6875 54.6875 
L 9.28125 54.6875 
L 9.28125 70.21875 
z
" id="DejaVuSans-116"/>
      <path d="M 41.109375 46.296875 
Q 39.59375 47.171875 37.8125 47.578125 
Q 36.03125 48 33.890625 48 
Q 26.265625 48 22.1875 43.046875 
Q 18.109375 38.09375 18.109375 28.8125 
L 18.109375 0 
L 9.078125 0 
L 9.078125 54.6875 
L 18.109375 54.6875 
L 18.109375 46.1875 
Q 20.953125 51.171875 25.484375 53.578125 
Q 30.03125 56 36.53125 56 
Q 37.453125 56 38.578125 55.875 
Q 39.703125 55.765625 41.0625 55.515625 
z
" id="DejaVuSans-114"/>
      <path d="M 8.5 21.578125 
L 8.5 54.6875 
L 17.484375 54.6875 
L 17.484375 21.921875 
Q 17.484375 14.15625 20.5 10.265625 
Q 23.53125 6.390625 29.59375 6.390625 
Q 36.859375 6.390625 41.078125 11.03125 
Q 45.3125 15.671875 45.3125 23.6875 
L 45.3125 54.6875 
L 54.296875 54.6875 
L 54.296875 0 
L 45.3125 0 
L 45.3125 8.40625 
Q 42.046875 3.421875 37.71875 1 
Q 33.40625 -1.421875 27.6875 -1.421875 
Q 18.265625 -1.421875 13.375 4.4375 
Q 8.5 10.296875 8.5 21.578125 
z
M 31.109375 56 
z
" id="DejaVuSans-117"/>
     </defs>
     <g transform="translate(283.51125 51.105312)scale(0.08 -0.08)">
      <use xlink:href="#DejaVuSans-83"/>
      <use x="63.476562" xlink:href="#DejaVuSans-116"/>
      <use x="102.685547" xlink:href="#DejaVuSans-114"/>
      <use x="143.798828" xlink:href="#DejaVuSans-117"/>
      <use x="207.177734" xlink:href="#DejaVuSans-99"/>
      <use x="262.158203" xlink:href="#DejaVuSans-50"/>
      <use x="325.78125" xlink:href="#DejaVuSans-86"/>
      <use x="386.439453" xlink:href="#DejaVuSans-101"/>
      <use x="447.962891" xlink:href="#DejaVuSans-99"/>
      <use x="502.943359" xlink:href="#DejaVuSans-44"/>
      <use x="534.730469" xlink:href="#DejaVuSans-32"/>
      <use x="566.517578" xlink:href="#DejaVuSans-65"/>
      <use x="634.925781" xlink:href="#DejaVuSans-85"/>
      <use x="708.119141" xlink:href="#DejaVuSans-67"/>
      <use x="777.943359" xlink:href="#DejaVuSans-58"/>
      <use x="811.634766" xlink:href="#DejaVuSans-48"/>
      <use x="875.257812" xlink:href="#DejaVuSans-46"/>
      <use x="907.044922" xlink:href="#DejaVuSans-48"/>
      <use x="970.667969" xlink:href="#DejaVuSans-49"/>
     </g>
    </g>
    <g id="line2d_23">
     <path d="M 261.11125 60.047812 
L 277.11125 60.047812 
" style="fill:none;stroke:#0000ff;stroke-linecap:square;stroke-width:1.5;"/>
    </g>
    <g id="line2d_24"/>
    <g id="text_18">
     <!-- Graph-SAGE, AUC:0.09 -->
     <defs>
      <path d="M 59.515625 10.40625 
L 59.515625 29.984375 
L 43.40625 29.984375 
L 43.40625 38.09375 
L 69.28125 38.09375 
L 69.28125 6.78125 
Q 63.578125 2.734375 56.6875 0.65625 
Q 49.8125 -1.421875 42 -1.421875 
Q 24.90625 -1.421875 15.25 8.5625 
Q 5.609375 18.5625 5.609375 36.375 
Q 5.609375 54.25 15.25 64.234375 
Q 24.90625 74.21875 42 74.21875 
Q 49.125 74.21875 55.546875 72.453125 
Q 61.96875 70.703125 67.390625 67.28125 
L 67.390625 56.78125 
Q 61.921875 61.421875 55.765625 63.765625 
Q 49.609375 66.109375 42.828125 66.109375 
Q 29.4375 66.109375 22.71875 58.640625 
Q 16.015625 51.171875 16.015625 36.375 
Q 16.015625 21.625 22.71875 14.15625 
Q 29.4375 6.6875 42.828125 6.6875 
Q 48.046875 6.6875 52.140625 7.59375 
Q 56.25 8.5 59.515625 10.40625 
z
" id="DejaVuSans-71"/>
      <path d="M 34.28125 27.484375 
Q 23.390625 27.484375 19.1875 25 
Q 14.984375 22.515625 14.984375 16.5 
Q 14.984375 11.71875 18.140625 8.90625 
Q 21.296875 6.109375 26.703125 6.109375 
Q 34.1875 6.109375 38.703125 11.40625 
Q 43.21875 16.703125 43.21875 25.484375 
L 43.21875 27.484375 
z
M 52.203125 31.203125 
L 52.203125 0 
L 43.21875 0 
L 43.21875 8.296875 
Q 40.140625 3.328125 35.546875 0.953125 
Q 30.953125 -1.421875 24.3125 -1.421875 
Q 15.921875 -1.421875 10.953125 3.296875 
Q 6 8.015625 6 15.921875 
Q 6 25.140625 12.171875 29.828125 
Q 18.359375 34.515625 30.609375 34.515625 
L 43.21875 34.515625 
L 43.21875 35.40625 
Q 43.21875 41.609375 39.140625 45 
Q 35.0625 48.390625 27.6875 48.390625 
Q 23 48.390625 18.546875 47.265625 
Q 14.109375 46.140625 10.015625 43.890625 
L 10.015625 52.203125 
Q 14.9375 54.109375 19.578125 55.046875 
Q 24.21875 56 28.609375 56 
Q 40.484375 56 46.34375 49.84375 
Q 52.203125 43.703125 52.203125 31.203125 
z
" id="DejaVuSans-97"/>
      <path d="M 18.109375 8.203125 
L 18.109375 -20.796875 
L 9.078125 -20.796875 
L 9.078125 54.6875 
L 18.109375 54.6875 
L 18.109375 46.390625 
Q 20.953125 51.265625 25.265625 53.625 
Q 29.59375 56 35.59375 56 
Q 45.5625 56 51.78125 48.09375 
Q 58.015625 40.1875 58.015625 27.296875 
Q 58.015625 14.40625 51.78125 6.484375 
Q 45.5625 -1.421875 35.59375 -1.421875 
Q 29.59375 -1.421875 25.265625 0.953125 
Q 20.953125 3.328125 18.109375 8.203125 
z
M 48.6875 27.296875 
Q 48.6875 37.203125 44.609375 42.84375 
Q 40.53125 48.484375 33.40625 48.484375 
Q 26.265625 48.484375 22.1875 42.84375 
Q 18.109375 37.203125 18.109375 27.296875 
Q 18.109375 17.390625 22.1875 11.75 
Q 26.265625 6.109375 33.40625 6.109375 
Q 40.53125 6.109375 44.609375 11.75 
Q 48.6875 17.390625 48.6875 27.296875 
z
" id="DejaVuSans-112"/>
      <path d="M 54.890625 33.015625 
L 54.890625 0 
L 45.90625 0 
L 45.90625 32.71875 
Q 45.90625 40.484375 42.875 44.328125 
Q 39.84375 48.1875 33.796875 48.1875 
Q 26.515625 48.1875 22.3125 43.546875 
Q 18.109375 38.921875 18.109375 30.90625 
L 18.109375 0 
L 9.078125 0 
L 9.078125 75.984375 
L 18.109375 75.984375 
L 18.109375 46.1875 
Q 21.34375 51.125 25.703125 53.5625 
Q 30.078125 56 35.796875 56 
Q 45.21875 56 50.046875 50.171875 
Q 54.890625 44.34375 54.890625 33.015625 
z
" id="DejaVuSans-104"/>
      <path d="M 4.890625 31.390625 
L 31.203125 31.390625 
L 31.203125 23.390625 
L 4.890625 23.390625 
z
" id="DejaVuSans-45"/>
      <path d="M 9.8125 72.90625 
L 55.90625 72.90625 
L 55.90625 64.59375 
L 19.671875 64.59375 
L 19.671875 43.015625 
L 54.390625 43.015625 
L 54.390625 34.71875 
L 19.671875 34.71875 
L 19.671875 8.296875 
L 56.78125 8.296875 
L 56.78125 0 
L 9.8125 0 
z
" id="DejaVuSans-69"/>
      <path d="M 10.984375 1.515625 
L 10.984375 10.5 
Q 14.703125 8.734375 18.5 7.8125 
Q 22.3125 6.890625 25.984375 6.890625 
Q 35.75 6.890625 40.890625 13.453125 
Q 46.046875 20.015625 46.78125 33.40625 
Q 43.953125 29.203125 39.59375 26.953125 
Q 35.25 24.703125 29.984375 24.703125 
Q 19.046875 24.703125 12.671875 31.3125 
Q 6.296875 37.9375 6.296875 49.421875 
Q 6.296875 60.640625 12.9375 67.421875 
Q 19.578125 74.21875 30.609375 74.21875 
Q 43.265625 74.21875 49.921875 64.515625 
Q 56.59375 54.828125 56.59375 36.375 
Q 56.59375 19.140625 48.40625 8.859375 
Q 40.234375 -1.421875 26.421875 -1.421875 
Q 22.703125 -1.421875 18.890625 -0.6875 
Q 15.09375 0.046875 10.984375 1.515625 
z
M 30.609375 32.421875 
Q 37.25 32.421875 41.125 36.953125 
Q 45.015625 41.5 45.015625 49.421875 
Q 45.015625 57.28125 41.125 61.84375 
Q 37.25 66.40625 30.609375 66.40625 
Q 23.96875 66.40625 20.09375 61.84375 
Q 16.21875 57.28125 16.21875 49.421875 
Q 16.21875 41.5 20.09375 36.953125 
Q 23.96875 32.421875 30.609375 32.421875 
z
" id="DejaVuSans-57"/>
     </defs>
     <g transform="translate(283.51125 62.847812)scale(0.08 -0.08)">
      <use xlink:href="#DejaVuSans-71"/>
      <use x="77.490234" xlink:href="#DejaVuSans-114"/>
      <use x="118.603516" xlink:href="#DejaVuSans-97"/>
      <use x="179.882812" xlink:href="#DejaVuSans-112"/>
      <use x="243.359375" xlink:href="#DejaVuSans-104"/>
      <use x="306.738281" xlink:href="#DejaVuSans-45"/>
      <use x="342.822266" xlink:href="#DejaVuSans-83"/>
      <use x="408.173828" xlink:href="#DejaVuSans-65"/>
      <use x="474.832031" xlink:href="#DejaVuSans-71"/>
      <use x="552.322266" xlink:href="#DejaVuSans-69"/>
      <use x="615.505859" xlink:href="#DejaVuSans-44"/>
      <use x="647.292969" xlink:href="#DejaVuSans-32"/>
      <use x="679.080078" xlink:href="#DejaVuSans-65"/>
      <use x="747.488281" xlink:href="#DejaVuSans-85"/>
      <use x="820.681641" xlink:href="#DejaVuSans-67"/>
      <use x="890.505859" xlink:href="#DejaVuSans-58"/>
      <use x="924.197266" xlink:href="#DejaVuSans-48"/>
      <use x="987.820312" xlink:href="#DejaVuSans-46"/>
      <use x="1019.607422" xlink:href="#DejaVuSans-48"/>
      <use x="1083.230469" xlink:href="#DejaVuSans-57"/>
     </g>
    </g>
    <g id="line2d_25">
     <path d="M 261.11125 71.790312 
L 277.11125 71.790312 
" style="fill:none;stroke:#bfbf00;stroke-linecap:square;stroke-width:1.5;"/>
    </g>
    <g id="line2d_26"/>
    <g id="text_19">
     <!-- Spectral-GCN, AUC:0.07 -->
     <defs>
      <path d="M 9.421875 75.984375 
L 18.40625 75.984375 
L 18.40625 0 
L 9.421875 0 
z
" id="DejaVuSans-108"/>
      <path d="M 8.203125 72.90625 
L 55.078125 72.90625 
L 55.078125 68.703125 
L 28.609375 0 
L 18.3125 0 
L 43.21875 64.59375 
L 8.203125 64.59375 
z
" id="DejaVuSans-55"/>
     </defs>
     <g transform="translate(283.51125 74.590312)scale(0.08 -0.08)">
      <use xlink:href="#DejaVuSans-83"/>
      <use x="63.476562" xlink:href="#DejaVuSans-112"/>
      <use x="126.953125" xlink:href="#DejaVuSans-101"/>
      <use x="188.476562" xlink:href="#DejaVuSans-99"/>
      <use x="243.457031" xlink:href="#DejaVuSans-116"/>
      <use x="282.666016" xlink:href="#DejaVuSans-114"/>
      <use x="323.779297" xlink:href="#DejaVuSans-97"/>
      <use x="385.058594" xlink:href="#DejaVuSans-108"/>
      <use x="412.841797" xlink:href="#DejaVuSans-45"/>
      <use x="452.550781" xlink:href="#DejaVuSans-71"/>
      <use x="530.041016" xlink:href="#DejaVuSans-67"/>
      <use x="599.865234" xlink:href="#DejaVuSans-78"/>
      <use x="674.669922" xlink:href="#DejaVuSans-44"/>
      <use x="706.457031" xlink:href="#DejaVuSans-32"/>
      <use x="738.244141" xlink:href="#DejaVuSans-65"/>
      <use x="806.652344" xlink:href="#DejaVuSans-85"/>
      <use x="879.845703" xlink:href="#DejaVuSans-67"/>
      <use x="949.669922" xlink:href="#DejaVuSans-58"/>
      <use x="983.361328" xlink:href="#DejaVuSans-48"/>
      <use x="1046.984375" xlink:href="#DejaVuSans-46"/>
      <use x="1078.771484" xlink:href="#DejaVuSans-48"/>
      <use x="1142.394531" xlink:href="#DejaVuSans-55"/>
     </g>
    </g>
    <g id="line2d_27">
     <path d="M 261.11125 83.532812 
L 277.11125 83.532812 
" style="fill:none;stroke:#bf00bf;stroke-linecap:square;stroke-width:1.5;"/>
    </g>
    <g id="line2d_28"/>
    <g id="text_20">
     <!-- Relational-GCN, AUC:0.26 -->
     <defs>
      <path d="M 44.390625 34.1875 
Q 47.5625 33.109375 50.5625 29.59375 
Q 53.5625 26.078125 56.59375 19.921875 
L 66.609375 0 
L 56 0 
L 46.6875 18.703125 
Q 43.0625 26.03125 39.671875 28.421875 
Q 36.28125 30.8125 30.421875 30.8125 
L 19.671875 30.8125 
L 19.671875 0 
L 9.8125 0 
L 9.8125 72.90625 
L 32.078125 72.90625 
Q 44.578125 72.90625 50.734375 67.671875 
Q 56.890625 62.453125 56.890625 51.90625 
Q 56.890625 45.015625 53.6875 40.46875 
Q 50.484375 35.9375 44.390625 34.1875 
z
M 19.671875 64.796875 
L 19.671875 38.921875 
L 32.078125 38.921875 
Q 39.203125 38.921875 42.84375 42.21875 
Q 46.484375 45.515625 46.484375 51.90625 
Q 46.484375 58.296875 42.84375 61.546875 
Q 39.203125 64.796875 32.078125 64.796875 
z
" id="DejaVuSans-82"/>
      <path d="M 9.421875 54.6875 
L 18.40625 54.6875 
L 18.40625 0 
L 9.421875 0 
z
M 9.421875 75.984375 
L 18.40625 75.984375 
L 18.40625 64.59375 
L 9.421875 64.59375 
z
" id="DejaVuSans-105"/>
      <path d="M 54.890625 33.015625 
L 54.890625 0 
L 45.90625 0 
L 45.90625 32.71875 
Q 45.90625 40.484375 42.875 44.328125 
Q 39.84375 48.1875 33.796875 48.1875 
Q 26.515625 48.1875 22.3125 43.546875 
Q 18.109375 38.921875 18.109375 30.90625 
L 18.109375 0 
L 9.078125 0 
L 9.078125 54.6875 
L 18.109375 54.6875 
L 18.109375 46.1875 
Q 21.34375 51.125 25.703125 53.5625 
Q 30.078125 56 35.796875 56 
Q 45.21875 56 50.046875 50.171875 
Q 54.890625 44.34375 54.890625 33.015625 
z
" id="DejaVuSans-110"/>
     </defs>
     <g transform="translate(283.51125 86.332812)scale(0.08 -0.08)">
      <use xlink:href="#DejaVuSans-82"/>
      <use x="64.982422" xlink:href="#DejaVuSans-101"/>
      <use x="126.505859" xlink:href="#DejaVuSans-108"/>
      <use x="154.289062" xlink:href="#DejaVuSans-97"/>
      <use x="215.568359" xlink:href="#DejaVuSans-116"/>
      <use x="254.777344" xlink:href="#DejaVuSans-105"/>
      <use x="282.560547" xlink:href="#DejaVuSans-111"/>
      <use x="343.742188" xlink:href="#DejaVuSans-110"/>
      <use x="407.121094" xlink:href="#DejaVuSans-97"/>
      <use x="468.400391" xlink:href="#DejaVuSans-108"/>
      <use x="496.183594" xlink:href="#DejaVuSans-45"/>
      <use x="535.892578" xlink:href="#DejaVuSans-71"/>
      <use x="613.382812" xlink:href="#DejaVuSans-67"/>
      <use x="683.207031" xlink:href="#DejaVuSans-78"/>
      <use x="758.011719" xlink:href="#DejaVuSans-44"/>
      <use x="789.798828" xlink:href="#DejaVuSans-32"/>
      <use x="821.585938" xlink:href="#DejaVuSans-65"/>
      <use x="889.994141" xlink:href="#DejaVuSans-85"/>
      <use x="963.1875" xlink:href="#DejaVuSans-67"/>
      <use x="1033.011719" xlink:href="#DejaVuSans-58"/>
      <use x="1066.703125" xlink:href="#DejaVuSans-48"/>
      <use x="1130.326172" xlink:href="#DejaVuSans-46"/>
      <use x="1162.113281" xlink:href="#DejaVuSans-50"/>
      <use x="1225.736328" xlink:href="#DejaVuSans-54"/>
     </g>
    </g>
    <g id="line2d_29">
     <path d="M 261.11125 95.275312 
L 277.11125 95.275312 
" style="fill:none;stroke:#00bfbf;stroke-linecap:square;stroke-width:1.5;"/>
    </g>
    <g id="line2d_30"/>
    <g id="text_21">
     <!-- GAT, AUC:0.1 -->
     <defs>
      <path d="M -0.296875 72.90625 
L 61.375 72.90625 
L 61.375 64.59375 
L 35.5 64.59375 
L 35.5 0 
L 25.59375 0 
L 25.59375 64.59375 
L -0.296875 64.59375 
z
" id="DejaVuSans-84"/>
     </defs>
     <g transform="translate(283.51125 98.075312)scale(0.08 -0.08)">
      <use xlink:href="#DejaVuSans-71"/>
      <use x="77.490234" xlink:href="#DejaVuSans-65"/>
      <use x="138.148438" xlink:href="#DejaVuSans-84"/>
      <use x="199.232422" xlink:href="#DejaVuSans-44"/>
      <use x="231.019531" xlink:href="#DejaVuSans-32"/>
      <use x="262.806641" xlink:href="#DejaVuSans-65"/>
      <use x="331.214844" xlink:href="#DejaVuSans-85"/>
      <use x="404.408203" xlink:href="#DejaVuSans-67"/>
      <use x="474.232422" xlink:href="#DejaVuSans-58"/>
      <use x="507.923828" xlink:href="#DejaVuSans-48"/>
      <use x="571.546875" xlink:href="#DejaVuSans-46"/>
      <use x="603.333984" xlink:href="#DejaVuSans-49"/>
     </g>
    </g>
    <g id="line2d_31">
     <path d="M 261.11125 107.017812 
L 277.11125 107.017812 
" style="fill:none;stroke:#ffa500;stroke-linecap:square;stroke-width:1.5;"/>
    </g>
    <g id="line2d_32"/>
    <g id="text_22">
     <!-- Improved R-GCN, AUC:0.42 -->
     <defs>
      <path d="M 9.8125 72.90625 
L 19.671875 72.90625 
L 19.671875 0 
L 9.8125 0 
z
" id="DejaVuSans-73"/>
      <path d="M 52 44.1875 
Q 55.375 50.25 60.0625 53.125 
Q 64.75 56 71.09375 56 
Q 79.640625 56 84.28125 50.015625 
Q 88.921875 44.046875 88.921875 33.015625 
L 88.921875 0 
L 79.890625 0 
L 79.890625 32.71875 
Q 79.890625 40.578125 77.09375 44.375 
Q 74.3125 48.1875 68.609375 48.1875 
Q 61.625 48.1875 57.5625 43.546875 
Q 53.515625 38.921875 53.515625 30.90625 
L 53.515625 0 
L 44.484375 0 
L 44.484375 32.71875 
Q 44.484375 40.625 41.703125 44.40625 
Q 38.921875 48.1875 33.109375 48.1875 
Q 26.21875 48.1875 22.15625 43.53125 
Q 18.109375 38.875 18.109375 30.90625 
L 18.109375 0 
L 9.078125 0 
L 9.078125 54.6875 
L 18.109375 54.6875 
L 18.109375 46.1875 
Q 21.1875 51.21875 25.484375 53.609375 
Q 29.78125 56 35.6875 56 
Q 41.65625 56 45.828125 52.96875 
Q 50 49.953125 52 44.1875 
z
" id="DejaVuSans-109"/>
      <path d="M 2.984375 54.6875 
L 12.5 54.6875 
L 29.59375 8.796875 
L 46.6875 54.6875 
L 56.203125 54.6875 
L 35.6875 0 
L 23.484375 0 
z
" id="DejaVuSans-118"/>
     </defs>
     <g transform="translate(283.51125 109.817812)scale(0.08 -0.08)">
      <use xlink:href="#DejaVuSans-73"/>
      <use x="29.492188" xlink:href="#DejaVuSans-109"/>
      <use x="126.904297" xlink:href="#DejaVuSans-112"/>
      <use x="190.380859" xlink:href="#DejaVuSans-114"/>
      <use x="229.244141" xlink:href="#DejaVuSans-111"/>
      <use x="290.425781" xlink:href="#DejaVuSans-118"/>
      <use x="349.605469" xlink:href="#DejaVuSans-101"/>
      <use x="411.128906" xlink:href="#DejaVuSans-100"/>
      <use x="474.605469" xlink:href="#DejaVuSans-32"/>
      <use x="506.392578" xlink:href="#DejaVuSans-82"/>
      <use x="571.875" xlink:href="#DejaVuSans-45"/>
      <use x="611.583984" xlink:href="#DejaVuSans-71"/>
      <use x="689.074219" xlink:href="#DejaVuSans-67"/>
      <use x="758.898438" xlink:href="#DejaVuSans-78"/>
      <use x="833.703125" xlink:href="#DejaVuSans-44"/>
      <use x="865.490234" xlink:href="#DejaVuSans-32"/>
      <use x="897.277344" xlink:href="#DejaVuSans-65"/>
      <use x="965.685547" xlink:href="#DejaVuSans-85"/>
      <use x="1038.878906" xlink:href="#DejaVuSans-67"/>
      <use x="1108.703125" xlink:href="#DejaVuSans-58"/>
      <use x="1142.394531" xlink:href="#DejaVuSans-48"/>
      <use x="1206.017578" xlink:href="#DejaVuSans-46"/>
      <use x="1237.804688" xlink:href="#DejaVuSans-52"/>
      <use x="1301.427734" xlink:href="#DejaVuSans-50"/>
     </g>
    </g>
   </g>
  </g>
 </g>
 <defs>
  <clipPath id="p6af1a0ac52">
   <rect height="271.8" width="334.8" x="65.11625" y="26.084062"/>
  </clipPath>
 </defs>
</svg>
